<?xml version="1.0" encoding="UTF-8"?>
<svg version="1.1" xmlns="http://www.w3.org/2000/svg" width="800" height="800" viewBox="0 0 3200.000000 3200.000000">
<g transform="translate(0.000000,3200.000000) scale(0.100000,-0.100000)">
<path d="M12714 27906 c-16 -67 215 -285 425 -401 47 -26 141 -87 208 -135
175 -126 434 -261 748 -390 203 -84 243 -100 290 -116 22 -7 72 -25 110 -39
221 -81 396 -129 1015 -276 25 -6 83 -15 130 -19 77 -8 140 -17 355 -49 96
-14 222 -30 335 -42 52 -6 150 -17 217 -25 277 -33 1476 -43 1853 -15 63 5
178 14 255 20 171 14 384 28 697 46 131 7 242 17 248 20 5 3 74 10 153 15 78
5 198 15 267 24 180 22 483 47 570 46 41 0 111 5 155 10 191 24 431 44 575 46
85 2 209 8 275 14 442 39 980 51 1445 34 223 -9 416 -13 429 -11 43 8 551 -31
691 -53 36 -5 144 -19 240 -31 96 -11 194 -24 218 -30 62 -14 96 4 100 53 4
43 13 39 -193 81 -249 51 -282 57 -326 57 -26 0 -71 5 -100 10 -69 14 -250 36
-449 56 -85 8 -174 19 -198 25 -58 13 -462 28 -742 29 -238 0 -518 14 -635 31
-38 6 -149 15 -245 20 -96 5 -213 13 -260 19 -47 5 -155 9 -240 9 -85 1 -194
6 -241 11 -48 5 -178 15 -290 20 -112 6 -235 15 -274 20 -38 5 -194 14 -345
19 -151 6 -297 13 -325 16 -27 3 -147 10 -265 15 -118 5 -294 16 -390 24 -224
19 -573 38 -765 41 -179 3 -526 22 -646 35 -48 6 -120 10 -160 10 -41 0 -117
5 -169 11 -52 5 -196 12 -320 14 -124 2 -301 9 -395 15 -253 17 -563 38 -710
49 -71 6 -213 12 -315 15 -238 6 -531 22 -743 41 -92 8 -198 15 -235 15 -107
0 -431 29 -507 46 -38 8 -101 19 -140 24 -154 19 -423 82 -612 141 -121 39
-500 250 -643 359 -74 56 -116 65 -126 26z" fill="#F296A8"/>
<path d="M7994 26548 c-219 -168 -464 -483 -636 -819 -30 -58 -74 -132 -99
-165 -43 -56 -95 -132 -185 -269 -21 -33 -61 -86 -89 -119 -95 -115 -420 -572
-507 -715 -23 -36 -59 -87 -82 -112 -42 -47 -244 -324 -371 -510 -91 -132
-249 -343 -328 -438 -90 -108 -180 -225 -245 -316 -31 -44 -102 -136 -157
-205 -56 -69 -141 -174 -189 -235 -49 -60 -104 -126 -122 -145 -32 -34 -42
-47 -133 -167 -25 -32 -84 -103 -132 -158 -47 -55 -142 -165 -210 -245 -68
-80 -168 -192 -224 -250 -99 -104 -255 -282 -403 -463 -166 -202 -215 -257
-255 -289 -23 -18 -85 -71 -137 -118 -52 -47 -162 -142 -245 -210 -82 -68
-195 -165 -250 -216 -55 -50 -126 -113 -157 -140 -179 -153 -391 -345 -518
-468 -80 -78 -179 -173 -220 -211 -70 -66 -175 -186 -214 -247 -22 -33 -7 -68
28 -68 32 0 231 146 346 255 53 50 160 146 239 215 79 69 232 203 340 298 563
497 628 553 837 719 71 56 149 122 174 146 58 57 394 333 423 348 12 6 47 32
77 58 30 26 114 92 185 148 72 55 168 135 215 177 91 82 164 139 300 238 92
66 276 217 381 313 146 132 218 195 291 254 92 74 538 531 593 609 22 30 58
76 81 101 86 97 335 472 388 586 13 27 51 106 84 175 65 136 115 258 172 420
21 58 49 137 63 175 14 39 53 158 87 265 237 751 412 1172 587 1406 59 80 193
244 239 294 60 65 71 90 48 107 -25 18 -37 17 -70 -9z" fill="#F296A8"/>
<path d="M20305 24369 c-110 -4 -207 -9 -215 -12 -8 -3 -73 -11 -145 -17 -71
-5 -182 -17 -245 -25 -63 -8 -207 -26 -320 -40 -252 -32 -454 -66 -625 -105
-185 -43 -227 -53 -275 -69 -30 -11 -84 -27 -120 -36 -81 -21 -331 -92 -385
-110 -22 -7 -76 -22 -120 -35 -117 -32 -480 -152 -635 -209 -74 -27 -166 -59
-205 -71 -187 -59 -245 -98 -245 -162 0 -107 123 -119 285 -27 17 9 131 54
255 99 124 45 248 90 275 100 28 10 79 27 115 38 36 11 115 36 175 57 131 44
198 64 325 100 52 15 118 33 145 41 28 8 102 26 165 39 63 13 174 37 245 53
72 17 155 35 185 41 151 31 209 44 255 57 120 33 503 88 755 109 107 8 245 20
305 26 279 27 832 22 1095 -11 41 -5 136 -16 210 -25 74 -8 180 -23 235 -31
158 -24 216 -33 275 -39 62 -6 101 -14 420 -86 124 -28 239 -57 255 -65 17 -7
48 -18 70 -23 22 -5 54 -14 70 -19 17 -6 64 -20 105 -32 41 -12 85 -25 96 -30
45 -18 154 -41 164 -35 34 21 -4 67 -88 105 -26 12 -60 28 -77 36 -16 8 -43
18 -60 24 -16 5 -61 21 -100 36 -66 25 -243 80 -400 126 -112 32 -246 65 -357
88 -57 12 -123 27 -148 35 -25 7 -99 21 -165 30 -66 9 -161 23 -211 31 -49 8
-115 14 -146 14 -31 0 -141 6 -244 14 -218 17 -660 24 -949 15z" fill="#F296A8"/>
<path d="M28189 22133 c-8 -10 -23 -43 -33 -73 -30 -90 -75 -160 -155 -244
-189 -196 -333 -280 -711 -416 -80 -28 -174 -63 -210 -77 -139 -54 -251 -91
-405 -132 -223 -61 -258 -69 -399 -92 -65 -11 -122 -21 -125 -23 -6 -4 -74
-18 -346 -72 -44 -8 -107 -22 -140 -30 -79 -18 -243 -48 -380 -68 -191 -29
-348 -56 -415 -72 -36 -8 -102 -19 -148 -24 -45 -5 -86 -11 -90 -14 -5 -3 -61
-12 -126 -20 -64 -9 -120 -18 -124 -20 -4 -2 -73 -12 -152 -21 -80 -9 -185
-22 -235 -30 -49 -7 -157 -23 -240 -35 -82 -12 -193 -30 -245 -40 -101 -20
-218 -39 -390 -65 -58 -8 -161 -24 -230 -35 -69 -11 -132 -19 -140 -18 -18 3
-168 -18 -265 -37 -38 -8 -97 -17 -130 -21 -33 -3 -87 -12 -120 -20 -33 -8
-78 -14 -101 -14 -22 0 -60 -7 -85 -15 -39 -12 -94 -22 -339 -55 -36 -5 -126
-19 -200 -30 -74 -12 -169 -25 -211 -30 -42 -5 -100 -15 -129 -24 -30 -9 -66
-16 -82 -16 -15 0 -45 -6 -65 -14 -93 -35 -138 -25 -63 14 49 25 67 58 51 89
-15 28 -45 27 -179 -3 -105 -24 -148 -38 -287 -90 -38 -15 -104 -38 -145 -51
-294 -93 -780 -282 -990 -383 -296 -143 -480 -247 -735 -415 -104 -69 -235
-153 -289 -188 -55 -35 -208 -137 -340 -227 -133 -89 -271 -183 -308 -207
-101 -68 -125 -122 -76 -174 33 -36 234 -27 403 18 154 41 373 91 401 91 12 0
57 9 100 20 46 11 82 16 88 10 13 -13 -170 -379 -251 -501 -72 -107 -127 -174
-522 -628 -98 -114 -121 -147 -121 -181 0 -88 90 -64 290 75 25 17 95 60 155
95 116 67 223 138 368 245 48 36 127 88 175 116 48 29 110 67 137 84 28 18 65
41 84 51 39 22 55 32 94 58 26 18 33 18 78 7 28 -7 53 -11 56 -8 12 13 -11 27
-43 27 -37 0 -47 19 -14 27 11 3 20 9 20 14 0 5 19 19 41 31 65 36 78 44 96
60 10 9 47 36 83 60 36 25 85 59 110 77 66 46 183 124 205 138 36 21 202 103
210 103 4 0 19 8 33 18 25 17 197 94 282 127 130 50 403 115 605 144 39 5 117
17 175 25 58 8 140 20 182 26 55 8 88 8 117 0 92 -24 44 -54 -84 -52 -105 2
-170 -10 -122 -23 16 -4 58 -5 93 -2 35 2 64 1 64 -4 0 -5 -5 -9 -10 -9 -16 0
-50 -62 -50 -92 0 -35 59 -39 118 -9 119 60 105 61 172 -7 33 -34 63 -62 66
-62 4 0 29 -17 57 -37 58 -43 79 -56 122 -77 37 -18 128 -97 333 -291 268
-254 502 -398 502 -311 0 18 -16 39 -57 73 -81 67 -253 234 -265 257 -14 26
11 19 132 -34 240 -105 298 -137 499 -277 95 -65 105 -80 64 -88 -15 -3 -56
-13 -90 -21 -34 -8 -74 -14 -88 -14 -14 0 -105 -16 -203 -36 -97 -20 -206 -42
-242 -49 -166 -32 -199 -39 -260 -56 -36 -10 -81 -21 -100 -24 -122 -23 -468
-102 -635 -146 -22 -6 -65 -15 -95 -20 -77 -14 -102 -32 -98 -72 3 -32 3 -32
72 -35 38 -2 96 4 130 12 33 8 95 17 136 21 79 6 279 36 416 61 44 8 118 19
165 24 77 8 216 33 329 58 25 6 81 18 125 27 44 9 91 21 105 27 14 5 54 16 90
23 36 7 148 32 250 55 155 35 190 40 216 31 46 -17 61 -14 83 18 16 22 32 30
67 36 25 3 64 13 86 21 22 8 56 14 76 14 19 0 58 7 86 15 28 8 114 31 191 50
77 19 196 51 265 70 130 36 165 42 155 25 -6 -10 -236 -87 -360 -121 -155 -43
-222 -61 -271 -73 -28 -7 -60 -18 -71 -24 -11 -6 -42 -16 -69 -22 -27 -5 -65
-14 -84 -19 -171 -47 -457 -99 -590 -107 -135 -8 -170 -21 -170 -64 0 -44 24
-51 174 -51 191 0 381 20 626 66 199 38 225 44 340 80 94 30 149 49 365 125
33 12 87 34 120 49 54 25 190 76 435 163 153 55 214 79 315 129 113 55 145 63
96 21 -53 -44 -41 -66 39 -72 65 -5 65 -5 30 -27 -98 -61 -653 -322 -740 -348
-47 -14 -70 -36 -70 -66 0 -57 56 -60 256 -13 91 21 139 36 333 105 30 10 62
19 73 19 29 0 21 -17 -11 -23 -31 -7 -42 -27 -46 -92 -6 -86 -31 -125 -83
-125 -25 0 -53 -6 -61 -13 -25 -21 -101 -51 -108 -43 -4 4 16 29 45 56 68 63
70 95 5 94 -34 0 -59 -13 -140 -67 -54 -36 -143 -89 -198 -117 -55 -29 -106
-57 -113 -63 -7 -5 -14 -8 -15 -6 -7 11 -30 81 -43 129 -27 101 -54 142 -68
104 -4 -11 -13 -14 -31 -10 -13 3 -41 0 -62 -8 -61 -23 -99 -26 -119 -11 -29
22 -39 19 -84 -25 -46 -44 -71 -50 -91 -21 -22 30 -55 35 -76 12 -10 -12 -31
-22 -48 -22 -17 -1 -22 -3 -12 -6 9 -2 17 -8 17 -13 0 -16 -45 -19 -67 -5 -29
19 -34 9 -58 -101 -10 -45 -21 -87 -25 -94 -7 -12 -60 -15 -482 -24 -206 -5
-218 -7 -218 -33 0 -45 -23 -93 -42 -87 -12 3 -24 0 -31 -9 -9 -11 -58 -19
-182 -31 -93 -8 -206 -20 -250 -26 -178 -24 -178 -24 -197 70 -15 74 -31 106
-48 95 -3 -2 -123 -7 -266 -10 -343 -8 -374 -11 -374 -39 0 -11 -12 -55 -25
-96 -14 -41 -25 -84 -25 -96 0 -33 -10 -54 -26 -54 -8 0 -14 7 -14 15 0 21
-98 21 -106 0 -5 -12 -34 -14 -160 -14 -115 0 -162 -4 -190 -16 -20 -8 -53
-15 -73 -14 -20 0 -47 -2 -61 -6 -27 -7 -27 -8 -75 167 -17 63 -27 75 -45 53
-16 -19 -92 -20 -129 -1 -24 13 -32 13 -54 1 -22 -11 -117 -22 -217 -25 -14 0
-44 -8 -68 -16 -28 -10 -47 -13 -55 -6 -7 5 -29 12 -49 15 -42 6 -39 10 -68
-118 -7 -27 -16 -63 -22 -80 -5 -16 -12 -40 -15 -51 -4 -19 -12 -22 -61 -23
-32 0 -113 -5 -182 -11 -69 -6 -181 -15 -250 -19 -69 -5 -133 -10 -144 -12
-20 -4 -31 28 -56 168 -16 89 -25 105 -45 79 -10 -14 -18 -16 -27 -9 -8 6 -21
7 -33 2 -11 -4 -42 -8 -69 -8 -34 -1 -53 -6 -62 -18 -11 -16 -34 -18 -197 -19
-224 -1 -263 -21 -266 -134 -2 -65 -35 -141 -59 -135 -13 3 -30 1 -38 -6 -9
-7 -32 -10 -61 -6 -26 3 -58 0 -72 -6 -15 -6 -61 -14 -103 -19 -169 -18 -238
-23 -238 -18 0 4 -16 4 -35 2 -19 -2 -35 -8 -35 -13 0 -5 -8 -9 -18 -9 -12 0
-22 17 -36 63 -10 34 -24 82 -32 107 -7 25 -16 57 -19 73 -7 34 -31 35 -39 2
-4 -14 -11 -25 -16 -25 -5 0 -7 -6 -5 -12 5 -12 -94 -18 -305 -18 -25 0 -64
-7 -88 -16 -40 -15 -45 -15 -61 0 -22 20 -45 20 -61 1 -9 -11 -22 -14 -41 -10
-31 7 -30 10 -48 -95 -22 -129 -27 -134 -111 -142 -41 -4 -194 -11 -340 -15
-265 -8 -265 -8 -288 -80 -23 -71 -23 -71 -80 -76 -31 -3 -76 -9 -99 -15 -24
-5 -43 -6 -43 -1 0 10 -32 0 -40 -13 -3 -4 -39 -12 -80 -18 -41 -6 -77 -15
-80 -20 -3 -5 -36 -14 -72 -19 -36 -5 -74 -13 -84 -19 -78 -40 -104 -22 -124
86 -5 30 -13 58 -16 63 -3 6 -6 26 -6 45 0 26 -4 34 -18 34 -19 0 -43 -23 -34
-33 4 -3 -5 -12 -20 -18 -14 -7 -26 -16 -26 -21 0 -4 -11 -8 -25 -8 -18 0 -23
4 -19 15 4 10 0 15 -10 15 -9 0 -19 -7 -22 -15 -4 -8 -12 -15 -20 -15 -7 0
-18 -9 -24 -20 -13 -25 -36 -26 -49 -3 -9 16 -13 16 -63 -5 -29 -12 -72 -22
-94 -22 -22 0 -49 -7 -60 -15 -10 -8 -29 -15 -41 -15 -12 0 -31 -10 -43 -22
-12 -13 -33 -22 -53 -22 -20 -1 -31 -6 -29 -14 1 -7 -4 -25 -12 -40 -7 -15
-17 -47 -20 -72 -20 -135 -36 -174 -67 -165 -10 4 -39 -3 -64 -14 -24 -11 -58
-19 -74 -19 -16 1 -41 -9 -56 -21 -15 -11 -40 -21 -54 -21 -15 0 -42 -11 -61
-25 -19 -14 -44 -25 -56 -25 -13 0 -25 -4 -28 -9 -5 -7 -53 -16 -192 -37 -39
-6 -49 6 -68 78 -26 102 -35 111 -71 72 -14 -15 -25 -22 -25 -15 0 20 -58 13
-70 -9 -6 -11 -21 -20 -34 -20 -13 0 -31 -9 -41 -20 -10 -11 -28 -20 -41 -20
-13 0 -33 -10 -44 -22 -30 -32 22 -53 157 -61 151 -10 181 -28 130 -75 -24
-23 -57 -29 -57 -11 0 6 -10 9 -22 7 -13 -2 -23 -10 -23 -18 0 -8 -14 -20 -31
-25 -17 -6 -37 -15 -45 -21 -25 -21 -118 -64 -136 -64 -10 0 -24 -9 -31 -20
-7 -11 -23 -20 -37 -20 -13 0 -36 -11 -49 -25 -19 -19 -30 -23 -43 -17 -26 14
-42 5 -100 -51 -36 -34 -54 -46 -56 -36 -2 8 -12 37 -21 64 -9 28 -16 58 -16
68 0 32 -32 117 -44 117 -7 0 -22 -14 -35 -31 -19 -25 -130 -89 -156 -89 -4 0
-19 -8 -33 -19 -15 -10 -38 -22 -51 -26 -13 -4 -35 -20 -49 -36 -13 -16 -28
-29 -34 -29 -5 0 -17 -9 -26 -21 -11 -12 -32 -21 -56 -24 -29 -2 -49 -13 -81
-45 -36 -35 -48 -42 -74 -38 -37 5 -45 -12 -63 -136 -12 -83 -12 -83 -172
-100 -203 -22 -242 -33 -238 -64 2 -14 -3 -25 -15 -29 -10 -4 -24 -15 -31 -25
-7 -10 -26 -18 -41 -18 -16 0 -31 -7 -35 -15 -3 -8 -15 -15 -27 -15 -24 0 -89
-37 -89 -50 0 -5 -8 -17 -18 -27 -21 -21 -34 -72 -62 -243 -26 -156 -24 -149
-36 -158 -19 -17 -94 -31 -269 -51 -99 -12 -205 -28 -235 -37 -30 -9 -67 -17
-82 -17 -39 -3 -44 -14 -78 -192 -24 -121 -48 -185 -69 -185 -9 0 -33 -11 -53
-25 -20 -13 -78 -45 -129 -70 -52 -26 -101 -50 -109 -55 -8 -5 -43 -23 -78
-40 -35 -17 -60 -34 -57 -39 7 -12 -11 -17 -95 -31 -94 -14 -110 -13 -110 8 0
32 -41 152 -58 169 -13 13 -30 14 -91 9 -40 -3 -97 -6 -124 -6 -93 0 -38 -13
80 -19 98 -5 118 -9 121 -22 5 -25 -32 -29 -410 -39 -445 -12 -793 8 -963 55
-27 8 -88 21 -135 31 -47 9 -112 23 -145 31 -33 8 -78 19 -100 24 -56 11 -189
61 -145 54 357 -58 635 -60 985 -5 72 11 166 25 210 31 172 24 588 137 765
207 41 16 116 42 165 57 50 15 108 33 130 40 63 21 171 52 279 80 55 14 104
29 110 34 15 11 246 86 346 111 59 15 70 26 70 64 0 59 -32 68 -145 42 -33 -8
-132 -30 -219 -49 -88 -20 -171 -40 -185 -46 -14 -5 -66 -22 -116 -36 -83 -25
-418 -133 -527 -171 -26 -8 -55 -14 -65 -12 -11 3 1 10 32 20 203 66 580 202
655 235 19 8 58 19 85 23 176 28 335 89 429 165 66 54 63 54 58 9 -4 -35 -4
-35 29 -32 29 3 41 14 92 83 73 102 170 276 185 335 61 231 57 404 -17 650
-16 52 -34 114 -40 137 -9 31 -20 47 -41 58 -43 22 -55 19 -110 -30 -135 -120
-336 -168 -496 -120 -27 8 -76 18 -109 21 -64 8 -152 42 -174 67 -33 41 89
204 175 234 134 46 190 63 214 63 43 0 501 80 524 91 130 68 95 120 -124 184
-25 7 -56 17 -70 23 -14 5 -70 20 -125 32 -55 12 -125 28 -155 35 -30 8 -84
16 -120 20 -36 4 -137 18 -225 31 -88 13 -209 31 -270 40 -60 8 -146 22 -190
30 -44 9 -109 20 -145 25 -36 4 -99 13 -140 19 -243 33 -726 48 -795 24 -57
-20 -365 -19 -404 0 -25 14 -85 21 -351 47 -116 11 -660 3 -780 -11 -375 -45
-475 -64 -657 -125 -92 -31 -292 -128 -331 -159 -15 -13 -38 -29 -52 -36 -82
-43 -464 -311 -665 -467 -115 -90 -278 -182 -395 -223 -83 -30 -102 -46 -98
-84 6 -60 213 -31 392 54 46 22 106 44 133 49 26 6 64 17 84 25 49 21 50 17
19 -73 -38 -108 -93 -210 -149 -275 -25 -30 -89 -105 -141 -166 -52 -62 -114
-135 -137 -162 -83 -95 -32 -148 89 -94 30 14 75 30 99 36 24 7 90 40 147 73
56 34 128 77 160 96 31 19 137 95 236 169 200 150 320 228 446 289 133 64 161
75 225 90 141 33 162 35 232 23 37 -6 106 -17 153 -25 169 -27 311 -101 402
-210 13 -14 47 -50 77 -78 30 -29 68 -65 84 -82 29 -28 146 -183 232 -307 423
-601 669 -824 980 -888 181 -37 172 -32 132 -63 -25 -19 -37 -36 -39 -59 -3
-32 -3 -32 -123 -49 -176 -26 -409 -37 -403 -18 2 8 40 24 84 35 146 40 188
58 199 88 11 32 -7 49 -43 41 -133 -31 -548 -58 -710 -45 -73 6 -176 10 -230
9 -107 -2 -178 22 -302 99 -79 50 -296 232 -455 381 -68 64 -89 75 -110 55
-20 -21 -14 -54 21 -107 33 -50 26 -63 -34 -69 -211 -20 -365 -267 -287 -460
104 -258 364 -351 817 -294 62 8 142 18 177 21 35 4 78 13 96 21 27 11 36 11
61 -2 16 -9 65 -27 109 -40 44 -14 100 -31 125 -39 40 -12 211 -51 390 -90 36
-7 97 -16 137 -19 39 -3 84 -11 100 -17 15 -6 95 -17 178 -24 82 -8 182 -17
222 -21 82 -8 500 19 639 42 50 7 105 14 122 14 28 0 102 -25 102 -35 0 -22
-28 -55 -50 -60 -16 -3 -57 -22 -92 -40 -34 -19 -73 -35 -85 -35 -13 0 -23 -4
-23 -10 0 -11 -118 -70 -141 -70 -9 0 -19 -7 -22 -14 -3 -8 -22 -18 -41 -22
-20 -3 -36 -10 -36 -15 0 -5 -8 -12 -17 -16 -10 -3 -25 -12 -33 -19 -19 -15
-110 -64 -121 -64 -11 0 -25 52 -40 140 -16 97 -24 114 -38 78 -6 -17 -18 -28
-30 -28 -10 0 -24 -6 -30 -14 -7 -8 -26 -17 -42 -20 -96 -19 -91 -17 -86 -43
5 -27 -21 -43 -73 -43 -28 0 -126 -74 -140 -105 -3 -6 -26 -30 -52 -53 -34
-32 -48 -53 -53 -82 -4 -26 -13 -40 -26 -43 -13 -3 -19 -14 -19 -31 0 -19 -7
-30 -28 -38 -27 -11 -27 -11 13 -18 22 -4 51 -12 65 -17 14 -6 57 -14 97 -18
80 -8 113 -28 71 -44 -13 -5 -36 -31 -51 -60 -16 -28 -32 -51 -38 -51 -5 0 -9
-13 -9 -29 0 -20 -8 -34 -25 -45 -17 -11 -25 -26 -25 -45 0 -16 -12 -50 -27
-77 -28 -50 -60 -142 -70 -202 -3 -18 -9 -34 -13 -37 -5 -3 -6 -21 -3 -40 5
-31 3 -35 -21 -41 -39 -9 -38 -12 -53 199 -15 230 -25 302 -38 301 -5 0 -12
-13 -15 -29 -3 -15 -11 -30 -19 -33 -11 -4 -12 3 -7 29 3 19 2 48 -3 64 -13
48 -24 -5 -18 -92 6 -75 -3 -109 -20 -78 -6 10 -13 14 -16 9 -4 -8 -12 -345
-8 -381 1 -7 26 -15 61 -19 33 -4 63 -10 65 -14 3 -5 6 -163 8 -352 2 -343 2
-343 -42 -348 -54 -6 -60 -18 -54 -115 6 -95 12 -123 23 -105 14 23 19 -2 22
-117 2 -82 6 -105 20 -115 11 -8 19 -31 21 -63 3 -27 4 9 3 80 0 124 9 324 20
393 5 36 18 39 71 20 29 -11 33 -16 33 -48 0 -19 12 -62 25 -95 14 -33 25 -68
25 -78 0 -10 12 -41 26 -69 16 -32 23 -59 20 -74 -4 -16 1 -31 18 -49 26 -28
40 -65 25 -65 -6 0 -5 -8 1 -20 6 -11 18 -20 26 -20 13 0 15 -8 11 -40 -4 -36
-1 -42 24 -57 50 -30 33 -42 -105 -73 -97 -23 -122 -53 -77 -94 11 -10 23 -30
26 -46 3 -15 20 -40 37 -56 31 -29 88 -138 88 -168 0 -9 4 -16 10 -16 17 0 59
-54 66 -84 4 -19 27 -50 60 -80 30 -27 54 -55 54 -62 0 -7 9 -18 20 -24 15 -8
19 -17 15 -31 -4 -12 -2 -19 7 -20 49 -5 70 -8 128 -17 85 -13 74 -25 97 116
6 35 22 38 38 6 27 -51 75 -90 89 -71 15 20 26 22 26 4 0 -23 -51 -69 -64 -58
-9 7 -23 7 -47 -1 -19 -6 -40 -13 -47 -14 -14 -4 -7 -99 9 -119 4 -6 1 -37 -6
-70 -33 -139 60 -212 152 -120 33 33 46 37 49 14 1 -5 2 -13 3 -19 0 -5 13
-10 29 -10 16 0 32 -8 39 -19 8 -13 19 -18 34 -14 13 4 26 0 33 -8 6 -8 36
-21 67 -27 30 -7 63 -21 72 -32 9 -11 28 -20 41 -20 13 0 27 -7 30 -16 4 -11
14 -15 31 -11 18 3 29 -1 36 -14 13 -26 53 -26 45 -1 -4 10 2 39 13 63 10 24
25 70 32 103 13 61 33 81 54 53 8 -11 26 -17 51 -17 22 0 49 -7 61 -15 12 -9
42 -14 74 -14 30 0 122 -2 204 -6 177 -7 163 -7 196 0 24 6 27 3 38 -42 42
-161 56 -198 80 -201 19 -3 22 0 16 17 -8 26 19 30 29 5 7 -18 185 -12 196 6
5 7 30 12 153 26 26 3 47 10 47 15 0 5 7 9 15 9 8 0 15 5 15 11 0 14 98 3 117
-13 23 -19 24 -15 57 164 20 104 38 138 75 138 16 0 42 6 58 14 34 17 278 97
290 95 20 -3 54 15 49 27 -3 7 2 12 12 12 9 -1 35 4 57 10 22 6 68 11 101 11
62 0 62 0 79 -97 21 -126 24 -132 38 -108 24 41 55 65 75 59 11 -2 41 7 68 21
27 14 54 26 60 26 6 0 17 7 24 16 17 19 56 41 46 25 -11 -17 21 -13 61 9 21
11 52 20 70 20 27 0 50 19 26 21 -68 5 -120 11 -173 19 -36 6 -99 12 -140 15
-94 7 -130 12 -138 20 -12 12 15 40 40 41 41 2 80 14 106 35 14 10 33 19 43
19 10 0 22 6 26 13 4 8 30 17 57 21 27 3 57 13 66 21 22 20 197 105 216 105 9
0 23 9 32 20 51 62 83 25 123 -144 15 -62 33 -81 42 -46 4 15 13 20 36 20 20
0 34 7 41 20 7 13 21 20 40 20 19 0 33 7 40 20 7 13 21 20 40 20 19 0 33 7 40
20 7 13 21 20 38 20 20 0 35 9 50 30 13 17 31 30 41 30 10 0 30 9 44 20 14 11
32 20 40 20 8 0 25 8 38 18 57 41 72 46 86 26 23 -31 48 27 68 156 3 25 13 66
21 91 19 58 33 62 359 85 250 18 249 17 242 46 -6 21 14 35 33 23 8 -5 8 -11
0 -20 -7 -9 -6 -16 5 -25 16 -13 16 -12 21 30 1 14 9 59 18 100 9 41 21 100
27 130 17 83 45 122 81 112 10 -2 18 1 18 7 0 11 110 71 130 71 6 0 24 10 40
21 18 14 37 20 50 16 16 -4 24 -1 27 14 7 25 19 24 26 -2 10 -38 24 -11 30 57
13 138 43 101 34 -41 -25 -370 -24 -368 -157 -490 -108 -99 -125 -126 -98
-153 33 -33 147 29 184 100 20 39 32 26 36 -37 3 -48 4 -50 35 -53 43 -4 59
22 77 126 8 46 23 96 33 111 20 33 139 141 153 141 25 0 388 349 407 390 16
34 283 303 292 294 7 -6 46 -185 50 -227 1 -5 6 -5 12 -1 6 3 9 15 6 25 -6 22
9 34 43 34 15 0 25 6 25 15 0 11 13 15 50 15 60 1 75 8 68 35 -6 22 32 31 39
9 5 -16 36 0 44 23 5 17 12 19 47 14 33 -6 44 -3 64 16 20 19 27 20 44 10 23
-15 69 -5 69 14 0 8 7 14 15 14 9 0 32 16 52 35 20 19 38 33 41 31 6 -6 -85
-113 -175 -206 -40 -41 -92 -103 -115 -137 -24 -35 -94 -122 -156 -194 -115
-133 -129 -161 -81 -167 20 -2 58 28 208 170 101 95 200 186 220 201 20 15
108 101 196 191 142 145 220 220 456 441 64 61 64 61 134 60 70 0 70 0 96 -94
29 -107 41 -118 66 -67 10 23 24 36 36 36 10 0 28 5 40 11 16 9 22 9 25 0 2
-6 24 -11 48 -11 29 0 43 4 39 10 -10 15 14 40 37 40 17 0 18 -2 8 -15 -19
-23 -5 -30 38 -19 28 7 37 14 35 29 -3 34 53 49 77 20 10 -12 15 -12 36 1 17
12 43 15 101 13 73 -4 78 -2 81 17 3 20 -2 21 -115 27 -65 3 -190 11 -278 17
-88 6 -180 11 -205 13 -41 2 -45 4 -48 30 -3 25 -1 27 35 27 21 0 56 5 78 11
74 20 200 50 240 58 22 4 54 15 70 24 17 8 62 21 100 27 39 6 82 14 96 16 21
4 28 0 37 -23 9 -22 32 -132 32 -150 0 -8 326 11 337 20 9 6 23 5 43 -3 26
-11 33 -10 49 4 10 9 25 14 35 10 11 -4 22 0 31 12 12 16 11 20 -3 25 -14 5
23 8 135 11 48 1 44 -6 68 123 28 150 36 159 160 157 22 0 44 6 50 13 6 9 41
16 99 20 59 3 93 10 100 19 12 15 53 25 128 31 25 2 56 8 67 14 49 27 88 14
99 -31 6 -24 16 -63 22 -88 7 -25 15 -63 18 -85 11 -65 87 -52 191 33 29 24
41 29 41 18 0 -23 20 -30 33 -12 8 11 33 18 76 21 37 2 71 11 81 20 10 9 36
15 66 15 71 0 96 9 89 30 -7 22 19 34 35 15 8 -10 7 -16 -5 -22 -15 -9 -15
-11 0 -23 21 -17 35 -3 45 47 20 99 62 239 75 249 8 6 89 14 187 18 95 4 215
9 266 12 50 3 92 3 92 0 0 -4 -49 -62 -109 -130 -111 -126 -135 -159 -124
-170 10 -9 51 -7 58 3 15 26 286 271 298 271 9 0 17 -14 21 -36 8 -42 27 -52
58 -30 12 9 18 17 13 17 -18 3 98 19 193 28 153 13 119 24 -113 37 -141 7
-150 12 -103 56 133 127 189 170 215 163 22 -5 25 -3 21 13 -5 19 12 25 27 10
4 -3 30 0 58 8 29 8 66 14 83 14 18 0 34 6 37 14 3 8 21 17 39 21 18 4 36 12
39 18 4 5 19 10 34 10 19 0 29 6 32 18 3 11 9 19 13 19 10 0 40 -86 40 -113 0
-11 8 -44 17 -73 18 -58 49 -69 90 -32 10 9 36 18 58 22 85 12 115 18 115 26
0 4 27 13 60 20 33 7 60 17 60 21 0 5 6 9 13 9 28 0 171 51 181 65 6 8 29 18
51 23 39 8 40 9 57 72 9 36 17 74 17 86 2 56 32 126 52 121 13 -3 24 2 32 14
7 12 23 19 43 19 17 0 43 9 57 20 14 11 33 20 44 20 10 0 38 6 63 14 26 8 124
17 231 21 185 7 185 7 198 -48 14 -65 36 -91 55 -65 8 10 21 15 32 12 12 -3
27 3 38 15 13 14 31 21 56 21 21 0 43 7 50 15 8 10 31 15 66 15 29 0 55 4 58
9 7 11 -20 22 -38 15 -8 -3 -68 2 -134 10 -66 9 -135 16 -153 16 -32 0 -32 0
-26 51 7 57 20 79 48 79 11 0 29 6 40 13 17 10 23 10 26 0 7 -18 34 -16 48 3
7 10 32 19 63 22 29 2 52 8 52 12 0 5 23 13 50 19 28 6 64 18 80 26 16 8 43
15 60 15 17 0 41 6 53 14 67 43 103 24 56 -29 -90 -103 -101 -134 -64 -175 27
-30 55 -25 115 20 29 22 64 40 77 40 20 0 23 -5 23 -40 0 -33 3 -40 20 -40 17
0 20 7 20 40 0 41 14 52 37 29 9 -9 21 -6 48 11 27 17 45 21 72 17 66 -11 151
3 157 26 3 14 10 18 23 12 43 -18 63 -17 80 3 15 17 32 22 97 24 90 3 98 11
117 127 21 131 59 195 96 161 4 -5 33 4 63 18 38 18 71 25 107 25 33 0 54 4
57 12 3 8 34 16 76 20 50 5 78 13 91 26 12 12 33 19 60 19 29 0 46 6 57 21 10
11 24 21 34 22 9 2 23 9 31 15 17 15 17 14 36 -73 38 -176 50 -205 66 -156 5
17 15 21 55 21 40 0 49 3 53 21 5 17 11 20 35 15 20 -5 33 -2 42 9 7 9 28 15
51 15 27 0 45 6 56 20 10 11 28 20 40 20 13 0 31 9 40 20 10 11 28 20 41 20
13 0 35 9 49 20 14 11 33 20 41 20 29 0 82 24 82 37 0 7 -6 10 -13 7 -7 -2
-29 2 -49 10 -20 9 -87 20 -150 26 -198 20 -233 25 -232 35 0 6 21 13 45 16
24 4 64 15 89 24 25 9 56 19 70 22 14 3 39 11 57 19 17 8 35 14 40 14 5 0 19
11 31 25 12 14 29 25 37 25 15 0 64 30 94 58 21 20 47 -52 66 -181 6 -39 6
-39 58 -32 109 13 120 18 95 43 -13 13 -1 19 47 24 20 2 30 8 29 19 -1 11 5
14 22 11 17 -3 31 5 51 26 15 17 55 44 88 60 33 17 68 39 78 50 10 11 33 26
50 33 18 8 43 26 56 42 18 21 30 27 47 23 32 -8 34 -2 69 174 31 154 31 154
191 176 87 12 177 26 198 32 22 6 43 9 47 6 16 -9 68 26 71 48 2 18 10 24 38
26 46 5 82 37 74 69 -7 24 12 57 27 47 5 -3 9 -16 9 -30 0 -13 5 -24 10 -24 6
0 10 12 10 28 0 15 4 43 10 62 5 19 15 73 20 120 9 69 39 227 56 288 2 6 16
12 31 12 15 0 63 7 106 15 43 8 97 15 119 15 114 0 248 57 248 106 0 13 8 29
19 36 10 7 18 15 17 18 -4 19 58 79 71 68 15 -12 32 2 33 27 0 6 10 91 21 190
11 99 21 189 22 200 4 35 15 42 94 54 43 6 110 16 148 22 131 20 140 24 142
65 1 20 9 44 17 53 9 10 16 25 16 34 0 9 15 34 34 54 38 43 96 156 96 188 0
11 9 29 21 38 14 13 19 25 15 42 -4 14 0 27 10 36 25 20 36 59 23 75 -9 11 -8
18 2 30 12 14 14 14 26 -2 12 -17 13 -16 13 5 0 55 -24 69 -160 91 -81 13 -92
21 -80 54 25 68 30 106 30 229 0 87 -4 146 -12 163 -10 22 -10 28 0 32 14 4
17 42 3 42 -9 0 -26 66 -22 88 1 8 -7 16 -18 19 -58 15 -10 44 144 88 111 31
143 51 84 53 -37 1 -65 20 -49 36 16 16 12 41 -9 60 -11 10 -23 31 -26 47 -4
17 -18 40 -32 54 -21 18 -25 29 -20 53 7 35 -1 46 -20 30 -21 -17 -28 -1 -11
25 9 12 50 63 93 112 96 112 107 128 99 149 -11 29 -39 17 -130 -55 -118 -95
-162 -122 -182 -114 -12 5 -13 9 -4 12 18 7 14 24 -5 21 -13 -2 -20 7 -28 37
-12 48 -37 71 -87 79 -39 6 -46 14 -28 32 17 17 -14 36 -44 28 -14 -3 -26 -10
-26 -15 0 -5 -4 -9 -9 -9 -5 0 -7 10 -4 23 13 51 40 77 457 432 32 27 84 70
115 93 115 89 137 127 90 153 -18 9 -26 7 -48 -10 -14 -11 -71 -50 -126 -87
-121 -80 -356 -252 -480 -350 -100 -79 -125 -94 -153 -94 -10 0 -27 -9 -37
-20 -10 -11 -23 -20 -29 -20 -7 0 -19 9 -29 20 -9 11 -24 20 -32 20 -8 0 -15
6 -15 14 0 24 -26 38 -40 21 -16 -19 -37 -19 -48 1 -6 10 -29 17 -72 20 -35 3
-70 9 -79 13 -9 5 -23 6 -31 3 -47 -17 90 119 290 286 74 62 167 140 205 173
39 34 87 72 109 86 97 62 451 372 461 403 8 26 -1 40 -28 40 -30 0 -518 -332
-604 -412 -16 -13 -46 -35 -68 -48 -22 -13 -123 -85 -225 -160 -102 -75 -234
-170 -293 -210 -60 -40 -116 -84 -124 -97 -15 -22 -174 -143 -260 -196 -38
-24 -53 -27 -180 -32 -76 -3 -162 -7 -192 -9 -57 -2 -81 -20 -81 -60 -1 -69
-47 -160 -76 -149 -7 2 -22 -5 -33 -16 -14 -14 -34 -21 -60 -21 -22 0 -43 -5
-46 -10 -8 -13 -360 -190 -377 -190 -7 0 -27 -14 -45 -32 -32 -31 -32 -31 -42
-4 -18 47 -41 156 -41 196 0 75 -36 93 -98 48 -64 -47 -151 -115 -264 -205
-111 -89 -140 -105 -153 -83 -13 21 -105 -37 -105 -67 0 -15 -16 -17 -25 -3
-18 30 -50 -41 -39 -86 8 -32 -3 -35 -138 -41 -68 -2 -130 -9 -140 -14 -9 -5
-26 -9 -38 -9 -13 0 -24 -8 -27 -20 -4 -13 -14 -20 -29 -20 -14 0 -27 -7 -30
-15 -4 -8 -24 -18 -45 -21 -22 -4 -39 -12 -39 -19 0 -8 -18 -16 -40 -20 -22
-4 -40 -12 -40 -20 0 -7 -14 -15 -31 -19 -73 -14 -64 -2 41 52 41 21 86 45 99
53 26 15 33 19 249 167 78 53 163 108 190 122 50 28 173 121 287 220 39 33
115 97 170 142 314 255 775 726 854 871 49 90 28 142 -39 100 -61 -38 -188
-140 -259 -207 -75 -72 -76 -65 -4 37 19 27 38 58 42 70 15 38 164 243 230
318 147 163 494 368 625 369 11 0 44 7 71 15 73 23 228 3 315 -41 260 -129 2
-605 -445 -823 -180 -88 -425 -165 -610 -192 -81 -12 -123 -64 -80 -99 40 -33
367 10 565 74 311 102 512 236 655 436 258 362 253 627 -15 769 -136 73 -326
73 -550 1 -76 -24 -307 -139 -356 -177 -38 -29 -50 -10 -14 22 11 10 20 22 20
26 0 5 14 31 30 59 35 60 39 90 10 90 -16 0 -98 -61 -108 -80 -11 -23 -135
-180 -142 -180 -5 0 -6 47 -3 104 7 116 -3 148 -54 167 -45 17 -82 -6 -171
-107 -201 -226 -591 -393 -771 -329 -48 17 -151 94 -151 113 0 37 31 70 92 96
35 15 79 35 98 43 61 28 243 133 310 181 36 25 85 59 110 75 25 17 65 49 90
73 31 30 78 58 150 89 151 66 407 201 465 245 28 21 88 60 135 88 77 45 205
138 465 336 50 37 95 73 100 80 6 6 42 38 80 71 359 307 475 472 475 675 0 59
-50 91 -81 53z m121 -3358 c0 -14 -147 -145 -164 -145 -4 0 -5 11 -2 24 6 25
-19 46 -27 23 -3 -9 -9 -9 -28 0 -37 18 -99 27 -244 36 -62 4 -81 9 -83 21 -3
13 7 16 50 15 78 0 479 28 485 35 10 9 13 7 13 -9z m130 -169 c0 -8 -4 -18
-10 -21 -5 -3 -10 -15 -10 -26 0 -20 -16 -24 -39 -10 -11 7 -10 14 8 40 23 32
51 41 51 17z m-2576 -568 c11 -10 3 -19 -42 -46 -98 -59 -121 -51 -47 17 47
43 67 49 89 29z m-12976 -2849 c28 1 25 -22 -4 -28 -10 -1 -26 -9 -35 -17 -20
-18 -29 -9 -29 29 0 26 3 28 23 22 12 -4 32 -6 45 -6z m-5063 -627 c28 -10
102 -54 165 -98 149 -103 201 -135 335 -206 61 -31 108 -58 105 -58 -7 0 -217
75 -280 101 -109 44 -194 16 -133 -44 26 -26 164 -112 196 -123 66 -22 27 -29
-182 -32 -232 -3 -273 3 -374 55 -122 61 -182 213 -125 314 49 88 184 129 293
91z m9481 -2276 c-24 -32 -124 -142 -202 -223 -35 -36 -59 -43 -51 -15 3 9 10
40 17 67 31 129 28 122 63 128 80 12 142 34 166 58 36 36 40 27 7 -15z m-1257
-438 c-40 -57 -149 -166 -179 -178 -23 -10 -39 -9 -83 4 -30 9 -65 16 -76 16
-23 0 -28 14 -8 27 22 14 81 33 105 33 16 0 26 7 29 21 5 17 12 20 50 18 24
-2 47 1 51 7 8 11 52 40 67 44 6 1 21 11 34 21 34 27 36 24 10 -13z m-419
-260 c4 -35 13 -73 20 -84 15 -25 -3 -66 -63 -136 -46 -54 -61 -60 -54 -20 59
340 78 387 97 240z" fill="#F296A8"/>
<path d="M21145 21169 c-104 -4 -235 -12 -290 -18 -55 -6 -138 -11 -184 -11
-46 0 -111 -4 -145 -10 -33 -5 -113 -17 -176 -25 -63 -9 -149 -22 -190 -30
-41 -7 -109 -16 -150 -20 -41 -3 -88 -10 -105 -15 -16 -6 -75 -16 -130 -24
-222 -32 -884 -145 -897 -152 -4 -2 -40 -9 -81 -14 -130 -16 -234 -78 -162
-96 31 -8 209 1 289 15 58 9 112 0 76 -13 -8 -3 -58 -21 -110 -40 -52 -19
-162 -64 -244 -100 -82 -36 -153 -66 -159 -66 -6 0 -54 -22 -106 -49 -341
-173 -503 -302 -363 -289 43 4 408 156 467 194 57 37 583 240 725 280 80 23
117 33 235 68 126 38 580 146 670 160 148 23 311 45 385 51 36 4 97 13 135 20
143 28 900 49 1105 30 128 -11 422 -15 441 -5 25 14 26 66 1 79 -11 6 -46 15
-78 20 -32 6 -81 15 -109 21 -27 6 -108 15 -180 20 -71 6 -166 15 -210 20 -90
10 -183 10 -460 -1z" fill="#F296A8"/>
<path d="M20825 18931 c-27 -6 -24 -8 24 -14 65 -8 203 2 195 14 -6 10 -175
10 -219 0z" fill="#F296A8"/>
<path d="M20565 18890 c-13 -6 18 -9 88 -9 70 -1 106 3 102 9 -7 12 -162 12
-190 0z" fill="#F296A8"/>
<path d="M20375 18850 c-10 -16 132 -16 150 1 5 5 -21 9 -67 9 -42 0 -80 -4
-83 -10z" fill="#F296A8"/>
<path d="M21325 18811 c-9 -15 5 -18 73 -19 46 0 62 4 62 14 0 16 -125 21
-135 5z" fill="#F296A8"/>
<path d="M29188 17650 c-2 -99 0 -180 5 -180 4 0 7 81 7 180 0 99 -2 180 -5
180 -2 0 -5 -81 -7 -180z" fill="#F296A8"/>
<path d="M7505 17600 c-49 -4 -162 -10 -250 -14 -151 -6 -211 -12 -535 -52
-327 -39 -865 -170 -1027 -249 -39 -19 -76 -35 -80 -35 -23 0 -103 -61 -103
-79 0 -50 112 -40 405 37 39 10 111 29 160 41 50 12 115 28 145 36 30 8 78 17
105 21 28 3 58 11 68 16 25 13 224 42 572 83 66 7 143 18 170 24 93 19 566 32
790 22 252 -12 685 -26 739 -25 44 1 70 26 60 58 -11 37 -30 47 -105 57 -41 6
-99 17 -129 25 -30 8 -84 14 -120 14 -36 0 -120 7 -185 15 -125 15 -503 18
-680 5z" fill="#F296A8"/>
<path d="M22635 17454 c-14 -10 -32 -13 -62 -8 -25 4 -48 2 -56 -4 -7 -6 -57
-10 -112 -10 -55 0 -113 -6 -130 -12 -17 -6 -67 -10 -115 -9 -80 3 -85 2 -88
-18 -3 -20 0 -21 70 -20 87 2 429 -11 509 -19 92 -10 117 16 83 84 -18 36 -63
44 -99 16z" fill="#F296A8"/>
<path d="M16275 16738 c-18 -11 -40 -14 -109 -18 -10 -1 -28 -8 -40 -16 -13
-9 -45 -14 -89 -14 -82 0 -91 -23 -11 -28 27 -1 90 -4 139 -7 50 -2 109 -7
133 -10 51 -6 57 4 38 60 -15 43 -30 51 -61 33z" fill="#F296A8"/>
<path d="M7582 15968 c8 -25 218 -22 218 2 0 6 -47 10 -111 10 -84 0 -110 -3
-107 -12z" fill="#F296A8"/>
<path d="M7447 15934 c-13 -13 5 -24 36 -24 52 0 107 12 101 21 -6 10 -127 12
-137 3z" fill="#F296A8"/>
<path d="M7790 15931 c0 -16 159 -29 194 -15 9 3 13 10 10 15 -7 12 -204 12
-204 0z" fill="#F296A8"/>
<path d="M7990 15891 c0 -13 27 -21 71 -21 28 0 39 4 39 15 0 12 -13 15 -55
15 -30 0 -55 -4 -55 -9z" fill="#F296A8"/>
<path d="M8100 15850 c0 -8 97 -60 113 -60 4 0 7 7 7 15 0 8 -8 15 -19 15 -10
0 -21 9 -24 20 -5 21 -77 31 -77 10z" fill="#F296A8"/>
<path d="M8247 13943 c-18 -17 -4 -54 110 -292 134 -282 197 -490 228 -761 8
-69 19 -156 25 -195 5 -38 9 -96 10 -127 0 -75 43 -119 69 -70 64 121 33 516
-66 842 -101 335 -310 669 -376 603z" fill="#F296A8"/>
<path d="M9312 13750 c-12 -5 -30 -24 -40 -41 -9 -16 -32 -54 -51 -82 -283
-438 -379 -912 -326 -1612 14 -184 43 -426 69 -570 8 -44 24 -136 36 -205 37
-212 76 -389 162 -730 28 -107 54 -211 59 -230 21 -87 77 -272 112 -375 48
-138 199 -505 237 -572 16 -31 87 -187 94 -210 12 -37 64 -75 87 -63 25 14 24
50 -1 97 -11 21 -20 45 -20 55 0 9 -4 20 -10 23 -5 3 -16 27 -24 53 -20 63
-33 102 -72 202 -36 93 -43 112 -137 410 -70 217 -81 257 -123 415 -14 55 -34
127 -44 160 -9 33 -27 98 -40 145 -12 47 -30 112 -41 145 -16 52 -44 197 -89
465 -6 36 -17 101 -25 145 -8 44 -17 116 -20 160 -4 44 -13 97 -21 117 -21 56
-58 533 -51 649 18 281 38 504 51 564 9 39 20 93 26 120 6 28 15 73 20 100 20
123 121 370 222 546 58 101 41 151 -40 119z" fill="#F296A8"/>
<path d="M27488 12769 c-10 -5 -18 -18 -18 -27 0 -9 -7 -30 -16 -47 -21 -39
-114 -322 -114 -345 0 -10 -9 -42 -19 -72 -11 -29 -41 -129 -66 -223 -76 -271
-92 -327 -115 -395 -12 -36 -30 -94 -40 -130 -9 -36 -29 -103 -42 -150 -71
-240 -65 -355 23 -435 87 -78 173 -76 262 8 34 33 52 73 128 296 72 213 78
261 29 261 -41 0 -55 -19 -136 -186 -111 -230 -162 -287 -200 -228 -26 39 -19
94 35 258 61 184 154 503 189 646 14 58 43 170 64 250 74 274 116 484 104 516
-6 16 -43 18 -68 3z" fill="#F296A8"/>
<path d="M8694 11346 c-23 -17 -23 -166 1 -378 10 -87 15 -249 16 -510 1 -330
3 -385 17 -400 21 -25 59 -23 73 5 29 53 28 859 -1 1052 -36 233 -52 270 -106
231z" fill="#F296A8"/>
<path d="M20690 9540 c-108 -4 -241 -14 -295 -23 -55 -9 -163 -26 -240 -37
-77 -12 -159 -26 -182 -31 -23 -5 -58 -9 -77 -9 -19 0 -74 -9 -123 -20 -48
-11 -122 -27 -163 -36 -176 -38 -258 -57 -300 -70 -25 -8 -53 -14 -62 -14 -10
0 -44 -9 -75 -19 -32 -11 -78 -23 -103 -26 -25 -4 -67 -13 -95 -20 -27 -7 -93
-20 -145 -30 -52 -9 -126 -23 -165 -31 -38 -7 -124 -21 -190 -29 -66 -8 -158
-22 -205 -30 -47 -8 -128 -21 -180 -29 -52 -9 -149 -25 -215 -37 -190 -34
-213 -38 -350 -59 -314 -48 -571 -55 -768 -20 -81 15 -115 8 -123 -24 -9 -38
10 -61 92 -106 181 -99 258 -230 234 -397 -15 -110 -12 -378 5 -496 41 -272
55 -343 99 -497 102 -350 235 -601 456 -855 251 -290 363 -391 575 -524 39
-24 81 -51 95 -61 42 -28 331 -170 400 -196 377 -144 797 -188 987 -104 41 18
51 18 205 5 191 -16 213 -22 221 -63 8 -42 32 -62 75 -63 129 -4 307 5 365 17
38 8 84 14 103 14 19 0 48 7 63 15 16 8 57 21 92 28 113 25 241 67 389 127
281 114 286 116 734 384 93 56 192 114 219 129 28 16 112 75 186 130 74 56
173 128 220 161 48 32 105 75 128 96 23 20 86 68 140 106 194 137 497 457 578
609 181 339 295 605 295 689 0 9 13 72 29 139 29 120 48 216 72 369 16 100 12
107 -104 184 -334 221 -872 456 -1382 602 -104 30 -421 91 -555 107 -30 4 -91
13 -135 20 -69 12 -552 38 -610 33 -11 0 -108 -4 -215 -8z m1708 -1836 c61
-42 10 -95 -140 -143 -113 -37 -147 -37 -128 0 54 101 210 184 268 143z m-404
-643 c29 -46 -117 -105 -202 -82 -82 23 -129 88 -54 77 20 -3 73 -2 117 3 115
12 133 12 139 2z m-611 -386 c32 -8 69 -15 81 -15 40 0 71 -32 57 -58 -6 -12
-15 -22 -19 -22 -4 0 -32 -16 -62 -35 -94 -61 -207 -45 -240 34 -33 82 57 129
183 96z" fill="#F296A8"/>
<path d="M12743 27913 c-73 -26 169 -268 397 -398 47 -27 135 -84 195 -126
243 -170 518 -307 965 -481 412 -160 983 -310 1450 -382 247 -38 299 -45 360
-51 36 -4 90 -10 120 -16 420 -70 1711 -92 2305 -39 61 5 191 14 290 20 99 5
236 15 305 20 69 6 188 14 265 20 235 16 394 30 515 45 63 8 149 17 190 20 41
3 152 12 245 20 94 8 226 19 295 24 69 6 247 19 395 30 149 12 396 28 550 36
154 8 372 20 485 27 538 31 1719 -3 2100 -62 36 -5 144 -19 240 -30 96 -12
190 -25 208 -30 60 -16 116 30 80 66 -19 19 -360 86 -578 114 -254 32 -409 50
-525 60 -71 7 -133 14 -136 16 -13 8 -420 25 -804 35 -225 5 -446 14 -490 19
-44 5 -154 14 -245 20 -91 6 -212 15 -270 20 -58 6 -168 12 -245 15 -144 5
-453 25 -815 51 -113 8 -342 21 -510 29 -291 14 -501 26 -1055 60 -137 8 -371
20 -520 25 -148 5 -337 14 -420 20 -82 5 -274 17 -425 25 -151 8 -295 17 -320
20 -25 3 -133 7 -240 10 -107 3 -267 10 -355 15 -618 40 -651 41 -1230 70
-507 26 -1186 75 -1295 95 -41 7 -97 16 -125 20 -442 56 -877 229 -1245 494
-71 52 -89 60 -107 54z" fill="#DD5B85"/>
<path d="M7970 26511 c-201 -151 -427 -447 -600 -784 -50 -97 -106 -182 -322
-480 -308 -425 -446 -618 -509 -712 -41 -60 -135 -192 -209 -292 -74 -100
-160 -217 -190 -260 -102 -147 -145 -206 -295 -404 -309 -409 -541 -705 -899
-1144 -210 -258 -580 -689 -654 -761 -75 -75 -412 -466 -559 -649 -22 -29 -65
-72 -93 -96 -29 -24 -78 -67 -109 -95 -58 -53 -135 -119 -337 -289 -65 -55
-168 -145 -230 -200 -61 -55 -128 -116 -150 -134 -575 -506 -924 -854 -924
-922 0 -20 33 -34 52 -23 46 28 264 200 323 255 38 36 116 106 172 155 55 49
226 199 378 334 513 454 607 534 876 755 73 61 157 130 184 155 70 61 346 288
420 343 98 74 374 295 496 398 63 53 173 140 244 194 244 185 712 591 894 775
267 271 346 360 524 595 309 406 516 841 727 1525 296 963 467 1315 830 1710
71 78 44 114 -40 51z" fill="#DD5B85"/>
<path d="M20290 24359 c-217 -11 -669 -59 -895 -93 -55 -9 -136 -20 -181 -26
-78 -10 -330 -58 -524 -100 -131 -28 -467 -121 -935 -259 -322 -95 -914 -314
-947 -351 -35 -38 -36 -73 -3 -105 35 -36 69 -32 213 26 424 170 1156 409
1477 482 302 69 478 108 550 123 44 9 106 23 139 30 32 8 126 25 210 39 883
143 1659 149 2481 20 55 -8 136 -20 180 -26 122 -16 668 -137 697 -155 6 -4
35 -13 62 -20 28 -7 80 -22 116 -33 207 -62 261 -74 273 -62 17 18 -27 51
-121 90 -43 18 -93 39 -112 48 -104 45 -497 163 -695 208 -66 15 -156 35 -200
46 -139 32 -517 85 -670 94 -55 3 -152 10 -215 15 -159 13 -725 18 -900 9z" fill="#DD5B85"/>
<path d="M28205 22122 c-6 -4 -24 -38 -40 -77 -69 -168 -291 -403 -457 -485
-207 -103 -720 -291 -1023 -376 -33 -9 -80 -22 -105 -29 -71 -21 -207 -52
-300 -70 -47 -9 -116 -23 -155 -31 -121 -27 -196 -42 -315 -64 -63 -12 -153
-30 -200 -40 -47 -10 -161 -30 -255 -45 -245 -37 -479 -76 -487 -81 -4 -2 -53
-11 -110 -19 -160 -23 -350 -52 -378 -59 -14 -3 -110 -17 -215 -31 -104 -13
-235 -31 -290 -40 -55 -8 -143 -22 -195 -29 -52 -8 -176 -28 -275 -45 -251
-42 -385 -63 -795 -122 -80 -11 -183 -27 -230 -34 -121 -20 -326 -53 -390 -64
-30 -5 -104 -17 -165 -25 -562 -81 -686 -102 -865 -149 -170 -44 -238 -48
-130 -7 96 36 160 81 160 111 0 28 -2 29 -48 29 -55 0 -271 -55 -387 -98 -44
-16 -170 -62 -280 -102 -658 -235 -810 -300 -1190 -508 -299 -164 -1377 -874
-1420 -935 -83 -119 100 -143 439 -57 166 42 506 117 556 123 31 4 -12 -104
-129 -322 -122 -227 -206 -342 -496 -671 -259 -295 -283 -330 -250 -364 31
-31 61 -19 250 102 61 39 163 103 228 143 64 39 168 107 230 151 61 44 151
105 200 137 133 86 420 276 742 492 613 411 950 529 1735 609 159 17 250 -14
168 -57 -49 -27 -110 -89 -106 -110 5 -27 30 -27 101 1 87 36 105 34 152 -15
50 -50 164 -137 245 -185 37 -23 136 -110 258 -228 265 -258 452 -396 532
-396 45 0 21 36 -80 120 -101 83 -248 244 -227 248 19 4 262 -99 397 -169 149
-76 381 -242 364 -259 -9 -9 -119 -35 -214 -50 -30 -5 -131 -25 -225 -45 -93
-20 -240 -49 -325 -66 -85 -16 -168 -34 -185 -39 -16 -5 -79 -18 -140 -30 -60
-12 -216 -46 -345 -77 -129 -31 -261 -62 -293 -69 -74 -16 -109 -38 -105 -67
4 -30 53 -33 183 -13 55 8 127 18 160 21 33 3 98 12 145 20 470 79 597 101
735 130 243 52 415 90 570 127 138 32 200 38 241 24 16 -6 28 -1 46 18 18 20
48 32 133 51 61 14 247 60 415 102 381 94 459 112 490 112 69 1 -362 -151
-650 -229 -63 -17 -124 -35 -136 -40 -82 -33 -539 -125 -697 -140 -145 -15
-187 -25 -187 -49 0 -40 25 -46 189 -45 399 4 923 122 1381 311 47 19 164 64
260 98 242 87 389 147 639 259 118 53 216 94 218 92 12 -11 -16 -30 -115 -80
-127 -64 -158 -86 -149 -109 7 -20 53 -22 110 -6 202 56 -306 -221 -693 -377
-92 -38 -120 -58 -120 -85 0 -81 446 40 761 207 500 264 1379 985 1728 1416
248 308 121 304 -199 -6 -157 -152 -166 -156 -80 -36 25 36 99 145 164 243
246 372 492 556 855 637 211 48 424 -24 461 -155 57 -205 -194 -551 -520 -714
-148 -75 -384 -152 -595 -196 -94 -19 -103 -23 -110 -46 -14 -42 12 -52 115
-46 624 37 1136 392 1252 868 116 474 -547 606 -1092 217 -60 -42 -76 -36 -37
15 31 41 87 146 87 163 0 40 -70 -14 -141 -108 -98 -130 -113 -148 -128 -148
-8 0 -11 6 -7 16 21 54 18 219 -4 247 -42 53 -78 41 -178 -65 -110 -115 -219
-196 -349 -258 -282 -136 -422 -138 -563 -12 -53 48 -53 48 -36 80 17 33 71
73 116 87 117 34 445 240 593 371 26 24 73 52 102 63 125 47 414 197 517 269
24 16 95 63 158 104 124 80 456 328 555 414 33 29 85 73 115 99 194 165 327
323 376 444 50 123 36 254 -21 213z" fill="#DD5B85"/>
<path d="M21165 21159 c-349 -13 -687 -45 -948 -90 -67 -11 -160 -24 -207 -29
-82 -8 -182 -24 -360 -55 -47 -8 -157 -26 -245 -40 -619 -98 -774 -132 -762
-168 5 -16 150 -15 311 1 169 17 164 11 -54 -68 -396 -144 -890 -403 -890
-467 0 -31 99 4 425 152 254 115 609 253 802 311 238 71 253 75 413 117 371
97 865 174 1255 198 206 12 752 12 1040 0 223 -10 249 -6 243 32 -4 32 -154
68 -338 82 -41 3 -127 10 -190 15 -179 15 -289 17 -495 9z" fill="#DD5B85"/>
<path d="M28915 19821 c-125 -73 -226 -144 -530 -371 -92 -69 -260 -194 -374
-277 -113 -84 -240 -180 -281 -213 -138 -109 -165 -130 -230 -174 -90 -61
-541 -419 -795 -630 -38 -32 -90 -72 -115 -89 -60 -41 -241 -185 -260 -206 -8
-9 -53 -48 -100 -87 -47 -39 -125 -106 -175 -148 -49 -43 -115 -96 -145 -119
-30 -23 -82 -64 -115 -90 -33 -27 -85 -62 -116 -77 -37 -19 -64 -41 -77 -63
-11 -19 -46 -54 -79 -78 -32 -23 -82 -65 -111 -92 -39 -36 -57 -46 -64 -39
-16 16 -100 2 -118 -20 -13 -16 -19 -17 -48 -6 -32 12 -35 12 -57 -16 -21 -26
-27 -28 -64 -22 -36 5 -42 3 -57 -19 -10 -15 -26 -25 -41 -25 -31 0 -94 50
-88 70 11 34 -11 45 -49 25 -30 -16 -40 -18 -56 -7 -17 10 -21 10 -26 -3 -6
-16 -92 -60 -100 -52 -3 2 46 53 109 113 62 60 123 123 135 140 12 17 61 65
109 105 49 41 147 128 218 194 72 66 177 163 235 216 58 52 132 122 166 155
54 54 135 125 287 252 112 94 328 295 323 300 -10 10 -178 -109 -301 -213 -33
-28 -89 -72 -125 -99 -36 -27 -85 -69 -110 -92 -25 -24 -64 -56 -87 -71 -59
-40 -440 -349 -672 -546 -46 -40 -103 -85 -125 -101 -23 -16 -115 -90 -206
-165 -225 -186 -307 -246 -360 -264 -33 -10 -49 -23 -62 -47 -29 -57 -57 -80
-89 -73 -17 3 -35 0 -44 -7 -17 -14 -66 -42 -103 -59 -27 -13 -74 -15 -118 -6
-26 6 -36 2 -55 -19 -37 -39 -89 -46 -89 -12 0 25 -2 26 -40 20 -24 -4 -40 -3
-40 3 0 32 362 352 614 543 33 25 80 65 104 90 25 25 73 68 108 95 265 213
317 287 104 148 -49 -32 -114 -74 -145 -93 -174 -111 -262 -169 -365 -241
-207 -143 -284 -198 -340 -238 -70 -51 -181 -125 -262 -175 -35 -22 -84 -53
-110 -69 -43 -27 -50 -29 -78 -17 -25 10 -36 10 -55 0 -16 -8 -41 -11 -74 -6
-38 5 -52 3 -58 -8 -5 -9 -32 -16 -73 -20 -105 -10 -124 -10 -151 -2 -24 7
-29 3 -50 -36 -24 -42 -25 -43 -93 -51 -37 -5 -71 -6 -74 -2 -8 8 76 85 135
124 23 15 66 48 95 73 29 25 105 90 168 143 105 88 183 165 176 172 -13 13
-112 -49 -588 -368 -112 -75 -209 -139 -216 -143 -8 -5 -48 -8 -90 -7 -76 1
-208 -20 -222 -36 -4 -4 -13 -29 -20 -55 -16 -62 -36 -68 -214 -68 -131 0
-142 -1 -154 -20 -10 -16 -20 -20 -45 -16 -18 3 -82 8 -143 10 -148 6 -193 25
-162 68 11 16 28 32 36 36 9 3 41 22 72 42 30 21 66 41 79 45 29 9 69 30 221
120 150 87 172 107 135 121 -20 8 -446 -180 -489 -215 -16 -13 -201 -107 -281
-143 -60 -27 -83 -32 -165 -34 -256 -7 -300 -14 -300 -50 0 -20 -49 -124 -59
-124 -5 0 -20 9 -34 20 -31 24 -46 25 -62 3 -11 -15 -14 -15 -40 5 -37 30 -48
28 -88 -13 -36 -37 -64 -45 -73 -20 -8 19 -34 19 -62 -1 -19 -13 -28 -14 -52
-4 -31 13 -50 7 -50 -16 0 -22 -48 -17 -62 6 -7 11 -21 20 -30 20 -10 0 -22
-9 -28 -20 -16 -29 -42 -24 -62 11 -16 27 -16 34 -4 58 15 28 255 242 328 292
65 44 154 126 146 135 -9 8 -178 -95 -228 -140 -19 -17 -48 -41 -65 -52 -16
-11 -59 -41 -94 -65 -61 -42 -112 -71 -210 -119 -35 -18 -48 -20 -67 -11 -28
12 -54 5 -54 -15 0 -16 -65 -20 -75 -4 -9 14 -43 12 -48 -2 -2 -8 -26 -14 -63
-15 -87 -2 -156 -14 -178 -29 -16 -11 -23 -10 -45 7 -35 26 -57 16 -66 -29
-10 -54 -23 -72 -50 -72 -13 0 -28 -8 -34 -17 -8 -15 -26 -18 -108 -20 -107
-3 -131 -3 -181 -1 -19 1 -44 -7 -62 -20 -34 -26 -101 -30 -120 -7 -18 21 -47
19 -60 -5 -16 -29 -45 -25 -79 13 -51 53 -44 69 94 192 186 166 174 183 -35
50 -36 -22 -76 -46 -90 -53 -14 -7 -41 -22 -61 -35 -152 -96 -181 -109 -204
-97 -18 10 -30 9 -58 -1 -30 -10 -41 -10 -60 0 -18 10 -30 10 -45 2 -11 -6
-34 -11 -51 -11 -16 0 -33 -4 -36 -10 -3 -5 -20 -10 -36 -10 -17 0 -39 -5 -49
-10 -13 -7 -21 -7 -25 0 -19 31 -83 -17 -70 -52 10 -26 -33 -68 -71 -68 -23 0
-34 -5 -34 -14 0 -19 -18 -24 -57 -18 -18 2 -46 -1 -63 -8 -25 -10 -36 -10
-55 0 -19 10 -30 11 -50 2 -32 -15 -55 -15 -55 -2 0 6 7 10 15 10 8 0 15 4 15
8 0 5 18 27 41 50 52 53 53 95 2 100 -26 3 -54 -12 -153 -80 -111 -76 -175
-118 -207 -134 -29 -14 -50 13 -45 57 3 23 -40 42 -71 31 -18 -6 -43 -8 -57
-6 -17 4 -43 -3 -72 -19 -33 -17 -63 -25 -108 -26 -39 -1 -75 -8 -100 -21 -45
-23 -63 -25 -90 -8 -16 10 -27 9 -62 -8 -24 -12 -58 -25 -76 -28 -34 -8 -45
-36 -13 -36 11 0 23 -5 26 -10 9 -14 41 -13 66 3 17 10 22 9 35 -7 19 -27 19
-28 -27 -54 -41 -24 -41 -24 -69 -3 -28 20 -28 20 -45 0 -25 -27 -30 -25 -48
22 -16 42 -16 42 -114 36 -189 -11 -237 -17 -245 -29 -15 -25 -8 3 11 40 10
20 31 48 46 62 98 90 388 427 379 442 -18 29 -225 -121 -534 -386 -63 -54
-133 -110 -155 -124 -22 -14 -80 -66 -130 -116 -162 -164 -217 -207 -254 -200
-27 6 -33 3 -38 -15 -4 -18 -13 -21 -54 -21 -37 0 -51 -4 -59 -19 -11 -21 -58
-36 -106 -32 -21 2 -41 -6 -60 -22 -44 -37 -108 -26 -112 20 -5 49 -25 59 -67
34 -20 -12 -53 -21 -74 -21 -25 0 -44 -7 -56 -20 -10 -11 -26 -20 -35 -20 -30
0 -154 -48 -166 -64 -15 -22 -37 -20 -52 4 -27 44 -128 -15 -267 -157 -34 -35
-68 -64 -76 -64 -8 -1 -32 -3 -54 -4 -22 -2 -60 -8 -85 -14 -25 -7 -57 -15
-73 -18 -15 -3 -32 -14 -38 -24 -5 -11 -18 -19 -28 -19 -10 0 -30 -9 -44 -20
-14 -11 -36 -20 -50 -20 -15 0 -31 -9 -41 -25 -11 -17 -26 -25 -46 -25 -20 0
-35 -8 -49 -29 -12 -16 -36 -35 -55 -41 -33 -11 -57 -44 -62 -87 -2 -12 -8
-31 -13 -42 -6 -11 -11 -31 -11 -46 0 -18 -7 -28 -24 -34 -13 -5 -26 -17 -29
-25 -4 -10 -18 -16 -36 -16 -17 0 -34 -6 -38 -13 -4 -8 -16 -16 -26 -20 -9 -4
-22 -18 -27 -33 -9 -22 -14 -25 -40 -19 -18 4 -30 3 -30 -4 0 -24 -63 -81 -89
-81 -15 0 -32 -5 -38 -11 -14 -14 -83 -19 -83 -7 0 5 14 26 30 46 17 20 96
119 176 220 81 101 196 235 255 298 95 100 108 117 99 134 -13 25 -17 25 -55
1 -69 -43 -1087 -1073 -1249 -1264 -41 -48 -52 -56 -73 -51 -18 5 -31 0 -49
-17 -13 -13 -33 -33 -44 -43 -24 -24 -30 -19 -37 33 -7 52 -22 52 -74 1 -78
-75 -80 -49 -3 50 46 60 74 107 74 125 0 19 -33 33 -55 23 -22 -10 -204 -204
-265 -283 -40 -51 -374 -405 -382 -405 -5 0 -8 18 -8 40 0 40 0 40 -42 34 -30
-4 -51 -15 -68 -35 -14 -16 -34 -29 -46 -29 -11 0 -29 -9 -39 -20 -10 -11 -26
-20 -35 -20 -10 0 -28 -8 -41 -18 -34 -26 -85 -42 -135 -42 -36 0 -46 -5 -64
-30 -12 -17 -30 -30 -43 -30 -11 0 -30 -9 -42 -20 -12 -11 -43 -24 -69 -29
-55 -10 -62 -17 -71 -77 -6 -42 -6 -42 -93 -49 -48 -4 -99 -13 -114 -21 -15
-8 -38 -14 -53 -14 -17 0 -25 -5 -25 -18 0 -13 -13 -21 -45 -30 -29 -8 -45
-18 -45 -27 0 -9 -8 -19 -17 -22 -17 -7 -62 -45 -109 -92 -13 -13 -26 -22 -29
-19 -8 7 42 72 116 152 36 39 74 84 84 101 23 38 242 291 318 368 42 44 57 66
57 87 0 36 -31 49 -63 26 -77 -53 -615 -608 -695 -716 -31 -41 -83 -109 -117
-150 -34 -41 -102 -129 -152 -196 -50 -66 -105 -136 -123 -155 -64 -69 -220
-306 -220 -334 0 -15 131 119 248 254 144 167 342 379 359 385 20 8 26 -17 14
-61 -6 -21 -11 -69 -11 -108 0 -97 -6 -115 -39 -115 -32 0 -64 -38 -74 -88 -4
-19 -14 -49 -23 -68 -14 -29 -15 -39 -4 -58 7 -15 13 -73 14 -152 3 -137 7
-168 26 -205 7 -13 13 -39 14 -59 1 -26 7 -37 23 -45 35 -15 28 -41 -38 -140
-74 -113 -81 -128 -69 -160 15 -39 59 -34 115 15 58 50 69 44 85 -50 9 -54 17
-72 36 -85 16 -10 24 -25 24 -43 0 -20 9 -35 30 -50 17 -13 30 -29 30 -37 0
-63 119 -195 176 -195 13 0 26 -4 29 -10 3 -5 18 -10 33 -10 28 0 112 -76 112
-101 0 -7 -32 -73 -71 -148 -67 -129 -106 -197 -213 -371 -174 -287 -194 -331
-160 -364 43 -44 67 -18 291 313 82 121 284 389 317 420 25 24 25 24 36 -3 5
-15 10 -36 10 -48 0 -29 38 -78 61 -78 11 0 27 -4 37 -9 9 -5 35 -14 57 -21
22 -6 59 -21 82 -33 36 -18 46 -20 63 -9 28 17 48 15 62 -8 9 -14 24 -20 50
-20 20 0 48 -5 61 -11 21 -9 28 -8 46 10 25 25 30 26 59 5 12 -8 28 -14 35
-11 6 2 19 1 28 -4 28 -14 82 66 76 115 -3 29 28 44 51 23 26 -23 34 -21 57
16 23 36 100 53 111 24 7 -18 -48 -119 -151 -277 -128 -195 -138 -215 -125
-239 26 -50 69 -16 195 154 28 38 208 244 321 368 55 59 80 73 69 36 -11 -35
34 -14 78 37 21 24 43 44 48 44 13 0 49 -75 49 -104 0 -35 25 -39 81 -11 32
17 58 23 73 19 16 -4 27 -1 33 10 8 14 78 38 165 56 20 4 48 15 62 24 14 9 34
16 44 16 25 0 143 48 163 66 9 9 30 14 45 12 28 -3 29 -1 40 55 15 72 3 65
112 72 92 7 92 7 92 -32 0 -44 14 -63 47 -63 22 0 165 113 233 184 19 21 51
44 70 53 59 26 114 55 133 71 21 19 50 113 41 136 -3 9 1 27 10 41 17 26 42
33 48 14 6 -19 87 10 119 42 16 16 42 32 58 35 16 4 32 12 35 20 3 7 23 17 45
20 31 5 41 11 43 28 2 17 11 22 42 24 36 3 38 5 33 32 -6 26 -3 28 30 35 21 4
43 14 49 23 7 10 28 18 51 19 21 1 58 5 82 9 47 7 61 -3 61 -42 0 -40 27 -50
58 -21 15 14 38 27 52 29 17 2 26 10 28 25 3 20 0 21 -38 16 -33 -5 -45 -2
-65 17 -32 30 -20 46 41 55 34 5 56 16 80 41 20 20 45 34 59 34 15 0 26 7 30
20 5 16 15 20 46 20 21 0 39 4 39 9 0 18 31 41 55 41 15 0 32 11 45 30 12 17
28 30 35 30 8 0 22 11 31 25 15 22 23 25 80 25 57 0 64 2 64 19 0 45 39 27 61
-29 13 -31 -69 -140 -252 -335 -36 -38 -101 -115 -145 -170 -43 -55 -124 -154
-179 -220 -55 -66 -123 -151 -150 -190 -27 -38 -71 -94 -99 -123 -36 -39 -47
-55 -38 -64 8 -8 21 0 49 30 21 23 74 78 118 124 44 46 121 128 170 183 49 55
135 147 191 205 56 58 150 158 209 223 186 203 477 467 515 467 13 0 31 6 39
14 28 23 68 28 75 9 10 -25 26 2 26 42 0 34 19 77 37 82 15 5 8 -93 -17 -217
-48 -239 -70 -389 -104 -706 -22 -199 -42 -284 -67 -284 -17 0 -160 -154 -155
-167 11 -27 69 11 138 89 44 50 49 47 57 -29 12 -111 67 -79 97 56 18 81 55
165 78 178 48 27 313 289 672 663 351 366 980 980 1004 980 4 0 10 -9 13 -20
6 -25 24 -26 31 -2 3 9 16 22 28 28 13 6 39 20 58 30 19 10 58 20 87 22 30 3
56 8 59 13 3 5 20 9 37 9 18 0 48 10 67 21 27 17 49 21 95 20 57 -1 61 0 78
29 10 16 16 33 14 38 -3 4 5 19 17 34 21 27 21 27 189 32 109 3 167 1 167 -5
0 -14 -158 -179 -450 -469 -361 -359 -826 -834 -900 -920 -36 -42 -116 -134
-178 -205 -62 -71 -118 -137 -123 -147 -44 -81 186 128 731 666 700 691 1087
1049 1190 1101 29 15 56 37 65 54 8 17 41 50 72 74 32 25 67 54 77 66 25 28
34 27 28 -4 -2 -14 -1 -25 3 -25 9 0 125 57 147 73 14 9 23 8 47 -6 39 -23 52
-22 76 8 19 24 23 25 75 16 45 -7 58 -6 73 7 16 14 80 41 99 42 8 0 33 -69 37
-102 4 -36 18 -41 49 -19 21 15 50 22 98 25 44 3 72 10 79 19 10 14 53 23 141
31 22 2 51 9 62 15 12 7 50 13 85 14 34 2 68 6 75 11 8 5 18 4 25 -3 31 -31
76 -13 172 72 163 142 162 142 191 127 23 -13 27 -11 54 18 29 32 71 38 122
17 11 -4 22 1 33 19 14 21 25 26 61 26 30 0 55 8 80 25 46 31 52 31 64 1 5
-13 14 -27 19 -31 6 -3 11 -17 11 -30 0 -30 16 -40 57 -36 19 1 33 -2 33 -8 0
-6 7 -11 15 -11 8 0 15 4 15 9 0 10 75 61 90 61 5 0 10 -4 10 -8 0 -12 -277
-329 -434 -497 -220 -234 -396 -438 -396 -457 0 -46 56 2 391 328 562 549 749
719 764 694 10 -16 41 -11 60 10 10 11 29 20 42 20 22 0 42 24 30 37 -4 3 -27
5 -52 5 -46 -1 -46 -1 -25 28 38 54 80 74 80 40 0 -11 5 -20 10 -20 6 0 10 -6
10 -14 0 -16 24 -28 43 -21 6 3 32 7 57 9 86 9 137 23 166 45 22 17 36 21 62
16 24 -4 47 1 86 19 61 29 115 44 201 56 71 10 95 33 95 90 0 60 15 90 41 83
14 -4 26 0 33 9 6 8 29 18 51 21 22 4 51 10 65 14 25 7 25 7 -4 -33 -55 -74
-140 -167 -177 -193 -33 -25 -112 -114 -135 -152 -12 -22 -298 -333 -493 -537
-86 -90 -163 -174 -171 -186 -8 -13 -30 -38 -47 -57 -18 -19 -33 -38 -33 -42
0 -17 73 49 402 364 376 360 836 779 1019 926 94 76 140 82 168 23 18 -40 87
-55 120 -27 34 28 93 57 119 57 15 0 42 9 60 20 18 11 41 20 52 20 11 0 28 9
37 20 10 11 29 20 43 20 15 0 45 9 68 20 22 11 51 20 64 20 87 1 163 69 87 78
-32 4 -57 47 -33 56 29 11 53 6 66 -13 22 -31 62 -44 105 -36 21 5 51 7 66 6
15 -2 33 2 40 7 7 5 25 12 40 16 16 4 47 18 69 32 54 34 71 25 22 -12 -21 -16
-49 -41 -62 -56 -27 -32 -202 -157 -270 -193 -26 -14 -92 -57 -147 -95 -55
-39 -131 -92 -170 -118 -38 -26 -141 -97 -229 -157 -87 -61 -187 -128 -222
-149 -62 -39 -80 -59 -68 -77 14 -23 91 10 379 158 101 52 413 240 457 275 21
16 73 52 115 80 43 28 139 95 213 148 74 53 158 110 185 125 100 56 181 111
205 139 13 16 47 44 75 62 60 40 129 88 172 121 20 15 34 20 38 13 3 -5 -1
-13 -9 -16 -19 -7 -11 -24 11 -24 19 0 63 46 63 66 0 9 12 14 38 15 107 1 184
10 209 22 62 32 80 30 106 -9 36 -52 34 -54 -202 -287 -335 -330 -630 -642
-663 -702 -11 -19 6 -45 31 -45 33 0 471 369 752 634 47 45 146 133 219 196
73 63 154 133 179 156 80 70 103 84 137 84 18 0 37 6 41 14 9 17 76 43 152 60
64 14 76 29 84 99 8 67 31 87 101 87 29 0 56 4 62 9 13 12 66 20 87 12 24 -9
16 -18 -108 -127 -55 -48 -102 -90 -105 -94 -3 -3 -21 -17 -40 -29 -77 -52
-170 -154 -170 -186 0 -58 56 -74 117 -32 17 12 92 63 165 112 73 50 214 151
313 226 100 75 192 142 205 149 14 7 70 56 125 109 55 53 163 150 239 216 77
66 165 143 196 172 31 29 67 62 80 73 39 34 333 315 441 423 55 54 163 168
240 252 77 85 149 157 160 160 10 4 19 10 19 15 0 5 33 47 73 93 126 146 300
354 347 414 14 17 50 62 81 100 91 112 99 130 69 154 -23 18 -24 20 -7 30 9 5
17 20 17 32 0 13 5 28 11 34 7 7 9 34 5 74 -4 35 -7 80 -7 100 -1 26 -7 38
-23 45 -39 17 -31 47 36 129 35 42 73 91 85 108 22 31 94 108 416 445 192 201
198 224 20 70 -48 -42 -144 -122 -213 -179 -69 -56 -152 -127 -185 -158 -66
-60 -219 -171 -248 -179 -12 -3 -30 7 -50 26 -47 46 -84 57 -252 74 -6 1 -22
-2 -37 -5 -40 -11 -43 9 -8 51 144 167 708 706 921 879 246 201 439 370 439
385 0 13 -17 9 -52 -13 -146 -92 -208 -133 -308 -206 -275 -200 -337 -251
-910 -743 -91 -78 -181 -153 -200 -165 -19 -13 -60 -44 -90 -69 -62 -52 -66
-53 -73 -26 -5 21 -51 29 -62 10 -3 -5 -24 -10 -46 -10 -21 0 -39 -4 -39 -9 0
-5 -17 -11 -37 -15 -97 -14 -119 -19 -125 -30 -16 -23 -6 -28 48 -24 51 4 58
2 87 -25 37 -34 26 -45 -44 -46 -28 -1 -41 -7 -53 -26 -14 -22 -21 -24 -59
-19 -39 6 -45 3 -60 -20 -22 -32 -37 -33 -66 -2 -30 32 -53 23 -49 -17 2 -23
-2 -32 -14 -35 -13 -2 -18 3 -18 17 0 12 -9 30 -20 41 -11 11 -17 20 -14 20 4
0 1 7 -6 15 -18 21 -47 19 -60 -6 -9 -16 -18 -19 -36 -15 -17 5 -26 2 -30 -9
-4 -9 -16 -15 -28 -14 -37 2 -46 -1 -46 -16 0 -8 -11 -17 -25 -21 -13 -3 -29
-12 -36 -20 -6 -8 -18 -14 -25 -14 -8 0 -37 -16 -65 -36 -87 -61 -76 -32 21
56 51 47 140 129 198 183 57 54 116 105 131 114 14 9 55 42 91 73 36 30 90 76
120 100 30 24 107 90 170 145 136 118 277 239 370 315 70 57 226 188 270 227
14 12 59 50 102 85 42 35 149 124 239 198 89 74 193 158 230 185 147 109 432
366 404 364 -5 0 -46 -22 -90 -48z m-2605 -2269 c0 -20 -127 -132 -150 -132
-18 0 -11 19 13 31 12 7 43 34 69 60 44 46 68 60 68 41z m1860 -209 c0 -9 -52
-63 -61 -63 -12 0 3 44 19 58 17 13 42 16 42 5z m-5211 -713 c95 0 145 -9 130
-24 -3 -3 -57 -8 -120 -11 -62 -4 -123 -11 -135 -17 -31 -15 -78 -6 -82 15 -8
40 6 50 55 43 25 -3 94 -6 152 -6z m-6250 -719 c32 -20 -62 -54 -105 -37 -26
10 1 34 44 39 20 2 39 4 42 5 3 1 11 -2 19 -7z m6601 -1361 c28 -18 -10 -44
-43 -29 -29 13 -34 24 -14 32 20 9 41 7 57 -3z m-11370 -755 c7 -8 16 -12 21
-9 16 10 49 -7 49 -25 0 -16 -37 -41 -61 -41 -13 0 -69 -58 -69 -70 0 -16 -21
-22 -36 -9 -11 9 -18 9 -26 1 -43 -43 -35 13 12 83 58 85 84 102 110 70z
m5080 -913 c0 -17 -336 -407 -488 -567 -63 -66 -139 -149 -168 -185 -69 -86
-391 -419 -529 -549 -60 -57 -153 -148 -206 -202 -54 -55 -100 -99 -103 -99
-12 0 -5 70 29 265 19 110 42 277 50 370 18 189 44 411 52 431 4 12 44 19 158
28 80 7 168 28 193 47 12 9 42 21 65 24 23 4 53 16 66 26 14 11 40 19 62 19
28 0 41 5 49 20 7 14 21 20 44 20 36 0 38 2 71 105 19 58 31 75 55 75 9 0 29
9 43 20 30 24 57 26 57 5 0 -26 27 -16 54 20 30 39 52 44 72 18 13 -17 16 -16
38 11 23 28 26 29 57 16 30 -13 33 -12 53 13 12 15 32 27 45 27 12 0 34 9 48
20 28 22 58 26 68 10 9 -15 25 -12 25 5 0 8 9 15 20 15 11 0 20 -3 20 -8z
m-6890 -79 c0 -5 -14 -21 -30 -37 -16 -16 -32 -37 -35 -47 -6 -19 -35 -27 -35
-10 0 10 57 83 73 93 15 10 27 10 27 1z m-125 -487 c0 -35 -20 -45 -34 -17
-14 25 -3 53 18 49 10 -2 16 -13 16 -32z" fill="#DD5B85"/>
<path d="M7570 17595 c-8 -2 -109 -8 -225 -14 -319 -17 -810 -75 -970 -116
-11 -2 -74 -16 -140 -31 -214 -46 -461 -121 -565 -170 -136 -65 -147 -72 -136
-99 11 -29 104 -14 446 74 107 27 242 59 299 71 58 12 108 23 111 25 12 7 361
57 700 99 308 39 1000 39 1521 0 100 -8 132 16 91 66 -19 23 -29 26 -252 59
-204 30 -790 54 -880 36z" fill="#DD5B85"/>
<path d="M28505 17078 c-11 -6 -45 -34 -76 -62 -30 -28 -91 -80 -134 -116 -44
-36 -127 -108 -186 -160 -59 -52 -144 -126 -189 -165 -45 -38 -187 -173 -315
-300 -128 -126 -265 -257 -305 -290 -110 -92 -219 -195 -254 -241 -17 -23 -79
-97 -139 -166 -192 -223 -223 -278 -157 -286 50 -5 505 382 687 585 43 48 185
193 317 323 238 234 576 594 764 813 48 57 41 95 -13 65z" fill="#DD5B85"/>
<path d="M8300 16970 c-349 -14 -666 -71 -913 -164 -163 -61 -339 -169 -671
-411 -439 -320 -529 -377 -695 -442 -88 -34 -106 -49 -95 -78 15 -37 184 -17
308 36 160 69 331 127 342 117 9 -10 -44 -155 -87 -238 -37 -71 -115 -173
-299 -390 -44 -52 -85 -105 -92 -118 -24 -46 29 -79 76 -48 13 8 57 26 98 39
141 46 284 134 560 344 533 407 811 484 1227 342 100 -34 198 -107 323 -239
109 -117 171 -196 433 -555 389 -533 580 -686 930 -749 143 -26 147 -28 100
-52 -55 -27 -66 -50 -37 -74 23 -19 23 -19 -15 -29 -141 -35 -582 -63 -592
-36 -2 6 21 17 50 27 186 57 231 74 246 90 33 37 -22 42 -182 18 -131 -21
-373 -33 -510 -25 -77 4 -192 9 -255 11 -199 6 -367 108 -731 446 -140 130
-181 130 -113 1 38 -74 35 -83 -27 -83 -162 -1 -338 -206 -314 -368 41 -284
356 -431 790 -372 39 6 113 14 165 19 53 6 112 17 133 26 35 14 41 14 85 -4
117 -49 447 -134 657 -170 415 -71 666 -85 1005 -56 346 29 444 60 383 121
-14 14 -29 16 -92 10 -397 -32 -999 -9 -1261 48 -36 8 -112 24 -170 36 -243
51 -520 137 -795 246 -190 75 -240 84 -240 44 0 -28 89 -94 204 -150 40 -20
60 -35 54 -41 -19 -19 -462 -16 -528 4 -172 54 -254 144 -255 282 0 185 254
271 419 142 540 -423 1067 -527 1927 -382 265 45 541 115 774 196 165 58 257
88 504 164 137 42 265 83 285 91 21 8 99 32 175 53 165 47 210 80 161 121 -37
31 -416 -64 -945 -236 -129 -42 -255 -82 -280 -89 -83 -24 -225 -65 -275 -79
-27 -8 -93 -24 -145 -36 -52 -12 -108 -27 -125 -32 -16 -6 -52 -13 -79 -16
-67 -6 -52 13 22 28 63 13 109 26 357 100 275 83 696 229 880 305 48 20 126
43 174 51 192 33 283 69 389 155 71 57 76 59 69 21 -34 -171 217 158 282 368
52 172 49 455 -7 594 -8 21 -25 77 -36 124 -33 136 -71 151 -167 66 -113 -100
-283 -144 -449 -115 -167 29 -219 41 -272 64 -73 32 -82 49 -56 102 84 166
177 212 533 265 367 54 436 75 443 131 4 38 -20 52 -163 97 -187 59 -361 98
-565 127 -58 8 -181 26 -275 40 -93 14 -206 30 -250 36 -44 5 -111 16 -150 24
-76 15 -280 38 -495 56 -78 6 -216 8 -325 5 -518 -16 -575 -17 -595 -6 -69 37
-586 64 -940 50z" fill="#DD5B85"/>
<path d="M8260 13908 c0 -11 14 -51 31 -87 238 -503 298 -719 335 -1196 7
-102 11 -115 34 -115 26 0 39 50 46 185 22 374 -122 867 -334 1143 -70 92
-112 118 -112 70z" fill="#DD5B85"/>
<path d="M9307 13720 c-51 -41 -189 -276 -261 -447 -147 -349 -187 -898 -111
-1523 97 -791 348 -1764 595 -2305 126 -275 145 -312 176 -345 58 -60 52 8
-16 180 -12 30 -28 73 -35 95 -8 22 -26 72 -40 110 -82 221 -199 590 -275 870
-29 105 -60 219 -70 255 -65 235 -66 240 -114 500 -104 553 -142 911 -133
1255 13 488 90 823 273 1185 77 153 84 174 58 184 -21 8 -18 9 -47 -14z" fill="#DD5B85"/>
<path d="M27493 12748 c-35 -43 -91 -213 -232 -708 -60 -212 -138 -475 -172
-585 -97 -312 -91 -442 25 -522 109 -75 214 -26 274 127 95 243 138 398 118
419 -27 27 -47 3 -118 -139 -128 -258 -163 -304 -211 -279 -55 30 -56 103 -2
259 72 206 275 941 340 1230 32 144 20 250 -22 198z" fill="#DD5B85"/>
<path d="M8707 11313 c-11 -10 -8 -277 4 -383 6 -52 12 -262 13 -466 2 -204 6
-376 10 -383 11 -17 53 -13 61 7 16 41 25 453 15 677 -19 417 -53 598 -103
548z" fill="#DD5B85"/>
<path d="M20550 9520 c-53 -4 -127 -12 -165 -18 -39 -6 -95 -14 -125 -18 -30
-3 -107 -15 -170 -25 -63 -11 -146 -24 -185 -30 -68 -9 -347 -67 -530 -110
-49 -11 -109 -25 -133 -30 -24 -5 -48 -11 -53 -15 -19 -12 -504 -108 -674
-134 -71 -11 -168 -26 -215 -34 -104 -18 -180 -30 -375 -62 -82 -13 -186 -31
-230 -38 -403 -73 -724 -90 -927 -50 -157 31 -163 -29 -13 -119 158 -95 237
-238 215 -393 -34 -249 8 -639 107 -988 118 -416 289 -702 638 -1065 387 -402
1077 -712 1584 -711 148 1 230 17 298 60 19 12 48 12 205 -4 216 -22 204 -18
211 -63 11 -68 23 -73 181 -73 214 0 419 38 716 134 132 42 444 173 520 218
19 12 114 67 210 123 393 228 563 344 1052 717 496 377 769 797 907 1393 62
272 96 480 83 510 -11 23 -130 108 -224 158 -24 13 -101 55 -173 94 -693 379
-1449 571 -2270 578 -203 2 -413 0 -465 -5z m1873 -1811 c52 -63 4 -112 -166
-168 -172 -58 -207 -33 -106 74 105 112 223 152 272 94z m-415 -631 c57 -57
-108 -148 -215 -119 -125 34 -166 132 -49 116 23 -3 79 -1 126 3 123 13 125
13 138 0z m-626 -382 c24 -8 62 -16 86 -19 75 -9 104 -54 60 -93 -121 -108
-240 -126 -317 -50 -98 98 21 211 171 162z" fill="#DD5B85"/>
<path d="M12750 27872 c0 -55 247 -265 440 -376 36 -20 115 -71 175 -112 486
-330 1247 -616 2135 -800 191 -40 596 -99 915 -134 400 -43 1449 -61 1885 -32
102 7 259 17 350 22 187 11 537 36 715 50 66 6 201 17 300 25 99 8 212 19 250
24 39 6 108 13 155 16 47 3 148 12 225 20 77 8 185 17 240 20 55 4 136 10 180
15 382 43 1492 100 1953 100 627 0 1108 -27 1622 -92 388 -49 383 -49 388 -24
6 29 -6 34 -163 65 -496 98 -1071 156 -1630 166 -318 6 -593 18 -770 36 -55 5
-197 16 -315 24 -118 8 -285 19 -370 24 -85 6 -234 15 -330 21 -422 26 -800
50 -860 55 -36 3 -171 10 -300 15 -129 5 -305 14 -390 20 -253 16 -476 28
-815 45 -317 16 -831 42 -1350 70 -148 8 -421 21 -605 30 -184 9 -351 18 -370
20 -32 5 -355 23 -1075 60 -159 9 -299 17 -310 20 -11 2 -108 9 -215 15 -941
51 -1386 176 -1926 542 -104 70 -134 81 -134 50z m1495 -702 c287 -39 801 -75
1440 -100 257 -10 488 -22 1195 -60 201 -11 408 -22 460 -25 297 -16 689 -37
925 -50 149 -9 389 -22 535 -30 592 -32 812 -45 955 -55 83 -5 236 -15 340
-20 387 -20 709 -40 713 -45 12 -12 -16 -16 -214 -30 -115 -8 -305 -24 -422
-35 -299 -28 -511 -47 -772 -70 -124 -11 -277 -24 -340 -30 -1825 -162 -3188
-62 -4405 324 -327 103 -749 286 -584 252 19 -4 97 -15 174 -26z" fill="#C878A9"/>
<path d="M7959 26482 c-85 -63 -103 -80 -187 -176 -156 -178 -262 -337 -382
-575 -32 -64 -87 -155 -122 -202 -34 -47 -82 -112 -105 -145 -24 -32 -72 -99
-108 -149 -125 -173 -410 -570 -441 -615 -120 -173 -346 -487 -617 -860 -491
-673 -1235 -1590 -1742 -2145 -155 -169 -335 -380 -491 -572 -41 -51 -95 -109
-121 -130 -25 -21 -87 -74 -138 -118 -50 -44 -165 -143 -256 -220 -200 -171
-373 -321 -454 -396 -33 -31 -125 -113 -205 -184 -442 -392 -722 -693 -664
-712 27 -9 308 221 644 527 80 73 316 281 564 499 204 179 332 288 388 334 36
29 132 108 213 177 229 193 419 349 505 415 83 64 405 323 557 449 51 41 155
124 230 182 166 129 472 385 603 505 52 47 136 123 185 169 129 118 391 395
504 534 408 503 609 906 862 1726 276 896 441 1237 787 1635 70 81 66 103 -9
47z m-853 -1444 c-13 -44 -27 -84 -70 -218 -293 -901 -547 -1358 -1058 -1905
-160 -172 -520 -506 -703 -654 -72 -58 -179 -146 -239 -195 -206 -171 -601
-486 -608 -486 -18 0 -1 24 133 180 77 91 186 223 242 294 56 70 162 199 236
285 73 86 170 203 215 260 84 107 182 231 346 437 53 65 156 198 230 294 73
96 209 272 300 390 92 118 216 283 275 365 60 83 170 233 246 335 124 168 294
415 407 593 50 77 67 86 48 25z" fill="#C878A9"/>
<path d="M20445 24353 c-314 -8 -751 -55 -1285 -138 -277 -42 -657 -130 -1010
-232 -85 -25 -171 -49 -190 -55 -19 -5 -114 -34 -210 -63 -170 -53 -220 -70
-495 -169 -71 -26 -163 -59 -203 -72 -235 -81 -296 -129 -236 -188 30 -31 59
-26 224 39 123 48 255 96 565 205 507 178 1197 357 1734 451 1145 198 2470
136 3451 -162 220 -67 274 -81 300 -77 55 7 -187 114 -405 177 -60 18 -121 37
-135 42 -117 42 -632 151 -820 174 -30 3 -100 12 -155 20 -221 30 -817 56
-1130 48z" fill="#C878A9"/>
<path d="M28160 22002 c-119 -234 -352 -430 -645 -547 -547 -217 -1052 -360
-1700 -480 -77 -14 -169 -32 -205 -40 -36 -7 -195 -34 -355 -59 -159 -25 -326
-53 -370 -61 -44 -8 -141 -24 -215 -35 -74 -12 -191 -30 -260 -40 -69 -11
-264 -40 -435 -65 -170 -25 -389 -59 -485 -75 -96 -16 -220 -36 -275 -44 -55
-9 -158 -25 -230 -36 -71 -11 -191 -29 -265 -40 -74 -10 -250 -37 -390 -60
-217 -34 -543 -83 -965 -145 -180 -26 -359 -64 -545 -116 -194 -54 -182 -37
53 77 43 20 83 46 89 57 42 79 -169 26 -737 -185 -110 -41 -283 -105 -385
-143 -391 -143 -701 -300 -1110 -563 -52 -33 -130 -82 -172 -109 -42 -26 -161
-105 -265 -175 -103 -70 -264 -178 -357 -240 -277 -185 -301 -211 -250 -262
28 -29 191 -22 330 15 210 54 276 70 439 104 88 19 175 39 193 46 67 23 65 2
-21 -181 -150 -320 -268 -487 -627 -891 -145 -162 -211 -250 -208 -273 4 -28
37 -32 80 -10 98 50 785 496 1163 755 976 669 1167 752 1995 859 80 10 165 22
190 25 52 8 194 -29 187 -49 -2 -6 -19 -21 -38 -33 -132 -84 -135 -122 -7 -81
47 15 73 19 82 13 8 -6 49 -41 92 -79 44 -37 122 -96 174 -131 68 -45 156
-122 307 -268 241 -233 403 -357 468 -357 25 0 21 4 -150 174 -225 222 -223
233 23 126 238 -103 313 -143 463 -246 210 -145 213 -152 89 -179 -155 -33
-422 -87 -635 -130 -829 -166 -1085 -227 -1105 -266 -7 -11 -7 -20 0 -24 17
-11 438 45 690 91 74 14 162 30 195 35 78 13 565 113 675 139 297 68 367 81
414 76 41 -5 53 -2 76 17 18 16 66 32 151 51 68 15 333 79 588 142 255 63 466
112 469 109 10 -10 -11 -22 -88 -53 -514 -207 -1058 -357 -1521 -421 -152 -21
-179 -28 -179 -41 0 -56 422 -29 770 49 384 86 1113 349 1670 602 201 91 248
104 218 56 -8 -12 -57 -44 -110 -72 -188 -99 -198 -134 -26 -89 79 20 95 6 36
-33 -109 -74 -508 -277 -713 -363 -327 -137 -14 -119 342 19 162 64 407 196
562 305 25 18 91 64 146 101 595 409 1530 1318 1353 1315 -29 -1 -176 -125
-390 -330 -183 -175 -238 -187 -76 -17 48 51 177 229 238 328 299 487 809 768
1180 650 215 -68 242 -259 72 -515 -164 -249 -431 -412 -852 -521 -257 -66
-250 -64 -250 -85 0 -41 266 -16 475 45 610 177 1047 794 772 1092 -192 209
-662 155 -1023 -117 -111 -83 -116 -78 -38 41 43 65 68 118 60 126 -9 9 -78
-62 -132 -135 -105 -141 -131 -161 -120 -89 34 206 21 287 -48 287 -8 0 -61
-46 -118 -103 -161 -160 -308 -254 -498 -319 -178 -60 -293 -47 -403 45 -70
60 -77 79 -45 126 25 35 38 43 193 116 177 82 371 208 506 329 31 28 86 58
172 95 304 129 834 475 1182 772 370 316 488 468 489 631 1 101 -14 96 -74
-20z" fill="#C878A9"/>
<path d="M21080 21143 c-25 -1 -117 -7 -205 -13 -218 -15 -407 -36 -615 -70
-96 -15 -204 -31 -240 -35 -101 -11 -266 -36 -963 -151 -475 -78 -505 -129
-43 -73 115 13 141 12 127 -5 -13 -15 -18 -17 -178 -75 -357 -129 -873 -384
-873 -432 0 -21 51 -4 238 77 930 404 1501 561 2382 654 233 25 626 33 1027
20 384 -11 423 -10 423 10 0 56 -718 118 -1080 93z" fill="#C878A9"/>
<path d="M7595 17583 c-826 -32 -1689 -191 -1992 -369 -117 -68 7 -57 332 31
783 210 1626 276 2610 206 121 -9 155 -4 155 23 0 27 -32 38 -182 61 -262 41
-620 59 -923 48z" fill="#C878A9"/>
<path d="M8335 16960 c-451 -16 -871 -112 -1135 -257 -111 -62 -257 -160 -458
-307 -389 -285 -541 -381 -712 -452 -56 -23 -75 -35 -75 -50 0 -46 163 -19
337 54 139 59 288 106 300 94 6 -6 1 -33 -15 -78 -75 -206 -108 -256 -377
-574 -90 -107 -94 -114 -86 -135 6 -16 51 -21 61 -6 3 5 42 22 88 37 159 52
322 152 562 344 373 297 715 445 946 406 472 -77 488 -92 1169 -1017 300 -408
562 -579 935 -611 42 -4 38 -29 -7 -50 -90 -42 -12 -51 127 -14 389 103 963
298 1183 403 60 28 93 36 170 44 166 16 272 59 386 159 69 60 78 62 70 11 -25
-159 191 162 256 379 38 126 40 364 4 495 -15 55 -36 136 -48 181 -34 130 -62
144 -149 71 -149 -125 -328 -155 -583 -99 -213 46 -263 86 -212 171 105 174
147 196 478 251 449 75 480 83 497 125 8 23 -25 54 -71 65 -23 6 -52 15 -65
21 -118 50 -413 105 -1056 199 -593 87 -1108 125 -1200 90 -46 -17 -378 -22
-417 -6 -90 37 -577 67 -903 56z" fill="#C878A9"/>
<path d="M7700 14844 c0 -9 14 -41 31 -70 37 -66 35 -70 -45 -76 -233 -19
-372 -264 -267 -472 59 -115 160 -191 311 -232 130 -35 571 -14 702 33 47 17
47 17 170 -25 573 -191 1269 -262 1796 -181 140 22 165 31 160 57 -3 14 -59
16 -468 17 -752 2 -1146 72 -1775 318 -318 124 -364 81 -68 -64 58 -28 101
-55 97 -59 -16 -15 -472 -24 -543 -10 -184 34 -295 129 -316 271 -31 210 256
333 440 188 288 -227 555 -350 905 -416 148 -28 631 -25 830 6 403 61 624 116
1125 281 374 123 679 220 812 259 118 35 143 46 143 66 0 61 -311 -13 -1085
-260 -493 -157 -806 -231 -1115 -266 -135 -15 -430 -16 -456 -1 -23 13 -30 10
146 56 154 39 235 70 224 87 -7 12 -24 11 -179 -10 -123 -16 -373 -30 -440
-25 -33 3 -136 9 -230 13 -168 7 -171 8 -249 44 -150 70 -346 216 -533 398
-89 86 -123 106 -123 73z" fill="#C878A9"/>
<path d="M8288 13895 c-8 -9 19 -79 66 -173 166 -330 254 -665 281 -1070 11
-159 40 -155 55 9 28 326 -73 751 -252 1056 -50 85 -138 190 -150 178z" fill="#C878A9"/>
<path d="M9288 13673 c-157 -171 -306 -552 -353 -908 -96 -718 117 -2011 502
-3050 121 -328 274 -634 273 -547 0 18 -8 41 -102 297 -189 516 -379 1185
-468 1655 -211 1103 -176 1769 124 2397 42 87 76 164 76 171 0 21 -25 13 -52
-15z" fill="#C878A9"/>
<path d="M27468 12658 c-38 -90 -66 -177 -157 -498 -95 -336 -189 -651 -239
-805 -84 -257 -26 -440 139 -440 97 0 133 53 228 331 50 148 60 197 42 208
-16 10 -40 -29 -115 -185 -109 -228 -165 -276 -224 -189 -30 44 -26 110 12
220 60 170 295 1025 350 1270 33 150 12 200 -36 88z" fill="#C878A9"/>
<path d="M15561 12273 c-43 -82 -142 -628 -176 -971 -8 -83 -19 -171 -25 -195
-17 -67 -1 -192 24 -192 16 0 24 14 39 65 11 36 32 103 48 149 16 45 29 103
29 127 0 24 13 126 30 226 45 280 89 730 76 782 -7 30 -31 34 -45 9z" fill="#C878A9"/>
<path d="M8724 11195 c-3 -14 -4 -83 -1 -153 3 -70 11 -302 17 -517 11 -397
13 -426 30 -409 31 31 41 583 15 832 -24 230 -44 313 -61 247z" fill="#C878A9"/>
<path d="M20615 9509 c-320 -29 -733 -93 -1060 -164 -115 -25 -241 -53 -279
-61 -38 -8 -72 -17 -76 -19 -32 -20 -552 -118 -1082 -205 -896 -147 -1107
-166 -1328 -124 -142 26 -153 -7 -30 -87 145 -93 224 -214 223 -339 -1 -36 -2
-148 -4 -250 -18 -1245 799 -2276 2006 -2531 212 -45 565 -32 565 21 0 21 9
19 -236 60 -690 114 -1012 256 -1431 629 -393 350 -648 860 -723 1447 -20 158
-25 259 -14 289 14 36 338 230 475 284 398 158 825 174 1619 61 772 -110 829
-113 1717 -79 885 33 1495 -108 2201 -508 178 -102 174 -93 112 -228 -147
-320 -337 -545 -680 -806 -374 -285 -985 -681 -1280 -829 -372 -188 -765 -309
-1109 -340 -158 -14 -191 -33 -161 -90 36 -68 439 -24 800 87 173 53 310 107
530 211 335 157 1140 702 1498 1015 421 367 668 849 772 1502 6 39 18 102 26
142 12 55 13 76 4 93 -10 18 -198 150 -214 150 -3 0 -29 14 -57 31 -309 182
-850 403 -1204 493 -487 122 -1156 184 -1580 145z" fill="#C878A9"/>
<path d="M12764 27869 c-18 -30 242 -253 407 -350 40 -23 122 -75 183 -116
765 -515 2068 -887 3391 -968 603 -37 1339 -28 2070 26 77 5 232 16 345 24
222 15 653 52 710 60 19 3 161 16 315 30 154 14 379 34 500 45 1413 126 2634
132 3575 15 336 -42 391 -47 398 -40 12 12 -29 34 -77 41 -25 3 -77 12 -116
20 -426 89 -1044 148 -1720 164 -214 5 -469 16 -565 25 -231 19 -694 52 -1005
70 -137 8 -349 21 -470 29 -287 20 -706 44 -870 51 -71 3 -283 14 -470 25
-386 22 -821 45 -1165 60 -129 6 -298 15 -375 20 -77 6 -234 14 -350 20 -574
27 -851 41 -1070 55 -132 8 -287 17 -345 20 -58 3 -184 10 -280 15 -96 6 -301
17 -455 25 -154 8 -336 19 -405 25 -69 5 -201 14 -295 20 -770 48 -1200 177
-1720 515 -141 92 -132 87 -141 74z m1277 -649 c141 -27 567 -72 899 -94 101
-7 602 -31 955 -46 138 -6 322 -15 410 -20 88 -5 250 -14 360 -20 110 -6 319
-17 465 -25 559 -32 825 -46 1100 -60 157 -8 310 -17 340 -20 30 -3 190 -12
355 -20 165 -8 323 -17 350 -20 28 -3 140 -10 250 -15 110 -6 313 -17 450 -25
138 -8 412 -24 611 -35 368 -20 428 -26 419 -41 -8 -11 -58 -17 -355 -39 -146
-11 -332 -27 -415 -35 -155 -15 -544 -50 -955 -85 -1249 -107 -2200 -118
-2970 -34 -777 84 -1439 240 -2051 484 -337 134 -415 187 -218 150z" fill="#A42A5B"/>
<path d="M7830 26351 c-166 -169 -313 -383 -435 -633 -31 -64 -90 -159 -147
-235 -52 -70 -128 -175 -169 -231 -41 -57 -119 -166 -174 -243 -55 -76 -169
-237 -254 -356 -194 -273 -336 -472 -474 -661 -59 -81 -143 -196 -186 -257
-173 -242 -729 -954 -976 -1251 -55 -66 -174 -210 -265 -319 -91 -110 -192
-229 -226 -265 -33 -36 -95 -105 -139 -155 -43 -49 -99 -112 -125 -140 -105
-113 -356 -404 -464 -537 -63 -79 -128 -152 -143 -163 -62 -44 -750 -641
-1060 -919 -514 -461 -857 -848 -536 -604 120 90 269 218 443 378 63 58 169
153 235 210 66 58 201 177 300 265 304 269 846 724 1265 1061 151 121 426 341
610 489 1312 1052 1736 1564 2107 2545 12 30 30 80 42 110 12 30 62 190 111
355 235 786 415 1183 692 1530 48 61 88 113 88 118 0 22 -32 -3 -120 -92z
m-739 -1416 c-406 -1236 -681 -1679 -1506 -2426 -274 -249 -1217 -1018 -1247
-1019 -22 0 -21 2 320 414 59 72 136 166 172 211 36 44 113 137 171 205 510
602 1528 1936 1908 2500 205 305 232 343 242 333 5 -5 -22 -102 -60 -218z" fill="#A42A5B"/>
<path d="M20460 24344 c-907 -48 -1639 -171 -2455 -413 -380 -113 -426 -127
-640 -206 -49 -18 -184 -68 -300 -110 -213 -78 -255 -101 -255 -141 0 -61 52
-57 250 21 141 55 206 79 475 171 845 291 1719 495 2375 554 63 5 169 16 235
22 250 25 1034 16 1315 -15 501 -56 1033 -154 1335 -247 198 -61 255 -65 140
-11 -240 112 -835 257 -1322 321 -275 37 -917 67 -1153 54z" fill="#A42A5B"/>
<path d="M28186 22026 c-14 -25 -26 -47 -26 -51 0 -43 -208 -270 -342 -373
-192 -147 -989 -426 -1593 -556 -303 -66 -647 -132 -840 -161 -101 -16 -212
-33 -495 -79 -85 -14 -213 -35 -285 -46 -71 -11 -200 -30 -285 -44 -85 -13
-177 -27 -205 -30 -27 -4 -106 -16 -175 -27 -69 -10 -170 -26 -225 -34 -55 -9
-170 -27 -255 -41 -365 -59 -553 -88 -895 -139 -93 -15 -267 -41 -385 -60
-118 -19 -359 -55 -535 -80 -503 -72 -723 -117 -984 -201 -49 -15 -81 -18 -81
-6 0 4 53 32 117 62 186 87 238 116 241 134 6 28 -164 0 -303 -49 -22 -8 -87
-30 -145 -50 -58 -20 -154 -56 -215 -80 -60 -24 -200 -76 -310 -115 -661 -237
-926 -387 -2100 -1183 -153 -104 -180 -127 -183 -150 -6 -49 10 -57 117 -57
100 1 132 7 411 78 85 22 209 52 275 66 66 14 139 31 162 38 86 25 84 2 -25
-222 -155 -317 -241 -443 -533 -775 -239 -273 -280 -325 -277 -348 2 -17 9
-21 27 -19 39 4 327 184 756 472 83 55 220 146 305 203 85 56 178 119 205 138
810 575 1125 708 1915 809 263 34 257 34 335 8 85 -28 88 -41 20 -86 -67 -45
-80 -68 -34 -58 105 23 100 24 185 -53 43 -40 123 -103 179 -140 89 -62 149
-115 444 -399 117 -113 271 -220 302 -210 5 2 -63 75 -151 164 -219 220 -215
234 31 128 283 -121 384 -178 592 -332 148 -109 212 -85 -693 -268 -639 -129
-970 -203 -1012 -225 -167 -89 714 52 1659 265 117 27 226 46 261 46 40 0 64
5 72 14 6 8 82 31 168 52 260 60 912 222 987 244 157 47 206 37 92 -19 -354
-172 -1108 -392 -1599 -467 -193 -29 -191 -50 4 -47 468 6 1331 269 2223 677
187 85 211 94 225 81 27 -28 -6 -62 -115 -120 -135 -71 -137 -95 -5 -60 193
52 87 -33 -280 -224 -91 -47 -241 -120 -335 -163 -185 -84 -223 -116 -123
-103 506 64 1306 589 2104 1380 221 219 378 425 324 425 -19 0 -195 -155 -369
-325 -98 -95 -187 -178 -199 -184 -56 -30 -3 68 88 164 69 73 155 188 235 315
241 385 476 573 860 686 221 66 493 -22 534 -171 35 -129 -49 -320 -219 -499
-187 -197 -385 -297 -800 -405 -160 -41 -166 -43 -155 -60 23 -39 371 22 561
99 509 204 861 741 659 1006 -185 243 -714 178 -1083 -133 -93 -78 -107 -68
-46 33 20 32 46 74 57 92 56 94 -64 -31 -138 -143 -55 -82 -80 -85 -71 -7 20
183 19 249 -3 271 -31 31 -32 31 -162 -94 -271 -259 -584 -390 -785 -330 -67
20 -184 116 -184 152 0 40 35 86 82 109 24 12 95 47 158 77 179 86 302 167
481 317 43 36 93 65 140 84 346 135 856 471 1304 861 290 253 405 410 405 555
0 52 -12 51 -44 -4z" fill="#A42A5B"/>
<path d="M20985 21129 c-194 -10 -487 -42 -690 -75 -82 -14 -202 -31 -265 -39
-138 -17 -219 -29 -410 -61 -80 -14 -221 -36 -315 -50 -260 -38 -497 -82 -508
-93 -14 -14 143 -14 223 0 262 44 246 8 -42 -95 -136 -49 -357 -142 -476 -200
-40 -20 -74 -36 -76 -36 -9 0 -223 -123 -236 -136 -31 -30 24 -13 210 66 1025
436 1735 605 2688 642 230 9 382 9 636 0 336 -11 427 -7 356 16 -169 55 -670
83 -1095 61z" fill="#A42A5B"/>
<path d="M7590 17574 c-785 -33 -1600 -177 -1921 -339 -130 -66 -49 -58 301
30 748 187 1430 254 2215 215 497 -25 495 -25 495 -6 0 58 -655 118 -1090 100z" fill="#A42A5B"/>
<path d="M8290 16950 c-688 -41 -1007 -161 -1598 -602 -260 -194 -397 -283
-563 -368 -82 -41 -150 -79 -152 -85 -8 -34 167 1 316 63 102 43 276 102 301
102 25 0 20 -30 -24 -144 -62 -159 -118 -246 -281 -436 -188 -219 -205 -257
-92 -207 32 14 78 31 103 37 107 28 267 128 495 310 300 239 514 355 779 422
167 42 501 -36 671 -157 118 -84 365 -385 669 -815 302 -428 628 -650 956
-650 63 0 80 -39 29 -65 -175 -91 519 110 986 285 130 49 185 73 325 146 49
26 64 28 140 27 141 -4 268 46 396 157 74 64 94 65 74 5 -46 -140 103 63 185
251 89 208 101 442 33 669 -20 66 -39 137 -43 157 -10 62 -64 91 -96 51 -119
-142 -382 -186 -673 -112 -164 42 -215 92 -169 167 118 189 167 214 544 272
419 66 466 80 426 134 -28 38 -389 126 -742 180 -909 142 -1526 198 -1638 151
-51 -21 -351 -21 -422 0 -130 40 -667 71 -935 55z" fill="#A42A5B"/>
<path d="M7720 14825 c0 -9 12 -33 26 -55 40 -61 32 -74 -53 -82 -258 -26
-382 -286 -239 -499 125 -187 350 -239 797 -185 59 8 121 21 139 30 49 24 94
20 210 -20 241 -83 617 -161 955 -199 351 -40 1030 4 971 62 -4 4 -174 6 -379
4 -474 -3 -704 15 -1022 80 -240 49 -552 138 -720 205 -160 64 -275 104 -298
104 -43 0 27 -52 155 -115 68 -33 123 -64 123 -70 0 -11 -203 -23 -415 -26
-274 -3 -437 80 -486 248 -54 187 83 320 310 298 74 -7 74 -7 173 -85 354
-284 728 -405 1248 -404 492 0 872 75 1600 314 401 131 624 204 773 250 90 28
132 45 132 55 0 17 -23 19 -82 5 -353 -81 -448 -108 -903 -250 -778 -244
-1074 -305 -1485 -303 -289 1 -324 22 -110 67 160 33 192 42 215 62 22 17 -31
16 -300 -6 -119 -10 -442 -2 -591 16 -121 14 -379 186 -631 419 -107 100 -113
104 -113 80z" fill="#A42A5B"/>
<path d="M8330 13813 c5 -16 35 -86 68 -158 145 -317 209 -568 242 -944 6 -69
13 -127 15 -130 24 -24 38 144 26 307 -22 281 -104 561 -231 785 -77 134 -142
210 -120 140z" fill="#A42A5B"/>
<path d="M9253 13608 c-230 -304 -348 -796 -329 -1373 27 -800 276 -1929 595
-2705 47 -113 135 -290 145 -290 13 0 5 27 -69 225 -152 406 -356 1117 -445
1550 -234 1132 -206 1835 99 2494 34 72 61 136 61 141 0 22 -20 7 -57 -42z" fill="#A42A5B"/>
<path d="M27474 12635 c-31 -59 -78 -209 -174 -550 -34 -121 -70 -247 -80
-280 -10 -33 -30 -98 -44 -145 -14 -47 -48 -159 -77 -250 -66 -212 -75 -303
-36 -382 48 -97 138 -130 219 -80 46 28 68 75 138 280 79 237 52 249 -49 23
-103 -229 -184 -281 -247 -158 -22 42 -14 109 29 238 41 120 168 570 256 904
91 343 115 498 65 400z" fill="#A42A5B"/>
<path d="M15567 12233 c-42 -74 -137 -591 -171 -928 -9 -83 -19 -170 -23 -195
-12 -64 -4 -180 11 -180 20 0 89 232 105 350 5 41 23 167 40 280 60 407 79
746 38 673z" fill="#A42A5B"/>
<path d="M8744 10943 c3 -38 8 -185 11 -328 6 -270 13 -337 26 -255 14 86 10
401 -7 528 -18 130 -39 169 -30 55z" fill="#A42A5B"/>
<path d="M20700 9504 c-19 -2 -111 -11 -205 -20 -282 -25 -590 -76 -1005 -164
-201 -43 -241 -52 -355 -79 -292 -71 -1101 -214 -1680 -297 -204 -30 -555 -40
-692 -20 -82 12 -85 -8 -10 -55 193 -123 254 -244 239 -473 -30 -448 68 -944
265 -1336 342 -685 960 -1155 1738 -1321 189 -41 562 -32 518 12 -5 5 -70 18
-144 29 -529 79 -827 176 -1136 371 -483 304 -815 727 -989 1259 -84 257 -140
640 -115 783 6 34 18 120 26 191 9 71 24 175 35 230 10 56 23 124 27 151 8 50
8 50 68 53 227 10 716 77 1320 183 264 45 352 63 570 111 50 11 128 29 175 39
1066 237 1718 267 2585 118 204 -35 471 -113 763 -224 153 -58 153 -58 199
-129 25 -39 80 -116 122 -171 142 -184 184 -272 314 -663 33 -96 34 -105 22
-150 -7 -26 -17 -73 -23 -105 -14 -75 -123 -296 -205 -415 -192 -281 -429
-483 -1052 -898 -816 -544 -1296 -749 -1882 -804 -134 -12 -143 -15 -143 -46
0 -48 80 -56 317 -29 639 71 1316 413 2278 1150 576 441 825 849 969 1590 68
352 79 310 -109 422 -563 338 -1200 566 -1830 657 -289 42 -818 69 -975 50z" fill="#A42A5B"/>
<path d="M12875 27759 c73 -74 191 -164 288 -220 39 -23 128 -79 197 -124 456
-299 981 -516 1695 -700 412 -107 899 -196 1230 -226 66 -6 122 -12 126 -15 4
-2 162 -13 350 -24 582 -34 1385 -24 2064 25 437 31 483 35 610 45 72 6 195
17 275 25 80 8 179 17 220 20 41 3 113 10 160 16 47 5 164 16 260 24 96 8 247
21 335 30 299 28 678 54 1239 85 98 5 348 13 555 16 528 9 1044 -11 1626 -62
91 -8 78 13 -16 26 -35 5 -113 16 -174 25 -299 41 -734 72 -1160 80 -271 6
-519 20 -885 50 -96 8 -222 17 -280 20 -58 3 -202 12 -320 20 -118 8 -291 19
-385 25 -93 6 -235 15 -315 20 -313 20 -1568 86 -1890 100 -129 5 -257 12
-285 15 -27 3 -162 10 -300 15 -137 6 -308 15 -380 20 -71 6 -238 14 -370 20
-132 5 -319 14 -415 20 -96 5 -260 14 -365 20 -104 5 -264 14 -355 20 -91 5
-300 16 -465 25 -300 16 -942 56 -1215 75 -413 30 -873 123 -1085 220 -11 5
-58 25 -105 45 -105 45 -208 99 -317 168 -171 106 -188 117 -198 117 -5 0 17
-27 50 -61z m1150 -514 c169 -30 523 -71 735 -85 85 -5 175 -12 200 -15 25 -3
252 -14 505 -25 484 -22 896 -42 1205 -60 441 -25 884 -50 990 -55 63 -4 219
-12 345 -20 127 -8 286 -17 355 -20 69 -3 229 -12 355 -20 127 -8 289 -17 360
-20 72 -3 229 -12 350 -20 121 -8 283 -17 360 -20 77 -3 203 -10 280 -15 77
-5 322 -19 545 -30 402 -20 571 -33 590 -45 36 -22 -37 -40 -200 -50 -99 -6
-374 -29 -905 -76 -968 -85 -1110 -96 -1725 -135 -509 -32 -1382 -29 -1791 6
-775 67 -1334 173 -1911 364 -489 161 -828 307 -828 356 0 15 33 12 185 -15z" fill="#0E0E0E"/>
<path d="M7718 26203 c-96 -103 -199 -266 -303 -478 -47 -95 -95 -172 -179
-284 -63 -84 -166 -225 -228 -312 -62 -88 -162 -228 -222 -312 -60 -83 -124
-172 -141 -197 -588 -835 -1157 -1589 -1624 -2150 -52 -63 -125 -151 -161
-195 -202 -245 -272 -327 -336 -395 -39 -41 -102 -111 -140 -156 -75 -87 -371
-420 -417 -469 -16 -16 -82 -97 -147 -180 -86 -110 -142 -169 -207 -222 -158
-129 -236 -195 -439 -374 -109 -96 -231 -202 -270 -235 -40 -32 -125 -108
-191 -169 -65 -60 -179 -165 -253 -231 -269 -243 -490 -474 -452 -474 25 0
256 192 487 405 72 66 162 147 200 180 39 33 167 146 285 250 289 256 368 323
925 790 28 23 167 135 310 250 143 115 280 226 305 246 25 21 126 102 225 180
901 713 1321 1107 1691 1589 88 114 218 323 317 512 114 215 280 613 335 803
227 782 369 1149 584 1505 116 193 118 199 46 123z m-518 -981 c0 -16 -9 -55
-21 -88 -11 -32 -66 -192 -121 -354 -54 -162 -119 -349 -143 -415 -334 -921
-779 -1463 -2020 -2460 -143 -115 -332 -267 -420 -338 -159 -128 -212 -164
-223 -153 -10 11 17 50 120 171 55 66 146 176 202 245 55 69 166 203 246 299
80 96 218 264 308 375 89 111 198 244 240 296 247 301 1095 1414 1303 1710
161 229 334 481 394 575 103 160 135 193 135 137z" fill="#0E0E0E"/>
<path d="M20175 24315 c-650 -41 -1494 -196 -2185 -403 -36 -11 -119 -36 -185
-55 -323 -97 -939 -325 -967 -358 -37 -43 13 -72 78 -44 396 169 1175 419
1730 556 1093 269 2172 336 3129 193 301 -45 468 -74 656 -114 65 -14 100 -9
56 9 -16 6 -40 11 -53 11 -14 0 -34 5 -44 10 -58 31 -560 130 -840 165 -337
42 -959 56 -1375 30z" fill="#0E0E0E"/>
<path d="M28145 21923 c-105 -167 -308 -346 -490 -434 -160 -76 -552 -219
-810 -294 -49 -15 -127 -37 -172 -51 -46 -13 -100 -28 -120 -33 -21 -6 -83
-22 -138 -36 -299 -77 -839 -181 -1325 -254 -36 -6 -126 -19 -200 -31 -74 -12
-182 -28 -240 -36 -58 -8 -112 -17 -120 -19 -9 -3 -63 -11 -120 -19 -58 -8
-136 -20 -175 -26 -38 -6 -214 -33 -390 -61 -176 -27 -358 -56 -405 -64 -88
-14 -192 -31 -415 -65 -71 -12 -173 -27 -225 -36 -52 -8 -108 -17 -125 -19
-16 -3 -131 -21 -255 -40 -381 -59 -534 -82 -835 -125 -159 -23 -337 -50 -395
-61 -58 -11 -127 -24 -155 -29 -104 -19 -394 -102 -476 -137 -45 -19 -74 -14
-74 12 0 21 35 42 140 83 286 114 354 169 144 118 -130 -33 -347 -105 -509
-171 -63 -26 -212 -82 -331 -125 -636 -231 -911 -387 -2024 -1145 -205 -140
-229 -161 -205 -190 23 -28 253 -9 365 30 59 20 175 50 310 80 66 14 166 38
222 52 164 42 166 33 43 -219 -163 -338 -220 -422 -515 -762 -353 -408 -361
-424 -156 -304 101 58 728 469 1006 659 410 279 496 336 655 434 468 289 721
373 1385 460 205 27 276 30 321 15 16 -5 48 -14 70 -20 53 -13 60 -31 28 -70
-26 -30 -26 -30 1 -40 15 -6 58 -39 96 -74 37 -35 110 -92 160 -127 103 -71
222 -176 409 -359 129 -127 265 -238 277 -226 4 4 -36 50 -89 104 -183 184
-195 201 -158 225 29 18 476 -186 626 -287 270 -180 319 -232 237 -255 -80
-23 -850 -184 -1369 -286 -116 -23 -338 -77 -354 -86 -111 -63 732 86 1645
291 99 22 199 40 223 40 24 0 55 6 70 14 26 13 110 35 272 72 112 25 597 141
660 158 121 33 211 58 330 91 136 38 170 42 170 21 0 -84 -1223 -488 -1655
-547 -97 -13 -123 -24 -81 -35 57 -14 354 34 598 96 387 98 1076 349 1528 557
113 52 220 101 237 109 30 13 34 13 53 -6 39 -39 16 -74 -89 -136 -83 -48 -82
-52 6 -29 76 20 93 19 93 -4 0 -34 -82 -87 -385 -247 -135 -72 -183 -96 -352
-175 -149 -70 -150 -85 -3 -48 449 114 1021 482 1681 1083 208 190 398 380
475 476 193 241 110 190 -230 -140 -194 -189 -247 -232 -263 -216 -20 20 40
114 149 234 44 48 114 139 156 202 41 63 100 153 131 200 151 229 319 381 547
493 339 168 683 149 788 -43 78 -143 -17 -374 -246 -596 -174 -169 -337 -249
-723 -355 -154 -42 -166 -53 -50 -46 454 31 911 337 1075 722 45 104 51 264
13 325 -175 280 -745 219 -1118 -120 -63 -57 -83 -70 -111 -70 -18 0 -45 -5
-59 -12 -45 -20 -51 -1 -32 99 19 96 26 231 14 251 -16 25 -42 10 -145 -89
-305 -289 -638 -420 -832 -328 -78 37 -170 123 -170 157 0 41 43 96 92 119 23
11 88 42 143 68 172 81 340 192 496 327 38 33 87 61 150 87 533 218 1502 945
1643 1232 71 145 58 185 -19 62z m-2119 -2487 c112 -35 106 -75 -11 -76 -72 0
-404 -40 -485 -59 -25 -5 -83 -15 -130 -21 -111 -14 -225 -36 -332 -63 -107
-26 -119 -20 -87 46 25 52 29 54 179 96 316 89 711 124 866 77z m192 -232 c8
-58 -100 -162 -281 -271 -180 -108 -190 -97 -47 53 94 99 109 123 84 131 -23
8 -352 -248 -493 -383 -91 -86 -100 -91 -316 -176 -254 -100 -681 -227 -1204
-358 -308 -77 -801 -190 -831 -190 -19 0 -57 27 -136 96 -126 111 -267 214
-374 273 -121 68 -123 80 -15 95 112 16 279 80 598 229 339 160 483 181 891
130 235 -29 321 -27 456 12 103 30 113 31 105 5 -7 -22 -6 -23 41 -16 123 16
494 180 494 217 0 39 -106 8 -339 -97 -167 -75 -203 -84 -141 -36 19 14 71 61
115 103 79 74 83 77 150 88 155 25 309 42 485 51 225 12 490 36 596 55 112 19
158 16 162 -11z" fill="#0E0E0E"/>
<path d="M25315 18884 c-179 -33 -166 -81 23 -83 125 -1 180 31 132 79 -23 23
-45 24 -155 4z" fill="#0E0E0E"/>
<path d="M24020 18763 c-398 -41 -933 -197 -948 -276 -5 -26 14 -23 270 42
259 66 438 106 697 157 96 19 181 40 188 46 39 32 -58 47 -207 31z" fill="#0E0E0E"/>
<path d="M20925 21113 c-134 -8 -441 -45 -615 -74 -102 -16 -243 -37 -315 -45
-71 -8 -195 -26 -275 -40 -80 -14 -188 -32 -240 -40 -52 -8 -121 -21 -153 -29
-32 -8 -83 -15 -113 -15 -30 0 -54 -4 -54 -10 0 -5 19 -10 43 -10 129 -1 78
-42 -143 -117 -207 -70 -642 -264 -627 -280 3 -3 34 6 69 20 787 314 1319 464
1908 541 326 43 423 49 928 53 276 3 502 9 502 13 0 27 -653 51 -915 33z" fill="#0E0E0E"/>
<path d="M7380 17554 c-563 -33 -1314 -171 -1607 -297 -111 -47 -41 -37 227
32 232 60 502 111 825 155 104 15 159 20 449 47 117 11 938 6 1209 -7 73 -4
117 -2 117 4 0 45 -815 89 -1220 66z" fill="#0E0E0E"/>
<path d="M8140 16924 c-556 -53 -894 -182 -1336 -511 -352 -263 -482 -350
-634 -427 -120 -61 -138 -76 -89 -76 39 0 143 33 231 74 31 14 62 26 69 26 18
0 162 50 176 62 21 17 68 5 71 -18 11 -80 -144 -365 -304 -556 -187 -225 -186
-222 -63 -183 165 52 292 128 529 319 299 240 525 361 799 425 85 20 85 20
215 -4 381 -70 507 -152 767 -500 58 -77 146 -194 196 -260 49 -66 125 -169
168 -230 278 -392 570 -603 859 -621 135 -8 146 -12 158 -45 12 -35 30 -37
119 -10 35 10 108 31 162 46 185 51 617 204 710 252 130 66 -84 20 -506 -108
-142 -43 -165 -46 -173 -24 -9 22 -55 19 -163 -11 -95 -26 -201 -28 -201 -3 0
5 1 9 3 9 72 0 207 43 207 65 0 24 -28 32 -185 54 -236 33 -273 48 -375 151
-54 55 -108 97 -147 118 -91 48 -88 52 50 87 50 13 144 39 207 58 63 19 147
38 187 42 122 12 113 53 -16 77 -74 14 -74 29 0 45 145 30 206 14 307 -81 59
-54 77 -65 117 -72 180 -26 441 81 605 250 49 51 97 59 200 35 88 -21 186 -13
305 24 141 44 178 50 244 37 136 -26 196 -141 136 -260 -14 -27 -25 -64 -25
-82 0 -38 -84 -125 -183 -191 -32 -21 -57 -42 -57 -48 0 -40 181 47 272 132
69 64 98 74 98 34 0 -58 22 -28 115 160 76 155 96 243 96 416 -1 146 -5 178
-45 305 -13 44 -27 97 -31 119 -7 41 -29 85 -43 85 -5 0 -35 -21 -68 -46 -133
-105 -265 -137 -472 -115 -219 22 -382 88 -382 154 0 39 115 208 163 240 48
31 233 77 412 102 310 43 425 70 425 100 0 19 -11 25 -89 45 -36 10 -109 29
-161 43 -105 28 -307 68 -470 92 -685 103 -942 137 -1185 155 -143 11 -203 10
-640 -7 -174 -7 -199 -6 -295 14 -233 48 -737 66 -1040 37z m1152 -2066 c55
-29 100 -73 143 -140 40 -64 -56 -11 -163 89 -92 86 -84 106 20 51z" fill="#0E0E0E"/>
<path d="M11557 15230 c-31 -10 -276 -54 -552 -100 -99 -16 -254 -50 -345 -74
-355 -95 -363 -96 -683 -96 -223 0 -258 -2 -264 -15 -16 -44 119 -68 392 -69
255 -1 303 5 585 74 149 37 230 53 425 86 202 34 453 106 520 150 61 40 7 70
-78 44z" fill="#0E0E0E"/>
<path d="M7788 14713 c-3 -38 -3 -38 -88 -44 -388 -27 -389 -517 -1 -640 133
-42 621 -32 621 13 0 7 -77 8 -223 3 -312 -10 -441 18 -543 121 -201 201 -60
489 224 459 88 -9 100 -15 181 -83 576 -483 1432 -543 2596 -181 472 146 966
317 922 318 -45 2 -271 -59 -662 -180 -756 -232 -936 -276 -1262 -314 -197
-23 -552 -18 -602 9 -44 24 -33 33 70 56 160 36 157 38 -66 39 -410 3 -526 19
-661 93 -127 69 -255 161 -395 283 -110 97 -107 95 -111 48z" fill="#0E0E0E"/>
<path d="M8190 14221 c0 -13 93 -64 155 -86 28 -10 59 -26 70 -35 27 -22 298
-111 470 -154 385 -96 765 -142 1114 -134 187 5 413 29 433 47 4 3 -156 6
-355 7 -516 1 -780 31 -1212 140 -173 44 -422 121 -468 146 -42 22 -207 77
-207 69z" fill="#0E0E0E"/>
<path d="M8436 13630 c3 -14 21 -63 39 -110 66 -172 96 -271 119 -395 29 -151
56 -330 56 -375 0 -25 5 -52 11 -60 16 -23 3 300 -16 395 -45 221 -136 472
-200 550 -16 20 -16 19 -9 -5z" fill="#0E0E0E"/>
<path d="M9198 13500 c-248 -388 -322 -1106 -198 -1920 70 -461 105 -643 186
-965 66 -265 102 -379 262 -845 21 -61 46 -98 37 -55 -4 17 -11 41 -16 55 -8
25 -132 437 -142 475 -3 11 -21 81 -42 155 -48 178 -110 427 -130 520 -249
1171 -236 1853 46 2518 48 111 46 139 -3 62z" fill="#0E0E0E"/>
<path d="M27424 12439 c-7 -8 -16 -34 -22 -59 -6 -25 -24 -92 -42 -150 -17
-58 -44 -152 -61 -210 -72 -245 -162 -544 -200 -658 -54 -169 -61 -253 -25
-324 58 -118 186 -133 244 -30 17 32 82 210 82 226 0 19 -21 1 -26 -21 -9 -37
-99 -168 -129 -187 -45 -30 -85 -19 -115 30 -46 73 -43 112 20 309 16 50 45
151 66 225 20 74 51 187 70 250 18 63 44 162 58 220 25 101 50 195 83 307 17
60 15 95 -3 72z" fill="#0E0E0E"/>
<path d="M15535 12058 c-40 -143 -114 -595 -130 -803 -3 -44 -11 -106 -16
-137 -10 -58 -4 -112 12 -103 13 9 57 164 67 240 6 39 21 144 36 235 66 424
84 751 31 568z" fill="#0E0E0E"/>
<path d="M20659 9486 c-2 -2 -67 -9 -144 -16 -231 -19 -595 -77 -945 -150
-310 -65 -330 -69 -420 -90 -47 -11 -116 -26 -155 -34 -38 -8 -135 -29 -215
-46 -142 -30 -715 -128 -1170 -199 -324 -52 -614 -71 -770 -53 -100 12 -107 9
-60 -27 208 -157 223 -197 225 -591 1 -327 11 -427 71 -675 227 -955 971
-1664 1944 -1855 158 -31 438 -34 408 -5 -3 3 -97 21 -209 39 -458 77 -743
183 -1064 395 -610 403 -989 1057 -1045 1808 -14 191 0 370 50 658 11 66 23
135 26 152 7 45 23 51 175 63 213 17 693 83 1091 150 322 55 517 93 1078 210
643 135 902 169 1340 177 625 11 1134 -71 1731 -280 237 -83 271 -100 305
-154 16 -26 79 -113 139 -194 127 -170 175 -261 240 -455 26 -76 63 -183 82
-237 39 -106 39 -97 -24 -287 -128 -381 -417 -712 -938 -1074 -1006 -699
-1553 -959 -2138 -1017 -202 -19 -197 -18 -197 -40 0 -18 8 -19 108 -19 358 0
754 111 1214 341 211 105 326 173 668 398 180 118 550 392 745 552 297 243
532 575 654 922 78 225 202 776 186 827 -15 49 -460 289 -810 438 -576 245
-1223 372 -1901 372 -149 0 -273 -2 -275 -4z" fill="#0E0E0E"/>
</g>
</svg>
