<?xml version="1.0" encoding="UTF-8"?>
<svg version="1.1" xmlns="http://www.w3.org/2000/svg" width="800" height="800" viewBox="0 0 3200.000000 3200.000000">
<g transform="translate(0.000000,3200.000000) scale(0.100000,-0.100000)">
<path d="M18190 28989 c-8 -14 -8 -33 -2 -62 10 -42 14 -55 47 -152 9 -27 20
-66 24 -85 5 -19 13 -46 18 -60 6 -14 19 -52 29 -85 18 -61 119 -317 155 -391
10 -22 19 -43 19 -47 0 -4 13 -35 28 -69 16 -35 39 -97 52 -138 77 -249 198
-561 311 -805 15 -33 39 -88 53 -123 25 -62 137 -273 185 -347 14 -22 31 -51
38 -65 7 -14 21 -37 30 -51 10 -15 39 -57 64 -95 52 -79 71 -97 96 -92 31 6
26 34 -25 140 -69 144 -97 205 -117 263 -10 28 -27 70 -37 95 -11 25 -24 54
-28 65 -5 11 -43 91 -85 178 -41 87 -75 161 -75 164 0 3 -7 20 -16 39 -32 67
-8 41 116 -124 527 -704 1144 -1244 2125 -1860 17 -10 68 -44 115 -74 165
-107 850 -468 1000 -527 19 -7 53 -21 75 -31 22 -10 90 -39 150 -65 61 -25
124 -52 140 -60 17 -7 68 -28 115 -45 151 -56 373 -140 460 -175 47 -18 115
-45 152 -59 36 -14 79 -33 95 -41 15 -8 114 -46 218 -85 105 -39 199 -74 210
-79 11 -5 47 -18 80 -30 33 -12 73 -28 88 -36 55 -28 109 -8 78 29 -10 12 -98
58 -181 95 -14 6 -32 15 -40 20 -8 5 -26 14 -40 20 -14 6 -32 15 -40 21 -16
10 -120 58 -250 115 -41 19 -88 41 -105 49 -16 9 -34 16 -38 16 -8 0 -543 267
-644 321 -32 17 -87 48 -123 69 -36 20 -144 77 -240 125 -286 143 -492 258
-540 300 -14 12 -99 60 -190 107 -205 106 -281 147 -300 163 -8 7 -51 32 -95
54 -44 23 -107 60 -140 81 -33 22 -186 123 -340 224 -279 184 -546 376 -655
471 -193 168 -262 227 -315 270 -131 104 -322 310 -520 560 -65 83 -135 170
-154 193 -71 87 -252 346 -315 452 -15 25 -31 52 -36 60 -56 88 -173 286 -177
299 -3 9 -12 23 -18 31 -7 8 -32 51 -55 95 -88 165 -102 190 -110 200 -5 6
-17 33 -28 60 -11 28 -50 111 -86 186 -36 75 -66 143 -66 151 0 9 -6 21 -14
27 -8 7 -17 27 -20 47 -8 42 -62 124 -81 124 -8 0 -19 -9 -25 -21z" fill="#F296A8"/>
<path d="M12119 26810 c-25 -15 -31 -51 -34 -230 -4 -197 -20 -473 -28 -487
-4 -6 -11 -43 -18 -84 -16 -108 -46 -228 -61 -246 -24 -30 -116 -9 -318 72
-280 112 -272 117 -282 -159 -14 -411 -78 -600 -251 -729 -80 -60 -97 -68
-287 -124 -30 -9 -107 -33 -170 -53 -63 -21 -155 -50 -205 -66 -49 -15 -101
-34 -115 -41 -14 -7 -30 -13 -35 -13 -38 0 -414 -182 -550 -267 -49 -30 -106
-65 -125 -76 -53 -32 -206 -143 -286 -208 -40 -31 -89 -68 -110 -82 -184 -116
-1099 -982 -1365 -1292 -43 -50 -556 -554 -684 -671 -178 -164 -331 -295 -436
-374 -81 -61 -273 -204 -304 -227 -116 -85 -352 -226 -502 -298 -68 -33 -84
-58 -64 -101 12 -28 48 -32 89 -10 15 8 103 52 196 97 93 46 190 97 215 114
25 17 73 46 105 64 72 40 268 169 351 231 109 81 250 192 265 209 8 9 42 39
75 66 82 68 221 190 273 237 23 22 42 38 42 36 0 -2 -9 -21 -20 -42 -23 -46
-19 -56 23 -56 45 0 242 200 537 549 333 394 689 755 901 918 42 32 125 96
184 143 345 274 840 551 1290 720 33 12 76 29 95 36 19 7 69 23 110 35 240 68
306 92 430 152 228 112 410 408 481 782 5 28 15 75 21 105 6 30 14 105 17 165
6 102 7 110 26 108 25 -1 269 -95 351 -134 77 -36 84 -36 118 0 30 31 59 120
76 229 6 35 15 72 20 82 6 10 14 58 20 107 5 48 13 102 18 119 6 17 13 140 17
273 4 132 11 241 16 241 4 0 35 -18 69 -40 77 -52 271 -160 286 -160 25 0 38
29 24 55 -14 26 -168 151 -325 264 -98 70 -130 82 -166 61z m-1194 -2156 c-16
-13 -41 -27 -55 -29 -14 -3 -38 -11 -55 -17 -54 -20 -114 -22 -91 -3 11 8 29
15 40 15 11 0 43 9 71 19 52 20 106 38 115 40 3 0 -8 -11 -25 -25z" fill="#F296A8"/>
<path d="M21185 23274 c-111 -16 -394 -113 -451 -156 -6 -4 -36 -21 -67 -38
-135 -72 -302 -199 -294 -224 7 -21 46 -17 94 10 69 39 150 79 208 104 28 11
63 28 78 35 16 8 37 15 47 15 10 0 37 9 61 20 24 11 55 20 69 20 13 0 42 6 65
14 22 8 96 24 165 35 69 12 144 26 167 31 23 5 84 14 134 20 103 12 119 20
119 60 0 50 -18 55 -199 56 -91 1 -179 0 -196 -2z" fill="#F296A8"/>
<path d="M10282 22475 c-17 -13 -22 -25 -20 -48 3 -37 32 -45 166 -46 40 -1
85 -7 100 -15 15 -7 45 -16 67 -20 63 -11 187 -52 285 -94 66 -29 118 32 70
83 -25 27 -122 76 -195 99 -27 9 -72 23 -100 32 -77 25 -342 31 -373 9z" fill="#F296A8"/>
<path d="M9765 22428 c-27 -11 -66 -26 -85 -33 -133 -48 -200 -76 -308 -127
-67 -32 -125 -58 -128 -58 -9 0 -337 -191 -364 -212 -14 -11 -68 -48 -120 -82
-442 -289 -621 -427 -915 -701 -219 -205 -285 -275 -285 -307 0 -50 40 -36
137 47 143 122 331 272 437 349 54 39 121 88 150 109 28 20 85 60 126 89 41
28 95 68 119 87 24 20 66 50 92 66 156 98 280 171 399 235 252 137 295 160
442 235 303 154 423 229 426 266 6 60 -36 72 -123 37z" fill="#F296A8"/>
<path d="M24438 20083 c-23 -26 -108 -154 -108 -163 0 -4 -32 -34 -71 -66 -40
-33 -95 -79 -123 -102 -67 -58 -310 -212 -333 -212 -3 0 -24 -8 -47 -19 -93
-42 -201 -75 -331 -101 -33 -7 -70 -14 -82 -17 -13 -3 -23 -1 -23 6 0 6 12 14
28 17 15 4 62 22 105 40 43 18 93 36 110 39 41 9 67 32 67 60 0 46 -36 55
-124 31 -28 -8 -78 -19 -111 -25 -145 -25 -536 -139 -643 -187 -29 -13 -56
-24 -60 -24 -7 0 -171 -64 -217 -85 -82 -37 -208 -90 -280 -117 -44 -16 -100
-41 -125 -56 -25 -14 -85 -47 -135 -72 -112 -58 -229 -121 -318 -171 -38 -22
-71 -39 -74 -39 -2 0 -32 -17 -66 -37 -34 -20 -89 -51 -122 -68 -33 -17 -80
-44 -105 -61 -25 -16 -57 -34 -72 -41 -16 -7 -28 -16 -28 -22 0 -5 -10 -13
-22 -16 -28 -9 -78 -54 -78 -72 0 -28 38 -35 77 -14 21 11 45 23 53 26 8 3 47
24 85 46 39 22 138 73 220 113 355 173 376 179 238 71 -213 -168 -421 -378
-560 -565 -93 -126 -126 -178 -206 -327 -33 -59 -65 -115 -72 -123 -36 -42
-29 -100 13 -100 43 0 66 25 116 125 31 64 53 83 69 61 16 -22 27 -19 147 49
68 38 91 43 110 20 8 -10 31 -15 66 -15 62 0 87 -18 78 -56 -4 -14 -1 -36 7
-50 12 -23 10 -27 -19 -54 -47 -42 -39 -90 15 -90 37 0 355 67 518 109 136 35
195 51 350 95 84 24 238 66 280 77 50 13 879 18 1150 8 192 -8 404 -34 527
-65 32 -8 68 -14 80 -14 12 0 58 -9 103 -19 44 -11 125 -29 180 -41 55 -12
147 -35 205 -50 146 -41 452 -119 529 -136 35 -8 71 -18 80 -23 9 -5 39 -11
66 -15 49 -6 126 -23 235 -52 150 -38 248 -47 286 -25 19 12 49 21 65 21 16 0
47 9 69 20 53 27 51 28 118 -40 51 -51 65 -60 96 -60 100 0 77 109 -52 251
-32 35 -73 86 -91 113 -54 79 -153 186 -250 271 -50 44 -131 127 -181 185
-362 425 -849 805 -1280 998 -107 48 -144 62 -162 62 -29 0 -31 22 -14 143 9
61 16 129 16 149 0 21 7 59 16 85 9 26 20 70 24 98 15 96 41 198 55 219 47 66
-16 157 -67 99z" fill="#F296A8"/>
<path d="M22235 19930 c-79 -4 -166 -14 -200 -23 -32 -10 -80 -17 -105 -17
-25 0 -70 -6 -100 -14 -30 -7 -82 -16 -115 -19 -34 -4 -77 -13 -98 -22 -20 -8
-49 -15 -64 -15 -15 0 -48 -6 -73 -14 -299 -95 -370 -124 -370 -152 0 -27 33
-32 110 -18 41 7 118 21 170 29 52 9 126 23 163 31 38 8 88 14 112 14 24 0 67
5 94 11 95 20 104 8 26 -35 -206 -115 -313 -207 -284 -242 13 -16 55 -19 63
-5 16 25 462 220 591 259 39 11 97 29 130 39 69 21 490 24 640 5 44 -6 125
-15 180 -22 55 -6 132 -15 170 -21 39 -6 133 -19 210 -29 77 -10 171 -25 208
-34 84 -20 92 -20 111 0 49 48 13 78 -159 129 -82 25 -179 55 -215 67 -35 11
-89 24 -120 29 -30 4 -84 12 -120 18 -369 59 -567 69 -955 51z" fill="#F296A8"/>
<path d="M10655 19410 c-224 -9 -491 -37 -670 -71 -253 -47 -421 -80 -500
-100 -22 -5 -65 -14 -95 -20 -30 -7 -72 -18 -93 -25 -20 -8 -53 -14 -72 -14
-31 0 -57 -9 -132 -43 -33 -15 -35 -8 -38 100 -3 87 -6 99 -26 116 -55 45 -89
1 -89 -118 0 -131 -6 -137 -180 -195 -80 -27 -158 -53 -175 -59 -16 -6 -65
-22 -108 -37 -43 -15 -80 -31 -83 -35 -3 -5 -14 -9 -24 -9 -11 0 -39 -9 -62
-19 -24 -11 -99 -43 -168 -72 -116 -49 -219 -100 -430 -211 -47 -25 -143 -76
-215 -113 -155 -81 -188 -102 -444 -270 -276 -183 -381 -265 -381 -300 0 -23
44 -15 93 17 20 13 64 41 99 62 35 21 87 54 115 73 29 19 77 47 105 62 29 15
71 39 93 53 22 13 94 53 160 88 66 34 134 70 150 80 124 72 356 189 376 190 8
0 19 4 25 9 10 10 225 104 414 180 122 50 152 62 241 100 53 23 105 41 116 41
10 0 23 4 29 9 13 12 106 42 113 36 18 -19 -162 -169 -268 -222 -239 -123
-247 -126 -371 -179 -36 -15 -120 -54 -188 -86 -67 -32 -126 -58 -130 -58 -9
0 -206 -86 -297 -130 -33 -16 -107 -49 -165 -75 -58 -25 -157 -73 -220 -107
-63 -33 -162 -85 -220 -115 -146 -77 -244 -130 -320 -172 -36 -21 -72 -40 -80
-44 -90 -42 -511 -343 -709 -507 -57 -47 -119 -99 -139 -115 -20 -17 -86 -82
-147 -145 -60 -63 -114 -116 -120 -118 -10 -3 -30 78 -46 188 -15 108 -117
375 -149 395 -17 10 -57 -3 -64 -20 -7 -19 21 -309 34 -355 6 -19 13 -127 17
-240 7 -233 12 -212 -90 -362 -28 -43 -62 -92 -74 -110 -56 -84 -75 -130 -68
-167 4 -20 8 -79 9 -131 1 -52 6 -135 10 -185 20 -239 -49 -498 -185 -701 -82
-121 -221 -211 -386 -248 -146 -33 -261 -12 -578 107 -38 14 -103 47 -191 98
-36 20 -44 21 -58 10 -24 -20 -20 -34 29 -105 52 -77 53 -79 22 -120 -30 -41
-64 -120 -97 -231 -48 -155 -130 -319 -286 -565 -29 -47 -53 -89 -54 -93 0
-17 -64 -100 -101 -134 -88 -79 -32 -119 78 -55 37 21 121 70 186 107 65 37
154 91 196 120 43 29 130 84 192 121 104 62 237 149 346 227 78 55 56 20 -59
-95 -63 -62 -222 -227 -353 -367 -132 -139 -277 -292 -322 -340 -80 -83 -102
-118 -88 -140 20 -33 56 -3 294 233 241 239 443 423 570 520 35 27 91 75 125
106 89 82 391 323 581 464 66 49 140 105 165 124 212 163 577 419 737 516 54
33 175 110 268 172 94 61 222 140 285 174 63 35 176 98 250 140 74 42 198 109
275 148 77 39 174 89 215 111 132 72 263 138 330 165 36 15 74 31 85 36 11 5
90 40 175 78 85 38 196 88 245 110 151 68 534 213 655 248 25 7 97 31 160 54
63 23 133 46 155 52 22 5 54 16 72 24 17 8 37 14 45 14 7 0 40 9 73 19 157 51
201 64 350 102 88 23 185 47 215 54 30 7 68 18 83 24 16 6 40 11 54 11 14 0
55 9 91 19 123 35 299 70 452 91 41 6 102 15 135 21 75 14 316 26 680 35 289
7 369 -4 127 -18 -75 -4 -153 -12 -172 -18 -19 -6 -83 -15 -142 -20 -114 -9
-162 -27 -173 -61 -14 -44 -13 -44 598 -45 384 -1 604 -5 647 -12 36 -7 127
-16 202 -22 92 -6 149 -15 170 -26 17 -9 79 -34 137 -56 168 -63 273 -105 311
-124 24 -12 55 -18 95 -17 33 1 82 -5 109 -13 27 -8 82 -14 122 -14 40 0 118
-9 174 -20 56 -11 126 -20 156 -20 30 0 108 -14 172 -31 64 -17 149 -39 187
-49 92 -23 120 -38 308 -162 72 -48 121 -55 125 -18 6 54 -494 505 -645 584
-45 23 -42 26 40 65 304 145 364 560 118 811 -114 116 -227 159 -413 160 -84
0 -138 5 -160 14 -62 25 -133 48 -178 56 -25 4 -56 13 -70 18 -32 13 -146 38
-234 52 -38 6 -73 13 -77 15 -10 7 -261 43 -414 61 -71 8 -173 19 -225 25 -55
7 -167 9 -267 5 -187 -6 -230 2 -399 80 -29 13 -58 24 -63 24 -21 0 -10 26 18
43 91 53 271 314 271 391 0 58 -24 53 -98 -18 -111 -106 -253 -193 -474 -290
-44 -20 -90 -20 -143 0 -22 8 -60 19 -85 23 -25 5 -101 20 -170 34 -393 80
-602 102 -960 102 -236 -1 -311 -4 -375 -18 -44 -9 -116 -23 -160 -32 -44 -8
-89 -18 -101 -21 -20 -5 -22 -1 -26 67 -7 87 26 165 72 175 14 3 57 14 95 24
39 10 106 26 150 35 44 9 110 26 147 36 36 10 79 19 96 19 16 0 48 7 71 15 23
8 65 17 94 21 29 3 73 12 98 20 25 8 90 19 145 24 54 5 117 14 139 19 22 6 67
11 99 11 33 0 101 7 150 14 50 8 156 20 236 27 80 6 183 15 230 20 47 4 247 9
445 9 382 2 385 2 385 51 0 41 -22 56 -92 63 -115 11 -670 14 -883 6z m1945
-1190 c123 -18 290 -49 302 -57 7 -4 44 -10 83 -13 78 -6 87 -19 22 -36 -82
-21 -102 -35 -102 -74 0 -43 24 -49 111 -26 193 50 467 44 586 -11 137 -64
183 -145 182 -318 0 -117 -1 -122 -34 -183 -61 -116 -201 -212 -307 -212 -53
0 -75 13 -198 116 -102 84 -454 343 -580 426 -251 163 -278 181 -444 275 -204
116 -203 116 -165 125 38 9 461 0 544 -12z" fill="#F296A8"/>
<path d="M15697 18725 c-131 -27 -257 -106 -257 -160 0 -70 52 -78 155 -24
125 66 322 71 358 10 54 -93 -49 -202 -207 -217 -82 -8 -92 -12 -104 -39 -23
-50 -1 -67 76 -62 228 16 372 120 372 266 0 187 -155 276 -393 226z" fill="#F296A8"/>
<path d="M22235 17732 c-16 -2 -36 -9 -43 -14 -7 -6 -41 -14 -75 -17 -62 -6
-62 -6 -69 -66 -16 -138 -31 -160 -111 -162 -39 -1 -82 -7 -96 -12 -14 -6 -71
-15 -125 -20 -73 -6 -103 -13 -111 -25 -8 -11 -27 -16 -60 -16 -27 0 -56 -6
-64 -14 -9 -7 -36 -18 -61 -24 -58 -15 -67 -3 -99 119 -27 101 -34 112 -50 68
-9 -25 -14 -29 -32 -24 -15 5 -25 1 -35 -14 -12 -16 -26 -21 -61 -21 -31 0
-60 -8 -87 -24 -23 -13 -61 -27 -85 -31 -24 -4 -66 -20 -93 -36 -26 -16 -61
-32 -76 -36 -15 -3 -32 -13 -38 -21 -6 -8 -28 -16 -50 -17 -44 -3 -58 -30 -90
-185 -18 -89 -26 -100 -73 -100 -20 0 -83 -7 -141 -16 -58 -8 -122 -17 -144
-20 -48 -5 -96 -33 -96 -56 0 -10 -11 -25 -25 -34 -17 -11 -25 -25 -25 -45 0
-16 -5 -29 -10 -29 -20 0 -80 -67 -80 -89 0 -12 -4 -29 -10 -39 -5 -9 -15 -30
-20 -46 -7 -18 -15 -26 -24 -23 -19 7 -36 -65 -38 -156 -2 -104 32 -117 -398
158 -99 64 -237 143 -273 159 -19 7 -49 27 -68 43 -37 32 -96 59 -106 49 -11
-11 36 -53 85 -77 26 -12 52 -25 58 -28 7 -3 57 -40 112 -81 55 -41 153 -113
217 -160 168 -122 270 -205 295 -240 12 -17 36 -36 53 -44 18 -7 48 -29 67
-47 20 -19 60 -56 89 -83 54 -50 54 -50 52 -106 -1 -40 3 -60 13 -69 8 -7 17
-34 21 -62 5 -38 15 -59 42 -87 20 -20 42 -51 49 -69 8 -18 27 -46 44 -63 16
-17 30 -34 30 -38 0 -9 -72 -32 -99 -32 -26 0 -144 -30 -154 -39 -16 -15 172
-201 203 -201 21 0 39 -12 68 -45 25 -29 51 -47 71 -51 20 -4 43 -20 59 -40
16 -20 36 -34 48 -34 26 0 41 -16 46 -50 4 -34 22 -31 28 5 11 60 65 215 75
212 6 -2 14 -13 20 -25 5 -12 19 -22 30 -22 26 0 117 -46 128 -65 4 -8 17 -15
29 -15 19 0 346 -158 373 -180 7 -6 19 -8 28 -4 20 7 27 -6 47 -85 20 -75 -10
-65 260 -91 74 -7 143 -16 152 -21 9 -5 29 -9 45 -9 15 0 41 -11 57 -25 16
-14 34 -25 40 -25 5 0 27 -12 49 -27 33 -23 41 -25 59 -14 27 17 34 7 49 -69
34 -180 45 -215 67 -218 12 -2 22 -8 22 -13 0 -5 17 -9 38 -9 20 0 45 -7 55
-14 10 -8 27 -11 39 -8 13 3 24 -1 30 -12 6 -10 22 -16 47 -16 42 0 93 -28 56
-31 -11 -1 4 -5 33 -9 35 -5 61 -16 74 -30 16 -17 27 -20 52 -16 21 4 39 1 51
-9 11 -8 29 -15 41 -15 25 0 44 -18 38 -35 -3 -7 5 -15 18 -18 29 -8 44 -5 40
8 -2 5 3 32 12 60 8 27 17 66 20 86 9 51 32 80 47 57 7 -13 23 -18 56 -18 30
0 50 -5 57 -16 7 -8 32 -18 56 -21 25 -3 50 -11 55 -18 6 -7 42 -15 80 -20 39
-4 77 -13 85 -20 20 -16 59 -25 65 -15 8 12 46 -1 68 -23 14 -14 27 -17 52
-13 30 6 35 3 55 -29 34 -55 26 -61 -97 -69 -163 -12 -180 -14 -203 -26 -11
-6 -35 -8 -54 -5 -21 4 -36 2 -41 -5 -11 -18 0 -22 57 -24 32 -1 64 -9 81 -20
23 -16 32 -17 53 -7 30 13 84 15 84 2 0 -5 -6 -11 -12 -14 -7 -2 -1 -2 14 0
20 3 28 -1 33 -16 15 -48 97 8 109 75 7 37 7 37 189 31 171 -6 214 -8 411 -25
78 -7 78 -7 98 -72 11 -36 24 -78 30 -95 6 -16 13 -46 17 -65 6 -33 9 -35 41
-32 19 1 37 7 41 13 9 15 65 7 62 -8 -2 -7 8 -15 22 -19 14 -3 25 -10 25 -15
0 -5 18 -9 40 -9 22 0 40 5 40 10 0 16 30 12 37 -5 6 -16 53 -45 73 -45 6 0 8
5 5 10 -10 16 23 12 51 -6 14 -10 43 -16 69 -16 35 1 45 -3 50 -18 4 -11 18
-23 33 -26 15 -4 33 -11 39 -17 15 -11 14 -12 42 92 32 116 40 131 68 118 13
-5 23 -13 23 -17 0 -4 30 -10 67 -14 39 -4 75 -14 85 -23 9 -8 38 -18 62 -20
25 -3 51 -12 57 -19 6 -8 23 -14 37 -14 14 0 33 -6 41 -13 19 -16 88 -37 121
-37 13 0 31 -7 40 -15 9 -8 34 -18 56 -23 43 -9 38 3 77 -182 16 -75 0 -72
454 -85 242 -7 242 -7 253 37 22 87 4 80 209 83 101 2 187 7 190 12 12 17 63
33 87 27 17 -5 29 -1 38 11 7 9 27 18 44 19 21 1 41 11 57 29 14 15 29 27 33
27 11 0 42 -82 42 -110 0 -14 7 -38 15 -54 8 -15 15 -34 15 -42 0 -21 16 -25
48 -11 25 10 28 16 21 30 -8 14 -6 17 13 17 13 0 36 7 52 15 15 8 38 15 50 15
12 0 33 14 48 30 14 17 36 30 48 30 29 0 230 202 230 230 0 11 9 24 20 30 11
6 20 8 20 5 0 -3 9 -1 20 5 12 7 20 20 19 33 -5 59 -1 71 20 53 18 -17 20 -17
29 1 17 33 25 148 10 160 -16 11 -130 43 -157 43 -31 0 -36 21 -11 40 13 10
25 27 27 38 1 11 13 32 26 46 15 16 23 38 24 62 1 20 5 39 10 43 17 11 33 94
21 108 -12 14 6 118 24 137 11 14 10 63 -2 71 -5 3 -10 19 -10 35 0 16 -4 32
-10 35 -27 16 31 65 77 65 18 0 13 231 -10 485 -13 144 -19 160 -47 145 -29
-15 -32 -12 -25 20 6 26 3 30 -22 36 -15 3 -44 10 -63 15 -19 4 -69 13 -110
19 -108 15 -170 44 -170 81 0 15 -163 179 -178 179 -25 0 -76 197 -99 382 -5
37 -30 57 -52 43 -6 -3 -29 -1 -53 5 -40 9 -277 38 -358 43 -27 1 -57 19 -121
69 -86 67 -86 67 -92 133 -15 154 -44 225 -94 225 -13 0 -26 7 -29 15 -4 8
-17 15 -31 15 -15 0 -37 13 -57 35 -22 23 -43 35 -59 35 -16 0 -31 8 -37 20
-7 12 -21 20 -37 20 -17 0 -36 10 -50 28 -21 25 -24 26 -37 10 -19 -26 -34
-22 -77 17 -32 28 -47 35 -82 35 -23 0 -58 3 -79 6 -36 6 -36 6 -49 -69 -15
-88 -33 -121 -52 -96 -7 10 -30 24 -52 33 -22 9 -48 26 -58 37 -14 15 -26 19
-47 14 -26 -6 -66 7 -80 24 -3 4 -18 11 -34 16 -73 25 -28 55 99 67 183 17
200 21 200 43 0 16 -7 20 -31 20 -17 0 -50 13 -74 29 -27 18 -68 33 -111 40
-50 8 -74 18 -94 39 -21 20 -38 27 -66 27 -21 0 -41 5 -44 10 -3 6 -22 10 -41
10 -24 0 -34 5 -34 15 0 11 -11 15 -42 15 -48 0 -74 12 -63 29 8 14 -12 41
-30 41 -16 0 -32 -38 -60 -143 -28 -105 -31 -109 -54 -78 -13 17 -30 25 -62
27 -24 2 -56 13 -71 24 -15 11 -39 20 -54 20 -15 0 -35 6 -43 13 -19 16 -88
37 -121 37 -13 0 -31 7 -41 16 -10 9 -40 19 -66 22 -26 3 -53 12 -59 20 -5 7
-28 15 -49 15 -46 2 -69 33 -85 116 -18 94 -41 161 -56 161 -8 0 -14 -7 -14
-15 0 -8 -4 -15 -10 -15 -5 0 -12 0 -15 0 -3 0 -5 3 -6 8 -2 30 -69 67 -69 37
0 -25 -56 -20 -63 6 -5 19 -12 21 -69 19 -96 -4 -103 -3 -88 15 23 27 -4 38
-97 41 -48 1 -113 5 -144 8 -57 7 -57 7 -73 -71 -25 -119 -57 -172 -80 -134
-7 12 -75 19 -240 26 -77 4 -148 11 -158 16 -12 6 -25 6 -37 -1 -26 -13 -108
-13 -116 1 -4 5 -19 7 -35 4 -29 -6 -35 6 -57 125 -8 45 -8 45 -207 47 -110 1
-211 5 -225 8 -47 11 -56 12 -86 7z" fill="#F296A8"/>
<path d="M4272 17344 c-236 -36 -465 -223 -683 -557 -210 -321 -293 -698 -240
-1087 23 -168 39 -213 78 -208 41 4 54 39 41 108 -42 228 34 712 151 964 154
327 331 509 634 646 122 56 321 15 459 -95 126 -99 269 -370 322 -607 15 -69
18 -73 45 -58 23 12 29 106 11 185 -33 145 -51 197 -116 330 -89 182 -301 343
-499 379 -101 18 -90 18 -203 0z" fill="#F296A8"/>
<path d="M26317 17283 c-4 -3 -7 -23 -7 -44 0 -57 164 -199 229 -199 35 0 53
25 44 61 -16 67 -233 215 -266 182z" fill="#F296A8"/>
<path d="M11597 16900 c-137 -11 -431 -58 -475 -76 -23 -9 -32 -19 -30 -31 3
-17 18 -18 173 -16 94 1 433 4 755 5 587 3 610 4 610 37 0 40 -25 54 -116 67
-110 16 -767 26 -917 14z" fill="#F296A8"/>
<path d="M19835 16251 c-9 -16 42 -68 55 -55 17 16 -5 64 -29 64 -11 0 -22 -4
-26 -9z" fill="#F296A8"/>
<path d="M4766 16059 c-15 -11 -73 -80 -129 -152 -56 -72 -155 -186 -219 -251
-65 -66 -118 -126 -118 -132 0 -27 14 -46 54 -73 94 -66 154 -139 197 -241 35
-86 60 -104 113 -84 15 6 116 202 116 227 1 7 9 30 20 52 11 22 19 48 20 58 0
10 6 30 14 45 7 15 16 45 20 67 4 22 13 67 20 100 56 241 63 347 23 381 -36
31 -94 32 -131 3z" fill="#F296A8"/>
<path d="M12747 15773 c-4 -3 -87 -7 -185 -8 -190 -3 -285 -11 -276 -26 6 -10
-25 -13 -108 -10 -57 2 -57 2 -75 -58 -22 -73 0 -68 -318 -75 -334 -9 -385
-14 -385 -41 0 -29 -48 -187 -60 -199 -6 -6 -10 -20 -10 -33 0 -13 -2 -23 -6
-23 -10 0 -98 40 -166 76 -108 56 -150 20 -63 -53 57 -47 57 -57 0 -49 -36 6
-46 4 -51 -8 -4 -10 -19 -16 -40 -16 -18 0 -48 -9 -66 -20 -18 -11 -45 -20
-59 -20 -64 0 -91 -12 -85 -36 8 -29 -6 -37 -30 -19 -10 7 -30 11 -44 9 -25
-5 -49 39 -50 93 -1 10 -11 37 -23 60 -22 43 -22 43 -52 23 -36 -24 -45 -25
-45 -5 0 25 -26 17 -53 -15 -24 -29 -67 -41 -67 -20 0 16 -26 12 -41 -7 -11
-13 -11 -17 -1 -20 26 -9 -1 -23 -46 -23 -36 0 -50 -5 -60 -20 -10 -16 -23
-20 -71 -20 -44 0 -62 -4 -75 -19 -18 -20 -108 -47 -124 -37 -15 9 -36 -24
-37 -58 0 -41 -22 -37 -90 13 -27 21 -88 64 -135 96 -47 32 -104 72 -127 88
-23 16 -47 27 -54 25 -14 -5 -10 -9 191 -183 155 -135 200 -180 200 -199 0
-15 -102 -28 -345 -46 -261 -20 -280 -21 -311 -26 -35 -5 -33 1 -58 -144 -26
-150 -38 -163 -139 -162 -10 1 -20 -5 -23 -13 -6 -14 -105 -67 -133 -70 -9 -1
-33 -9 -53 -18 -21 -9 -44 -17 -52 -17 -19 0 -30 -17 -16 -25 16 -10 12 -25
-8 -25 -17 0 -75 26 -112 50 -8 5 -44 26 -80 46 -36 20 -86 54 -112 75 -26 22
-50 39 -54 39 -7 0 -200 111 -324 187 -41 25 -119 70 -173 99 -54 30 -130 76
-170 103 -39 27 -85 56 -102 65 -16 9 -42 24 -57 34 -78 51 -142 83 -154 78
-33 -13 -13 -45 54 -91 144 -98 169 -115 222 -146 30 -18 64 -40 75 -50 11 -9
76 -54 145 -100 155 -102 460 -329 460 -342 0 -5 -10 -6 -22 -3 -80 23 -98 15
-61 -26 28 -31 -16 -23 -78 15 -231 143 -351 214 -440 263 -57 30 -138 76
-179 100 -68 40 -110 54 -110 38 0 -12 72 -74 169 -149 53 -40 105 -82 116
-95 11 -12 79 -66 150 -120 72 -54 144 -111 160 -126 30 -29 30 -29 -7 -32
-30 -3 -38 -7 -38 -22 0 -14 -9 -21 -37 -25 -76 -11 -108 -20 -108 -30 0 -5
16 -10 35 -11 63 -2 234 -35 268 -51 42 -21 37 -35 -17 -48 -23 -6 -45 -15
-49 -20 -4 -6 -33 -23 -64 -40 -32 -16 -58 -32 -58 -36 0 -9 -127 -69 -148
-69 -10 0 -13 -3 -6 -8 23 -16 24 -53 1 -46 -75 23 -116 56 -98 78 9 11 7 26
-9 67 -11 30 -20 62 -20 72 0 9 -7 17 -15 17 -9 0 -15 -9 -15 -25 0 -14 -5
-25 -11 -25 -5 0 -8 -4 -5 -9 3 -5 0 -20 -7 -33 -13 -25 -46 -25 -92 -1 -23
13 -114 59 -238 121 -145 72 -199 42 -74 -42 38 -25 70 -46 72 -46 3 0 24 -14
47 -30 24 -17 59 -42 78 -55 64 -44 85 -64 77 -72 -5 -4 -22 0 -38 10 -47 26
-70 23 -67 -10 2 -23 -1 -29 -21 -31 -13 -2 -40 -20 -60 -40 -58 -58 -91 -82
-111 -82 -11 0 -24 -9 -30 -20 -6 -12 -21 -20 -35 -20 -14 0 -25 -4 -25 -10 0
-5 7 -10 15 -10 8 0 15 -9 15 -20 0 -26 -9 -25 -66 5 -85 45 -121 30 -78 -34
27 -42 30 -61 19 -127 -8 -44 3 -53 61 -54 56 0 60 -24 14 -78 -52 -60 -53
-60 -76 18 -20 67 -27 70 -114 48 -41 -10 -63 -13 -113 -17 -10 0 -20 -7 -23
-15 -9 -24 -397 -418 -420 -426 -23 -9 -42 -86 -47 -189 -2 -43 -1 -45 32 -53
60 -16 76 -33 46 -46 -14 -7 -30 -23 -35 -37 -15 -39 -27 -30 -41 30 -14 64
-10 63 -139 40 -47 -8 -86 -15 -88 -15 -1 0 0 -10 3 -22 5 -19 -9 -38 -74
-102 -44 -44 -78 -83 -75 -88 10 -15 -17 -50 -30 -39 -20 17 -56 -15 -56 -49
0 -21 -9 -37 -35 -57 -19 -15 -35 -36 -35 -46 0 -22 -60 -84 -86 -89 -11 -2
-23 -17 -29 -33 -5 -17 -18 -41 -27 -55 -38 -53 -26 -73 60 -98 42 -13 85 -23
95 -23 26 0 21 -34 -9 -54 -14 -9 -34 -36 -44 -59 -11 -23 -33 -52 -49 -64
-17 -12 -31 -31 -31 -42 0 -11 -10 -30 -22 -42 -28 -28 -34 -14 -54 137 -9 61
-19 114 -24 118 -15 16 -51 -13 -48 -38 2 -17 -8 -34 -37 -61 -23 -21 -35 -39
-28 -41 19 -7 -4 -45 -42 -71 -26 -17 -35 -29 -35 -51 0 -20 -14 -43 -50 -80
-30 -31 -50 -61 -50 -75 0 -28 -18 -46 -47 -46 -25 0 -31 -15 -9 -23 12 -5 30
-57 19 -57 -9 0 -67 41 -183 130 -69 53 -147 111 -175 130 -27 18 -75 55 -105
80 -30 26 -98 82 -150 125 -52 42 -98 83 -103 90 -4 8 -42 42 -85 77 -42 34
-111 92 -152 129 -41 36 -96 80 -121 97 -25 17 -86 66 -135 109 -49 43 -134
116 -189 163 -55 47 -154 136 -220 198 -66 62 -138 123 -160 134 -22 11 -48
27 -58 36 -9 8 -20 12 -23 9 -14 -14 105 -142 282 -302 324 -293 419 -380 509
-467 55 -54 111 -106 125 -117 151 -117 463 -385 595 -510 141 -133 239 -220
285 -252 51 -35 140 -119 140 -131 0 -4 -12 -8 -26 -8 -18 0 -25 -5 -23 -17 4
-27 -66 -159 -106 -199 -30 -29 -34 -38 -24 -55 21 -40 7 -53 -28 -27 -18 13
-64 44 -101 71 -38 26 -91 68 -118 93 -27 25 -74 62 -104 82 -30 20 -98 68
-150 107 -153 113 -249 155 -207 91 21 -32 397 -373 449 -407 55 -36 206 -172
207 -186 1 -6 -9 -13 -20 -15 -23 -3 -30 -12 -49 -65 -15 -41 -48 -31 -122 38
-29 28 -91 75 -138 106 -47 31 -139 95 -205 143 -295 213 -455 320 -479 320
-37 0 102 -142 319 -326 77 -65 181 -155 230 -199 50 -45 115 -97 145 -117 82
-53 124 -100 114 -129 -4 -13 -7 -28 -6 -33 4 -13 -27 -374 -37 -434 -4 -29
-6 -63 -4 -75 4 -21 -1 -24 -94 -41 -179 -34 -192 -39 -155 -62 23 -15 15
-143 -12 -172 -21 -25 -20 -44 4 -59 19 -13 21 -81 4 -169 -3 -19 -1 -34 5
-38 6 -4 11 -29 11 -57 0 -27 4 -49 9 -49 6 0 11 -16 13 -37 3 -40 53 -64 163
-78 86 -11 83 -8 90 -93 3 -42 12 -129 20 -192 9 -63 17 -137 19 -165 6 -68
21 -105 44 -105 10 0 28 -11 40 -25 17 -19 32 -25 63 -25 39 0 41 -2 36 -25
-6 -33 16 -45 80 -45 26 0 91 -7 143 -15 52 -8 136 -15 186 -15 91 0 91 0 103
41 15 50 30 56 83 34 54 -21 337 -21 380 1 16 8 60 15 103 15 56 1 78 5 82 15
12 33 53 -28 53 -80 0 -25 1 -26 58 -21 112 10 368 27 398 26 17 -1 43 3 58 8
15 6 35 7 48 2 29 -11 73 10 81 39 3 11 12 20 20 20 15 0 47 66 47 96 0 8 7
47 16 86 16 68 17 70 43 65 20 -4 32 0 44 14 12 13 30 19 62 19 31 0 45 4 45
14 0 9 17 15 50 18 28 3 58 12 68 20 9 8 90 39 180 68 189 62 168 69 212 -72
33 -106 41 -114 60 -68 13 30 35 40 42 18 3 -8 16 -5 42 10 20 12 49 22 64 22
15 0 42 9 60 20 18 11 45 20 61 20 18 0 34 8 44 22 13 20 18 21 37 10 30 -19
106 13 84 35 -49 49 0 42 113 -17 53 -27 100 -50 104 -50 4 0 63 -34 131 -75
133 -81 168 -91 168 -50 0 26 1 25 -203 176 -110 81 -141 119 -119 141 7 7 12
24 12 39 0 26 -1 27 -84 31 -120 6 -160 41 -60 51 39 4 64 13 80 28 28 26 35
21 54 -40 14 -44 14 -44 135 -37 66 4 152 12 190 17 39 6 95 13 125 15 30 3
69 12 85 19 17 7 45 16 62 20 18 3 35 11 38 16 4 5 16 9 29 9 27 0 40 33 57
140 15 101 32 136 70 144 17 3 42 14 55 25 14 11 43 23 66 26 23 4 66 20 95
36 30 16 60 29 67 29 26 0 39 27 19 38 -10 6 -15 14 -11 18 10 9 263 -135 341
-195 34 -26 94 -67 132 -92 142 -91 356 -225 397 -248 24 -13 60 -35 80 -48
43 -29 82 -26 91 8 9 35 2 42 -205 195 -297 220 -432 328 -412 332 9 2 21 -1
27 -7 16 -16 42 -14 57 4 7 8 21 15 31 15 10 0 23 9 29 20 7 12 21 20 38 20
19 0 37 11 60 38 27 32 39 39 72 40 36 2 100 25 100 37 0 10 -84 26 -183 35
-57 6 -122 16 -143 24 -39 13 -39 13 1 25 22 6 46 11 52 11 7 0 18 9 25 21 7
12 60 44 118 72 57 28 119 65 137 83 20 20 47 36 70 40 26 4 47 18 66 40 16
19 32 34 36 34 14 0 49 -83 62 -145 16 -77 28 -94 49 -69 8 11 26 25 40 31 34
17 117 75 160 112 20 16 54 37 77 46 23 9 49 28 58 41 10 15 25 24 41 24 17 0
39 13 62 37 50 50 128 89 146 74 8 -7 16 -8 19 -4 5 10 39 161 42 185 2 30
-16 27 310 58 106 10 95 8 95 20 0 6 -13 10 -29 10 -17 0 -32 4 -35 9 -7 11
47 31 84 31 31 0 136 54 143 75 12 30 67 49 83 28 16 -21 33 -5 34 32 0 11 11
71 23 134 25 123 47 161 90 161 14 0 27 7 30 14 3 8 22 18 41 21 19 4 37 13
40 21 3 8 17 14 31 14 30 0 78 23 118 56 21 18 41 24 75 24 26 0 95 7 154 16
124 19 133 17 141 -28 3 -18 10 -46 17 -63 11 -30 11 -30 30 -5 15 19 26 24
53 22 20 -2 50 4 69 14 18 10 48 18 67 18 53 1 49 22 -6 30 -212 28 -218 29
-221 60 -2 16 1 33 7 39 6 6 11 19 11 30 0 14 5 17 19 12 12 -4 23 0 29 10 5
10 22 17 42 17 18 1 41 9 52 20 10 10 25 18 33 18 9 0 29 10 45 21 19 15 36
20 53 16 16 -5 34 1 57 18 19 14 41 25 50 25 9 0 25 9 35 20 10 11 27 20 37
20 11 0 31 9 45 20 16 12 41 20 64 20 22 0 39 4 39 8 0 5 11 14 25 20 29 13
43 -11 63 -104 21 -95 31 -112 50 -87 9 12 43 33 74 47 31 14 61 33 66 43 6 9
21 18 34 18 34 2 200 83 219 107 10 13 34 23 69 29 63 10 68 14 51 40 -16 27
-10 32 45 34 54 3 60 8 67 60 15 107 30 155 51 159 41 8 152 28 193 35 48 9
93 35 93 56 0 8 23 38 51 67 29 29 58 67 65 83 7 17 41 58 77 92 35 34 70 76
77 95 20 50 50 80 67 67 16 -14 18 -9 32 104 14 105 15 103 -55 112 -72 9
-127 31 -101 40 9 4 17 16 17 26 0 10 9 28 20 39 11 11 20 27 20 36 0 9 13 40
29 68 27 47 50 114 56 161 1 11 3 24 4 30 5 36 20 -29 30 -130 7 -66 14 -131
17 -145 3 -14 8 -37 11 -52 13 -64 63 -63 63 1 0 33 5 44 29 62 21 16 32 33
36 63 4 23 16 59 27 81 12 22 25 56 29 75 15 67 43 155 51 161 18 12 27 70 16
101 -9 26 -8 33 7 44 10 8 17 15 14 17 -15 12 -165 47 -201 48 -31 1 -41 25
-23 53 13 20 16 44 13 115 -2 62 1 94 10 103 15 15 16 60 1 75 -6 6 -13 55
-15 109 -3 92 -11 144 -29 186 -8 20 4 26 135 64 47 13 91 27 98 29 10 4 5 15
-17 40 -32 36 -34 45 -31 103 2 36 -40 127 -71 154 -13 11 -18 24 -14 40 5 17
-3 31 -29 58 -23 22 -35 45 -36 62 0 28 -19 78 -29 78 -10 0 -43 -118 -52
-189 -18 -135 -24 -164 -35 -168 -12 -4 -24 27 -24 62 0 42 -21 94 -40 100
-20 6 -70 104 -70 136 0 12 -7 19 -20 19 -12 0 -24 10 -30 23 -4 12 -29 41
-54 65 -52 49 -55 58 -23 65 12 3 60 15 107 27 47 11 98 24 114 28 38 9 30 24
-24 42 -24 8 -49 24 -55 35 -13 26 -110 125 -123 125 -13 0 -132 127 -132 141
0 7 -12 9 -34 5 -29 -6 -36 -3 -51 20 -11 17 -23 24 -35 21 -22 -6 -59 28 -39
35 24 8 1 38 -30 38 -21 0 -32 6 -36 21 -4 11 -14 19 -23 17 -15 -3 -20 -16
-57 -139 -25 -84 -27 -86 -66 -56 -19 14 -68 42 -109 62 -41 20 -86 43 -100
50 -14 8 -35 15 -46 15 -12 0 -32 8 -45 19 -13 10 -43 21 -67 24 -24 3 -51 12
-61 21 -10 9 -30 16 -45 16 -16 0 -43 7 -62 16 -26 13 -37 14 -48 5 -14 -12
-26 11 -54 104 -12 41 -32 44 -380 44 -310 1 -332 4 -332 46 0 45 -39 132 -53
118z m-234 -179 c264 -7 268 -7 265 -28 -2 -16 -9 -20 -28 -18 -32 3 -71 3
-195 -3 -239 -10 -308 -15 -319 -24 -11 -9 -130 -12 -121 -3 2 3 -2 14 -10 26
-38 54 -22 69 63 63 42 -4 198 -10 345 -13z m-3908 -1258 c50 -45 50 -45 10
-39 -39 6 -84 43 -85 71 0 23 26 12 75 -32z m5599 -2217 c23 -40 15 -59 -26
-59 -63 1 -79 26 -38 61 42 36 42 36 64 -2z m-2854 -1407 c0 -10 5 -23 11 -29
19 -19 2 -46 -24 -40 -97 25 -94 23 -67 34 14 6 34 20 44 32 23 26 36 27 36 3z
m-1420 -851 c0 -11 11 -40 24 -65 30 -56 18 -67 -32 -32 -94 65 -118 101 -53
78 33 -12 41 -7 41 20 0 10 5 18 10 18 6 0 10 -9 10 -19z" fill="#F296A8"/>
<path d="M13544 15697 c-26 -70 -5 -92 72 -73 36 9 20 66 -20 66 -12 0 -27 5
-34 12 -9 9 -13 7 -18 -5z" fill="#F296A8"/>
<path d="M8241 15307 c-19 -23 9 -45 94 -76 132 -48 281 -138 420 -255 113
-95 141 -111 170 -98 48 22 34 58 -57 145 -165 159 -246 202 -513 273 -107 28
-100 27 -114 11z" fill="#F296A8"/>
<path d="M27739 14889 c-16 -10 -14 -449 2 -544 5 -33 11 -73 12 -90 2 -31 29
-44 64 -31 14 6 14 8 0 24 -15 17 -15 19 1 35 14 14 14 21 4 37 -22 36 -5 104
31 116 24 8 22 44 -3 44 -23 0 -24 5 -8 50 10 30 12 31 24 16 19 -26 21 -11
15 132 -5 105 -3 136 8 146 18 19 7 33 -32 41 -17 4 -36 11 -42 15 -16 12 -63
18 -76 9z" fill="#F296A8"/>
<path d="M21260 14880 c-8 -5 -34 -10 -58 -10 -57 0 -51 -19 12 -40 27 -9 54
-24 61 -34 13 -17 15 -15 30 20 25 60 1 94 -45 64z" fill="#F296A8"/>
<path d="M4110 13588 c0 -19 107 -133 182 -196 32 -26 145 -124 252 -219 239
-213 395 -343 410 -343 24 0 49 26 40 41 -40 66 -504 479 -631 564 -24 15 -43
31 -43 35 0 9 -162 114 -193 125 -11 5 -17 2 -17 -7z" fill="#F296A8"/>
<path d="M26326 13472 c-4 -6 -2 -31 4 -54 18 -71 19 -73 32 -60 7 7 41 12 79
12 51 0 72 5 92 20 26 21 77 27 77 10 0 -14 53 -13 85 2 20 9 31 8 50 -2 27
-14 49 -5 25 10 -26 16 -1 24 69 22 39 -1 73 2 76 8 4 6 -7 11 -27 11 -18 1
-44 3 -58 5 -125 17 -496 29 -504 16z" fill="#F296A8"/>
<path d="M4203 13004 c-9 -24 6 -43 78 -97 35 -26 96 -78 134 -116 79 -76 181
-165 266 -231 139 -109 281 -215 369 -274 52 -36 132 -90 177 -121 60 -42 87
-55 102 -50 56 17 11 68 -239 272 -41 33 -91 76 -110 95 -46 45 -306 239 -402
300 -99 63 -277 185 -311 214 -33 28 -55 31 -64 8z" fill="#F296A8"/>
<path d="M21304 10089 c-83 -4 -186 -14 -229 -23 -42 -9 -89 -16 -104 -16 -14
0 -66 -9 -116 -21 -49 -11 -106 -24 -125 -29 -19 -4 -66 -18 -105 -30 -38 -12
-95 -28 -125 -35 -282 -71 -438 -133 -784 -309 -457 -233 -699 -396 -1112
-749 -252 -216 -511 -488 -753 -792 -36 -44 -69 -84 -75 -90 -18 -16 -100
-127 -125 -170 -13 -22 -66 -103 -117 -180 -110 -167 -198 -323 -356 -628 -50
-97 -77 -162 -131 -317 -74 -209 -97 -277 -97 -291 0 -7 -8 -30 -19 -53 -20
-44 -48 -144 -60 -216 -4 -25 -15 -76 -24 -115 -66 -282 -82 -749 -36 -1058 6
-40 14 -97 19 -128 4 -30 15 -77 24 -103 9 -25 16 -56 16 -67 0 -11 6 -32 14
-47 8 -15 17 -46 21 -67 4 -22 13 -50 21 -62 8 -12 14 -30 14 -40 1 -10 9 -36
20 -58 11 -22 19 -43 20 -48 2 -61 233 -456 354 -607 131 -163 420 -420 541
-482 17 -8 52 -27 80 -42 65 -35 214 -99 290 -123 174 -57 158 -54 395 -84
216 -27 688 -5 885 42 45 10 93 19 108 19 14 0 44 7 64 15 21 8 63 19 93 24
30 6 89 22 130 36 41 15 95 33 120 40 67 20 140 45 180 60 177 69 230 91 330
138 168 79 197 94 337 182 501 311 814 619 1136 1115 114 175 265 509 337 740
12 41 28 91 35 110 7 19 20 58 29 85 26 76 56 184 67 242 5 29 14 65 20 80 6
15 15 53 19 83 5 30 15 87 23 125 71 344 124 1194 97 1540 -6 77 -15 203 -21
279 -5 77 -19 214 -30 305 -11 91 -24 207 -29 256 -6 50 -17 124 -25 165 -33
155 -57 266 -67 305 -5 22 -15 67 -21 100 -7 33 -16 66 -21 74 -5 8 -15 38
-22 65 -38 150 -143 474 -203 626 -12 30 -23 60 -24 65 -2 11 65 9 163 -5 163
-23 237 -23 261 1 22 22 22 22 -1 41 -12 10 -32 18 -44 18 -12 0 -31 7 -42 15
-10 8 -34 15 -52 15 -18 0 -72 9 -120 19 -275 60 -632 81 -1048 60z m-244
-234 c0 -8 -4 -15 -8 -15 -5 0 -21 -13 -38 -28 -91 -88 -309 -247 -424 -309
-30 -16 -73 -40 -95 -53 -94 -54 -266 -140 -330 -165 -39 -14 -105 -42 -148
-61 -43 -19 -85 -34 -92 -34 -7 0 -53 -13 -102 -28 -122 -39 -232 -70 -433
-122 -25 -6 -73 -17 -108 -24 -34 -8 -68 -18 -75 -24 -6 -6 -30 -13 -52 -17
-22 -4 -71 -16 -108 -27 -37 -11 -70 -18 -73 -15 -7 7 80 75 164 129 37 24
121 79 188 123 66 44 129 85 140 92 57 36 445 233 458 233 5 0 30 9 55 21 151
69 172 77 496 182 259 83 374 117 407 118 13 0 52 9 88 19 82 23 90 23 90 5z" fill="#F296A8"/>
<path d="M5763 8502 c-84 -3 -84 -3 -56 -94 18 -59 42 -75 70 -47 11 11 51 -3
64 -23 12 -18 187 -12 205 7 10 9 26 14 37 11 20 -5 68 9 77 23 9 15 130 19
130 4 0 -7 7 -13 15 -13 8 0 15 4 15 9 0 5 12 11 28 13 22 2 29 10 36 39 17
67 14 69 -146 70 -79 0 -201 1 -273 2 -71 1 -163 1 -202 -1z" fill="#F296A8"/>
<path d="M9675 7240 c-9 -29 9 -55 62 -88 89 -55 120 -95 209 -274 107 -213
247 -317 437 -326 394 -18 576 508 229 660 -125 54 -311 4 -263 -71 7 -11 28
-14 85 -13 108 4 153 -22 196 -113 74 -155 -44 -315 -233 -315 -142 0 -217 55
-365 270 -152 220 -330 355 -357 270z" fill="#F296A8"/>
<path d="M18207 28983 c-17 -16 -7 -73 35 -198 6 -16 16 -52 23 -80 30 -112
164 -478 195 -533 5 -9 21 -46 36 -81 14 -35 31 -73 38 -85 7 -12 23 -57 36
-101 49 -168 186 -542 252 -685 11 -25 28 -63 38 -85 140 -311 373 -729 439
-782 45 -38 54 6 17 83 -43 88 -106 225 -106 231 0 3 -6 19 -14 36 -8 18 -29
66 -47 107 -33 79 -151 341 -200 447 -39 84 -34 121 8 56 248 -390 816 -990
1293 -1367 192 -152 195 -154 549 -398 136 -93 571 -369 686 -435 386 -222
959 -491 1410 -663 368 -140 592 -228 615 -241 8 -5 107 -43 220 -85 113 -43
228 -86 255 -96 28 -11 67 -25 87 -32 20 -6 40 -15 44 -19 12 -12 44 -8 44 6
0 17 -50 54 -84 63 -14 3 -30 12 -37 20 -6 8 -15 14 -20 14 -5 0 -69 29 -142
64 -138 66 -193 91 -317 147 -122 54 -717 353 -822 412 -53 31 -178 96 -277
146 -99 50 -203 105 -231 121 -28 17 -53 30 -56 30 -9 0 -239 133 -259 150
-11 10 -69 43 -130 75 -134 70 -294 158 -355 196 -25 15 -72 41 -105 58 -70
38 -118 68 -478 306 -280 185 -519 359 -668 485 -382 326 -416 357 -547 499
-101 110 -451 542 -538 663 -138 195 -271 408 -469 753 -86 150 -293 580 -346
720 -20 51 -58 92 -72 78z" fill="#DD5B85"/>
<path d="M12117 26792 c-14 -15 -17 -42 -17 -153 0 -330 -65 -824 -117 -881
-34 -38 -126 -16 -375 89 -213 89 -214 88 -221 -182 -14 -505 -139 -728 -461
-826 -548 -166 -646 -201 -862 -306 -523 -251 -1048 -666 -1778 -1405 -165
-167 -419 -424 -565 -572 -591 -597 -912 -875 -1371 -1187 -52 -35 -270 -159
-392 -224 -56 -29 -68 -44 -60 -77 5 -26 39 -32 80 -13 412 191 820 449 1137
720 50 42 128 110 175 150 47 40 121 105 164 144 89 81 100 84 57 15 -38 -59
-39 -74 -5 -74 37 0 380 359 594 620 583 716 1342 1301 2100 1619 41 18 84 37
94 43 11 6 31 14 45 19 14 4 67 23 117 42 51 20 181 63 290 97 281 86 344 120
469 245 155 156 247 350 306 650 30 148 39 208 45 287 6 94 13 107 47 89 12
-6 58 -24 102 -40 44 -16 125 -48 180 -71 55 -23 107 -44 116 -47 21 -6 66 42
78 82 79 273 119 552 123 867 1 145 -6 142 144 52 192 -115 221 -129 239 -114
24 20 -4 55 -117 145 -254 200 -324 238 -361 197z m-1113 -2093 c-19 -31 -126
-86 -200 -103 -43 -10 -97 -24 -119 -31 -22 -7 -74 -23 -115 -35 -41 -12 -94
-29 -116 -37 -59 -21 -92 -12 -39 11 22 9 58 26 81 36 23 11 46 20 52 20 6 0
26 6 44 14 18 8 67 24 108 36 98 29 251 80 270 91 22 12 42 11 34 -2z" fill="#DD5B85"/>
<path d="M21180 23259 c-140 -20 -303 -77 -465 -163 -203 -108 -366 -236 -299
-236 15 0 126 52 149 70 6 4 44 22 85 39 41 18 84 36 95 41 115 53 474 132
723 160 100 11 134 47 80 84 -25 18 -263 21 -368 5z" fill="#DD5B85"/>
<path d="M10308 22469 c-20 -7 -28 -18 -28 -34 0 -32 4 -34 106 -41 101 -7
294 -55 434 -109 106 -40 140 -38 140 9 0 50 -134 121 -305 162 -84 20 -308
28 -347 13z" fill="#DD5B85"/>
<path d="M9799 22430 c-8 -5 -55 -22 -105 -39 -285 -94 -600 -259 -974 -510
-459 -308 -629 -443 -947 -747 -176 -169 -206 -205 -185 -226 16 -16 56 11
192 127 126 108 455 358 650 495 261 184 355 242 570 358 36 19 79 42 95 52
17 10 68 38 115 63 47 24 111 59 143 76 33 18 107 56 165 86 267 136 362 196
362 228 0 41 -41 60 -81 37z" fill="#DD5B85"/>
<path d="M24419 20048 c-17 -24 -46 -68 -64 -98 -84 -138 -458 -395 -685 -472
-151 -51 -175 -58 -199 -58 -13 0 -50 -7 -83 -16 -33 -8 -74 -14 -92 -12 -31
3 -31 3 14 25 56 27 225 90 263 98 30 6 53 44 43 70 -12 33 -230 -13 -631
-134 -71 -21 -148 -46 -170 -54 -204 -74 -348 -131 -470 -187 -38 -17 -97 -42
-130 -55 -112 -42 -483 -236 -830 -433 -210 -120 -305 -188 -305 -219 0 -21 9
-18 222 90 111 56 275 135 363 175 88 41 168 78 177 83 69 36 33 -1 -91 -94
-338 -257 -611 -574 -805 -937 -67 -126 -76 -162 -43 -168 26 -5 45 15 107
113 51 80 80 105 80 70 0 -8 8 -15 17 -15 19 0 161 68 169 81 8 14 54 10 70
-6 10 -9 34 -15 62 -15 63 0 92 -21 92 -66 0 -20 4 -43 10 -53 7 -15 2 -26
-26 -55 -46 -47 -35 -81 24 -73 89 11 461 94 617 137 61 17 169 47 240 66 72
20 150 42 175 49 145 43 167 45 605 45 614 0 918 -19 1175 -75 36 -8 90 -19
120 -24 81 -14 362 -78 465 -106 86 -23 167 -44 465 -122 74 -19 158 -39 185
-45 28 -5 75 -16 105 -24 267 -68 370 -82 413 -55 19 11 49 21 67 21 18 0 52
10 76 21 47 24 69 13 148 -70 19 -19 40 -31 56 -31 88 0 57 110 -71 255 -24
28 -71 85 -103 128 -33 43 -123 140 -202 215 -78 75 -177 178 -220 227 -293
339 -706 681 -1044 864 -155 83 -221 115 -383 180 -28 11 -29 12 -22 79 21
205 87 550 118 609 50 95 -13 154 -74 71z" fill="#DD5B85"/>
<path d="M22205 19920 c-60 -4 -128 -12 -150 -18 -22 -6 -67 -13 -100 -17 -73
-7 -213 -31 -275 -47 -25 -6 -72 -16 -105 -23 -200 -42 -435 -126 -435 -156 0
-21 35 -19 212 11 159 27 277 45 507 76 71 9 62 -2 -44 -55 -188 -96 -329
-211 -297 -243 10 -10 32 -3 115 39 368 185 627 272 842 281 119 5 414 -10
553 -28 40 -6 114 -14 165 -20 130 -15 279 -37 444 -67 150 -27 173 -25 173
17 0 38 -50 58 -340 138 -155 42 -273 66 -410 82 -47 6 -112 15 -145 20 -81
13 -573 20 -710 10z" fill="#DD5B85"/>
<path d="M10667 19399 c-391 -16 -811 -79 -1272 -188 -49 -12 -117 -28 -150
-35 -33 -8 -87 -23 -120 -34 -75 -26 -75 -26 -75 71 0 96 -14 131 -53 135 -34
4 -47 -25 -47 -107 0 -145 1 -145 -270 -237 -124 -42 -238 -82 -255 -90 -16
-7 -91 -38 -165 -68 -271 -109 -323 -135 -785 -381 -285 -152 -775 -487 -775
-530 0 -20 7 -19 65 16 28 16 56 32 64 36 8 3 99 58 204 120 193 116 220 131
545 304 196 104 482 234 727 331 83 32 159 63 170 68 109 50 332 126 342 117
20 -20 -166 -181 -276 -239 -25 -14 -82 -44 -126 -67 -44 -23 -145 -71 -225
-106 -80 -35 -179 -79 -221 -98 -42 -20 -108 -48 -145 -63 -38 -15 -116 -49
-174 -77 -58 -27 -170 -78 -250 -114 -214 -95 -786 -397 -932 -491 -137 -88
-358 -240 -418 -286 -211 -164 -342 -277 -478 -413 -149 -148 -172 -164 -172
-121 0 148 -139 553 -190 553 -25 0 -25 0 -23 -110 1 -60 9 -153 18 -205 8
-52 18 -185 22 -295 6 -213 5 -216 -177 -475 -50 -72 -76 -159 -52 -174 17
-10 22 -409 7 -523 -70 -522 -419 -817 -850 -719 -144 33 -357 118 -481 192
-82 48 -94 14 -28 -82 46 -67 46 -67 1 -158 -25 -50 -59 -134 -77 -186 -17
-52 -36 -108 -43 -125 -56 -138 -317 -593 -373 -650 -65 -66 -74 -95 -30 -95
25 0 319 165 471 265 61 39 153 97 205 129 52 31 165 105 251 164 234 160 240
159 74 -5 -123 -121 -529 -544 -648 -676 -170 -186 -190 -217 -146 -217 13 0
101 79 252 229 218 215 449 427 562 516 28 21 84 69 125 105 41 36 122 104
180 150 58 46 137 109 175 140 62 50 623 471 730 548 59 43 372 252 435 291
30 19 119 77 198 128 79 51 156 100 170 108 15 9 45 27 67 40 22 14 78 46 125
72 47 25 146 81 220 123 268 153 699 372 940 477 201 87 384 168 410 182 9 5
70 30 135 55 66 26 131 52 145 58 47 20 275 100 435 153 88 29 171 57 185 63
14 5 86 29 160 51 74 23 155 48 180 56 70 22 509 135 665 170 33 8 92 21 130
31 136 32 330 64 565 93 251 31 934 41 960 15 9 -9 -20 -13 -117 -18 -70 -3
-166 -11 -213 -17 -47 -6 -132 -16 -190 -23 -115 -15 -180 -39 -180 -68 0 -22
-67 -20 570 -23 341 -1 581 -6 640 -14 52 -6 151 -16 220 -21 102 -8 137 -15
195 -40 38 -16 135 -55 215 -85 80 -31 165 -66 190 -78 31 -14 62 -21 100 -20
30 1 87 -5 127 -13 40 -8 94 -14 121 -14 27 0 101 -9 163 -20 63 -11 133 -20
157 -20 43 0 417 -92 456 -112 27 -14 124 -74 184 -114 88 -58 112 -68 129
-51 22 22 11 37 -139 182 -164 161 -377 335 -495 405 -45 27 -42 34 30 68 402
187 364 767 -61 933 -46 18 -86 24 -212 29 -136 6 -164 10 -230 35 -296 110
-919 207 -1350 210 -245 1 -245 1 -340 38 -52 20 -117 45 -145 56 -62 24 -62
31 1 83 111 94 264 308 264 371 0 47 -29 38 -105 -33 -102 -94 -203 -161 -350
-231 -141 -68 -179 -76 -255 -55 -229 64 -555 120 -925 157 -135 13 -565 6
-650 -11 -82 -17 -268 -51 -290 -53 -18 -2 -20 5 -23 77 -3 91 22 157 68 176
30 12 188 52 285 73 39 8 129 29 200 45 72 16 150 33 175 37 25 3 59 11 76 16
17 5 80 16 140 24 60 8 141 19 179 24 118 16 343 41 480 52 72 6 177 14 235
19 58 5 259 9 448 9 342 1 342 1 354 26 10 22 9 29 -9 46 -34 34 -482 47 -936
28z m1800 -1159 c125 -10 220 -24 413 -60 52 -10 119 -21 147 -25 77 -10 73
-19 -20 -51 -67 -24 -83 -33 -85 -52 -5 -35 20 -37 162 -14 364 60 588 0 684
-183 41 -77 40 -265 -2 -345 -66 -129 -197 -221 -316 -224 -66 -1 -66 -1 -180
90 -405 322 -794 585 -1152 780 -70 38 -128 72 -128 76 0 18 292 22 477 8z" fill="#DD5B85"/>
<path d="M15685 18712 c-171 -44 -275 -133 -217 -185 27 -24 42 -22 127 23
129 68 300 77 355 18 86 -92 -19 -217 -205 -243 -109 -15 -138 -81 -35 -79
217 3 370 111 370 263 0 177 -165 261 -395 203z" fill="#DD5B85"/>
<path d="M4273 17335 c-364 -57 -787 -565 -892 -1070 -71 -343 -35 -817 57
-758 15 9 17 38 18 254 2 578 196 1050 539 1312 231 176 423 212 614 116 186
-94 305 -267 405 -584 39 -125 45 -137 59 -132 55 18 -33 385 -127 527 -171
259 -407 377 -673 335z" fill="#DD5B85"/>
<path d="M26333 17273 c-51 -18 15 -111 140 -195 99 -68 144 3 52 83 -81 72
-166 121 -192 112z" fill="#DD5B85"/>
<path d="M24240 17099 c30 -28 98 -84 150 -124 52 -41 149 -116 214 -167 151
-118 210 -161 265 -196 67 -42 342 -262 327 -262 -9 0 -71 26 -101 43 -11 6
-32 17 -47 24 -15 8 -30 18 -33 24 -4 5 -25 9 -48 9 -47 0 -77 24 -77 61 0 30
-28 79 -46 79 -8 0 -17 7 -20 15 -4 8 -14 15 -24 15 -9 0 -29 9 -43 20 -14 11
-32 17 -40 14 -9 -3 -21 3 -29 15 -8 11 -25 25 -39 31 -13 5 -32 16 -43 22
-15 10 -19 10 -23 1 -7 -20 -57 -15 -86 7 -14 11 -38 20 -54 20 -15 0 -43 9
-61 20 -18 11 -47 20 -65 20 -17 0 -43 9 -57 20 -46 36 -94 12 -83 -41 3 -16
1 -29 -4 -29 -10 0 -291 134 -558 265 -152 75 -276 125 -311 125 -37 0 -29
-26 16 -55 22 -14 40 -30 40 -35 0 -6 11 -15 25 -20 65 -25 14 -39 -54 -15
-23 8 -59 15 -79 15 -171 0 -217 6 -265 34 -53 30 -78 28 -95 -8 -11 -24 -101
-27 -144 -5 -22 12 -28 11 -28 -1 0 -5 8 -10 18 -10 15 0 18 -6 14 -30 -4 -27
-8 -30 -43 -30 -26 0 -42 -5 -45 -15 -8 -20 -30 -19 -68 4 -57 35 -100 37
-125 5 -19 -24 -24 -26 -47 -15 -34 15 -64 5 -64 -21 0 -16 -4 -18 -17 -12
-27 13 -142 5 -174 -11 -60 -32 -122 -5 -131 55 -3 23 -7 25 -66 28 -63 3
-152 -20 -152 -39 0 -15 -37 -10 -50 7 -23 27 -84 15 -88 -18 -3 -25 -7 -28
-43 -28 -21 0 -39 -4 -39 -10 0 -5 -14 -10 -30 -10 -17 0 -39 -6 -50 -12 -16
-10 -24 -10 -42 1 -19 12 -23 11 -37 -8 -9 -11 -33 -27 -53 -36 -37 -15 -64
-47 -53 -65 17 -27 -29 -80 -69 -80 -75 0 -85 -27 -12 -32 27 -2 36 -8 36 -20
0 -11 8 -18 18 -18 10 0 27 -7 38 -15 26 -20 -32 -22 -61 -1 -11 7 -31 16 -45
19 -14 3 -56 17 -95 32 -38 15 -90 33 -115 40 -68 21 -387 130 -454 156 -55
21 -59 22 -71 5 -49 -66 121 -180 548 -367 50 -22 99 -47 107 -54 8 -7 27 -17
43 -20 39 -10 44 -25 7 -25 -17 0 -33 6 -36 14 -3 8 -24 18 -47 21 -23 4 -49
13 -57 20 -8 7 -32 15 -54 18 -21 3 -46 13 -56 22 -19 17 -80 21 -80 5 0 -6
11 -15 25 -20 34 -13 31 -28 -13 -76 -20 -23 -42 -50 -48 -60 -8 -14 -22 -18
-67 -17 -65 2 -82 -13 -66 -56 13 -33 4 -55 -21 -48 -29 7 -24 -13 10 -47 34
-34 42 -73 12 -57 -10 5 -25 17 -32 26 -8 9 -34 31 -59 48 -25 17 -89 72 -141
122 -131 124 -267 238 -281 233 -15 -5 68 -106 231 -279 74 -80 155 -168 180
-198 158 -188 568 -580 632 -604 30 -11 65 41 38 58 -26 16 -102 127 -92 137
6 6 16 3 28 -10 36 -38 89 -39 120 -3 29 35 66 39 72 8 4 -21 -24 -46 -50 -47
-31 0 -5 -42 38 -58 21 -8 58 -28 82 -44 24 -15 51 -28 60 -28 9 0 26 -7 36
-15 11 -8 31 -15 45 -15 21 0 152 -60 231 -106 16 -9 41 -13 68 -11 38 4 51 0
94 -32 75 -54 428 -362 466 -407 20 -22 66 -14 70 13 3 19 -105 152 -301 370
-23 26 -15 44 11 25 36 -25 102 -53 111 -47 6 3 16 -3 23 -15 9 -15 23 -20 52
-20 50 0 107 -20 124 -43 10 -13 18 -15 32 -7 13 7 21 5 31 -6 7 -8 28 -22 48
-30 52 -22 81 -53 81 -86 0 -60 33 -111 56 -88 7 7 29 4 68 -10 61 -21 190
-40 266 -39 85 1 293 -21 307 -32 7 -6 13 -23 13 -36 0 -53 30 -83 82 -83 35
0 48 -4 48 -14 0 -22 17 -28 39 -14 16 10 35 10 91 0 39 -7 85 -12 104 -12 18
0 44 -9 57 -19 16 -12 47 -21 84 -24 70 -6 111 -14 142 -29 33 -16 53 -3 53
34 0 59 32 67 168 42 19 -4 38 -1 46 5 17 14 29 0 20 -24 -6 -14 -1 -16 22
-14 36 4 98 -8 144 -27 19 -8 51 -14 70 -13 19 1 61 -11 93 -26 40 -19 66 -25
86 -20 34 7 61 -14 61 -48 0 -52 44 -94 107 -101 37 -4 81 -19 123 -41 35 -19
78 -35 95 -35 16 0 41 -9 55 -20 14 -11 39 -20 55 -20 17 0 46 -10 65 -22 21
-13 55 -23 85 -24 28 -2 64 -6 80 -9 27 -6 34 -2 63 34 36 44 65 52 82 22 8
-16 17 -19 43 -14 26 4 40 -1 65 -22 27 -23 38 -26 71 -20 25 4 51 1 74 -9 20
-8 70 -16 112 -17 42 -2 79 -7 81 -11 3 -4 33 -5 67 -2 73 6 104 -7 73 -31
-16 -12 -57 -15 -208 -15 -105 0 -188 -4 -188 -9 0 -11 55 -31 84 -31 12 0 39
-9 61 -20 33 -17 59 -20 156 -20 117 0 117 0 136 38 18 37 18 37 240 43 188 5
226 8 241 22 10 10 28 17 40 17 12 0 26 9 32 20 6 11 17 20 25 20 8 0 20 10
26 22 7 13 25 35 40 51 48 48 60 119 63 370 1 165 0 163 70 113 110 -78 131 0
31 117 -53 62 -66 87 -45 87 15 0 12 47 -2 52 -25 10 -39 -2 -27 -24 27 -50
-31 -21 -100 51 -100 103 -122 132 -111 147 15 17 9 26 -67 104 -34 36 -92 95
-127 132 -35 36 -75 68 -88 70 -31 4 -30 32 2 36 75 8 76 9 31 51 -61 56 -50
68 15 16 31 -26 73 -57 94 -70 21 -13 63 -45 94 -70 79 -64 104 -74 122 -50
20 27 21 27 -58 116 -85 96 -235 232 -372 338 -92 71 -149 111 -431 306 -60
42 -139 96 -174 120 -69 48 -88 54 -97 30 -8 -19 8 -38 60 -73 81 -55 422
-341 481 -403 33 -35 73 -73 89 -84 17 -12 27 -27 24 -35 -3 -11 -18 -2 -53
32 -52 51 -75 51 -75 1 0 -33 -42 -25 -86 18 -18 17 -46 32 -68 36 -25 4 -35
10 -32 19 9 23 -61 67 -97 60 -29 -5 -50 8 -227 140 -107 80 -199 155 -204
166 -6 11 -37 32 -70 47 -34 15 -83 45 -111 66 -44 34 -198 140 -459 315 -41
28 -77 54 -80 59 -4 6 -283 184 -396 251 -135 82 -267 150 -288 150 -4 0 18
-23 48 -51z m-723 -144 c26 -14 66 -39 88 -55 22 -17 52 -35 68 -41 15 -6 27
-15 27 -20 0 -17 -47 -9 -65 11 -10 11 -27 20 -37 20 -10 0 -30 7 -43 16 -14
9 -33 13 -45 9 -15 -5 -22 -1 -30 19 -5 14 -18 31 -30 38 -56 35 1 37 67 3z" fill="#DD5B85"/>
<path d="M11640 16894 c-188 -14 -475 -66 -482 -88 -7 -21 70 -24 366 -15 299
9 900 5 999 -7 35 -4 54 -2 72 10 55 36 18 69 -95 86 -73 11 -748 22 -860 14z" fill="#DD5B85"/>
<path d="M25800 16740 c0 -17 30 -42 216 -182 241 -182 298 -225 460 -352 76
-60 165 -130 196 -154 59 -46 88 -50 88 -13 0 19 -185 204 -260 260 -19 14
-87 67 -150 117 -63 49 -141 107 -172 127 -32 20 -82 52 -110 71 -51 32 -102
61 -196 113 -46 24 -72 29 -72 13z" fill="#DD5B85"/>
<path d="M19440 16672 c0 -5 18 -21 41 -38 22 -16 63 -47 92 -69 28 -22 68
-51 88 -65 53 -36 189 -140 208 -159 9 -9 32 -27 51 -41 19 -13 60 -45 90 -71
275 -235 387 -331 509 -439 313 -275 294 -260 326 -257 26 2 30 6 33 37 3 32
-3 41 -105 138 -59 57 -126 118 -149 136 -23 17 -111 87 -196 156 -224 181
-406 312 -682 490 -81 52 -175 113 -210 136 -69 45 -96 57 -96 46z" fill="#DD5B85"/>
<path d="M4790 16062 c-22 -11 -69 -61 -128 -137 -52 -66 -149 -178 -215 -249
-151 -159 -153 -165 -67 -231 78 -60 134 -131 175 -220 71 -155 113 -128 217
140 73 187 113 354 143 592 12 94 -47 145 -125 105z" fill="#DD5B85"/>
<path d="M12594 15358 c9 -13 45 -45 81 -73 37 -27 97 -76 133 -109 37 -32 78
-66 92 -75 72 -47 91 -88 26 -57 -19 9 -37 16 -42 16 -4 0 -16 8 -27 17 -25
23 -57 -12 -57 -62 0 -51 -14 -56 -171 -60 -92 -2 -145 -7 -147 -14 -9 -28
-58 -3 -352 180 -391 244 -507 288 -293 112 43 -35 92 -77 108 -91 47 -43 126
-105 171 -135 93 -62 132 -130 50 -86 -21 11 -46 17 -57 14 -15 -5 -19 -1 -19
18 0 27 -44 64 -55 46 -4 -6 -24 -7 -51 -3 -40 6 -46 4 -74 -26 -36 -39 -50
-34 -320 128 -187 112 -385 215 -401 210 -10 -3 21 -29 225 -185 367 -281 371
-284 353 -294 -8 -5 -28 -5 -44 0 -24 7 -35 5 -47 -8 -12 -11 -34 -16 -76 -16
-41 0 -64 -6 -77 -18 -42 -37 -80 -42 -118 -13 -19 15 -35 33 -35 41 0 19 -39
45 -57 38 -10 -4 -13 -14 -9 -29 8 -29 -7 -30 -49 -4 -16 11 -57 34 -90 51
-33 17 -82 46 -110 63 -56 35 -65 40 -155 94 -124 73 -139 57 -32 -35 37 -32
90 -80 117 -106 28 -27 71 -65 98 -85 26 -20 47 -40 47 -44 0 -13 -33 -9 -54
7 -22 17 -34 12 -47 -22 -7 -18 -14 -23 -29 -18 -46 15 -122 -22 -77 -38 6 -2
9 -7 5 -11 -3 -4 -14 -3 -25 3 -10 5 -45 22 -78 36 -33 15 -78 35 -100 45
-113 52 -128 31 -41 -56 77 -77 76 -74 32 -74 -36 0 -53 -23 -47 -62 1 -9 -2
-19 -8 -22 -14 -9 -332 205 -506 342 -98 76 -195 142 -211 142 -26 0 24 -52
134 -140 99 -79 161 -133 311 -269 167 -151 175 -161 114 -161 -15 0 -33 -10
-45 -25 -15 -19 -29 -25 -61 -25 -27 0 -48 -7 -62 -20 -12 -11 -42 -23 -71
-26 -27 -4 -56 -12 -64 -19 -28 -22 -80 -38 -113 -33 -46 8 -59 1 -45 -22 17
-27 5 -33 -33 -17 -44 19 -84 54 -68 59 8 3 10 11 5 24 -7 19 -8 19 -21 0 -19
-25 -52 -18 -162 34 -97 47 -126 48 -131 8 -3 -22 4 -32 35 -52 64 -43 87 -60
113 -83 28 -26 13 -30 -28 -9 -28 14 -78 11 -88 -5 -3 -5 -20 -9 -39 -9 -43 0
-65 -9 -65 -26 0 -15 7 -16 93 -14 56 1 96 -25 58 -38 -7 -2 -23 -15 -34 -28
-12 -14 -27 -22 -34 -19 -8 2 -30 -4 -51 -15 -24 -13 -47 -18 -64 -14 -20 4
-30 0 -40 -15 -8 -13 -23 -21 -39 -21 -34 0 -53 -21 -36 -39 31 -34 -115 34
-173 79 -19 15 -84 54 -145 87 -60 33 -173 100 -250 148 -77 48 -160 99 -184
114 -24 14 -71 44 -105 65 -64 42 -413 256 -506 312 -30 18 -75 44 -100 57
-25 13 -70 39 -100 59 -96 62 -170 108 -176 108 -2 0 -18 10 -33 21 -29 21
-57 23 -43 4 7 -11 218 -156 277 -190 19 -11 51 -32 72 -46 21 -14 49 -33 63
-42 14 -9 68 -46 120 -82 52 -36 124 -86 160 -110 36 -25 83 -57 105 -73 22
-16 103 -73 180 -126 130 -91 172 -123 344 -255 85 -67 171 -142 171 -151 0
-4 -19 -10 -42 -13 -22 -3 -54 -15 -69 -26 -16 -12 -34 -21 -41 -21 -8 0 -23
-6 -34 -14 -11 -8 -62 -35 -114 -61 -245 -120 -249 -123 -256 -181 -2 -21 -13
-51 -23 -65 -14 -18 -16 -30 -9 -42 6 -11 5 -17 -1 -17 -22 0 -474 235 -661
344 -208 121 -470 258 -484 253 -6 -2 0 -10 14 -17 14 -7 30 -19 35 -25 6 -7
55 -41 110 -77 55 -36 145 -94 200 -130 55 -36 120 -78 145 -93 74 -46 418
-307 424 -320 4 -10 -10 -13 -57 -13 -75 1 -132 -14 -181 -47 -20 -14 -41 -25
-46 -25 -6 0 -27 -16 -49 -35 -22 -20 -49 -35 -63 -35 -30 0 -51 -39 -42 -77
13 -51 -30 -29 -302 152 -298 198 -338 220 -314 175 6 -11 48 -49 93 -86 97
-78 447 -411 447 -426 0 -6 -10 -8 -23 -4 -19 4 -34 -7 -87 -64 -34 -39 -71
-70 -80 -70 -11 0 -22 -12 -29 -30 -8 -26 -14 -30 -34 -25 -15 4 -28 1 -36 -9
-8 -9 -19 -16 -26 -16 -7 0 -15 -7 -19 -15 -7 -20 -31 -19 -64 4 -15 10 -52
34 -82 53 -30 20 -88 57 -129 84 -108 71 -115 75 -120 63 -4 -13 35 -56 71
-78 39 -24 208 -187 208 -201 0 -7 -18 -10 -47 -10 -68 2 -120 -18 -126 -50
-3 -14 -12 -43 -21 -65 -8 -22 -15 -56 -16 -76 0 -20 -7 -42 -15 -49 -8 -7
-15 -20 -15 -29 0 -18 -102 -117 -130 -126 -10 -3 -20 -16 -22 -28 -2 -14 -17
-29 -40 -40 -25 -12 -38 -26 -38 -38 0 -11 -21 -39 -46 -63 -38 -36 -44 -47
-39 -69 6 -23 3 -27 -22 -32 -15 -4 -47 -16 -71 -27 -28 -13 -54 -18 -72 -15
-32 7 -75 -20 -85 -54 -4 -11 -23 -27 -43 -37 -36 -17 -51 -45 -55 -102 -3
-43 -30 -33 -141 50 -118 88 -134 95 -110 48 15 -28 207 -238 227 -246 16 -8
5 -28 -26 -47 -17 -11 -36 -34 -42 -50 -13 -38 -35 -60 -71 -72 -25 -8 -29
-16 -32 -49 -2 -25 -12 -51 -27 -68 -14 -16 -27 -36 -30 -46 -4 -12 -19 -19
-48 -22 -65 -8 -157 -66 -157 -100 0 -28 -30 -84 -65 -123 -16 -17 -19 -28
-13 -50 11 -41 4 -42 -54 -5 -29 18 -82 51 -118 73 -61 38 -177 124 -280 209
-25 20 -139 111 -255 203 -200 159 -495 401 -635 521 -36 31 -103 89 -150 129
-47 41 -116 97 -153 125 -38 29 -99 80 -135 114 -37 35 -100 89 -141 120 -41
31 -122 101 -180 155 -135 126 -170 155 -178 147 -8 -7 122 -134 242 -236 44
-37 105 -94 135 -125 30 -31 96 -91 145 -133 50 -41 127 -113 173 -158 45 -46
108 -103 140 -126 31 -24 116 -95 188 -158 72 -63 173 -151 225 -195 51 -44
116 -101 144 -126 61 -55 231 -199 300 -254 200 -157 505 -437 505 -463 0 -5
-11 -7 -25 -4 -21 4 -25 1 -25 -20 0 -13 -5 -29 -10 -34 -11 -11 -50 -143 -50
-168 0 -9 9 -24 21 -35 22 -20 23 -61 2 -68 -6 -3 -21 13 -31 34 -20 38 -20
38 -55 0 -22 -25 -37 -52 -40 -75 -10 -73 -20 -97 -48 -124 -32 -30 -36 -50
-14 -68 18 -15 20 -30 4 -30 -18 0 -399 266 -599 419 -58 44 -145 110 -195
146 -49 36 -106 78 -125 94 -19 15 -55 40 -80 56 -25 15 -56 38 -70 50 -14 12
-50 40 -80 60 -30 21 -67 47 -82 58 -34 25 -60 19 -32 -9 86 -82 142 -132 188
-167 30 -23 135 -109 234 -192 99 -82 204 -170 235 -195 30 -25 104 -87 163
-139 60 -51 141 -120 179 -153 211 -181 252 -228 203 -228 -29 -1 -58 -59 -58
-116 0 -46 14 -64 49 -64 51 0 54 -9 54 -136 0 -103 2 -121 18 -132 26 -18 36
-72 15 -84 -20 -11 -21 -47 -1 -54 8 -4 15 -19 15 -35 0 -21 12 -38 50 -71 54
-47 88 -122 77 -175 -5 -28 -5 -28 116 -32 236 -7 473 -6 527 3 55 8 55 8 70
-25 16 -35 73 -44 122 -18 9 5 44 6 77 3 43 -5 61 -3 61 5 0 6 -6 11 -14 11
-8 0 -21 7 -30 15 -11 12 -31 14 -84 11 -59 -4 -73 -2 -87 14 -16 18 -16 19 8
25 14 4 33 15 43 26 28 31 69 19 149 -45 61 -49 211 -136 234 -136 18 0 51 34
51 52 0 4 -46 53 -102 110 -59 58 -97 103 -90 106 7 2 22 -4 34 -14 20 -19 21
-18 47 14 24 28 34 32 77 32 27 0 58 7 68 15 17 13 23 12 55 -5 60 -33 122
-50 142 -39 10 5 31 9 48 9 17 0 31 5 31 10 0 6 16 10 35 10 24 0 37 6 45 20
8 15 21 20 49 20 25 0 44 7 56 20 13 14 31 20 61 20 24 0 46 5 49 10 3 6 21
10 39 10 30 0 33 2 28 25 -6 36 9 32 106 -27 48 -29 96 -57 107 -61 28 -11
181 -107 300 -187 73 -49 390 -246 436 -271 47 -25 123 -71 165 -100 46 -31
94 -47 94 -31 0 11 -25 31 -146 117 -30 22 -82 60 -113 85 -32 25 -93 70 -135
100 -419 301 -632 473 -609 489 5 3 19 27 31 54 23 48 37 56 73 37 16 -9 26
-5 57 20 24 19 48 30 68 30 18 0 44 6 60 14 15 8 40 12 55 9 22 -4 31 0 44 21
13 19 26 26 49 26 49 0 75 10 82 32 5 18 12 20 48 15 27 -4 47 -1 60 9 40 29
130 2 98 -30 -10 -10 19 -26 48 -26 23 0 67 18 109 44 12 8 -11 32 -29 29 -3
0 -14 5 -24 13 -11 7 -31 11 -47 7 -33 -6 -37 6 -11 30 28 25 42 21 118 -30
38 -25 87 -56 109 -68 22 -12 86 -47 143 -79 112 -63 145 -68 150 -25 3 28
-37 72 -143 157 -64 51 -158 142 -153 148 2 2 20 -1 39 -6 29 -9 36 -8 48 10
8 12 25 20 42 20 15 0 31 5 34 10 3 6 24 10 47 10 37 0 40 2 36 24 -5 22 -3
24 21 15 31 -12 139 -76 166 -99 11 -9 61 -41 110 -70 50 -30 172 -106 273
-169 100 -64 204 -129 230 -146 27 -16 66 -44 88 -61 21 -17 81 -57 132 -90
51 -32 148 -95 215 -139 295 -193 337 -214 345 -173 3 14 -533 415 -673 504
-53 34 -242 172 -323 237 -43 34 -104 82 -136 107 -134 103 -148 120 -97 120
17 0 32 4 36 9 3 5 20 13 38 17 17 3 45 18 61 31 21 18 38 24 60 20 23 -3 36
3 62 28 31 31 156 98 236 126 37 13 58 42 58 82 0 12 9 37 20 54 11 18 17 39
14 48 -12 30 26 12 193 -96 163 -106 267 -161 287 -153 39 15 17 53 -96 170
-126 129 -139 150 -86 140 23 -4 45 0 71 13 20 10 48 22 62 25 13 3 35 20 47
36 12 17 31 30 43 30 11 0 39 18 60 40 21 22 45 40 51 40 22 0 54 51 54 87 0
60 61 133 110 133 10 0 30 16 44 35 20 26 35 35 56 35 21 0 36 9 56 35 17 23
35 35 51 35 13 0 34 11 47 25 13 14 38 28 55 31 17 4 36 14 41 24 21 40 74 60
205 78 46 6 50 10 55 37 9 52 53 91 113 98 44 6 56 12 83 44 29 34 37 38 79
38 43 1 51 5 82 40 25 29 41 39 58 37 17 -2 29 5 41 22 11 18 25 26 44 26 16
0 30 7 34 16 4 10 15 14 31 12 18 -2 32 5 48 26 26 32 67 30 67 -3 0 -24 38
-71 57 -71 9 0 26 11 39 25 13 15 29 22 38 19 8 -3 41 8 72 25 32 17 68 31 82
31 13 0 37 13 54 30 21 22 39 30 63 30 24 0 38 6 45 20 7 12 21 20 38 20 15 0
42 9 60 20 18 11 43 20 57 20 62 0 125 48 125 96 0 42 3 43 91 46 41 1 97 7
124 15 28 7 62 13 76 13 15 0 57 15 95 34 38 19 81 38 96 41 15 4 30 16 33 26
7 20 14 22 53 19 12 -1 25 6 28 14 4 9 18 16 35 16 19 0 32 7 40 22 7 13 18
29 26 36 7 8 13 35 13 62 0 40 4 50 20 55 11 3 23 18 26 31 4 17 19 30 44 40
20 8 47 28 59 44 14 19 31 30 46 30 15 0 39 15 64 40 22 22 44 40 50 40 6 0
17 13 26 29 11 23 21 29 42 28 20 -1 31 4 38 20 11 25 69 52 124 58 94 9 156
80 166 190 1 17 10 54 19 84 9 30 16 74 16 98 0 59 67 187 94 177 24 -8 43 15
24 30 -10 7 -18 18 -18 23 0 6 -7 16 -15 23 -9 7 -13 15 -11 18 5 4 120 -61
148 -85 26 -23 62 -13 66 17 2 20 -10 39 -59 85 -63 60 -63 60 -23 65 36 5 39
7 36 34 -2 18 3 33 14 41 16 11 16 18 7 49 -9 30 -8 39 7 59 18 22 18 24 -1
47 -22 29 -24 50 -6 50 6 -1 66 -46 132 -102 264 -221 305 -248 305 -200 0 28
-61 104 -277 343 -206 230 -218 248 -191 302 6 12 4 19 -7 23 -8 3 -15 12 -15
19 0 17 -11 24 -47 29 -48 6 -81 27 -94 60 -7 17 -19 39 -27 48 -8 9 -11 21
-8 26 3 5 -2 9 -11 8 -10 0 -19 7 -21 19 -5 28 -31 83 -42 90 -6 3 -10 11 -10
16 0 18 54 -28 207 -175 83 -80 183 -173 222 -206 40 -33 84 -72 99 -85 37
-35 72 -34 72 3 1 46 -849 876 -914 893 -18 5 -33 1 -51 -13 -25 -19 -27 -19
-62 -3 -20 10 -70 19 -117 22 -133 7 -143 10 -149 42 -8 39 -141 91 -188 74
-37 -14 -91 12 -334 164 -106 66 -380 213 -398 213 -4 0 -1 -10 7 -22z" fill="#DD5B85"/>
<path d="M8308 15268 c6 -8 30 -20 53 -27 96 -29 274 -138 435 -268 50 -40 99
-73 108 -73 75 0 -154 217 -314 298 -109 55 -311 105 -282 70z" fill="#DD5B85"/>
<path d="M7660 14751 c0 -10 41 -42 312 -247 186 -141 273 -203 348 -250 197
-124 233 -138 238 -94 4 33 -177 169 -446 336 -35 21 -82 51 -105 65 -23 14
-87 52 -142 84 -55 32 -121 71 -146 87 -49 30 -59 33 -59 19z" fill="#DD5B85"/>
<path d="M4194 13509 c14 -17 51 -51 82 -76 30 -25 90 -78 132 -118 104 -97
306 -274 410 -359 47 -38 94 -78 104 -88 21 -21 34 -23 44 -7 15 26 -405 411
-605 554 -30 22 -64 49 -76 61 -21 20 -96 64 -110 64 -4 0 5 -14 19 -31z" fill="#DD5B85"/>
<path d="M4252 12961 c7 -10 34 -34 59 -54 25 -19 66 -54 90 -78 45 -45 169
-152 288 -247 36 -30 84 -69 106 -87 44 -37 106 -82 205 -150 36 -25 119 -83
185 -130 128 -90 130 -91 141 -73 4 7 -14 31 -47 60 -72 65 -335 288 -369 313
-15 11 -78 59 -141 106 -102 76 -229 166 -384 269 -29 19 -71 47 -93 63 -49
32 -58 34 -40 8z" fill="#DD5B85"/>
<path d="M4610 11302 c0 -14 88 -100 179 -175 41 -34 98 -82 125 -107 28 -25
76 -64 107 -87 30 -22 77 -60 104 -83 61 -53 91 -68 107 -52 23 23 -79 116
-332 302 -26 19 -89 67 -141 106 -119 89 -149 109 -149 96z" fill="#DD5B85"/>
<path d="M21300 10079 c-189 -12 -456 -57 -640 -108 -41 -11 -116 -31 -166
-45 -189 -51 -420 -135 -564 -203 -255 -121 -465 -232 -590 -311 -30 -19 -71
-45 -90 -57 -601 -379 -1251 -1017 -1646 -1617 -179 -272 -206 -318 -341 -578
-25 -46 -48 -89 -52 -95 -14 -17 -123 -267 -146 -335 -12 -36 -43 -128 -68
-205 -26 -77 -52 -153 -58 -170 -28 -79 -69 -247 -94 -395 -8 -47 -20 -110
-25 -140 -57 -304 -18 -943 74 -1200 7 -19 23 -66 36 -105 175 -544 540 -1012
986 -1265 58 -33 108 -60 110 -60 5 0 42 -17 139 -61 338 -154 960 -164 1575
-25 268 61 771 253 992 378 857 485 1374 1127 1658 2058 12 41 28 89 35 105 7
17 15 46 19 65 4 19 13 55 21 80 116 399 202 1266 177 1795 -26 533 -75 980
-137 1250 -7 33 -26 114 -40 180 -15 66 -33 138 -41 160 -7 22 -23 76 -35 120
-37 134 -146 465 -183 552 -45 108 -39 111 184 77 125 -18 194 -18 210 1 15
18 -2 45 -30 45 -10 0 -34 7 -53 15 -20 8 -65 19 -99 25 -35 5 -112 19 -173
30 -230 43 -638 60 -945 39z m-222 -218 c-1 -5 -37 -37 -78 -72 -164 -139
-291 -231 -395 -288 -33 -18 -64 -36 -70 -41 -5 -4 -80 -44 -165 -87 -246
-127 -458 -205 -775 -288 -77 -20 -170 -45 -207 -56 -36 -10 -73 -19 -82 -19
-8 0 -44 -9 -78 -19 -131 -41 -258 -72 -275 -69 -17 4 101 98 212 169 22 14
92 60 155 101 162 106 551 318 584 318 4 0 41 16 83 35 41 20 92 42 112 49 20
8 61 24 91 35 187 73 526 175 704 212 48 10 91 21 94 24 9 9 94 6 90 -4z
m-278 -2900 c546 -111 942 -351 1182 -716 122 -186 208 -462 208 -670 0 -19
-22 -102 -50 -184 -47 -143 -61 -179 -100 -266 -10 -22 -26 -61 -35 -87 -25
-73 -34 -67 -34 24 1 135 -65 410 -135 563 -8 17 -26 59 -41 95 -194 469 -546
838 -1010 1059 -49 24 -98 47 -108 52 -69 36 -254 96 -371 120 -77 16 -142 32
-145 35 -17 18 536 -5 639 -25z" fill="#DD5B85"/>
<path d="M20520 6941 c0 -9 99 -41 126 -41 10 1 30 7 44 15 25 13 25 13 0 19
-47 9 -170 15 -170 7z" fill="#DD5B85"/>
<path d="M20730 6891 c-45 -8 -36 -27 10 -23 19 1 60 4 90 5 92 5 97 6 80 17
-16 10 -123 11 -180 1z" fill="#DD5B85"/>
<path d="M20955 6851 c-7 -12 79 -26 94 -16 6 3 9 11 6 16 -8 12 -92 12 -100
0z" fill="#DD5B85"/>
<path d="M22119 5630 c-7 -77 3 -150 12 -90 3 19 3 62 0 95 -7 60 -7 60 -12
-5z" fill="#DD5B85"/>
<path d="M22030 5285 c-9 -28 -9 -40 -1 -48 23 -23 42 40 22 72 -6 10 -12 3
-21 -24z" fill="#DD5B85"/>
<path d="M9694 7228 c-7 -11 36 -56 97 -103 43 -33 98 -114 151 -219 127 -253
275 -357 491 -344 409 25 487 611 89 664 -89 11 -182 -28 -166 -70 5 -13 21
-16 83 -16 260 0 312 -342 67 -435 -62 -24 -193 -16 -254 14 -60 30 -141 116
-213 223 -148 223 -304 352 -345 286z" fill="#DD5B85"/>
<path d="M18220 28945 c0 -19 28 -150 39 -180 6 -16 29 -88 52 -160 46 -143
148 -409 205 -531 20 -44 55 -137 79 -209 136 -418 227 -641 407 -1000 143
-284 298 -523 313 -483 3 8 -92 232 -211 498 -119 267 -220 497 -224 513 -19
63 20 21 128 -138 330 -486 998 -1146 1527 -1510 55 -38 123 -85 150 -105 53
-39 283 -193 375 -252 257 -165 350 -219 690 -406 224 -123 765 -372 1050
-482 74 -29 185 -72 245 -96 61 -23 173 -67 250 -97 77 -30 186 -73 242 -96
109 -44 309 -118 358 -131 17 -4 47 -15 67 -24 43 -19 58 -20 58 -6 0 6 -12
15 -27 20 -16 6 -35 14 -43 20 -18 11 -140 72 -262 129 -49 23 -127 59 -175
82 -108 50 -618 305 -699 350 -100 54 -194 103 -324 169 -69 35 -163 84 -210
110 -47 26 -137 75 -200 110 -63 34 -144 82 -180 105 -36 23 -96 58 -135 77
-38 20 -94 50 -123 67 -29 17 -55 31 -58 31 -10 0 -358 203 -452 263 -556 358
-770 514 -1187 872 -360 308 -731 759 -1101 1335 -159 249 -385 674 -524 986
-48 109 -100 196 -100 169z" fill="#C878A9"/>
<path d="M12120 26781 c-6 -11 -10 -91 -10 -188 0 -292 -69 -792 -115 -843
-39 -43 -141 -21 -377 81 -214 92 -218 90 -218 -127 0 -361 -63 -578 -209
-724 -92 -92 -159 -122 -496 -225 -362 -111 -415 -131 -624 -231 -234 -113
-501 -279 -711 -443 -47 -36 -103 -79 -125 -96 -196 -144 -556 -476 -962 -887
-1012 -1025 -1240 -1241 -1583 -1498 -47 -35 -101 -75 -120 -90 -148 -112
-336 -229 -543 -339 -100 -53 -118 -67 -115 -85 6 -39 46 -30 193 42 473 234
907 544 1385 991 92 86 108 85 55 -3 -37 -61 -43 -86 -22 -86 26 0 421 424
614 660 386 473 932 947 1458 1265 313 189 759 386 1155 510 309 97 389 142
507 287 154 188 267 527 299 896 4 56 11 85 20 89 8 3 106 -31 218 -76 225
-89 238 -92 261 -57 64 97 143 575 146 885 2 192 -5 188 158 86 141 -88 207
-122 217 -112 22 22 -72 107 -289 261 -111 79 -148 91 -167 57z m-1060 -2038
c-1 -16 -37 -51 -96 -90 -58 -40 -86 -50 -284 -104 -47 -12 -172 -51 -279 -86
-106 -35 -198 -63 -203 -63 -46 0 100 75 277 142 44 16 96 36 115 44 19 7 100
34 180 59 80 25 174 59 210 74 72 32 80 34 80 24z" fill="#C878A9"/>
<path d="M21203 23249 c-227 -29 -600 -194 -713 -314 -37 -40 -23 -37 125 29
257 114 414 157 730 201 216 29 210 28 213 52 3 17 -3 26 -23 33 -31 12 -241
11 -332 -1z" fill="#C878A9"/>
<path d="M10362 22461 c-85 -22 -57 -43 80 -61 96 -13 217 -46 354 -95 107
-39 142 -43 151 -18 31 81 -421 215 -585 174z" fill="#C878A9"/>
<path d="M9720 22391 c-299 -108 -569 -242 -840 -418 -476 -309 -705 -482
-1034 -782 -283 -259 -316 -358 -39 -120 340 292 868 656 1233 851 121 65 207
111 270 145 30 16 123 65 205 108 339 177 384 209 339 242 -22 16 -9 19 -134
-26z" fill="#C878A9"/>
<path d="M24420 20028 c-16 -24 -45 -65 -63 -92 -89 -137 -419 -367 -657 -459
-186 -72 -525 -138 -525 -102 0 9 239 101 367 141 50 15 78 48 59 67 -12 12
-101 -5 -346 -68 -506 -130 -1110 -377 -1589 -649 -54 -31 -100 -56 -102 -56
-25 0 -375 -218 -382 -238 -7 -23 25 -12 154 52 71 35 199 96 284 136 85 39
178 83 207 96 112 52 110 25 -4 -58 -359 -258 -690 -632 -861 -973 -58 -114
-64 -138 -40 -143 12 -2 35 23 76 85 76 113 112 141 112 87 0 -24 34 -16 111
26 95 53 110 56 133 31 14 -16 31 -21 65 -21 65 0 91 -21 91 -71 0 -21 6 -48
12 -59 11 -17 8 -24 -22 -55 -46 -47 -27 -76 38 -57 21 7 76 19 123 28 159 30
465 106 799 199 264 73 196 67 725 65 310 0 552 -6 683 -15 381 -28 757 -106
1612 -337 41 -11 97 -24 124 -29 26 -4 62 -13 80 -18 35 -12 188 -44 284 -61
57 -10 66 -9 96 9 19 12 51 21 72 21 22 0 54 9 72 20 47 29 53 27 129 -40 69
-61 96 -70 116 -39 21 34 -13 94 -151 266 -137 169 -189 226 -288 315 -57 51
-129 124 -160 161 -197 240 -582 590 -839 764 -139 94 -492 282 -532 283 -4 1
-26 9 -48 20 -22 11 -45 19 -52 20 -31 1 -20 179 23 386 13 65 31 155 40 199
9 44 25 95 35 112 50 80 -7 128 -61 51z" fill="#C878A9"/>
<path d="M22285 19914 c-429 -33 -1083 -180 -1049 -236 7 -11 94 -3 197 18 37
8 151 25 253 39 299 41 313 35 133 -57 -179 -90 -328 -208 -264 -208 8 0 82
32 163 71 365 177 635 255 847 244 208 -11 496 -34 615 -50 274 -36 352 -48
468 -71 128 -25 142 -25 142 5 0 35 -57 57 -345 134 -322 86 -841 135 -1160
111z" fill="#C878A9"/>
<path d="M10760 19389 c-542 -19 -1083 -105 -1640 -261 -76 -21 -74 -23 -80
79 -8 147 -61 177 -74 41 -15 -158 -26 -171 -181 -220 -657 -208 -1478 -622
-1917 -966 -143 -112 -46 -66 322 151 422 249 959 496 1495 689 171 61 188 55
102 -38 -124 -134 -305 -235 -817 -459 -173 -75 -353 -155 -400 -177 -47 -22
-130 -60 -185 -85 -113 -51 -310 -148 -430 -213 -390 -209 -465 -253 -665
-388 -324 -220 -521 -381 -754 -620 -141 -144 -136 -144 -161 13 -31 190 -128
460 -163 453 -25 -5 -26 -45 -2 -224 13 -95 24 -243 27 -367 6 -208 6 -208
-59 -305 -181 -269 -193 -295 -167 -344 10 -19 22 -263 19 -398 -11 -573 -408
-966 -870 -862 -122 28 -383 131 -460 182 -87 58 -104 24 -34 -68 42 -56 43
-48 -10 -156 -24 -50 -59 -134 -76 -186 -70 -204 -315 -657 -421 -778 -60 -68
-21 -70 94 -6 156 88 302 175 398 237 52 34 133 85 180 114 46 28 176 114 289
192 113 78 212 141 220 141 8 0 -75 -89 -186 -198 -346 -340 -754 -776 -754
-805 0 -20 34 8 197 164 188 181 451 420 593 538 327 272 845 674 1110 862
213 151 392 271 665 444 94 59 186 117 205 130 52 34 144 87 250 145 105 58
156 86 215 120 252 143 733 381 1015 502 63 27 167 72 230 100 63 27 129 55
145 63 31 13 123 49 280 108 77 30 474 164 715 242 268 87 865 234 1150 284
274 48 399 61 750 80 243 13 672 -8 697 -33 8 -8 -73 -15 -227 -22 -296 -12
-570 -58 -570 -95 0 -13 74 -15 372 -8 292 8 512 2 813 -22 357 -27 305 -16
570 -124 310 -126 311 -126 341 -119 25 6 102 -2 499 -57 264 -37 493 -97 575
-151 201 -131 250 -155 250 -122 0 43 -443 435 -612 542 -83 52 -83 53 -5 92
510 251 304 976 -269 947 -74 -3 -111 -1 -140 10 -218 81 -501 146 -814 187
-309 41 -388 47 -605 45 -220 -3 -220 -3 -380 55 -88 31 -166 59 -172 61 -25
8 -12 31 42 72 138 107 322 393 253 393 -6 0 -45 -33 -87 -73 -180 -171 -457
-306 -573 -278 -636 151 -1178 203 -1553 150 -38 -6 -99 -15 -135 -20 -36 -5
-98 -16 -138 -26 -90 -20 -92 -19 -92 90 0 76 27 151 61 173 47 29 689 169
949 208 455 67 726 88 1185 93 220 2 410 6 423 9 28 6 29 39 2 54 -17 9 -485
32 -580 28 -19 -1 -127 -5 -240 -9z m1764 -1145 c83 -7 186 -21 230 -29 45 -8
142 -26 216 -40 130 -25 169 -39 139 -49 -137 -48 -159 -60 -142 -77 9 -9 36
-8 120 6 427 71 673 -36 723 -312 38 -212 -128 -443 -337 -469 -72 -9 -98 3
-210 94 -403 325 -1034 743 -1271 841 -132 55 139 73 532 35z" fill="#C878A9"/>
<path d="M15685 18700 c-84 -22 -208 -87 -219 -116 -7 -18 18 -64 34 -64 6 0
45 17 88 39 166 83 331 83 382 -1 58 -96 -26 -203 -187 -238 -99 -22 -145 -60
-70 -60 203 1 357 108 357 249 0 170 -159 248 -385 191z" fill="#C878A9"/>
<path d="M4241 17319 c-130 -25 -333 -163 -468 -318 -244 -279 -382 -600 -414
-966 -21 -238 31 -576 78 -502 4 7 8 118 9 247 2 447 107 792 331 1083 333
432 732 508 1019 194 93 -102 126 -164 229 -437 64 -167 65 -50 2 165 -76 259
-290 484 -507 534 -53 12 -217 12 -279 0z" fill="#C878A9"/>
<path d="M26337 17253 c-24 -23 11 -66 122 -152 60 -47 94 -51 99 -13 7 49
-191 196 -221 165z" fill="#C878A9"/>
<path d="M11680 16884 c-128 -11 -374 -50 -394 -62 -29 -17 69 -20 439 -16
226 3 509 1 630 -4 235 -10 245 -10 245 18 0 26 -14 32 -105 47 -77 13 -710
26 -815 17z" fill="#C878A9"/>
<path d="M20520 16827 c0 -61 185 -169 550 -322 332 -140 521 -283 640 -486
48 -81 64 -96 85 -79 55 45 -37 277 -162 410 -139 147 -279 216 -798 391 -115
39 -222 78 -237 85 -34 18 -78 18 -78 1z" fill="#C878A9"/>
<path d="M4785 16049 c-11 -6 -63 -65 -115 -132 -52 -66 -148 -176 -212 -244
-138 -145 -143 -156 -97 -197 90 -79 108 -96 140 -135 19 -23 50 -75 69 -114
62 -128 89 -109 186 131 79 195 139 454 146 627 2 61 -57 94 -117 64z" fill="#C878A9"/>
<path d="M21385 10074 c-834 -52 -1703 -389 -2445 -948 -1613 -1214 -2473
-3169 -2011 -4571 256 -778 773 -1306 1446 -1479 359 -92 1052 -62 1451 63 16
5 70 21 119 36 82 25 148 46 290 96 890 309 1686 1058 2008 1889 65 167 78
203 117 325 23 72 48 148 55 170 132 387 223 1173 212 1827 -15 896 -144 1606
-424 2343 -19 50 -35 97 -36 105 -3 23 77 24 244 4 310 -37 196 35 -141 90
-256 42 -656 64 -885 50z m-288 -200 c10 -31 -332 -294 -529 -407 -378 -217
-586 -298 -1113 -432 -137 -35 -275 -71 -305 -79 -30 -9 -66 -18 -80 -22 -14
-3 -53 -15 -87 -26 -59 -18 -90 -18 -78 3 7 11 182 142 245 183 25 16 83 55
130 86 191 126 494 291 661 359 19 8 52 22 74 32 337 152 1064 356 1082 303z
m-449 -2874 c903 -97 1559 -695 1562 -1424 0 -61 -67 -261 -157 -470 -92 -212
-103 -222 -103 -91 0 237 -82 530 -231 825 -309 613 -886 1016 -1617 1131
-141 22 -51 36 236 38 117 0 256 -4 310 -9z m-1139 -760 c161 -10 355 -34 476
-61 231 -51 387 -94 695 -190 465 -147 656 -277 783 -534 67 -135 188 -517
263 -828 16 -69 16 -69 -22 -125 -378 -554 -1084 -1042 -1834 -1267 -47 -14
-107 -32 -135 -41 -27 -8 -72 -19 -100 -23 -27 -5 -86 -15 -130 -24 -362 -69
-800 -41 -1145 73 -731 244 -1244 915 -1360 1780 -34 250 -39 231 93 359 534
518 1259 834 2017 880 195 12 208 12 399 1z" fill="#C878A9"/>
<path d="M9735 7210 c-3 -5 23 -37 58 -72 70 -70 90 -99 162 -233 104 -196
196 -282 340 -319 245 -64 477 103 477 346 0 180 -160 314 -332 277 -98 -21
-89 -58 15 -59 74 0 125 -27 172 -88 164 -216 -101 -477 -363 -358 -78 36
-151 108 -237 236 -85 127 -136 189 -187 230 -42 34 -96 54 -105 40z" fill="#C878A9"/>
<path d="M18250 28854 c0 -14 7 -49 16 -77 83 -271 159 -478 253 -690 33 -74
67 -161 77 -194 120 -415 408 -1063 614 -1380 56 -86 85 -113 74 -68 -4 15
-105 248 -225 517 -229 513 -227 508 -206 508 14 0 34 -24 116 -145 391 -573
1010 -1187 1623 -1610 391 -270 408 -281 663 -439 380 -234 730 -415 1228
-635 123 -54 197 -85 432 -176 63 -24 274 -107 560 -220 356 -141 495 -171
242 -52 -147 69 -900 444 -1002 500 -44 24 -165 87 -270 141 -104 54 -194 101
-200 106 -5 4 -46 26 -90 50 -159 84 -211 113 -240 135 -16 12 -70 44 -120 70
-49 26 -120 65 -157 86 -36 22 -69 39 -72 39 -7 0 -295 166 -373 216 -34 21
-91 57 -125 78 -440 276 -845 580 -1207 906 -528 475 -1137 1343 -1489 2120
-115 253 -122 265 -122 214z" fill="#A42A5B"/>
<path d="M12126 26768 c-3 -13 -7 -120 -10 -238 -7 -344 -67 -735 -120 -788
-45 -46 -151 -22 -400 89 -180 80 -186 77 -186 -116 -1 -379 -61 -588 -214
-739 -103 -103 -168 -133 -531 -241 -563 -168 -861 -324 -1383 -724 -304 -233
-491 -408 -1317 -1236 -1016 -1018 -1323 -1277 -1855 -1569 -182 -99 -196
-109 -186 -124 35 -58 698 323 1056 607 54 43 281 233 330 277 115 103 151
135 205 186 91 87 111 76 49 -25 -38 -61 -39 -79 -4 -54 54 37 442 461 565
616 112 142 428 472 609 635 601 544 1272 924 2049 1161 84 26 193 66 243 90
267 128 445 472 509 985 21 172 23 180 40 186 8 3 106 -31 219 -75 225 -89
225 -89 251 -61 63 69 154 645 155 977 0 89 8 94 76 48 371 -246 380 -179 10
79 -114 80 -152 93 -160 54z m-1046 -2028 c-33 -61 -176 -142 -312 -175 -112
-28 -399 -120 -533 -171 -87 -33 -158 -44 -135 -21 17 17 158 93 210 112 19 8
71 29 116 48 45 19 180 66 300 106 120 40 239 82 264 95 60 31 105 34 90 6z" fill="#A42A5B"/>
<path d="M21175 23234 c-216 -39 -487 -150 -595 -243 -50 -43 -19 -40 94 9
216 94 622 190 807 190 51 0 81 24 55 45 -26 20 -248 19 -361 -1z" fill="#A42A5B"/>
<path d="M10376 22442 c-10 -16 4 -21 116 -41 57 -10 164 -40 238 -66 153 -53
194 -62 205 -45 17 28 -83 87 -220 130 -80 25 -327 41 -339 22z" fill="#A42A5B"/>
<path d="M9680 22366 c-419 -155 -796 -373 -1334 -771 -321 -238 -737 -615
-677 -615 10 0 56 35 248 191 149 120 462 351 618 456 238 159 314 204 655
386 41 22 104 56 140 75 36 19 126 66 200 105 297 156 355 195 320 217 -20 13
-6 16 -170 -44z" fill="#A42A5B"/>
<path d="M24396 19978 c-175 -269 -591 -515 -1010 -597 -313 -61 -350 -30 -76
63 245 84 263 91 274 108 17 28 2 30 -80 14 -632 -127 -1514 -491 -2162 -894
-21 -12 -47 -28 -59 -34 -24 -12 -31 -28 -12 -28 6 0 23 7 37 15 15 8 56 27
92 44 36 16 101 46 145 66 44 20 125 57 180 82 55 25 105 49 110 53 22 16 115
43 122 36 9 -8 4 -12 -152 -130 -371 -282 -663 -614 -829 -943 -43 -85 -55
-123 -40 -123 9 0 24 19 84 106 59 87 100 108 100 53 0 -27 14 -24 111 26 99
51 108 53 132 25 12 -14 29 -20 61 -20 64 0 96 -29 96 -85 0 -24 5 -47 10 -50
17 -10 11 -32 -16 -64 -25 -30 -24 -57 2 -47 7 3 82 19 166 36 165 34 436 101
758 188 306 83 238 78 840 71 661 -7 980 -38 1330 -130 19 -5 87 -21 150 -35
102 -23 245 -60 675 -175 133 -35 206 -52 437 -100 158 -33 158 -33 188 -11
19 15 44 22 72 22 25 0 56 8 76 20 47 29 53 27 129 -40 140 -124 150 -13 13
143 -25 29 -75 90 -111 137 -37 47 -133 150 -215 230 -82 80 -206 208 -275
285 -406 452 -867 784 -1332 962 -27 10 -52 25 -57 33 -13 24 8 244 35 375 14
66 33 156 41 200 9 44 25 95 36 112 23 38 21 76 -4 81 -13 2 -33 -21 -72 -80z" fill="#A42A5B"/>
<path d="M22185 19894 c-312 -30 -632 -93 -822 -163 -132 -47 -94 -52 123 -16
198 32 377 55 436 55 60 0 66 -24 11 -46 -172 -71 -422 -234 -358 -234 16 0
193 80 269 122 182 99 547 191 721 183 398 -20 813 -67 1100 -125 107 -21 135
-16 100 19 -19 19 -155 62 -360 116 -342 89 -843 126 -1220 89z" fill="#A42A5B"/>
<path d="M10765 19380 c-380 -14 -769 -61 -1145 -139 -205 -43 -480 -112 -543
-136 -34 -14 -47 12 -47 94 0 146 -36 149 -61 7 -24 -135 -26 -137 -187 -190
-271 -88 -419 -144 -712 -272 -173 -75 -550 -271 -755 -392 -183 -108 -388
-253 -367 -260 7 -2 163 80 222 117 273 175 853 452 1300 623 400 152 446 155
318 21 -144 -150 -313 -241 -968 -523 -80 -34 -185 -82 -235 -105 -49 -23
-146 -68 -215 -100 -186 -85 -338 -162 -580 -293 -497 -269 -907 -568 -1234
-901 -76 -77 -142 -141 -147 -141 -15 0 -26 33 -39 115 -17 112 -54 251 -96
358 -70 183 -87 152 -54 -97 14 -111 25 -258 28 -379 5 -198 5 -198 -80 -325
-150 -224 -176 -280 -146 -310 20 -20 22 -445 2 -560 -84 -498 -407 -783 -814
-719 -143 22 -416 123 -514 190 -68 47 -80 13 -21 -59 41 -50 43 -62 11 -117
-23 -40 -54 -114 -105 -252 -45 -120 -64 -162 -128 -285 -72 -138 -192 -341
-259 -437 -67 -98 -64 -97 206 59 85 49 182 106 215 128 33 21 107 68 165 104
93 58 314 207 518 349 43 30 77 47 88 44 15 -3 -9 -31 -111 -127 -277 -263
-775 -786 -775 -814 0 -9 17 4 64 49 237 224 469 434 582 526 50 41 147 121
216 179 333 279 873 684 1248 934 124 83 248 165 275 182 28 17 122 76 210
131 150 94 305 184 455 265 36 20 115 63 175 97 257 144 688 353 1035 500 118
51 224 96 235 101 184 80 346 140 750 274 752 251 1371 391 1948 442 239 21
795 15 921 -10 147 -29 124 -36 -146 -46 -327 -13 -601 -51 -582 -82 5 -8 92
-10 338 -5 328 6 393 3 841 -28 279 -19 285 -20 580 -149 151 -66 223 -90 265
-88 48 2 163 -10 325 -33 55 -8 165 -24 245 -35 80 -12 215 -40 300 -63 159
-44 162 -45 348 -168 61 -41 98 -50 82 -19 -37 69 -371 362 -559 491 -119 81
-120 86 -32 127 412 192 365 777 -74 911 -57 18 -92 21 -195 20 -99 -1 -133 2
-165 15 -282 120 -870 217 -1345 222 -275 3 -275 3 -450 67 -96 35 -176 69
-178 75 -2 6 27 34 63 63 110 86 239 255 260 342 11 43 -8 33 -93 -45 -94 -87
-182 -145 -317 -209 -158 -74 -177 -78 -287 -50 -689 169 -1323 203 -1780 95
-93 -22 -94 -21 -102 85 -7 85 -6 92 19 135 35 61 36 61 160 94 667 178 1280
259 2030 269 405 5 440 8 416 37 -20 23 -475 38 -816 26z m1790 -1130 c94 -11
204 -26 245 -34 41 -8 129 -25 195 -37 155 -29 168 -40 89 -75 -78 -35 -61
-38 115 -24 327 26 506 -45 592 -235 102 -228 -38 -511 -284 -571 -96 -24
-120 -16 -239 80 -421 338 -913 665 -1260 838 -62 30 -73 41 -64 63 9 24 394
20 611 -5z" fill="#A42A5B"/>
<path d="M15745 18704 c-170 -36 -291 -106 -265 -153 14 -28 19 -27 100 14
203 102 384 82 415 -47 20 -81 -60 -164 -196 -204 -27 -8 -51 -19 -54 -24 -11
-18 98 -10 140 10 22 11 45 19 52 20 28 0 109 95 121 140 41 164 -114 285
-313 244z" fill="#A42A5B"/>
<path d="M4299 17320 c-366 -43 -782 -536 -899 -1067 -58 -264 -37 -749 31
-708 8 6 10 44 5 149 -24 506 130 965 433 1288 393 421 860 351 1086 -161 85
-192 79 -181 83 -143 7 68 -70 263 -143 362 -152 207 -364 306 -596 280z" fill="#A42A5B"/>
<path d="M26351 17241 c-21 -14 2 -43 84 -110 76 -61 108 -74 118 -46 14 34
-170 175 -202 156z" fill="#A42A5B"/>
<path d="M11645 16870 c-138 -16 -289 -47 -249 -51 5 0 243 -2 529 -3 286 -2
550 -6 587 -11 65 -7 99 7 74 32 -29 29 -755 55 -941 33z" fill="#A42A5B"/>
<path d="M20546 16821 c-24 -38 209 -179 459 -276 334 -130 566 -291 685 -474
69 -107 85 -125 98 -117 18 11 15 41 -13 130 -90 295 -297 437 -940 646 -71
24 -163 56 -203 71 -82 33 -79 32 -86 20z" fill="#A42A5B"/>
<path d="M4777 16029 c-15 -11 -66 -70 -114 -132 -48 -62 -134 -161 -190 -220
-128 -134 -138 -149 -123 -176 6 -12 14 -21 18 -21 34 -2 173 -168 212 -254
43 -95 60 -91 122 34 26 52 52 109 57 125 6 17 22 64 36 105 51 149 95 377 95
497 0 63 -59 85 -113 42z" fill="#A42A5B"/>
<path d="M21385 10064 c-730 -57 -1328 -252 -2010 -654 -581 -343 -1262 -975
-1654 -1536 -135 -193 -321 -482 -321 -498 0 -2 -16 -33 -36 -68 -526 -922
-687 -1964 -425 -2753 63 -189 68 -201 151 -370 326 -658 848 -1050 1517
-1140 193 -27 623 -18 771 16 24 5 78 14 120 20 369 48 972 264 1312 469 886
532 1346 1171 1643 2280 243 905 209 2495 -72 3425 -10 33 -28 94 -41 135 -34
113 -119 364 -156 459 -40 100 -36 111 40 111 48 0 183 -13 289 -26 70 -10 57
8 -26 34 -210 66 -813 119 -1102 96z m562 -122 c11 -7 83 -211 125 -352 10
-36 28 -96 39 -135 120 -409 245 -1004 279 -1330 6 -55 15 -133 20 -173 38
-285 37 -1054 -1 -1351 -6 -47 -17 -133 -24 -191 -13 -103 -39 -271 -53 -339
-7 -34 -32 -56 -32 -29 0 23 -75 171 -126 250 -299 457 -729 737 -1305 848
-545 105 -1188 30 -1894 -219 -184 -65 -217 -78 -510 -201 -55 -23 -125 -52
-155 -65 -647 -267 -1119 -577 -1263 -829 -27 -47 -41 -46 -33 2 43 242 158
661 225 817 5 11 22 54 37 95 215 563 727 1301 1267 1827 173 168 174 168 302
177 143 9 427 62 605 113 490 141 887 297 1148 452 29 17 55 31 58 31 44 0
442 308 594 460 118 119 135 124 510 140 85 4 160 7 165 8 6 1 15 -2 22 -6z
m-837 -60 c0 -10 -32 -47 -72 -83 -223 -198 -407 -320 -700 -465 -313 -154
-411 -189 -903 -314 -276 -70 -422 -110 -487 -131 -52 -17 -77 -6 -52 22 115
129 706 490 1035 633 24 11 58 26 74 33 173 81 595 220 815 269 265 59 290 62
290 36z m-412 -2877 c814 -103 1407 -599 1506 -1261 29 -194 30 -181 -10 -299
-73 -221 -196 -506 -233 -539 -21 -19 -21 -19 -21 62 0 519 -302 1148 -718
1494 -320 266 -727 445 -1132 498 -101 13 -122 19 -115 30 23 38 467 47 723
15z m-899 -110 c323 -43 519 -88 771 -180 86 -31 273 -125 371 -186 649 -401
955 -1050 844 -1791 -30 -202 -22 -181 -121 -313 -412 -551 -1027 -964 -1794
-1206 -1252 -395 -2391 141 -2779 1309 -117 351 -159 796 -88 937 194 390 592
701 1237 965 451 185 450 185 593 241 71 28 145 54 257 90 52 17 113 37 135
44 22 8 92 28 155 45 63 18 135 38 160 45 60 18 124 18 259 0z" fill="#A42A5B"/>
<path d="M10452 7200 c-59 -14 -59 -27 0 -35 310 -42 314 -431 6 -495 -159
-32 -293 49 -437 263 -95 142 -145 203 -191 233 -62 41 -63 24 -1 -51 31 -39
90 -130 130 -202 134 -241 259 -333 447 -333 286 0 464 331 290 537 -52 62
-170 102 -244 83z" fill="#A42A5B"/>
<path d="M18290 28753 c0 -9 6 -35 14 -58 8 -22 22 -65 31 -95 29 -97 115
-320 190 -495 40 -93 94 -235 119 -315 109 -337 203 -567 363 -885 203 -406
309 -543 153 -199 -131 290 -210 466 -210 471 0 4 -9 25 -19 47 -122 259 -139
306 -108 306 14 -1 53 -51 204 -265 369 -523 940 -1092 1473 -1470 69 -49 154
-109 190 -135 397 -284 962 -617 1385 -817 307 -145 511 -236 649 -289 50 -20
186 -73 301 -119 116 -46 253 -100 305 -120 52 -21 140 -55 194 -76 104 -40
121 -45 112 -30 -3 5 -182 97 -398 205 -216 107 -431 216 -478 241 -47 26
-143 76 -215 112 -71 37 -164 85 -205 108 -41 23 -111 61 -155 85 -219 116
-267 143 -293 164 -15 12 -56 37 -92 56 -36 18 -90 46 -120 63 -30 16 -102 56
-160 87 -106 57 -268 153 -370 218 -457 291 -664 436 -930 651 -392 316 -632
553 -885 871 -54 69 -115 145 -135 170 -147 182 -377 532 -553 840 -98 172
-337 645 -337 667 0 7 -4 15 -10 18 -5 3 -10 -2 -10 -12z" fill="#0E0E0E"/>
<path d="M12136 26764 c-3 -9 -6 -102 -6 -208 0 -326 -64 -753 -123 -821 -47
-55 -149 -34 -418 85 -153 68 -178 64 -165 -23 24 -161 -30 -531 -98 -665
-108 -214 -228 -287 -686 -418 -170 -49 -288 -87 -337 -110 -17 -8 -35 -14
-40 -14 -17 0 -355 -170 -452 -228 -464 -274 -990 -722 -1635 -1389 -1076
-1112 -1539 -1506 -2155 -1830 -68 -36 -99 -63 -72 -63 33 0 436 217 636 343
229 143 675 500 910 727 134 130 176 140 120 31 -26 -52 -26 -52 -3 -37 49 33
343 354 496 544 322 398 868 894 1272 1156 41 27 86 57 100 66 133 90 468 265
690 360 292 124 391 161 689 254 246 77 375 184 485 402 83 166 155 412 171
584 6 58 12 106 30 217 9 49 22 47 246 -42 116 -47 218 -85 226 -85 59 0 147
483 171 935 8 168 9 168 114 97 113 -76 235 -141 217 -115 -29 42 -333 263
-362 263 -8 0 -18 -7 -21 -16z m-1018 -1985 c4 -22 -32 -64 -92 -108 -93 -68
-141 -91 -263 -121 -103 -25 -267 -77 -513 -162 -30 -10 -59 -23 -64 -28 -6
-6 -17 -10 -26 -10 -8 0 -27 -6 -41 -14 -42 -22 -139 -49 -147 -42 -39 40 390
242 792 371 98 32 212 75 255 96 80 39 94 42 99 18z" fill="#0E0E0E"/>
<path d="M21180 23221 c-177 -34 -343 -91 -477 -167 -66 -37 -70 -64 -5 -30
116 60 421 136 649 162 174 20 185 22 180 37 -6 20 -235 19 -347 -2z" fill="#0E0E0E"/>
<path d="M10460 22433 c0 -14 24 -23 58 -23 27 -1 253 -70 344 -106 85 -33 73
8 -16 53 -107 54 -386 109 -386 76z" fill="#0E0E0E"/>
<path d="M9785 22393 c-35 -9 -236 -90 -355 -143 -220 -98 -389 -195 -746
-430 -255 -168 -557 -400 -754 -580 -52 -48 -116 -106 -142 -130 -27 -24 -48
-47 -48 -53 0 -11 4 -9 171 123 339 268 716 535 894 634 17 9 46 26 65 38 64
38 186 105 362 197 65 34 137 72 160 85 54 30 163 87 303 161 158 83 196 124
90 98z" fill="#0E0E0E"/>
<path d="M24437 20018 c-13 -18 -41 -58 -60 -88 -40 -63 -64 -86 -202 -197
-255 -206 -513 -320 -856 -379 -314 -53 -338 -5 -45 91 436 142 371 157 -104
23 -223 -62 -418 -129 -700 -238 -180 -70 -682 -313 -838 -406 -46 -27 -99
-57 -119 -67 -19 -10 -33 -21 -29 -24 7 -7 150 54 386 164 166 78 187 43 36
-62 -333 -230 -633 -537 -826 -844 -100 -159 -146 -271 -67 -164 67 91 117
118 117 63 0 -29 19 -25 113 25 96 51 107 53 125 25 8 -14 23 -20 47 -20 59 0
113 -34 121 -75 3 -20 4 -39 0 -42 -3 -3 2 -18 11 -33 15 -25 15 -29 -1 -51
-40 -57 -27 -56 364 37 145 34 300 74 655 169 55 15 118 32 140 37 49 12 1017
2 1150 -12 50 -5 142 -15 205 -20 63 -6 131 -15 150 -20 19 -5 69 -14 110 -20
41 -6 107 -17 145 -25 195 -43 268 -59 360 -82 130 -32 488 -126 600 -158 28
-7 93 -24 145 -36 52 -12 129 -30 170 -40 220 -53 289 -59 327 -29 17 13 41
20 72 20 25 0 55 7 65 15 35 27 66 17 137 -41 44 -36 75 -54 85 -50 30 11 5
54 -129 225 -133 169 -189 231 -283 316 -49 44 -137 133 -194 198 -413 466
-918 853 -1307 1002 -114 44 -162 67 -167 82 -9 22 12 282 28 353 8 36 25 115
37 175 12 61 34 134 47 163 32 66 18 92 -21 40z" fill="#0E0E0E"/>
<path d="M22205 19880 c-260 -22 -508 -63 -665 -109 -36 -11 -78 -22 -94 -26
-17 -4 -25 -10 -20 -15 5 -5 59 -1 129 10 188 30 436 53 448 41 18 -18 -2 -42
-55 -64 -77 -31 -195 -93 -258 -135 -30 -20 -57 -38 -59 -39 -2 -2 -1 -6 2
-10 4 -3 37 9 74 27 143 70 366 160 450 183 201 55 232 61 338 65 102 3 162 0
490 -28 148 -12 314 -34 510 -68 271 -46 319 -40 135 18 -459 142 -930 192
-1425 150z" fill="#0E0E0E"/>
<path d="M10585 19360 c-49 -4 -146 -13 -215 -19 -134 -12 -293 -32 -430 -56
-47 -7 -103 -17 -125 -20 -128 -19 -515 -106 -650 -146 -129 -39 -140 -36
-143 46 -1 39 -5 77 -8 85 -8 23 -21 -5 -39 -85 -24 -105 -25 -106 -235 -176
-270 -90 -253 -84 -515 -192 -167 -68 -602 -277 -640 -307 -5 -4 -50 -29 -100
-55 -49 -26 -97 -54 -106 -61 -8 -8 -19 -14 -24 -14 -5 0 -36 -17 -69 -39 -34
-21 -85 -53 -115 -72 -37 -23 -48 -35 -37 -37 10 -2 25 3 34 10 128 109 957
499 1387 653 88 31 182 65 209 76 128 50 138 -11 19 -122 -165 -154 -320 -236
-956 -510 -152 -66 -203 -89 -395 -180 -68 -33 -126 -59 -128 -59 -25 0 -512
-257 -764 -403 -100 -58 -139 -84 -340 -222 -252 -173 -449 -339 -661 -557
-150 -155 -162 -158 -174 -41 -15 149 -121 493 -147 477 -5 -4 -7 -16 -4 -29
20 -78 50 -410 50 -557 1 -166 1 -166 -33 -215 -19 -26 -48 -68 -66 -93 -105
-150 -148 -241 -131 -276 28 -59 25 -487 -4 -624 -103 -488 -451 -760 -864
-675 -131 27 -446 154 -478 192 -11 14 -38 18 -38 5 0 -4 18 -29 40 -56 49
-58 48 -50 2 -138 -21 -40 -51 -107 -66 -148 -73 -193 -104 -264 -164 -380
-36 -69 -78 -145 -93 -170 -15 -25 -43 -72 -63 -105 -19 -33 -51 -82 -70 -110
-51 -71 -43 -101 15 -57 13 10 63 39 110 65 47 25 120 67 162 94 42 26 123 77
179 113 146 91 500 328 583 389 73 54 172 108 181 98 13 -13 -25 -54 -175
-191 -150 -137 -533 -526 -582 -591 -30 -39 -27 -37 194 159 644 572 1484
1204 2110 1586 303 186 365 223 447 267 47 25 115 63 152 84 310 180 925 476
1318 635 74 30 144 59 155 64 89 41 415 159 645 233 113 37 219 72 235 78 44
16 232 71 400 119 147 41 367 93 545 130 58 12 134 28 170 36 36 8 99 18 140
23 41 6 98 15 125 20 28 6 97 15 155 21 58 5 146 15 195 21 167 21 768 14 924
-10 261 -42 232 -63 -97 -72 -284 -8 -561 -37 -548 -58 3 -5 153 -6 333 -3
254 4 373 1 528 -12 110 -9 266 -20 347 -26 145 -9 174 -16 293 -70 11 -5 49
-21 85 -35 36 -14 79 -32 95 -39 139 -63 213 -85 270 -84 65 2 290 -20 320
-32 13 -5 69 -14 125 -20 262 -29 533 -100 630 -165 88 -58 171 -107 177 -102
22 23 -346 341 -577 498 -89 61 -88 68 15 118 491 238 285 942 -265 907 -56
-3 -111 -1 -134 5 -41 11 -50 7 -61 -28 -6 -23 -6 -23 130 -23 216 0 340 -38
437 -136 220 -219 108 -606 -201 -700 -104 -31 -138 -20 -281 96 -52 42 -151
119 -220 171 -347 264 -745 517 -1042 661 -57 27 -80 60 -60 80 35 35 644 4
897 -46 73 -15 230 -42 278 -49 39 -6 33 6 -10 21 -305 106 -997 202 -1353
188 -155 -6 -155 -6 -340 63 -220 82 -219 81 -115 168 72 61 174 175 200 225
8 15 22 42 31 59 27 51 8 45 -68 -23 -126 -112 -267 -196 -426 -253 -73 -26
-73 -26 -195 4 -636 158 -1238 193 -1718 100 -64 -12 -123 -19 -132 -16 -25 9
-34 185 -12 228 45 87 46 88 255 139 47 12 110 28 140 35 530 132 1180 209
1870 220 354 6 345 6 290 16 -63 12 -816 19 -925 9z" fill="#0E0E0E"/>
<path d="M15725 18686 c-130 -30 -235 -82 -235 -116 0 -27 21 -25 90 10 158
80 343 80 399 1 49 -68 39 -134 -29 -202 -53 -53 -50 -61 10 -27 86 50 115
155 68 248 -43 84 -164 118 -303 86z" fill="#0E0E0E"/>
<path d="M4205 17286 c-502 -165 -899 -921 -816 -1552 19 -136 31 -127 31 24
0 207 32 449 77 587 70 213 122 326 205 447 235 340 530 522 771 474 206 -40
382 -192 492 -425 23 -47 32 -30 11 21 -86 209 -237 362 -419 424 -98 33 -251
33 -352 0z" fill="#0E0E0E"/>
<path d="M26360 17222 c0 -27 158 -148 174 -132 13 13 -20 48 -96 99 -58 40
-78 49 -78 33z" fill="#0E0E0E"/>
<path d="M11760 16865 c-8 -2 -37 -7 -65 -11 -105 -15 10 -22 400 -22 365 0
386 1 325 15 -60 13 -617 29 -660 18z" fill="#0E0E0E"/>
<path d="M20580 16791 c0 -34 271 -175 493 -257 254 -92 516 -283 632 -460 79
-120 90 -120 59 0 -70 273 -280 423 -864 619 -91 30 -196 67 -234 81 -74 28
-86 31 -86 17z" fill="#0E0E0E"/>
<path d="M4794 16030 c-12 -5 -53 -51 -92 -102 -39 -52 -132 -161 -206 -242
-75 -82 -136 -154 -136 -161 0 -7 44 -57 98 -112 90 -91 121 -137 146 -216 8
-27 37 -33 50 -11 99 171 194 482 217 718 13 132 -2 157 -77 126z" fill="#0E0E0E"/>
<path d="M21185 10030 c-1349 -149 -2685 -1020 -3566 -2325 -305 -451 -509
-889 -669 -1430 -126 -428 -154 -1018 -69 -1450 73 -367 273 -801 493 -1070
401 -490 934 -731 1575 -712 146 4 293 21 236 26 -5 1 -97 6 -204 11 -914 46
-1578 535 -1888 1390 -123 338 -185 851 -121 991 192 419 590 721 1378 1046
124 51 399 162 440 177 339 127 558 196 758 241 117 27 452 -14 740 -90 1075
-283 1698 -1156 1523 -2132 -24 -131 -38 -162 -128 -280 -377 -497 -881 -866
-1523 -1117 -209 -82 -240 -94 -285 -105 -22 -6 -47 -15 -55 -21 -25 -16 51
-12 84 5 15 8 35 15 42 15 16 0 276 84 309 100 11 5 52 21 90 36 918 352 1646
1116 1964 2061 11 33 25 72 30 85 5 12 19 57 32 98 12 41 28 97 36 123 63 205
130 594 168 977 80 799 -10 1933 -205 2565 -5 17 -21 71 -36 120 -42 141 -102
319 -151 449 -59 154 -62 150 98 156 124 5 124 5 39 23 -276 56 -803 74 -1135
37z m792 -72 c38 -49 255 -801 308 -1063 8 -38 25 -124 39 -190 180 -870 195
-1787 41 -2598 -13 -70 -27 -132 -30 -137 -10 -16 -35 -11 -42 8 -104 297
-310 571 -591 782 -527 398 -1375 504 -2226 280 -61 -16 -137 -36 -170 -45
-205 -55 -641 -214 -901 -330 -16 -8 -124 -55 -240 -106 -605 -265 -983 -528
-1115 -777 -66 -124 -86 -106 -60 53 102 626 343 1207 756 1822 304 453 885
1092 1005 1107 506 60 729 113 1214 290 558 204 1014 485 1306 804 61 67 69
73 122 82 144 27 567 39 584 18z m-849 -66 c4 -28 -48 -80 -212 -209 -254
-202 -443 -311 -826 -478 -135 -59 -357 -128 -615 -189 -60 -15 -135 -33 -165
-41 -30 -8 -84 -22 -120 -31 -63 -16 -134 -35 -254 -69 -197 -55 -4 112 481
416 116 73 355 198 499 261 352 154 658 256 954 318 58 12 130 27 160 35 75
17 94 15 98 -13z m-368 -2880 c660 -104 1175 -469 1384 -979 48 -117 96 -346
96 -459 0 -67 -81 -296 -184 -521 -31 -67 -56 -125 -56 -129 0 -17 -44 -64
-59 -64 -17 0 -19 16 -24 178 -17 519 -310 1096 -730 1436 -325 262 -768 445
-1169 481 -82 8 -125 27 -99 44 13 8 107 24 211 35 102 11 512 -3 630 -22z" fill="#0E0E0E"/>
<path d="M10490 7185 c0 -3 17 -12 37 -20 330 -138 135 -594 -215 -501 -112
30 -196 105 -310 276 -74 112 -146 199 -156 189 -4 -3 7 -23 24 -44 17 -21 54
-81 82 -134 129 -241 203 -310 374 -346 205 -44 379 69 423 273 25 119 -37
241 -149 291 -40 18 -110 29 -110 16z" fill="#0E0E0E"/>
</g>
</svg>
