<?xml version="1.0" encoding="UTF-8"?>
<svg version="1.1" xmlns="http://www.w3.org/2000/svg" width="800" height="800" viewBox="0 0 3200.000000 3200.000000">
<g transform="translate(0.000000,3200.000000) scale(0.100000,-0.100000)">


























<path d="M18207 28983 c-17 -16 -7 -73 35 -198 6 -16 16 -52 23 -80 30 -112
164 -478 195 -533 5 -9 21 -46 36 -81 14 -35 31 -73 38 -85 7 -12 23 -57 36
-101 49 -168 186 -542 252 -685 11 -25 28 -63 38 -85 140 -311 373 -729 439
-782 45 -38 54 6 17 83 -43 88 -106 225 -106 231 0 3 -6 19 -14 36 -8 18 -29
66 -47 107 -33 79 -151 341 -200 447 -39 84 -34 121 8 56 248 -390 816 -990
1293 -1367 192 -152 195 -154 549 -398 136 -93 571 -369 686 -435 386 -222
959 -491 1410 -663 368 -140 592 -228 615 -241 8 -5 107 -43 220 -85 113 -43
228 -86 255 -96 28 -11 67 -25 87 -32 20 -6 40 -15 44 -19 12 -12 44 -8 44 6
0 17 -50 54 -84 63 -14 3 -30 12 -37 20 -6 8 -15 14 -20 14 -5 0 -69 29 -142
64 -138 66 -193 91 -317 147 -122 54 -717 353 -822 412 -53 31 -178 96 -277
146 -99 50 -203 105 -231 121 -28 17 -53 30 -56 30 -9 0 -239 133 -259 150
-11 10 -69 43 -130 75 -134 70 -294 158 -355 196 -25 15 -72 41 -105 58 -70
38 -118 68 -478 306 -280 185 -519 359 -668 485 -382 326 -416 357 -547 499
-101 110 -451 542 -538 663 -138 195 -271 408 -469 753 -86 150 -293 580 -346
720 -20 51 -58 92 -72 78z" fill="#DD5B85"/>
<path d="M12117 26792 c-14 -15 -17 -42 -17 -153 0 -330 -65 -824 -117 -881
-34 -38 -126 -16 -375 89 -213 89 -214 88 -221 -182 -14 -505 -139 -728 -461
-826 -548 -166 -646 -201 -862 -306 -523 -251 -1048 -666 -1778 -1405 -165
-167 -419 -424 -565 -572 -591 -597 -912 -875 -1371 -1187 -52 -35 -270 -159
-392 -224 -56 -29 -68 -44 -60 -77 5 -26 39 -32 80 -13 412 191 820 449 1137
720 50 42 128 110 175 150 47 40 121 105 164 144 89 81 100 84 57 15 -38 -59
-39 -74 -5 -74 37 0 380 359 594 620 583 716 1342 1301 2100 1619 41 18 84 37
94 43 11 6 31 14 45 19 14 4 67 23 117 42 51 20 181 63 290 97 281 86 344 120
469 245 155 156 247 350 306 650 30 148 39 208 45 287 6 94 13 107 47 89 12
-6 58 -24 102 -40 44 -16 125 -48 180 -71 55 -23 107 -44 116 -47 21 -6 66 42
78 82 79 273 119 552 123 867 1 145 -6 142 144 52 192 -115 221 -129 239 -114
24 20 -4 55 -117 145 -254 200 -324 238 -361 197z m-1113 -2093 c-19 -31 -126
-86 -200 -103 -43 -10 -97 -24 -119 -31 -22 -7 -74 -23 -115 -35 -41 -12 -94
-29 -116 -37 -59 -21 -92 -12 -39 11 22 9 58 26 81 36 23 11 46 20 52 20 6 0
26 6 44 14 18 8 67 24 108 36 98 29 251 80 270 91 22 12 42 11 34 -2z" fill="#DD5B85"/>
<path d="M21180 23259 c-140 -20 -303 -77 -465 -163 -203 -108 -366 -236 -299
-236 15 0 126 52 149 70 6 4 44 22 85 39 41 18 84 36 95 41 115 53 474 132
723 160 100 11 134 47 80 84 -25 18 -263 21 -368 5z" fill="#DD5B85"/>
<path d="M10308 22469 c-20 -7 -28 -18 -28 -34 0 -32 4 -34 106 -41 101 -7
294 -55 434 -109 106 -40 140 -38 140 9 0 50 -134 121 -305 162 -84 20 -308
28 -347 13z" fill="#DD5B85"/>
<path d="M9799 22430 c-8 -5 -55 -22 -105 -39 -285 -94 -600 -259 -974 -510
-459 -308 -629 -443 -947 -747 -176 -169 -206 -205 -185 -226 16 -16 56 11
192 127 126 108 455 358 650 495 261 184 355 242 570 358 36 19 79 42 95 52
17 10 68 38 115 63 47 24 111 59 143 76 33 18 107 56 165 86 267 136 362 196
362 228 0 41 -41 60 -81 37z" fill="#DD5B85"/>
<path d="M24419 20048 c-17 -24 -46 -68 -64 -98 -84 -138 -458 -395 -685 -472
-151 -51 -175 -58 -199 -58 -13 0 -50 -7 -83 -16 -33 -8 -74 -14 -92 -12 -31
3 -31 3 14 25 56 27 225 90 263 98 30 6 53 44 43 70 -12 33 -230 -13 -631
-134 -71 -21 -148 -46 -170 -54 -204 -74 -348 -131 -470 -187 -38 -17 -97 -42
-130 -55 -112 -42 -483 -236 -830 -433 -210 -120 -305 -188 -305 -219 0 -21 9
-18 222 90 111 56 275 135 363 175 88 41 168 78 177 83 69 36 33 -1 -91 -94
-338 -257 -611 -574 -805 -937 -67 -126 -76 -162 -43 -168 26 -5 45 15 107
113 51 80 80 105 80 70 0 -8 8 -15 17 -15 19 0 161 68 169 81 8 14 54 10 70
-6 10 -9 34 -15 62 -15 63 0 92 -21 92 -66 0 -20 4 -43 10 -53 7 -15 2 -26
-26 -55 -46 -47 -35 -81 24 -73 89 11 461 94 617 137 61 17 169 47 240 66 72
20 150 42 175 49 145 43 167 45 605 45 614 0 918 -19 1175 -75 36 -8 90 -19
120 -24 81 -14 362 -78 465 -106 86 -23 167 -44 465 -122 74 -19 158 -39 185
-45 28 -5 75 -16 105 -24 267 -68 370 -82 413 -55 19 11 49 21 67 21 18 0 52
10 76 21 47 24 69 13 148 -70 19 -19 40 -31 56 -31 88 0 57 110 -71 255 -24
28 -71 85 -103 128 -33 43 -123 140 -202 215 -78 75 -177 178 -220 227 -293
339 -706 681 -1044 864 -155 83 -221 115 -383 180 -28 11 -29 12 -22 79 21
205 87 550 118 609 50 95 -13 154 -74 71z" fill="#DD5B85"/>
<path d="M22205 19920 c-60 -4 -128 -12 -150 -18 -22 -6 -67 -13 -100 -17 -73
-7 -213 -31 -275 -47 -25 -6 -72 -16 -105 -23 -200 -42 -435 -126 -435 -156 0
-21 35 -19 212 11 159 27 277 45 507 76 71 9 62 -2 -44 -55 -188 -96 -329
-211 -297 -243 10 -10 32 -3 115 39 368 185 627 272 842 281 119 5 414 -10
553 -28 40 -6 114 -14 165 -20 130 -15 279 -37 444 -67 150 -27 173 -25 173
17 0 38 -50 58 -340 138 -155 42 -273 66 -410 82 -47 6 -112 15 -145 20 -81
13 -573 20 -710 10z" fill="#DD5B85"/>
<path d="M10667 19399 c-391 -16 -811 -79 -1272 -188 -49 -12 -117 -28 -150
-35 -33 -8 -87 -23 -120 -34 -75 -26 -75 -26 -75 71 0 96 -14 131 -53 135 -34
4 -47 -25 -47 -107 0 -145 1 -145 -270 -237 -124 -42 -238 -82 -255 -90 -16
-7 -91 -38 -165 -68 -271 -109 -323 -135 -785 -381 -285 -152 -775 -487 -775
-530 0 -20 7 -19 65 16 28 16 56 32 64 36 8 3 99 58 204 120 193 116 220 131
545 304 196 104 482 234 727 331 83 32 159 63 170 68 109 50 332 126 342 117
20 -20 -166 -181 -276 -239 -25 -14 -82 -44 -126 -67 -44 -23 -145 -71 -225
-106 -80 -35 -179 -79 -221 -98 -42 -20 -108 -48 -145 -63 -38 -15 -116 -49
-174 -77 -58 -27 -170 -78 -250 -114 -214 -95 -786 -397 -932 -491 -137 -88
-358 -240 -418 -286 -211 -164 -342 -277 -478 -413 -149 -148 -172 -164 -172
-121 0 148 -139 553 -190 553 -25 0 -25 0 -23 -110 1 -60 9 -153 18 -205 8
-52 18 -185 22 -295 6 -213 5 -216 -177 -475 -50 -72 -76 -159 -52 -174 17
-10 22 -409 7 -523 -70 -522 -419 -817 -850 -719 -144 33 -357 118 -481 192
-82 48 -94 14 -28 -82 46 -67 46 -67 1 -158 -25 -50 -59 -134 -77 -186 -17
-52 -36 -108 -43 -125 -56 -138 -317 -593 -373 -650 -65 -66 -74 -95 -30 -95
25 0 319 165 471 265 61 39 153 97 205 129 52 31 165 105 251 164 234 160 240
159 74 -5 -123 -121 -529 -544 -648 -676 -170 -186 -190 -217 -146 -217 13 0
101 79 252 229 218 215 449 427 562 516 28 21 84 69 125 105 41 36 122 104
180 150 58 46 137 109 175 140 62 50 623 471 730 548 59 43 372 252 435 291
30 19 119 77 198 128 79 51 156 100 170 108 15 9 45 27 67 40 22 14 78 46 125
72 47 25 146 81 220 123 268 153 699 372 940 477 201 87 384 168 410 182 9 5
70 30 135 55 66 26 131 52 145 58 47 20 275 100 435 153 88 29 171 57 185 63
14 5 86 29 160 51 74 23 155 48 180 56 70 22 509 135 665 170 33 8 92 21 130
31 136 32 330 64 565 93 251 31 934 41 960 15 9 -9 -20 -13 -117 -18 -70 -3
-166 -11 -213 -17 -47 -6 -132 -16 -190 -23 -115 -15 -180 -39 -180 -68 0 -22
-67 -20 570 -23 341 -1 581 -6 640 -14 52 -6 151 -16 220 -21 102 -8 137 -15
195 -40 38 -16 135 -55 215 -85 80 -31 165 -66 190 -78 31 -14 62 -21 100 -20
30 1 87 -5 127 -13 40 -8 94 -14 121 -14 27 0 101 -9 163 -20 63 -11 133 -20
157 -20 43 0 417 -92 456 -112 27 -14 124 -74 184 -114 88 -58 112 -68 129
-51 22 22 11 37 -139 182 -164 161 -377 335 -495 405 -45 27 -42 34 30 68 402
187 364 767 -61 933 -46 18 -86 24 -212 29 -136 6 -164 10 -230 35 -296 110
-919 207 -1350 210 -245 1 -245 1 -340 38 -52 20 -117 45 -145 56 -62 24 -62
31 1 83 111 94 264 308 264 371 0 47 -29 38 -105 -33 -102 -94 -203 -161 -350
-231 -141 -68 -179 -76 -255 -55 -229 64 -555 120 -925 157 -135 13 -565 6
-650 -11 -82 -17 -268 -51 -290 -53 -18 -2 -20 5 -23 77 -3 91 22 157 68 176
30 12 188 52 285 73 39 8 129 29 200 45 72 16 150 33 175 37 25 3 59 11 76 16
17 5 80 16 140 24 60 8 141 19 179 24 118 16 343 41 480 52 72 6 177 14 235
19 58 5 259 9 448 9 342 1 342 1 354 26 10 22 9 29 -9 46 -34 34 -482 47 -936
28z m1800 -1159 c125 -10 220 -24 413 -60 52 -10 119 -21 147 -25 77 -10 73
-19 -20 -51 -67 -24 -83 -33 -85 -52 -5 -35 20 -37 162 -14 364 60 588 0 684
-183 41 -77 40 -265 -2 -345 -66 -129 -197 -221 -316 -224 -66 -1 -66 -1 -180
90 -405 322 -794 585 -1152 780 -70 38 -128 72 -128 76 0 18 292 22 477 8z" fill="#DD5B85"/>
<path d="M15685 18712 c-171 -44 -275 -133 -217 -185 27 -24 42 -22 127 23
129 68 300 77 355 18 86 -92 -19 -217 -205 -243 -109 -15 -138 -81 -35 -79
217 3 370 111 370 263 0 177 -165 261 -395 203z" fill="#DD5B85"/>
<path d="M4273 17335 c-364 -57 -787 -565 -892 -1070 -71 -343 -35 -817 57
-758 15 9 17 38 18 254 2 578 196 1050 539 1312 231 176 423 212 614 116 186
-94 305 -267 405 -584 39 -125 45 -137 59 -132 55 18 -33 385 -127 527 -171
259 -407 377 -673 335z" fill="#DD5B85"/>
<path d="M26333 17273 c-51 -18 15 -111 140 -195 99 -68 144 3 52 83 -81 72
-166 121 -192 112z" fill="#DD5B85"/>
<path d="M24240 17099 c30 -28 98 -84 150 -124 52 -41 149 -116 214 -167 151
-118 210 -161 265 -196 67 -42 342 -262 327 -262 -9 0 -71 26 -101 43 -11 6
-32 17 -47 24 -15 8 -30 18 -33 24 -4 5 -25 9 -48 9 -47 0 -77 24 -77 61 0 30
-28 79 -46 79 -8 0 -17 7 -20 15 -4 8 -14 15 -24 15 -9 0 -29 9 -43 20 -14 11
-32 17 -40 14 -9 -3 -21 3 -29 15 -8 11 -25 25 -39 31 -13 5 -32 16 -43 22
-15 10 -19 10 -23 1 -7 -20 -57 -15 -86 7 -14 11 -38 20 -54 20 -15 0 -43 9
-61 20 -18 11 -47 20 -65 20 -17 0 -43 9 -57 20 -46 36 -94 12 -83 -41 3 -16
1 -29 -4 -29 -10 0 -291 134 -558 265 -152 75 -276 125 -311 125 -37 0 -29
-26 16 -55 22 -14 40 -30 40 -35 0 -6 11 -15 25 -20 65 -25 14 -39 -54 -15
-23 8 -59 15 -79 15 -171 0 -217 6 -265 34 -53 30 -78 28 -95 -8 -11 -24 -101
-27 -144 -5 -22 12 -28 11 -28 -1 0 -5 8 -10 18 -10 15 0 18 -6 14 -30 -4 -27
-8 -30 -43 -30 -26 0 -42 -5 -45 -15 -8 -20 -30 -19 -68 4 -57 35 -100 37
-125 5 -19 -24 -24 -26 -47 -15 -34 15 -64 5 -64 -21 0 -16 -4 -18 -17 -12
-27 13 -142 5 -174 -11 -60 -32 -122 -5 -131 55 -3 23 -7 25 -66 28 -63 3
-152 -20 -152 -39 0 -15 -37 -10 -50 7 -23 27 -84 15 -88 -18 -3 -25 -7 -28
-43 -28 -21 0 -39 -4 -39 -10 0 -5 -14 -10 -30 -10 -17 0 -39 -6 -50 -12 -16
-10 -24 -10 -42 1 -19 12 -23 11 -37 -8 -9 -11 -33 -27 -53 -36 -37 -15 -64
-47 -53 -65 17 -27 -29 -80 -69 -80 -75 0 -85 -27 -12 -32 27 -2 36 -8 36 -20
0 -11 8 -18 18 -18 10 0 27 -7 38 -15 26 -20 -32 -22 -61 -1 -11 7 -31 16 -45
19 -14 3 -56 17 -95 32 -38 15 -90 33 -115 40 -68 21 -387 130 -454 156 -55
21 -59 22 -71 5 -49 -66 121 -180 548 -367 50 -22 99 -47 107 -54 8 -7 27 -17
43 -20 39 -10 44 -25 7 -25 -17 0 -33 6 -36 14 -3 8 -24 18 -47 21 -23 4 -49
13 -57 20 -8 7 -32 15 -54 18 -21 3 -46 13 -56 22 -19 17 -80 21 -80 5 0 -6
11 -15 25 -20 34 -13 31 -28 -13 -76 -20 -23 -42 -50 -48 -60 -8 -14 -22 -18
-67 -17 -65 2 -82 -13 -66 -56 13 -33 4 -55 -21 -48 -29 7 -24 -13 10 -47 34
-34 42 -73 12 -57 -10 5 -25 17 -32 26 -8 9 -34 31 -59 48 -25 17 -89 72 -141
122 -131 124 -267 238 -281 233 -15 -5 68 -106 231 -279 74 -80 155 -168 180
-198 158 -188 568 -580 632 -604 30 -11 65 41 38 58 -26 16 -102 127 -92 137
6 6 16 3 28 -10 36 -38 89 -39 120 -3 29 35 66 39 72 8 4 -21 -24 -46 -50 -47
-31 0 -5 -42 38 -58 21 -8 58 -28 82 -44 24 -15 51 -28 60 -28 9 0 26 -7 36
-15 11 -8 31 -15 45 -15 21 0 152 -60 231 -106 16 -9 41 -13 68 -11 38 4 51 0
94 -32 75 -54 428 -362 466 -407 20 -22 66 -14 70 13 3 19 -105 152 -301 370
-23 26 -15 44 11 25 36 -25 102 -53 111 -47 6 3 16 -3 23 -15 9 -15 23 -20 52
-20 50 0 107 -20 124 -43 10 -13 18 -15 32 -7 13 7 21 5 31 -6 7 -8 28 -22 48
-30 52 -22 81 -53 81 -86 0 -60 33 -111 56 -88 7 7 29 4 68 -10 61 -21 190
-40 266 -39 85 1 293 -21 307 -32 7 -6 13 -23 13 -36 0 -53 30 -83 82 -83 35
0 48 -4 48 -14 0 -22 17 -28 39 -14 16 10 35 10 91 0 39 -7 85 -12 104 -12 18
0 44 -9 57 -19 16 -12 47 -21 84 -24 70 -6 111 -14 142 -29 33 -16 53 -3 53
34 0 59 32 67 168 42 19 -4 38 -1 46 5 17 14 29 0 20 -24 -6 -14 -1 -16 22
-14 36 4 98 -8 144 -27 19 -8 51 -14 70 -13 19 1 61 -11 93 -26 40 -19 66 -25
86 -20 34 7 61 -14 61 -48 0 -52 44 -94 107 -101 37 -4 81 -19 123 -41 35 -19
78 -35 95 -35 16 0 41 -9 55 -20 14 -11 39 -20 55 -20 17 0 46 -10 65 -22 21
-13 55 -23 85 -24 28 -2 64 -6 80 -9 27 -6 34 -2 63 34 36 44 65 52 82 22 8
-16 17 -19 43 -14 26 4 40 -1 65 -22 27 -23 38 -26 71 -20 25 4 51 1 74 -9 20
-8 70 -16 112 -17 42 -2 79 -7 81 -11 3 -4 33 -5 67 -2 73 6 104 -7 73 -31
-16 -12 -57 -15 -208 -15 -105 0 -188 -4 -188 -9 0 -11 55 -31 84 -31 12 0 39
-9 61 -20 33 -17 59 -20 156 -20 117 0 117 0 136 38 18 37 18 37 240 43 188 5
226 8 241 22 10 10 28 17 40 17 12 0 26 9 32 20 6 11 17 20 25 20 8 0 20 10
26 22 7 13 25 35 40 51 48 48 60 119 63 370 1 165 0 163 70 113 110 -78 131 0
31 117 -53 62 -66 87 -45 87 15 0 12 47 -2 52 -25 10 -39 -2 -27 -24 27 -50
-31 -21 -100 51 -100 103 -122 132 -111 147 15 17 9 26 -67 104 -34 36 -92 95
-127 132 -35 36 -75 68 -88 70 -31 4 -30 32 2 36 75 8 76 9 31 51 -61 56 -50
68 15 16 31 -26 73 -57 94 -70 21 -13 63 -45 94 -70 79 -64 104 -74 122 -50
20 27 21 27 -58 116 -85 96 -235 232 -372 338 -92 71 -149 111 -431 306 -60
42 -139 96 -174 120 -69 48 -88 54 -97 30 -8 -19 8 -38 60 -73 81 -55 422
-341 481 -403 33 -35 73 -73 89 -84 17 -12 27 -27 24 -35 -3 -11 -18 -2 -53
32 -52 51 -75 51 -75 1 0 -33 -42 -25 -86 18 -18 17 -46 32 -68 36 -25 4 -35
10 -32 19 9 23 -61 67 -97 60 -29 -5 -50 8 -227 140 -107 80 -199 155 -204
166 -6 11 -37 32 -70 47 -34 15 -83 45 -111 66 -44 34 -198 140 -459 315 -41
28 -77 54 -80 59 -4 6 -283 184 -396 251 -135 82 -267 150 -288 150 -4 0 18
-23 48 -51z m-723 -144 c26 -14 66 -39 88 -55 22 -17 52 -35 68 -41 15 -6 27
-15 27 -20 0 -17 -47 -9 -65 11 -10 11 -27 20 -37 20 -10 0 -30 7 -43 16 -14
9 -33 13 -45 9 -15 -5 -22 -1 -30 19 -5 14 -18 31 -30 38 -56 35 1 37 67 3z" fill="#DD5B85"/>
<path d="M11640 16894 c-188 -14 -475 -66 -482 -88 -7 -21 70 -24 366 -15 299
9 900 5 999 -7 35 -4 54 -2 72 10 55 36 18 69 -95 86 -73 11 -748 22 -860 14z" fill="#DD5B85"/>
<path d="M25800 16740 c0 -17 30 -42 216 -182 241 -182 298 -225 460 -352 76
-60 165 -130 196 -154 59 -46 88 -50 88 -13 0 19 -185 204 -260 260 -19 14
-87 67 -150 117 -63 49 -141 107 -172 127 -32 20 -82 52 -110 71 -51 32 -102
61 -196 113 -46 24 -72 29 -72 13z" fill="#DD5B85"/>
<path d="M19440 16672 c0 -5 18 -21 41 -38 22 -16 63 -47 92 -69 28 -22 68
-51 88 -65 53 -36 189 -140 208 -159 9 -9 32 -27 51 -41 19 -13 60 -45 90 -71
275 -235 387 -331 509 -439 313 -275 294 -260 326 -257 26 2 30 6 33 37 3 32
-3 41 -105 138 -59 57 -126 118 -149 136 -23 17 -111 87 -196 156 -224 181
-406 312 -682 490 -81 52 -175 113 -210 136 -69 45 -96 57 -96 46z" fill="#DD5B85"/>
<path d="M4790 16062 c-22 -11 -69 -61 -128 -137 -52 -66 -149 -178 -215 -249
-151 -159 -153 -165 -67 -231 78 -60 134 -131 175 -220 71 -155 113 -128 217
140 73 187 113 354 143 592 12 94 -47 145 -125 105z" fill="#DD5B85"/>
<path d="M12594 15358 c9 -13 45 -45 81 -73 37 -27 97 -76 133 -109 37 -32 78
-66 92 -75 72 -47 91 -88 26 -57 -19 9 -37 16 -42 16 -4 0 -16 8 -27 17 -25
23 -57 -12 -57 -62 0 -51 -14 -56 -171 -60 -92 -2 -145 -7 -147 -14 -9 -28
-58 -3 -352 180 -391 244 -507 288 -293 112 43 -35 92 -77 108 -91 47 -43 126
-105 171 -135 93 -62 132 -130 50 -86 -21 11 -46 17 -57 14 -15 -5 -19 -1 -19
18 0 27 -44 64 -55 46 -4 -6 -24 -7 -51 -3 -40 6 -46 4 -74 -26 -36 -39 -50
-34 -320 128 -187 112 -385 215 -401 210 -10 -3 21 -29 225 -185 367 -281 371
-284 353 -294 -8 -5 -28 -5 -44 0 -24 7 -35 5 -47 -8 -12 -11 -34 -16 -76 -16
-41 0 -64 -6 -77 -18 -42 -37 -80 -42 -118 -13 -19 15 -35 33 -35 41 0 19 -39
45 -57 38 -10 -4 -13 -14 -9 -29 8 -29 -7 -30 -49 -4 -16 11 -57 34 -90 51
-33 17 -82 46 -110 63 -56 35 -65 40 -155 94 -124 73 -139 57 -32 -35 37 -32
90 -80 117 -106 28 -27 71 -65 98 -85 26 -20 47 -40 47 -44 0 -13 -33 -9 -54
7 -22 17 -34 12 -47 -22 -7 -18 -14 -23 -29 -18 -46 15 -122 -22 -77 -38 6 -2
9 -7 5 -11 -3 -4 -14 -3 -25 3 -10 5 -45 22 -78 36 -33 15 -78 35 -100 45
-113 52 -128 31 -41 -56 77 -77 76 -74 32 -74 -36 0 -53 -23 -47 -62 1 -9 -2
-19 -8 -22 -14 -9 -332 205 -506 342 -98 76 -195 142 -211 142 -26 0 24 -52
134 -140 99 -79 161 -133 311 -269 167 -151 175 -161 114 -161 -15 0 -33 -10
-45 -25 -15 -19 -29 -25 -61 -25 -27 0 -48 -7 -62 -20 -12 -11 -42 -23 -71
-26 -27 -4 -56 -12 -64 -19 -28 -22 -80 -38 -113 -33 -46 8 -59 1 -45 -22 17
-27 5 -33 -33 -17 -44 19 -84 54 -68 59 8 3 10 11 5 24 -7 19 -8 19 -21 0 -19
-25 -52 -18 -162 34 -97 47 -126 48 -131 8 -3 -22 4 -32 35 -52 64 -43 87 -60
113 -83 28 -26 13 -30 -28 -9 -28 14 -78 11 -88 -5 -3 -5 -20 -9 -39 -9 -43 0
-65 -9 -65 -26 0 -15 7 -16 93 -14 56 1 96 -25 58 -38 -7 -2 -23 -15 -34 -28
-12 -14 -27 -22 -34 -19 -8 2 -30 -4 -51 -15 -24 -13 -47 -18 -64 -14 -20 4
-30 0 -40 -15 -8 -13 -23 -21 -39 -21 -34 0 -53 -21 -36 -39 31 -34 -115 34
-173 79 -19 15 -84 54 -145 87 -60 33 -173 100 -250 148 -77 48 -160 99 -184
114 -24 14 -71 44 -105 65 -64 42 -413 256 -506 312 -30 18 -75 44 -100 57
-25 13 -70 39 -100 59 -96 62 -170 108 -176 108 -2 0 -18 10 -33 21 -29 21
-57 23 -43 4 7 -11 218 -156 277 -190 19 -11 51 -32 72 -46 21 -14 49 -33 63
-42 14 -9 68 -46 120 -82 52 -36 124 -86 160 -110 36 -25 83 -57 105 -73 22
-16 103 -73 180 -126 130 -91 172 -123 344 -255 85 -67 171 -142 171 -151 0
-4 -19 -10 -42 -13 -22 -3 -54 -15 -69 -26 -16 -12 -34 -21 -41 -21 -8 0 -23
-6 -34 -14 -11 -8 -62 -35 -114 -61 -245 -120 -249 -123 -256 -181 -2 -21 -13
-51 -23 -65 -14 -18 -16 -30 -9 -42 6 -11 5 -17 -1 -17 -22 0 -474 235 -661
344 -208 121 -470 258 -484 253 -6 -2 0 -10 14 -17 14 -7 30 -19 35 -25 6 -7
55 -41 110 -77 55 -36 145 -94 200 -130 55 -36 120 -78 145 -93 74 -46 418
-307 424 -320 4 -10 -10 -13 -57 -13 -75 1 -132 -14 -181 -47 -20 -14 -41 -25
-46 -25 -6 0 -27 -16 -49 -35 -22 -20 -49 -35 -63 -35 -30 0 -51 -39 -42 -77
13 -51 -30 -29 -302 152 -298 198 -338 220 -314 175 6 -11 48 -49 93 -86 97
-78 447 -411 447 -426 0 -6 -10 -8 -23 -4 -19 4 -34 -7 -87 -64 -34 -39 -71
-70 -80 -70 -11 0 -22 -12 -29 -30 -8 -26 -14 -30 -34 -25 -15 4 -28 1 -36 -9
-8 -9 -19 -16 -26 -16 -7 0 -15 -7 -19 -15 -7 -20 -31 -19 -64 4 -15 10 -52
34 -82 53 -30 20 -88 57 -129 84 -108 71 -115 75 -120 63 -4 -13 35 -56 71
-78 39 -24 208 -187 208 -201 0 -7 -18 -10 -47 -10 -68 2 -120 -18 -126 -50
-3 -14 -12 -43 -21 -65 -8 -22 -15 -56 -16 -76 0 -20 -7 -42 -15 -49 -8 -7
-15 -20 -15 -29 0 -18 -102 -117 -130 -126 -10 -3 -20 -16 -22 -28 -2 -14 -17
-29 -40 -40 -25 -12 -38 -26 -38 -38 0 -11 -21 -39 -46 -63 -38 -36 -44 -47
-39 -69 6 -23 3 -27 -22 -32 -15 -4 -47 -16 -71 -27 -28 -13 -54 -18 -72 -15
-32 7 -75 -20 -85 -54 -4 -11 -23 -27 -43 -37 -36 -17 -51 -45 -55 -102 -3
-43 -30 -33 -141 50 -118 88 -134 95 -110 48 15 -28 207 -238 227 -246 16 -8
5 -28 -26 -47 -17 -11 -36 -34 -42 -50 -13 -38 -35 -60 -71 -72 -25 -8 -29
-16 -32 -49 -2 -25 -12 -51 -27 -68 -14 -16 -27 -36 -30 -46 -4 -12 -19 -19
-48 -22 -65 -8 -157 -66 -157 -100 0 -28 -30 -84 -65 -123 -16 -17 -19 -28
-13 -50 11 -41 4 -42 -54 -5 -29 18 -82 51 -118 73 -61 38 -177 124 -280 209
-25 20 -139 111 -255 203 -200 159 -495 401 -635 521 -36 31 -103 89 -150 129
-47 41 -116 97 -153 125 -38 29 -99 80 -135 114 -37 35 -100 89 -141 120 -41
31 -122 101 -180 155 -135 126 -170 155 -178 147 -8 -7 122 -134 242 -236 44
-37 105 -94 135 -125 30 -31 96 -91 145 -133 50 -41 127 -113 173 -158 45 -46
108 -103 140 -126 31 -24 116 -95 188 -158 72 -63 173 -151 225 -195 51 -44
116 -101 144 -126 61 -55 231 -199 300 -254 200 -157 505 -437 505 -463 0 -5
-11 -7 -25 -4 -21 4 -25 1 -25 -20 0 -13 -5 -29 -10 -34 -11 -11 -50 -143 -50
-168 0 -9 9 -24 21 -35 22 -20 23 -61 2 -68 -6 -3 -21 13 -31 34 -20 38 -20
38 -55 0 -22 -25 -37 -52 -40 -75 -10 -73 -20 -97 -48 -124 -32 -30 -36 -50
-14 -68 18 -15 20 -30 4 -30 -18 0 -399 266 -599 419 -58 44 -145 110 -195
146 -49 36 -106 78 -125 94 -19 15 -55 40 -80 56 -25 15 -56 38 -70 50 -14 12
-50 40 -80 60 -30 21 -67 47 -82 58 -34 25 -60 19 -32 -9 86 -82 142 -132 188
-167 30 -23 135 -109 234 -192 99 -82 204 -170 235 -195 30 -25 104 -87 163
-139 60 -51 141 -120 179 -153 211 -181 252 -228 203 -228 -29 -1 -58 -59 -58
-116 0 -46 14 -64 49 -64 51 0 54 -9 54 -136 0 -103 2 -121 18 -132 26 -18 36
-72 15 -84 -20 -11 -21 -47 -1 -54 8 -4 15 -19 15 -35 0 -21 12 -38 50 -71 54
-47 88 -122 77 -175 -5 -28 -5 -28 116 -32 236 -7 473 -6 527 3 55 8 55 8 70
-25 16 -35 73 -44 122 -18 9 5 44 6 77 3 43 -5 61 -3 61 5 0 6 -6 11 -14 11
-8 0 -21 7 -30 15 -11 12 -31 14 -84 11 -59 -4 -73 -2 -87 14 -16 18 -16 19 8
25 14 4 33 15 43 26 28 31 69 19 149 -45 61 -49 211 -136 234 -136 18 0 51 34
51 52 0 4 -46 53 -102 110 -59 58 -97 103 -90 106 7 2 22 -4 34 -14 20 -19 21
-18 47 14 24 28 34 32 77 32 27 0 58 7 68 15 17 13 23 12 55 -5 60 -33 122
-50 142 -39 10 5 31 9 48 9 17 0 31 5 31 10 0 6 16 10 35 10 24 0 37 6 45 20
8 15 21 20 49 20 25 0 44 7 56 20 13 14 31 20 61 20 24 0 46 5 49 10 3 6 21
10 39 10 30 0 33 2 28 25 -6 36 9 32 106 -27 48 -29 96 -57 107 -61 28 -11
181 -107 300 -187 73 -49 390 -246 436 -271 47 -25 123 -71 165 -100 46 -31
94 -47 94 -31 0 11 -25 31 -146 117 -30 22 -82 60 -113 85 -32 25 -93 70 -135
100 -419 301 -632 473 -609 489 5 3 19 27 31 54 23 48 37 56 73 37 16 -9 26
-5 57 20 24 19 48 30 68 30 18 0 44 6 60 14 15 8 40 12 55 9 22 -4 31 0 44 21
13 19 26 26 49 26 49 0 75 10 82 32 5 18 12 20 48 15 27 -4 47 -1 60 9 40 29
130 2 98 -30 -10 -10 19 -26 48 -26 23 0 67 18 109 44 12 8 -11 32 -29 29 -3
0 -14 5 -24 13 -11 7 -31 11 -47 7 -33 -6 -37 6 -11 30 28 25 42 21 118 -30
38 -25 87 -56 109 -68 22 -12 86 -47 143 -79 112 -63 145 -68 150 -25 3 28
-37 72 -143 157 -64 51 -158 142 -153 148 2 2 20 -1 39 -6 29 -9 36 -8 48 10
8 12 25 20 42 20 15 0 31 5 34 10 3 6 24 10 47 10 37 0 40 2 36 24 -5 22 -3
24 21 15 31 -12 139 -76 166 -99 11 -9 61 -41 110 -70 50 -30 172 -106 273
-169 100 -64 204 -129 230 -146 27 -16 66 -44 88 -61 21 -17 81 -57 132 -90
51 -32 148 -95 215 -139 295 -193 337 -214 345 -173 3 14 -533 415 -673 504
-53 34 -242 172 -323 237 -43 34 -104 82 -136 107 -134 103 -148 120 -97 120
17 0 32 4 36 9 3 5 20 13 38 17 17 3 45 18 61 31 21 18 38 24 60 20 23 -3 36
3 62 28 31 31 156 98 236 126 37 13 58 42 58 82 0 12 9 37 20 54 11 18 17 39
14 48 -12 30 26 12 193 -96 163 -106 267 -161 287 -153 39 15 17 53 -96 170
-126 129 -139 150 -86 140 23 -4 45 0 71 13 20 10 48 22 62 25 13 3 35 20 47
36 12 17 31 30 43 30 11 0 39 18 60 40 21 22 45 40 51 40 22 0 54 51 54 87 0
60 61 133 110 133 10 0 30 16 44 35 20 26 35 35 56 35 21 0 36 9 56 35 17 23
35 35 51 35 13 0 34 11 47 25 13 14 38 28 55 31 17 4 36 14 41 24 21 40 74 60
205 78 46 6 50 10 55 37 9 52 53 91 113 98 44 6 56 12 83 44 29 34 37 38 79
38 43 1 51 5 82 40 25 29 41 39 58 37 17 -2 29 5 41 22 11 18 25 26 44 26 16
0 30 7 34 16 4 10 15 14 31 12 18 -2 32 5 48 26 26 32 67 30 67 -3 0 -24 38
-71 57 -71 9 0 26 11 39 25 13 15 29 22 38 19 8 -3 41 8 72 25 32 17 68 31 82
31 13 0 37 13 54 30 21 22 39 30 63 30 24 0 38 6 45 20 7 12 21 20 38 20 15 0
42 9 60 20 18 11 43 20 57 20 62 0 125 48 125 96 0 42 3 43 91 46 41 1 97 7
124 15 28 7 62 13 76 13 15 0 57 15 95 34 38 19 81 38 96 41 15 4 30 16 33 26
7 20 14 22 53 19 12 -1 25 6 28 14 4 9 18 16 35 16 19 0 32 7 40 22 7 13 18
29 26 36 7 8 13 35 13 62 0 40 4 50 20 55 11 3 23 18 26 31 4 17 19 30 44 40
20 8 47 28 59 44 14 19 31 30 46 30 15 0 39 15 64 40 22 22 44 40 50 40 6 0
17 13 26 29 11 23 21 29 42 28 20 -1 31 4 38 20 11 25 69 52 124 58 94 9 156
80 166 190 1 17 10 54 19 84 9 30 16 74 16 98 0 59 67 187 94 177 24 -8 43 15
24 30 -10 7 -18 18 -18 23 0 6 -7 16 -15 23 -9 7 -13 15 -11 18 5 4 120 -61
148 -85 26 -23 62 -13 66 17 2 20 -10 39 -59 85 -63 60 -63 60 -23 65 36 5 39
7 36 34 -2 18 3 33 14 41 16 11 16 18 7 49 -9 30 -8 39 7 59 18 22 18 24 -1
47 -22 29 -24 50 -6 50 6 -1 66 -46 132 -102 264 -221 305 -248 305 -200 0 28
-61 104 -277 343 -206 230 -218 248 -191 302 6 12 4 19 -7 23 -8 3 -15 12 -15
19 0 17 -11 24 -47 29 -48 6 -81 27 -94 60 -7 17 -19 39 -27 48 -8 9 -11 21
-8 26 3 5 -2 9 -11 8 -10 0 -19 7 -21 19 -5 28 -31 83 -42 90 -6 3 -10 11 -10
16 0 18 54 -28 207 -175 83 -80 183 -173 222 -206 40 -33 84 -72 99 -85 37
-35 72 -34 72 3 1 46 -849 876 -914 893 -18 5 -33 1 -51 -13 -25 -19 -27 -19
-62 -3 -20 10 -70 19 -117 22 -133 7 -143 10 -149 42 -8 39 -141 91 -188 74
-37 -14 -91 12 -334 164 -106 66 -380 213 -398 213 -4 0 -1 -10 7 -22z" fill="#DD5B85"/>
<path d="M8308 15268 c6 -8 30 -20 53 -27 96 -29 274 -138 435 -268 50 -40 99
-73 108 -73 75 0 -154 217 -314 298 -109 55 -311 105 -282 70z" fill="#DD5B85"/>
<path d="M7660 14751 c0 -10 41 -42 312 -247 186 -141 273 -203 348 -250 197
-124 233 -138 238 -94 4 33 -177 169 -446 336 -35 21 -82 51 -105 65 -23 14
-87 52 -142 84 -55 32 -121 71 -146 87 -49 30 -59 33 -59 19z" fill="#DD5B85"/>
<path d="M4194 13509 c14 -17 51 -51 82 -76 30 -25 90 -78 132 -118 104 -97
306 -274 410 -359 47 -38 94 -78 104 -88 21 -21 34 -23 44 -7 15 26 -405 411
-605 554 -30 22 -64 49 -76 61 -21 20 -96 64 -110 64 -4 0 5 -14 19 -31z" fill="#DD5B85"/>
<path d="M4252 12961 c7 -10 34 -34 59 -54 25 -19 66 -54 90 -78 45 -45 169
-152 288 -247 36 -30 84 -69 106 -87 44 -37 106 -82 205 -150 36 -25 119 -83
185 -130 128 -90 130 -91 141 -73 4 7 -14 31 -47 60 -72 65 -335 288 -369 313
-15 11 -78 59 -141 106 -102 76 -229 166 -384 269 -29 19 -71 47 -93 63 -49
32 -58 34 -40 8z" fill="#DD5B85"/>
<path d="M4610 11302 c0 -14 88 -100 179 -175 41 -34 98 -82 125 -107 28 -25
76 -64 107 -87 30 -22 77 -60 104 -83 61 -53 91 -68 107 -52 23 23 -79 116
-332 302 -26 19 -89 67 -141 106 -119 89 -149 109 -149 96z" fill="#DD5B85"/>
<path d="M21300 10079 c-189 -12 -456 -57 -640 -108 -41 -11 -116 -31 -166
-45 -189 -51 -420 -135 -564 -203 -255 -121 -465 -232 -590 -311 -30 -19 -71
-45 -90 -57 -601 -379 -1251 -1017 -1646 -1617 -179 -272 -206 -318 -341 -578
-25 -46 -48 -89 -52 -95 -14 -17 -123 -267 -146 -335 -12 -36 -43 -128 -68
-205 -26 -77 -52 -153 -58 -170 -28 -79 -69 -247 -94 -395 -8 -47 -20 -110
-25 -140 -57 -304 -18 -943 74 -1200 7 -19 23 -66 36 -105 175 -544 540 -1012
986 -1265 58 -33 108 -60 110 -60 5 0 42 -17 139 -61 338 -154 960 -164 1575
-25 268 61 771 253 992 378 857 485 1374 1127 1658 2058 12 41 28 89 35 105 7
17 15 46 19 65 4 19 13 55 21 80 116 399 202 1266 177 1795 -26 533 -75 980
-137 1250 -7 33 -26 114 -40 180 -15 66 -33 138 -41 160 -7 22 -23 76 -35 120
-37 134 -146 465 -183 552 -45 108 -39 111 184 77 125 -18 194 -18 210 1 15
18 -2 45 -30 45 -10 0 -34 7 -53 15 -20 8 -65 19 -99 25 -35 5 -112 19 -173
30 -230 43 -638 60 -945 39z m-222 -218 c-1 -5 -37 -37 -78 -72 -164 -139
-291 -231 -395 -288 -33 -18 -64 -36 -70 -41 -5 -4 -80 -44 -165 -87 -246
-127 -458 -205 -775 -288 -77 -20 -170 -45 -207 -56 -36 -10 -73 -19 -82 -19
-8 0 -44 -9 -78 -19 -131 -41 -258 -72 -275 -69 -17 4 101 98 212 169 22 14
92 60 155 101 162 106 551 318 584 318 4 0 41 16 83 35 41 20 92 42 112 49 20
8 61 24 91 35 187 73 526 175 704 212 48 10 91 21 94 24 9 9 94 6 90 -4z
m-278 -2900 c546 -111 942 -351 1182 -716 122 -186 208 -462 208 -670 0 -19
-22 -102 -50 -184 -47 -143 -61 -179 -100 -266 -10 -22 -26 -61 -35 -87 -25
-73 -34 -67 -34 24 1 135 -65 410 -135 563 -8 17 -26 59 -41 95 -194 469 -546
838 -1010 1059 -49 24 -98 47 -108 52 -69 36 -254 96 -371 120 -77 16 -142 32
-145 35 -17 18 536 -5 639 -25z" fill="#DD5B85"/>
<path d="M20520 6941 c0 -9 99 -41 126 -41 10 1 30 7 44 15 25 13 25 13 0 19
-47 9 -170 15 -170 7z" fill="#DD5B85"/>
<path d="M20730 6891 c-45 -8 -36 -27 10 -23 19 1 60 4 90 5 92 5 97 6 80 17
-16 10 -123 11 -180 1z" fill="#DD5B85"/>
<path d="M20955 6851 c-7 -12 79 -26 94 -16 6 3 9 11 6 16 -8 12 -92 12 -100
0z" fill="#DD5B85"/>
<path d="M22119 5630 c-7 -77 3 -150 12 -90 3 19 3 62 0 95 -7 60 -7 60 -12
-5z" fill="#DD5B85"/>
<path d="M22030 5285 c-9 -28 -9 -40 -1 -48 23 -23 42 40 22 72 -6 10 -12 3
-21 -24z" fill="#DD5B85"/>
<path d="M9694 7228 c-7 -11 36 -56 97 -103 43 -33 98 -114 151 -219 127 -253
275 -357 491 -344 409 25 487 611 89 664 -89 11 -182 -28 -166 -70 5 -13 21
-16 83 -16 260 0 312 -342 67 -435 -62 -24 -193 -16 -254 14 -60 30 -141 116
-213 223 -148 223 -304 352 -345 286z" fill="#DD5B85"/>
<path d="M18220 28945 c0 -19 28 -150 39 -180 6 -16 29 -88 52 -160 46 -143
148 -409 205 -531 20 -44 55 -137 79 -209 136 -418 227 -641 407 -1000 143
-284 298 -523 313 -483 3 8 -92 232 -211 498 -119 267 -220 497 -224 513 -19
63 20 21 128 -138 330 -486 998 -1146 1527 -1510 55 -38 123 -85 150 -105 53
-39 283 -193 375 -252 257 -165 350 -219 690 -406 224 -123 765 -372 1050
-482 74 -29 185 -72 245 -96 61 -23 173 -67 250 -97 77 -30 186 -73 242 -96
109 -44 309 -118 358 -131 17 -4 47 -15 67 -24 43 -19 58 -20 58 -6 0 6 -12
15 -27 20 -16 6 -35 14 -43 20 -18 11 -140 72 -262 129 -49 23 -127 59 -175
82 -108 50 -618 305 -699 350 -100 54 -194 103 -324 169 -69 35 -163 84 -210
110 -47 26 -137 75 -200 110 -63 34 -144 82 -180 105 -36 23 -96 58 -135 77
-38 20 -94 50 -123 67 -29 17 -55 31 -58 31 -10 0 -358 203 -452 263 -556 358
-770 514 -1187 872 -360 308 -731 759 -1101 1335 -159 249 -385 674 -524 986
-48 109 -100 196 -100 169z" fill="#C878A9"/>
<path d="M12120 26781 c-6 -11 -10 -91 -10 -188 0 -292 -69 -792 -115 -843
-39 -43 -141 -21 -377 81 -214 92 -218 90 -218 -127 0 -361 -63 -578 -209
-724 -92 -92 -159 -122 -496 -225 -362 -111 -415 -131 -624 -231 -234 -113
-501 -279 -711 -443 -47 -36 -103 -79 -125 -96 -196 -144 -556 -476 -962 -887
-1012 -1025 -1240 -1241 -1583 -1498 -47 -35 -101 -75 -120 -90 -148 -112
-336 -229 -543 -339 -100 -53 -118 -67 -115 -85 6 -39 46 -30 193 42 473 234
907 544 1385 991 92 86 108 85 55 -3 -37 -61 -43 -86 -22 -86 26 0 421 424
614 660 386 473 932 947 1458 1265 313 189 759 386 1155 510 309 97 389 142
507 287 154 188 267 527 299 896 4 56 11 85 20 89 8 3 106 -31 218 -76 225
-89 238 -92 261 -57 64 97 143 575 146 885 2 192 -5 188 158 86 141 -88 207
-122 217 -112 22 22 -72 107 -289 261 -111 79 -148 91 -167 57z m-1060 -2038
c-1 -16 -37 -51 -96 -90 -58 -40 -86 -50 -284 -104 -47 -12 -172 -51 -279 -86
-106 -35 -198 -63 -203 -63 -46 0 100 75 277 142 44 16 96 36 115 44 19 7 100
34 180 59 80 25 174 59 210 74 72 32 80 34 80 24z" fill="#C878A9"/>
<path d="M21203 23249 c-227 -29 -600 -194 -713 -314 -37 -40 -23 -37 125 29
257 114 414 157 730 201 216 29 210 28 213 52 3 17 -3 26 -23 33 -31 12 -241
11 -332 -1z" fill="#C878A9"/>
<path d="M10362 22461 c-85 -22 -57 -43 80 -61 96 -13 217 -46 354 -95 107
-39 142 -43 151 -18 31 81 -421 215 -585 174z" fill="#C878A9"/>
<path d="M9720 22391 c-299 -108 -569 -242 -840 -418 -476 -309 -705 -482
-1034 -782 -283 -259 -316 -358 -39 -120 340 292 868 656 1233 851 121 65 207
111 270 145 30 16 123 65 205 108 339 177 384 209 339 242 -22 16 -9 19 -134
-26z" fill="#C878A9"/>
<path d="M24420 20028 c-16 -24 -45 -65 -63 -92 -89 -137 -419 -367 -657 -459
-186 -72 -525 -138 -525 -102 0 9 239 101 367 141 50 15 78 48 59 67 -12 12
-101 -5 -346 -68 -506 -130 -1110 -377 -1589 -649 -54 -31 -100 -56 -102 -56
-25 0 -375 -218 -382 -238 -7 -23 25 -12 154 52 71 35 199 96 284 136 85 39
178 83 207 96 112 52 110 25 -4 -58 -359 -258 -690 -632 -861 -973 -58 -114
-64 -138 -40 -143 12 -2 35 23 76 85 76 113 112 141 112 87 0 -24 34 -16 111
26 95 53 110 56 133 31 14 -16 31 -21 65 -21 65 0 91 -21 91 -71 0 -21 6 -48
12 -59 11 -17 8 -24 -22 -55 -46 -47 -27 -76 38 -57 21 7 76 19 123 28 159 30
465 106 799 199 264 73 196 67 725 65 310 0 552 -6 683 -15 381 -28 757 -106
1612 -337 41 -11 97 -24 124 -29 26 -4 62 -13 80 -18 35 -12 188 -44 284 -61
57 -10 66 -9 96 9 19 12 51 21 72 21 22 0 54 9 72 20 47 29 53 27 129 -40 69
-61 96 -70 116 -39 21 34 -13 94 -151 266 -137 169 -189 226 -288 315 -57 51
-129 124 -160 161 -197 240 -582 590 -839 764 -139 94 -492 282 -532 283 -4 1
-26 9 -48 20 -22 11 -45 19 -52 20 -31 1 -20 179 23 386 13 65 31 155 40 199
9 44 25 95 35 112 50 80 -7 128 -61 51z" fill="#C878A9"/>
<path d="M22285 19914 c-429 -33 -1083 -180 -1049 -236 7 -11 94 -3 197 18 37
8 151 25 253 39 299 41 313 35 133 -57 -179 -90 -328 -208 -264 -208 8 0 82
32 163 71 365 177 635 255 847 244 208 -11 496 -34 615 -50 274 -36 352 -48
468 -71 128 -25 142 -25 142 5 0 35 -57 57 -345 134 -322 86 -841 135 -1160
111z" fill="#C878A9"/>
<path d="M10760 19389 c-542 -19 -1083 -105 -1640 -261 -76 -21 -74 -23 -80
79 -8 147 -61 177 -74 41 -15 -158 -26 -171 -181 -220 -657 -208 -1478 -622
-1917 -966 -143 -112 -46 -66 322 151 422 249 959 496 1495 689 171 61 188 55
102 -38 -124 -134 -305 -235 -817 -459 -173 -75 -353 -155 -400 -177 -47 -22
-130 -60 -185 -85 -113 -51 -310 -148 -430 -213 -390 -209 -465 -253 -665
-388 -324 -220 -521 -381 -754 -620 -141 -144 -136 -144 -161 13 -31 190 -128
460 -163 453 -25 -5 -26 -45 -2 -224 13 -95 24 -243 27 -367 6 -208 6 -208
-59 -305 -181 -269 -193 -295 -167 -344 10 -19 22 -263 19 -398 -11 -573 -408
-966 -870 -862 -122 28 -383 131 -460 182 -87 58 -104 24 -34 -68 42 -56 43
-48 -10 -156 -24 -50 -59 -134 -76 -186 -70 -204 -315 -657 -421 -778 -60 -68
-21 -70 94 -6 156 88 302 175 398 237 52 34 133 85 180 114 46 28 176 114 289
192 113 78 212 141 220 141 8 0 -75 -89 -186 -198 -346 -340 -754 -776 -754
-805 0 -20 34 8 197 164 188 181 451 420 593 538 327 272 845 674 1110 862
213 151 392 271 665 444 94 59 186 117 205 130 52 34 144 87 250 145 105 58
156 86 215 120 252 143 733 381 1015 502 63 27 167 72 230 100 63 27 129 55
145 63 31 13 123 49 280 108 77 30 474 164 715 242 268 87 865 234 1150 284
274 48 399 61 750 80 243 13 672 -8 697 -33 8 -8 -73 -15 -227 -22 -296 -12
-570 -58 -570 -95 0 -13 74 -15 372 -8 292 8 512 2 813 -22 357 -27 305 -16
570 -124 310 -126 311 -126 341 -119 25 6 102 -2 499 -57 264 -37 493 -97 575
-151 201 -131 250 -155 250 -122 0 43 -443 435 -612 542 -83 52 -83 53 -5 92
510 251 304 976 -269 947 -74 -3 -111 -1 -140 10 -218 81 -501 146 -814 187
-309 41 -388 47 -605 45 -220 -3 -220 -3 -380 55 -88 31 -166 59 -172 61 -25
8 -12 31 42 72 138 107 322 393 253 393 -6 0 -45 -33 -87 -73 -180 -171 -457
-306 -573 -278 -636 151 -1178 203 -1553 150 -38 -6 -99 -15 -135 -20 -36 -5
-98 -16 -138 -26 -90 -20 -92 -19 -92 90 0 76 27 151 61 173 47 29 689 169
949 208 455 67 726 88 1185 93 220 2 410 6 423 9 28 6 29 39 2 54 -17 9 -485
32 -580 28 -19 -1 -127 -5 -240 -9z m1764 -1145 c83 -7 186 -21 230 -29 45 -8
142 -26 216 -40 130 -25 169 -39 139 -49 -137 -48 -159 -60 -142 -77 9 -9 36
-8 120 6 427 71 673 -36 723 -312 38 -212 -128 -443 -337 -469 -72 -9 -98 3
-210 94 -403 325 -1034 743 -1271 841 -132 55 139 73 532 35z" fill="#C878A9"/>
<path d="M15685 18700 c-84 -22 -208 -87 -219 -116 -7 -18 18 -64 34 -64 6 0
45 17 88 39 166 83 331 83 382 -1 58 -96 -26 -203 -187 -238 -99 -22 -145 -60
-70 -60 203 1 357 108 357 249 0 170 -159 248 -385 191z" fill="#C878A9"/>
<path d="M4241 17319 c-130 -25 -333 -163 -468 -318 -244 -279 -382 -600 -414
-966 -21 -238 31 -576 78 -502 4 7 8 118 9 247 2 447 107 792 331 1083 333
432 732 508 1019 194 93 -102 126 -164 229 -437 64 -167 65 -50 2 165 -76 259
-290 484 -507 534 -53 12 -217 12 -279 0z" fill="#C878A9"/>
<path d="M26337 17253 c-24 -23 11 -66 122 -152 60 -47 94 -51 99 -13 7 49
-191 196 -221 165z" fill="#C878A9"/>
<path d="M11680 16884 c-128 -11 -374 -50 -394 -62 -29 -17 69 -20 439 -16
226 3 509 1 630 -4 235 -10 245 -10 245 18 0 26 -14 32 -105 47 -77 13 -710
26 -815 17z" fill="#C878A9"/>
<path d="M20520 16827 c0 -61 185 -169 550 -322 332 -140 521 -283 640 -486
48 -81 64 -96 85 -79 55 45 -37 277 -162 410 -139 147 -279 216 -798 391 -115
39 -222 78 -237 85 -34 18 -78 18 -78 1z" fill="#C878A9"/>
<path d="M4785 16049 c-11 -6 -63 -65 -115 -132 -52 -66 -148 -176 -212 -244
-138 -145 -143 -156 -97 -197 90 -79 108 -96 140 -135 19 -23 50 -75 69 -114
62 -128 89 -109 186 131 79 195 139 454 146 627 2 61 -57 94 -117 64z" fill="#C878A9"/>
<path d="M21385 10074 c-834 -52 -1703 -389 -2445 -948 -1613 -1214 -2473
-3169 -2011 -4571 256 -778 773 -1306 1446 -1479 359 -92 1052 -62 1451 63 16
5 70 21 119 36 82 25 148 46 290 96 890 309 1686 1058 2008 1889 65 167 78
203 117 325 23 72 48 148 55 170 132 387 223 1173 212 1827 -15 896 -144 1606
-424 2343 -19 50 -35 97 -36 105 -3 23 77 24 244 4 310 -37 196 35 -141 90
-256 42 -656 64 -885 50z m-288 -200 c10 -31 -332 -294 -529 -407 -378 -217
-586 -298 -1113 -432 -137 -35 -275 -71 -305 -79 -30 -9 -66 -18 -80 -22 -14
-3 -53 -15 -87 -26 -59 -18 -90 -18 -78 3 7 11 182 142 245 183 25 16 83 55
130 86 191 126 494 291 661 359 19 8 52 22 74 32 337 152 1064 356 1082 303z
m-449 -2874 c903 -97 1559 -695 1562 -1424 0 -61 -67 -261 -157 -470 -92 -212
-103 -222 -103 -91 0 237 -82 530 -231 825 -309 613 -886 1016 -1617 1131
-141 22 -51 36 236 38 117 0 256 -4 310 -9z m-1139 -760 c161 -10 355 -34 476
-61 231 -51 387 -94 695 -190 465 -147 656 -277 783 -534 67 -135 188 -517
263 -828 16 -69 16 -69 -22 -125 -378 -554 -1084 -1042 -1834 -1267 -47 -14
-107 -32 -135 -41 -27 -8 -72 -19 -100 -23 -27 -5 -86 -15 -130 -24 -362 -69
-800 -41 -1145 73 -731 244 -1244 915 -1360 1780 -34 250 -39 231 93 359 534
518 1259 834 2017 880 195 12 208 12 399 1z" fill="#C878A9"/>
<path d="M9735 7210 c-3 -5 23 -37 58 -72 70 -70 90 -99 162 -233 104 -196
196 -282 340 -319 245 -64 477 103 477 346 0 180 -160 314 -332 277 -98 -21
-89 -58 15 -59 74 0 125 -27 172 -88 164 -216 -101 -477 -363 -358 -78 36
-151 108 -237 236 -85 127 -136 189 -187 230 -42 34 -96 54 -105 40z" fill="#C878A9"/>
<path d="M18250 28854 c0 -14 7 -49 16 -77 83 -271 159 -478 253 -690 33 -74
67 -161 77 -194 120 -415 408 -1063 614 -1380 56 -86 85 -113 74 -68 -4 15
-105 248 -225 517 -229 513 -227 508 -206 508 14 0 34 -24 116 -145 391 -573
1010 -1187 1623 -1610 391 -270 408 -281 663 -439 380 -234 730 -415 1228
-635 123 -54 197 -85 432 -176 63 -24 274 -107 560 -220 356 -141 495 -171
242 -52 -147 69 -900 444 -1002 500 -44 24 -165 87 -270 141 -104 54 -194 101
-200 106 -5 4 -46 26 -90 50 -159 84 -211 113 -240 135 -16 12 -70 44 -120 70
-49 26 -120 65 -157 86 -36 22 -69 39 -72 39 -7 0 -295 166 -373 216 -34 21
-91 57 -125 78 -440 276 -845 580 -1207 906 -528 475 -1137 1343 -1489 2120
-115 253 -122 265 -122 214z" fill="#A42A5B"/>
<path d="M12126 26768 c-3 -13 -7 -120 -10 -238 -7 -344 -67 -735 -120 -788
-45 -46 -151 -22 -400 89 -180 80 -186 77 -186 -116 -1 -379 -61 -588 -214
-739 -103 -103 -168 -133 -531 -241 -563 -168 -861 -324 -1383 -724 -304 -233
-491 -408 -1317 -1236 -1016 -1018 -1323 -1277 -1855 -1569 -182 -99 -196
-109 -186 -124 35 -58 698 323 1056 607 54 43 281 233 330 277 115 103 151
135 205 186 91 87 111 76 49 -25 -38 -61 -39 -79 -4 -54 54 37 442 461 565
616 112 142 428 472 609 635 601 544 1272 924 2049 1161 84 26 193 66 243 90
267 128 445 472 509 985 21 172 23 180 40 186 8 3 106 -31 219 -75 225 -89
225 -89 251 -61 63 69 154 645 155 977 0 89 8 94 76 48 371 -246 380 -179 10
79 -114 80 -152 93 -160 54z m-1046 -2028 c-33 -61 -176 -142 -312 -175 -112
-28 -399 -120 -533 -171 -87 -33 -158 -44 -135 -21 17 17 158 93 210 112 19 8
71 29 116 48 45 19 180 66 300 106 120 40 239 82 264 95 60 31 105 34 90 6z" fill="#A42A5B"/>
<path d="M21175 23234 c-216 -39 -487 -150 -595 -243 -50 -43 -19 -40 94 9
216 94 622 190 807 190 51 0 81 24 55 45 -26 20 -248 19 -361 -1z" fill="#A42A5B"/>
<path d="M10376 22442 c-10 -16 4 -21 116 -41 57 -10 164 -40 238 -66 153 -53
194 -62 205 -45 17 28 -83 87 -220 130 -80 25 -327 41 -339 22z" fill="#A42A5B"/>
<path d="M9680 22366 c-419 -155 -796 -373 -1334 -771 -321 -238 -737 -615
-677 -615 10 0 56 35 248 191 149 120 462 351 618 456 238 159 314 204 655
386 41 22 104 56 140 75 36 19 126 66 200 105 297 156 355 195 320 217 -20 13
-6 16 -170 -44z" fill="#A42A5B"/>
<path d="M24396 19978 c-175 -269 -591 -515 -1010 -597 -313 -61 -350 -30 -76
63 245 84 263 91 274 108 17 28 2 30 -80 14 -632 -127 -1514 -491 -2162 -894
-21 -12 -47 -28 -59 -34 -24 -12 -31 -28 -12 -28 6 0 23 7 37 15 15 8 56 27
92 44 36 16 101 46 145 66 44 20 125 57 180 82 55 25 105 49 110 53 22 16 115
43 122 36 9 -8 4 -12 -152 -130 -371 -282 -663 -614 -829 -943 -43 -85 -55
-123 -40 -123 9 0 24 19 84 106 59 87 100 108 100 53 0 -27 14 -24 111 26 99
51 108 53 132 25 12 -14 29 -20 61 -20 64 0 96 -29 96 -85 0 -24 5 -47 10 -50
17 -10 11 -32 -16 -64 -25 -30 -24 -57 2 -47 7 3 82 19 166 36 165 34 436 101
758 188 306 83 238 78 840 71 661 -7 980 -38 1330 -130 19 -5 87 -21 150 -35
102 -23 245 -60 675 -175 133 -35 206 -52 437 -100 158 -33 158 -33 188 -11
19 15 44 22 72 22 25 0 56 8 76 20 47 29 53 27 129 -40 140 -124 150 -13 13
143 -25 29 -75 90 -111 137 -37 47 -133 150 -215 230 -82 80 -206 208 -275
285 -406 452 -867 784 -1332 962 -27 10 -52 25 -57 33 -13 24 8 244 35 375 14
66 33 156 41 200 9 44 25 95 36 112 23 38 21 76 -4 81 -13 2 -33 -21 -72 -80z" fill="#A42A5B"/>
<path d="M22185 19894 c-312 -30 -632 -93 -822 -163 -132 -47 -94 -52 123 -16
198 32 377 55 436 55 60 0 66 -24 11 -46 -172 -71 -422 -234 -358 -234 16 0
193 80 269 122 182 99 547 191 721 183 398 -20 813 -67 1100 -125 107 -21 135
-16 100 19 -19 19 -155 62 -360 116 -342 89 -843 126 -1220 89z" fill="#A42A5B"/>
<path d="M10765 19380 c-380 -14 -769 -61 -1145 -139 -205 -43 -480 -112 -543
-136 -34 -14 -47 12 -47 94 0 146 -36 149 -61 7 -24 -135 -26 -137 -187 -190
-271 -88 -419 -144 -712 -272 -173 -75 -550 -271 -755 -392 -183 -108 -388
-253 -367 -260 7 -2 163 80 222 117 273 175 853 452 1300 623 400 152 446 155
318 21 -144 -150 -313 -241 -968 -523 -80 -34 -185 -82 -235 -105 -49 -23
-146 -68 -215 -100 -186 -85 -338 -162 -580 -293 -497 -269 -907 -568 -1234
-901 -76 -77 -142 -141 -147 -141 -15 0 -26 33 -39 115 -17 112 -54 251 -96
358 -70 183 -87 152 -54 -97 14 -111 25 -258 28 -379 5 -198 5 -198 -80 -325
-150 -224 -176 -280 -146 -310 20 -20 22 -445 2 -560 -84 -498 -407 -783 -814
-719 -143 22 -416 123 -514 190 -68 47 -80 13 -21 -59 41 -50 43 -62 11 -117
-23 -40 -54 -114 -105 -252 -45 -120 -64 -162 -128 -285 -72 -138 -192 -341
-259 -437 -67 -98 -64 -97 206 59 85 49 182 106 215 128 33 21 107 68 165 104
93 58 314 207 518 349 43 30 77 47 88 44 15 -3 -9 -31 -111 -127 -277 -263
-775 -786 -775 -814 0 -9 17 4 64 49 237 224 469 434 582 526 50 41 147 121
216 179 333 279 873 684 1248 934 124 83 248 165 275 182 28 17 122 76 210
131 150 94 305 184 455 265 36 20 115 63 175 97 257 144 688 353 1035 500 118
51 224 96 235 101 184 80 346 140 750 274 752 251 1371 391 1948 442 239 21
795 15 921 -10 147 -29 124 -36 -146 -46 -327 -13 -601 -51 -582 -82 5 -8 92
-10 338 -5 328 6 393 3 841 -28 279 -19 285 -20 580 -149 151 -66 223 -90 265
-88 48 2 163 -10 325 -33 55 -8 165 -24 245 -35 80 -12 215 -40 300 -63 159
-44 162 -45 348 -168 61 -41 98 -50 82 -19 -37 69 -371 362 -559 491 -119 81
-120 86 -32 127 412 192 365 777 -74 911 -57 18 -92 21 -195 20 -99 -1 -133 2
-165 15 -282 120 -870 217 -1345 222 -275 3 -275 3 -450 67 -96 35 -176 69
-178 75 -2 6 27 34 63 63 110 86 239 255 260 342 11 43 -8 33 -93 -45 -94 -87
-182 -145 -317 -209 -158 -74 -177 -78 -287 -50 -689 169 -1323 203 -1780 95
-93 -22 -94 -21 -102 85 -7 85 -6 92 19 135 35 61 36 61 160 94 667 178 1280
259 2030 269 405 5 440 8 416 37 -20 23 -475 38 -816 26z m1790 -1130 c94 -11
204 -26 245 -34 41 -8 129 -25 195 -37 155 -29 168 -40 89 -75 -78 -35 -61
-38 115 -24 327 26 506 -45 592 -235 102 -228 -38 -511 -284 -571 -96 -24
-120 -16 -239 80 -421 338 -913 665 -1260 838 -62 30 -73 41 -64 63 9 24 394
20 611 -5z" fill="#A42A5B"/>
<path d="M15745 18704 c-170 -36 -291 -106 -265 -153 14 -28 19 -27 100 14
203 102 384 82 415 -47 20 -81 -60 -164 -196 -204 -27 -8 -51 -19 -54 -24 -11
-18 98 -10 140 10 22 11 45 19 52 20 28 0 109 95 121 140 41 164 -114 285
-313 244z" fill="#A42A5B"/>
<path d="M4299 17320 c-366 -43 -782 -536 -899 -1067 -58 -264 -37 -749 31
-708 8 6 10 44 5 149 -24 506 130 965 433 1288 393 421 860 351 1086 -161 85
-192 79 -181 83 -143 7 68 -70 263 -143 362 -152 207 -364 306 -596 280z" fill="#A42A5B"/>
<path d="M26351 17241 c-21 -14 2 -43 84 -110 76 -61 108 -74 118 -46 14 34
-170 175 -202 156z" fill="#A42A5B"/>
<path d="M11645 16870 c-138 -16 -289 -47 -249 -51 5 0 243 -2 529 -3 286 -2
550 -6 587 -11 65 -7 99 7 74 32 -29 29 -755 55 -941 33z" fill="#A42A5B"/>
<path d="M20546 16821 c-24 -38 209 -179 459 -276 334 -130 566 -291 685 -474
69 -107 85 -125 98 -117 18 11 15 41 -13 130 -90 295 -297 437 -940 646 -71
24 -163 56 -203 71 -82 33 -79 32 -86 20z" fill="#A42A5B"/>
<path d="M4777 16029 c-15 -11 -66 -70 -114 -132 -48 -62 -134 -161 -190 -220
-128 -134 -138 -149 -123 -176 6 -12 14 -21 18 -21 34 -2 173 -168 212 -254
43 -95 60 -91 122 34 26 52 52 109 57 125 6 17 22 64 36 105 51 149 95 377 95
497 0 63 -59 85 -113 42z" fill="#A42A5B"/>
<path d="M21385 10064 c-730 -57 -1328 -252 -2010 -654 -581 -343 -1262 -975
-1654 -1536 -135 -193 -321 -482 -321 -498 0 -2 -16 -33 -36 -68 -526 -922
-687 -1964 -425 -2753 63 -189 68 -201 151 -370 326 -658 848 -1050 1517
-1140 193 -27 623 -18 771 16 24 5 78 14 120 20 369 48 972 264 1312 469 886
532 1346 1171 1643 2280 243 905 209 2495 -72 3425 -10 33 -28 94 -41 135 -34
113 -119 364 -156 459 -40 100 -36 111 40 111 48 0 183 -13 289 -26 70 -10 57
8 -26 34 -210 66 -813 119 -1102 96z m562 -122 c11 -7 83 -211 125 -352 10
-36 28 -96 39 -135 120 -409 245 -1004 279 -1330 6 -55 15 -133 20 -173 38
-285 37 -1054 -1 -1351 -6 -47 -17 -133 -24 -191 -13 -103 -39 -271 -53 -339
-7 -34 -32 -56 -32 -29 0 23 -75 171 -126 250 -299 457 -729 737 -1305 848
-545 105 -1188 30 -1894 -219 -184 -65 -217 -78 -510 -201 -55 -23 -125 -52
-155 -65 -647 -267 -1119 -577 -1263 -829 -27 -47 -41 -46 -33 2 43 242 158
661 225 817 5 11 22 54 37 95 215 563 727 1301 1267 1827 173 168 174 168 302
177 143 9 427 62 605 113 490 141 887 297 1148 452 29 17 55 31 58 31 44 0
442 308 594 460 118 119 135 124 510 140 85 4 160 7 165 8 6 1 15 -2 22 -6z
m-837 -60 c0 -10 -32 -47 -72 -83 -223 -198 -407 -320 -700 -465 -313 -154
-411 -189 -903 -314 -276 -70 -422 -110 -487 -131 -52 -17 -77 -6 -52 22 115
129 706 490 1035 633 24 11 58 26 74 33 173 81 595 220 815 269 265 59 290 62
290 36z m-412 -2877 c814 -103 1407 -599 1506 -1261 29 -194 30 -181 -10 -299
-73 -221 -196 -506 -233 -539 -21 -19 -21 -19 -21 62 0 519 -302 1148 -718
1494 -320 266 -727 445 -1132 498 -101 13 -122 19 -115 30 23 38 467 47 723
15z m-899 -110 c323 -43 519 -88 771 -180 86 -31 273 -125 371 -186 649 -401
955 -1050 844 -1791 -30 -202 -22 -181 -121 -313 -412 -551 -1027 -964 -1794
-1206 -1252 -395 -2391 141 -2779 1309 -117 351 -159 796 -88 937 194 390 592
701 1237 965 451 185 450 185 593 241 71 28 145 54 257 90 52 17 113 37 135
44 22 8 92 28 155 45 63 18 135 38 160 45 60 18 124 18 259 0z" fill="#A42A5B"/>
<path d="M10452 7200 c-59 -14 -59 -27 0 -35 310 -42 314 -431 6 -495 -159
-32 -293 49 -437 263 -95 142 -145 203 -191 233 -62 41 -63 24 -1 -51 31 -39
90 -130 130 -202 134 -241 259 -333 447 -333 286 0 464 331 290 537 -52 62
-170 102 -244 83z" fill="#A42A5B"/>
<path d="M18290 28753 c0 -9 6 -35 14 -58 8 -22 22 -65 31 -95 29 -97 115
-320 190 -495 40 -93 94 -235 119 -315 109 -337 203 -567 363 -885 203 -406
309 -543 153 -199 -131 290 -210 466 -210 471 0 4 -9 25 -19 47 -122 259 -139
306 -108 306 14 -1 53 -51 204 -265 369 -523 940 -1092 1473 -1470 69 -49 154
-109 190 -135 397 -284 962 -617 1385 -817 307 -145 511 -236 649 -289 50 -20
186 -73 301 -119 116 -46 253 -100 305 -120 52 -21 140 -55 194 -76 104 -40
121 -45 112 -30 -3 5 -182 97 -398 205 -216 107 -431 216 -478 241 -47 26
-143 76 -215 112 -71 37 -164 85 -205 108 -41 23 -111 61 -155 85 -219 116
-267 143 -293 164 -15 12 -56 37 -92 56 -36 18 -90 46 -120 63 -30 16 -102 56
-160 87 -106 57 -268 153 -370 218 -457 291 -664 436 -930 651 -392 316 -632
553 -885 871 -54 69 -115 145 -135 170 -147 182 -377 532 -553 840 -98 172
-337 645 -337 667 0 7 -4 15 -10 18 -5 3 -10 -2 -10 -12z" fill="#0E0E0E"/>
<path d="M12136 26764 c-3 -9 -6 -102 -6 -208 0 -326 -64 -753 -123 -821 -47
-55 -149 -34 -418 85 -153 68 -178 64 -165 -23 24 -161 -30 -531 -98 -665
-108 -214 -228 -287 -686 -418 -170 -49 -288 -87 -337 -110 -17 -8 -35 -14
-40 -14 -17 0 -355 -170 -452 -228 -464 -274 -990 -722 -1635 -1389 -1076
-1112 -1539 -1506 -2155 -1830 -68 -36 -99 -63 -72 -63 33 0 436 217 636 343
229 143 675 500 910 727 134 130 176 140 120 31 -26 -52 -26 -52 -3 -37 49 33
343 354 496 544 322 398 868 894 1272 1156 41 27 86 57 100 66 133 90 468 265
690 360 292 124 391 161 689 254 246 77 375 184 485 402 83 166 155 412 171
584 6 58 12 106 30 217 9 49 22 47 246 -42 116 -47 218 -85 226 -85 59 0 147
483 171 935 8 168 9 168 114 97 113 -76 235 -141 217 -115 -29 42 -333 263
-362 263 -8 0 -18 -7 -21 -16z m-1018 -1985 c4 -22 -32 -64 -92 -108 -93 -68
-141 -91 -263 -121 -103 -25 -267 -77 -513 -162 -30 -10 -59 -23 -64 -28 -6
-6 -17 -10 -26 -10 -8 0 -27 -6 -41 -14 -42 -22 -139 -49 -147 -42 -39 40 390
242 792 371 98 32 212 75 255 96 80 39 94 42 99 18z" fill="#0E0E0E"/>
<path d="M21180 23221 c-177 -34 -343 -91 -477 -167 -66 -37 -70 -64 -5 -30
116 60 421 136 649 162 174 20 185 22 180 37 -6 20 -235 19 -347 -2z" fill="#0E0E0E"/>
<path d="M10460 22433 c0 -14 24 -23 58 -23 27 -1 253 -70 344 -106 85 -33 73
8 -16 53 -107 54 -386 109 -386 76z" fill="#0E0E0E"/>
<path d="M9785 22393 c-35 -9 -236 -90 -355 -143 -220 -98 -389 -195 -746
-430 -255 -168 -557 -400 -754 -580 -52 -48 -116 -106 -142 -130 -27 -24 -48
-47 -48 -53 0 -11 4 -9 171 123 339 268 716 535 894 634 17 9 46 26 65 38 64
38 186 105 362 197 65 34 137 72 160 85 54 30 163 87 303 161 158 83 196 124
90 98z" fill="#0E0E0E"/>
<path d="M24437 20018 c-13 -18 -41 -58 -60 -88 -40 -63 -64 -86 -202 -197
-255 -206 -513 -320 -856 -379 -314 -53 -338 -5 -45 91 436 142 371 157 -104
23 -223 -62 -418 -129 -700 -238 -180 -70 -682 -313 -838 -406 -46 -27 -99
-57 -119 -67 -19 -10 -33 -21 -29 -24 7 -7 150 54 386 164 166 78 187 43 36
-62 -333 -230 -633 -537 -826 -844 -100 -159 -146 -271 -67 -164 67 91 117
118 117 63 0 -29 19 -25 113 25 96 51 107 53 125 25 8 -14 23 -20 47 -20 59 0
113 -34 121 -75 3 -20 4 -39 0 -42 -3 -3 2 -18 11 -33 15 -25 15 -29 -1 -51
-40 -57 -27 -56 364 37 145 34 300 74 655 169 55 15 118 32 140 37 49 12 1017
2 1150 -12 50 -5 142 -15 205 -20 63 -6 131 -15 150 -20 19 -5 69 -14 110 -20
41 -6 107 -17 145 -25 195 -43 268 -59 360 -82 130 -32 488 -126 600 -158 28
-7 93 -24 145 -36 52 -12 129 -30 170 -40 220 -53 289 -59 327 -29 17 13 41
20 72 20 25 0 55 7 65 15 35 27 66 17 137 -41 44 -36 75 -54 85 -50 30 11 5
54 -129 225 -133 169 -189 231 -283 316 -49 44 -137 133 -194 198 -413 466
-918 853 -1307 1002 -114 44 -162 67 -167 82 -9 22 12 282 28 353 8 36 25 115
37 175 12 61 34 134 47 163 32 66 18 92 -21 40z" fill="#0E0E0E"/>
<path d="M22205 19880 c-260 -22 -508 -63 -665 -109 -36 -11 -78 -22 -94 -26
-17 -4 -25 -10 -20 -15 5 -5 59 -1 129 10 188 30 436 53 448 41 18 -18 -2 -42
-55 -64 -77 -31 -195 -93 -258 -135 -30 -20 -57 -38 -59 -39 -2 -2 -1 -6 2
-10 4 -3 37 9 74 27 143 70 366 160 450 183 201 55 232 61 338 65 102 3 162 0
490 -28 148 -12 314 -34 510 -68 271 -46 319 -40 135 18 -459 142 -930 192
-1425 150z" fill="#0E0E0E"/>
<path d="M10585 19360 c-49 -4 -146 -13 -215 -19 -134 -12 -293 -32 -430 -56
-47 -7 -103 -17 -125 -20 -128 -19 -515 -106 -650 -146 -129 -39 -140 -36
-143 46 -1 39 -5 77 -8 85 -8 23 -21 -5 -39 -85 -24 -105 -25 -106 -235 -176
-270 -90 -253 -84 -515 -192 -167 -68 -602 -277 -640 -307 -5 -4 -50 -29 -100
-55 -49 -26 -97 -54 -106 -61 -8 -8 -19 -14 -24 -14 -5 0 -36 -17 -69 -39 -34
-21 -85 -53 -115 -72 -37 -23 -48 -35 -37 -37 10 -2 25 3 34 10 128 109 957
499 1387 653 88 31 182 65 209 76 128 50 138 -11 19 -122 -165 -154 -320 -236
-956 -510 -152 -66 -203 -89 -395 -180 -68 -33 -126 -59 -128 -59 -25 0 -512
-257 -764 -403 -100 -58 -139 -84 -340 -222 -252 -173 -449 -339 -661 -557
-150 -155 -162 -158 -174 -41 -15 149 -121 493 -147 477 -5 -4 -7 -16 -4 -29
20 -78 50 -410 50 -557 1 -166 1 -166 -33 -215 -19 -26 -48 -68 -66 -93 -105
-150 -148 -241 -131 -276 28 -59 25 -487 -4 -624 -103 -488 -451 -760 -864
-675 -131 27 -446 154 -478 192 -11 14 -38 18 -38 5 0 -4 18 -29 40 -56 49
-58 48 -50 2 -138 -21 -40 -51 -107 -66 -148 -73 -193 -104 -264 -164 -380
-36 -69 -78 -145 -93 -170 -15 -25 -43 -72 -63 -105 -19 -33 -51 -82 -70 -110
-51 -71 -43 -101 15 -57 13 10 63 39 110 65 47 25 120 67 162 94 42 26 123 77
179 113 146 91 500 328 583 389 73 54 172 108 181 98 13 -13 -25 -54 -175
-191 -150 -137 -533 -526 -582 -591 -30 -39 -27 -37 194 159 644 572 1484
1204 2110 1586 303 186 365 223 447 267 47 25 115 63 152 84 310 180 925 476
1318 635 74 30 144 59 155 64 89 41 415 159 645 233 113 37 219 72 235 78 44
16 232 71 400 119 147 41 367 93 545 130 58 12 134 28 170 36 36 8 99 18 140
23 41 6 98 15 125 20 28 6 97 15 155 21 58 5 146 15 195 21 167 21 768 14 924
-10 261 -42 232 -63 -97 -72 -284 -8 -561 -37 -548 -58 3 -5 153 -6 333 -3
254 4 373 1 528 -12 110 -9 266 -20 347 -26 145 -9 174 -16 293 -70 11 -5 49
-21 85 -35 36 -14 79 -32 95 -39 139 -63 213 -85 270 -84 65 2 290 -20 320
-32 13 -5 69 -14 125 -20 262 -29 533 -100 630 -165 88 -58 171 -107 177 -102
22 23 -346 341 -577 498 -89 61 -88 68 15 118 491 238 285 942 -265 907 -56
-3 -111 -1 -134 5 -41 11 -50 7 -61 -28 -6 -23 -6 -23 130 -23 216 0 340 -38
437 -136 220 -219 108 -606 -201 -700 -104 -31 -138 -20 -281 96 -52 42 -151
119 -220 171 -347 264 -745 517 -1042 661 -57 27 -80 60 -60 80 35 35 644 4
897 -46 73 -15 230 -42 278 -49 39 -6 33 6 -10 21 -305 106 -997 202 -1353
188 -155 -6 -155 -6 -340 63 -220 82 -219 81 -115 168 72 61 174 175 200 225
8 15 22 42 31 59 27 51 8 45 -68 -23 -126 -112 -267 -196 -426 -253 -73 -26
-73 -26 -195 4 -636 158 -1238 193 -1718 100 -64 -12 -123 -19 -132 -16 -25 9
-34 185 -12 228 45 87 46 88 255 139 47 12 110 28 140 35 530 132 1180 209
1870 220 354 6 345 6 290 16 -63 12 -816 19 -925 9z" fill="#0E0E0E"/>
<path d="M15725 18686 c-130 -30 -235 -82 -235 -116 0 -27 21 -25 90 10 158
80 343 80 399 1 49 -68 39 -134 -29 -202 -53 -53 -50 -61 10 -27 86 50 115
155 68 248 -43 84 -164 118 -303 86z" fill="#0E0E0E"/>
<path d="M4205 17286 c-502 -165 -899 -921 -816 -1552 19 -136 31 -127 31 24
0 207 32 449 77 587 70 213 122 326 205 447 235 340 530 522 771 474 206 -40
382 -192 492 -425 23 -47 32 -30 11 21 -86 209 -237 362 -419 424 -98 33 -251
33 -352 0z" fill="#0E0E0E"/>
<path d="M26360 17222 c0 -27 158 -148 174 -132 13 13 -20 48 -96 99 -58 40
-78 49 -78 33z" fill="#0E0E0E"/>
<path d="M11760 16865 c-8 -2 -37 -7 -65 -11 -105 -15 10 -22 400 -22 365 0
386 1 325 15 -60 13 -617 29 -660 18z" fill="#0E0E0E"/>
<path d="M20580 16791 c0 -34 271 -175 493 -257 254 -92 516 -283 632 -460 79
-120 90 -120 59 0 -70 273 -280 423 -864 619 -91 30 -196 67 -234 81 -74 28
-86 31 -86 17z" fill="#0E0E0E"/>
<path d="M4794 16030 c-12 -5 -53 -51 -92 -102 -39 -52 -132 -161 -206 -242
-75 -82 -136 -154 -136 -161 0 -7 44 -57 98 -112 90 -91 121 -137 146 -216 8
-27 37 -33 50 -11 99 171 194 482 217 718 13 132 -2 157 -77 126z" fill="#0E0E0E"/>
<path d="M21185 10030 c-1349 -149 -2685 -1020 -3566 -2325 -305 -451 -509
-889 -669 -1430 -126 -428 -154 -1018 -69 -1450 73 -367 273 -801 493 -1070
401 -490 934 -731 1575 -712 146 4 293 21 236 26 -5 1 -97 6 -204 11 -914 46
-1578 535 -1888 1390 -123 338 -185 851 -121 991 192 419 590 721 1378 1046
124 51 399 162 440 177 339 127 558 196 758 241 117 27 452 -14 740 -90 1075
-283 1698 -1156 1523 -2132 -24 -131 -38 -162 -128 -280 -377 -497 -881 -866
-1523 -1117 -209 -82 -240 -94 -285 -105 -22 -6 -47 -15 -55 -21 -25 -16 51
-12 84 5 15 8 35 15 42 15 16 0 276 84 309 100 11 5 52 21 90 36 918 352 1646
1116 1964 2061 11 33 25 72 30 85 5 12 19 57 32 98 12 41 28 97 36 123 63 205
130 594 168 977 80 799 -10 1933 -205 2565 -5 17 -21 71 -36 120 -42 141 -102
319 -151 449 -59 154 -62 150 98 156 124 5 124 5 39 23 -276 56 -803 74 -1135
37z m792 -72 c38 -49 255 -801 308 -1063 8 -38 25 -124 39 -190 180 -870 195
-1787 41 -2598 -13 -70 -27 -132 -30 -137 -10 -16 -35 -11 -42 8 -104 297
-310 571 -591 782 -527 398 -1375 504 -2226 280 -61 -16 -137 -36 -170 -45
-205 -55 -641 -214 -901 -330 -16 -8 -124 -55 -240 -106 -605 -265 -983 -528
-1115 -777 -66 -124 -86 -106 -60 53 102 626 343 1207 756 1822 304 453 885
1092 1005 1107 506 60 729 113 1214 290 558 204 1014 485 1306 804 61 67 69
73 122 82 144 27 567 39 584 18z m-849 -66 c4 -28 -48 -80 -212 -209 -254
-202 -443 -311 -826 -478 -135 -59 -357 -128 -615 -189 -60 -15 -135 -33 -165
-41 -30 -8 -84 -22 -120 -31 -63 -16 -134 -35 -254 -69 -197 -55 -4 112 481
416 116 73 355 198 499 261 352 154 658 256 954 318 58 12 130 27 160 35 75
17 94 15 98 -13z m-368 -2880 c660 -104 1175 -469 1384 -979 48 -117 96 -346
96 -459 0 -67 -81 -296 -184 -521 -31 -67 -56 -125 -56 -129 0 -17 -44 -64
-59 -64 -17 0 -19 16 -24 178 -17 519 -310 1096 -730 1436 -325 262 -768 445
-1169 481 -82 8 -125 27 -99 44 13 8 107 24 211 35 102 11 512 -3 630 -22z" fill="#0E0E0E"/>
<path d="M10490 7185 c0 -3 17 -12 37 -20 330 -138 135 -594 -215 -501 -112
30 -196 105 -310 276 -74 112 -146 199 -156 189 -4 -3 7 -23 24 -44 17 -21 54
-81 82 -134 129 -241 203 -310 374 -346 205 -44 379 69 423 273 25 119 -37
241 -149 291 -40 18 -110 29 -110 16z" fill="#0E0E0E"/>
</g>
</svg>
