<?xml version="1.0" encoding="UTF-8"?>
<svg version="1.1" xmlns="http://www.w3.org/2000/svg" width="800" height="800" viewBox="0 0 3200.000000 3200.000000">
<g transform="translate(0.000000,3200.000000) scale(0.100000,-0.100000)">





























<path d="M17495 31241 c-22 -10 -46 -29 -52 -42 -68 -133 -13 -209 287 -388
115 -69 350 -142 665 -205 66 -14 161 -30 210 -36 50 -6 149 -20 220 -30 159
-23 401 -38 860 -50 193 -6 436 -15 540 -20 218 -10 974 -26 2009 -40 591 -9
752 -14 905 -30 231 -24 433 -37 711 -45 145 -5 267 -14 375 -30 203 -30 230
-33 461 -45 131 -7 229 -18 311 -35 67 -14 191 -29 283 -35 155 -11 204 -18
375 -54 39 -8 133 -20 210 -26 80 -6 179 -21 233 -35 51 -13 138 -29 195 -36
56 -6 158 -24 227 -39 69 -16 177 -33 241 -39 64 -6 143 -20 175 -32 32 -11
117 -29 188 -39 71 -11 164 -31 207 -45 42 -13 124 -29 181 -35 56 -5 144 -21
193 -34 50 -14 137 -31 195 -40 58 -8 139 -26 180 -40 41 -13 118 -29 170 -36
52 -7 136 -25 185 -40 50 -15 113 -30 140 -34 47 -6 180 -37 470 -107 172 -42
183 -39 192 44 4 33 1 46 -14 59 -44 41 -381 193 -603 273 -36 13 -121 44
-190 70 -69 26 -159 57 -201 70 -42 12 -93 32 -112 44 -20 12 -64 27 -99 32
-35 6 -80 22 -101 36 -21 13 -71 32 -110 43 -40 10 -88 27 -107 38 -19 12 -69
28 -110 38 -41 9 -95 27 -120 39 -25 13 -82 30 -126 38 -45 9 -101 25 -124 37
-23 12 -80 28 -128 36 -47 9 -113 26 -145 40 -33 13 -100 31 -149 39 -48 9
-109 25 -135 36 -26 11 -93 27 -148 35 -55 8 -138 26 -185 39 -47 13 -137 31
-200 40 -63 8 -144 24 -178 35 -35 11 -121 27 -190 35 -70 9 -174 26 -232 40
-58 13 -157 29 -220 35 -63 6 -180 22 -260 35 -80 14 -217 31 -305 40 -88 8
-230 24 -314 35 -85 11 -256 27 -380 35 -125 8 -291 22 -371 30 -523 52 -1122
69 -2965 85 -1093 10 -1609 22 -1805 40 -263 25 -490 54 -665 86 -104 19 -202
34 -216 34 -14 0 -61 9 -105 21 -190 49 -361 62 -429 30z" fill="{{blush}}"/>
<path d="M6850 28793 c-75 -27 -130 -85 -164 -173 -10 -25 -26 -54 -36 -65
-10 -11 -39 -56 -65 -100 -58 -97 -145 -213 -280 -376 -33 -39 -69 -83 -80
-98 -21 -28 -88 -111 -122 -151 -105 -123 -180 -208 -248 -280 -44 -47 -102
-110 -130 -140 -27 -30 -99 -109 -161 -175 -62 -66 -129 -139 -151 -163 -76
-86 -580 -606 -874 -902 -79 -80 -221 -226 -314 -325 -94 -99 -217 -227 -275
-285 -58 -58 -145 -149 -194 -201 -49 -51 -133 -140 -186 -195 -157 -163 -319
-346 -483 -543 -48 -58 -103 -124 -122 -146 -37 -42 -169 -211 -195 -249 -8
-11 -29 -38 -47 -59 -18 -20 -33 -42 -33 -47 0 -6 -17 -29 -38 -53 -21 -23
-59 -71 -85 -107 -25 -36 -55 -76 -65 -90 -44 -59 -196 -288 -214 -325 -11
-22 -26 -47 -33 -55 -15 -18 -132 -240 -193 -365 -42 -86 -114 -272 -162 -420
-12 -38 -33 -95 -45 -125 -13 -30 -30 -96 -39 -145 -8 -50 -22 -109 -30 -133
-50 -141 -38 -283 24 -290 27 -3 108 93 125 148 8 27 84 169 166 310 27 47 56
100 64 118 8 19 28 50 44 70 15 21 54 82 85 137 32 55 68 116 80 135 13 19 42
67 66 105 23 39 60 96 81 127 22 31 39 61 39 66 0 4 17 32 38 60 37 52 84 124
112 172 8 14 30 46 48 70 18 25 61 83 95 128 201 272 350 446 707 827 47 50
189 203 315 340 127 137 293 310 370 385 222 214 932 927 1020 1024 44 48 217
226 383 394 354 358 515 533 719 781 43 52 87 105 98 117 11 13 40 48 65 79
25 31 62 77 83 101 20 25 37 50 37 55 0 5 19 29 43 52 23 23 58 62 77 86 19
25 47 58 61 75 14 17 49 67 77 111 28 44 61 96 73 115 179 278 195 512 40 579
-47 20 -134 27 -171 14z" fill="{{blush}}"/>
<path d="M22850 26789 c-30 -4 -115 -13 -189 -19 -84 -7 -166 -21 -220 -37
-47 -14 -120 -32 -161 -40 -41 -8 -97 -25 -125 -38 -28 -14 -83 -31 -124 -40
-40 -8 -91 -26 -114 -39 -23 -13 -67 -29 -97 -35 -30 -7 -71 -23 -90 -36 -19
-13 -66 -31 -105 -40 -38 -9 -86 -27 -105 -40 -19 -13 -51 -26 -70 -30 -19 -4
-65 -23 -101 -41 -36 -19 -71 -34 -79 -34 -40 0 -758 -357 -898 -446 -29 -19
-55 -34 -58 -34 -6 0 -120 -68 -209 -125 -261 -168 -273 -176 -385 -259 -186
-138 -330 -293 -330 -355 0 -29 48 -81 75 -81 26 0 111 36 121 51 3 6 29 26
58 45 28 19 83 56 121 83 39 27 93 63 120 79 28 16 88 52 135 81 47 29 105 64
130 78 25 13 72 40 105 60 149 88 309 172 585 306 239 115 296 142 360 167 30
12 69 30 86 41 17 10 58 27 91 37 34 11 74 29 90 40 16 11 52 26 79 33 27 6
72 24 99 40 28 15 73 33 100 40 28 6 75 24 105 39 30 15 82 33 115 40 33 7 79
23 101 36 23 14 75 31 116 39 41 8 96 25 124 39 27 14 83 31 124 37 41 6 96
22 121 35 25 12 85 30 132 38 48 8 108 25 134 36 27 12 81 28 121 36 40 8 101
25 135 38 34 13 85 31 114 41 80 25 96 67 41 108 -42 32 -246 46 -378 26z" fill="{{blush}}"/>
<path d="M28645 26244 c-38 -7 -94 -22 -124 -33 -29 -12 -108 -31 -175 -42
-66 -11 -152 -28 -191 -39 -38 -10 -124 -26 -190 -35 -66 -9 -172 -25 -235
-35 -341 -56 -1372 -63 -1660 -12 -152 27 -270 41 -585 68 -38 3 -115 12 -170
20 -74 11 -269 17 -740 23 -695 9 -936 3 -1169 -29 -83 -11 -200 -27 -261 -35
-137 -19 -241 -43 -465 -107 -96 -28 -208 -59 -248 -70 -83 -21 -210 -76 -332
-142 -47 -26 -114 -60 -150 -77 -36 -17 -76 -37 -90 -45 -14 -8 -52 -28 -85
-45 -33 -16 -71 -36 -85 -44 -14 -8 -50 -26 -80 -39 -30 -14 -66 -32 -80 -40
-14 -8 -43 -24 -65 -35 -22 -10 -74 -37 -115 -59 -41 -22 -106 -57 -145 -77
-38 -20 -75 -41 -81 -46 -7 -5 -40 -23 -73 -39 -34 -17 -95 -56 -135 -88 -41
-31 -87 -65 -103 -74 -15 -10 -59 -41 -98 -68 -38 -28 -86 -62 -105 -75 -19
-13 -62 -45 -95 -69 -33 -25 -78 -58 -100 -73 -63 -43 -360 -269 -470 -356
-308 -246 -452 -391 -963 -971 -73 -83 -196 -211 -273 -285 -115 -109 -155
-155 -218 -251 -210 -318 -246 -490 -104 -490 42 0 26 -11 311 203 137 102
145 108 156 104 22 -7 16 -66 -13 -146 -17 -46 -35 -118 -41 -161 -6 -44 -22
-112 -36 -152 -49 -145 -56 -398 -13 -444 53 -57 97 -27 296 199 184 211 449
477 629 632 129 111 160 131 221 141 23 3 48 12 54 20 6 8 18 14 26 14 7 0 36
21 64 47 50 47 50 47 85 28 55 -29 86 6 60 67 -9 21 64 78 100 78 27 0 38 11
62 59 28 57 97 64 107 12 13 -62 58 -131 86 -131 52 0 50 69 -2 96 -16 8 -35
27 -41 42 -7 15 -20 34 -29 42 -21 19 -9 60 18 60 10 0 55 -35 99 -79 65 -63
89 -80 121 -85 22 -4 73 -24 114 -45 41 -21 155 -79 254 -130 99 -50 200 -97
225 -103 25 -6 67 -22 95 -36 27 -13 89 -35 138 -48 48 -13 101 -31 118 -39
16 -9 67 -20 112 -25 46 -6 116 -21 157 -35 111 -38 261 -49 670 -49 395 0
504 9 623 49 40 13 109 28 154 34 44 6 119 23 165 39 45 16 101 32 122 36 22
4 65 20 95 36 31 15 72 31 91 35 19 4 64 22 100 40 36 17 81 38 100 45 19 7
46 21 60 30 14 9 48 25 75 36 28 10 89 43 138 74 48 30 109 69 136 86 203 127
622 511 724 664 20 30 59 84 85 120 50 68 81 117 132 213 18 34 41 63 56 69
15 7 36 33 50 61 17 32 30 47 39 43 22 -8 29 13 31 89 1 76 15 115 40 115 13
0 15 -8 10 -43 -9 -61 11 -88 48 -64 31 21 32 30 6 68 -21 28 -21 28 5 35 31
8 104 -18 143 -50 15 -13 42 -28 61 -34 19 -7 48 -23 65 -35 17 -13 59 -36 93
-52 34 -15 70 -36 79 -46 9 -11 22 -19 28 -19 25 0 191 -91 226 -124 21 -20
43 -36 50 -36 6 0 28 -8 48 -19 20 -10 59 -29 86 -42 90 -44 81 -87 -14 -62
-70 18 -124 14 -128 -9 -6 -30 32 -40 97 -27 69 13 101 2 101 -35 0 -27 24
-51 40 -41 6 4 10 23 8 44 -5 59 32 56 98 -10 30 -29 54 -57 54 -61 0 -4 13
-21 29 -38 27 -30 40 -73 44 -154 2 -25 -3 -31 -30 -38 -36 -9 -44 -36 -18
-58 23 -19 48 -8 57 28 9 35 28 41 52 16 20 -20 20 -43 0 -72 -14 -21 -14 -27
0 -69 9 -26 16 -59 16 -75 0 -16 8 -45 19 -66 75 -147 100 -365 107 -907 3
-236 7 -449 10 -472 10 -79 78 -129 116 -85 21 23 83 166 98 222 6 25 18 55
26 68 8 12 27 57 43 100 164 442 459 1106 606 1362 8 14 24 45 35 70 12 25 41
81 65 125 24 44 53 100 66 125 12 25 34 61 49 80 15 19 32 50 38 69 7 19 23
48 36 65 12 17 34 54 48 81 127 256 126 255 376 305 112 22 211 44 220 49 9 4
51 16 92 25 92 21 345 100 420 131 30 13 75 29 100 35 24 7 65 22 90 35 25 13
66 28 90 35 25 6 75 27 112 46 37 19 73 34 81 34 7 0 49 18 92 40 43 22 84 40
90 40 6 0 35 16 64 35 30 18 68 37 85 41 17 4 49 19 71 34 22 15 58 33 80 40
22 7 54 23 71 36 17 13 55 32 84 43 29 11 62 29 74 40 12 11 41 27 65 36 24 8
60 29 80 46 20 16 46 39 59 49 29 24 28 56 -3 76 -21 14 -44 16 -143 11 -64
-3 -243 -11 -398 -18 -390 -17 -1261 16 -1454 56 -36 8 -123 19 -195 25 -71 6
-184 15 -250 21 -66 6 -161 19 -210 30 -50 10 -144 25 -209 33 -166 19 -175
36 -46 90 37 14 111 52 165 82 190 106 311 171 513 274 40 21 81 44 90 52 9 8
29 19 44 26 43 18 63 55 46 88 -18 37 -42 43 -123 28z m-5312 -1683 c26 -25
34 -141 18 -236 -28 -161 -260 -492 -394 -561 -41 -22 -277 4 -364 39 -35 14
-88 31 -120 37 -153 32 -398 208 -418 300 -11 49 22 74 166 126 68 25 173 63
233 85 98 36 118 40 190 38 79 -3 82 -2 148 38 102 64 138 79 208 92 36 6 106
25 155 41 99 33 146 33 178 1z" fill="{{blush}}"/>
<path d="M25762 24333 c-19 -4 -21 -8 -15 -26 4 -12 8 -41 8 -65 0 -32 4 -43
17 -48 27 -8 40 5 34 32 -4 14 0 37 10 55 26 51 12 64 -54 52z" fill="{{blush}}"/>
<path d="M25615 24200 c-12 -20 17 -40 56 -40 46 0 57 13 27 34 -26 18 -74 21
-83 6z" fill="{{blush}}"/>
<path d="M25890 24191 c-31 -4 -45 -11 -45 -21 0 -32 117 -19 123 13 4 18 0
18 -78 8z" fill="{{blush}}"/>
<path d="M26453 23813 c-34 -13 10 -59 45 -46 24 10 -4 59 -30 52 -2 0 -9 -3
-15 -6z" fill="{{blush}}"/>
<path d="M26685 23739 c-41 -36 -43 -48 -12 -77 31 -29 45 -16 53 51 8 66 6
67 -41 26z" fill="{{blush}}"/>
<path d="M20364 22975 c-8 -21 2 -45 19 -45 20 0 40 27 33 45 -7 19 -45 20
-52 0z" fill="{{blush}}"/>
<path d="M20312 22914 c-26 -18 -31 -71 -6 -81 22 -8 44 17 51 60 6 42 -7 48
-45 21z" fill="{{blush}}"/>
<path d="M26420 21375 c-25 -7 -67 -24 -95 -39 -36 -18 -83 -30 -165 -42 -63
-8 -144 -22 -179 -30 -114 -27 -410 -33 -1481 -34 -1087 0 -1466 -10 -1718
-45 -59 -8 -204 -19 -322 -25 -118 -6 -276 -20 -350 -31 -74 -11 -215 -29
-312 -39 -98 -11 -197 -24 -221 -29 -23 -6 -108 -21 -187 -35 -161 -28 -380
-78 -570 -130 -69 -19 -177 -48 -240 -65 -165 -45 -232 -99 -202 -166 9 -20
19 -25 50 -25 57 0 266 29 362 50 47 10 177 30 290 45 113 14 239 32 280 40
41 8 136 21 210 30 74 8 178 20 230 26 52 6 129 17 170 25 41 8 140 19 220 24
174 13 420 36 590 56 182 22 583 33 1480 39 1097 7 1365 13 1500 30 63 9 177
22 252 29 251 26 486 123 532 220 46 98 -10 154 -124 121z" fill="{{blush}}"/>
<path d="M7116 20589 c-32 -5 -83 -17 -111 -28 -29 -11 -92 -27 -140 -36 -49
-9 -113 -29 -144 -45 -31 -15 -80 -30 -109 -33 -31 -4 -75 -18 -105 -35 -29
-16 -77 -35 -107 -42 -30 -7 -71 -23 -90 -35 -19 -13 -62 -31 -95 -41 -33 -9
-83 -30 -111 -45 -28 -16 -57 -29 -65 -29 -8 0 -45 -15 -84 -34 -38 -18 -145
-70 -236 -115 -91 -44 -169 -81 -173 -81 -3 0 -57 -28 -118 -61 -172 -94 -192
-105 -236 -133 -23 -14 -45 -26 -50 -26 -5 0 -28 -13 -53 -29 -24 -15 -89 -57
-144 -92 -283 -180 -555 -421 -555 -492 0 -27 26 -73 56 -96 48 -38 74 -29
243 83 175 117 411 263 516 321 39 21 88 51 110 65 22 15 62 37 90 49 27 12
59 30 70 40 11 10 40 26 64 35 25 10 56 25 70 35 14 10 42 23 61 31 19 7 55
26 80 41 25 16 64 35 87 43 22 8 58 25 79 39 22 13 57 30 79 37 22 7 56 24 75
36 20 13 59 31 88 39 29 9 68 26 87 39 19 13 58 29 87 36 29 7 76 25 103 40
28 15 75 33 105 40 30 7 75 23 100 36 25 13 79 31 120 40 41 9 92 25 112 35
21 11 70 26 110 34 40 9 107 26 148 40 41 13 95 27 120 30 25 4 99 22 165 40
66 19 138 37 160 41 119 21 142 158 30 184 -49 12 -408 11 -489 -1z" fill="{{blush}}"/>
<path d="M26223 20450 c-56 -25 -83 -70 -83 -137 0 -72 15 -98 83 -143 74 -50
104 -51 173 -5 70 47 84 69 84 130 -1 129 -135 211 -257 155z" fill="{{blush}}"/>
<path d="M7470 19760 c-302 -19 -743 -75 -960 -124 -214 -47 -267 -60 -375
-93 -66 -20 -142 -47 -169 -61 -27 -13 -67 -30 -89 -38 -22 -8 -61 -27 -87
-43 -25 -16 -57 -32 -71 -36 -13 -4 -42 -20 -64 -35 -22 -15 -54 -36 -71 -46
-17 -11 -64 -41 -104 -69 -40 -27 -87 -59 -105 -70 -18 -11 -51 -36 -73 -55
-22 -19 -58 -47 -79 -63 -411 -298 -818 -690 -1181 -1139 -43 -54 -95 -123
-122 -163 -8 -12 -44 -54 -79 -94 -36 -40 -76 -90 -90 -111 -28 -42 -130 -179
-185 -250 -47 -60 -170 -228 -231 -315 -50 -72 -167 -232 -215 -295 -15 -20
-40 -60 -55 -90 -29 -58 -48 -86 -105 -153 -20 -23 -48 -59 -63 -79 -98 -133
-463 -463 -732 -661 -215 -159 -245 -187 -245 -224 0 -83 145 -86 435 -9 55
15 129 36 164 48 53 17 65 18 72 7 14 -23 24 -6 -133 -230 -137 -195 -409
-498 -663 -739 -227 -215 -512 -458 -577 -491 -61 -31 -87 -109 -48 -144 23
-21 99 -16 149 9 16 9 77 22 134 30 57 9 128 24 157 36 29 11 76 25 104 31 48
10 207 59 326 102 239 85 301 110 505 206 154 73 243 118 274 140 14 10 46 27
71 38 25 11 90 49 146 84 55 35 107 69 116 74 58 36 157 107 167 119 23 27
118 58 163 53 24 -2 115 -12 202 -21 100 -11 180 -25 215 -38 31 -11 101 -29
156 -39 55 -9 129 -28 165 -42 36 -13 95 -30 132 -36 37 -6 89 -21 115 -32 27
-11 86 -31 133 -44 47 -13 126 -37 175 -54 50 -16 144 -46 210 -66 66 -20 156
-50 201 -66 125 -45 184 -35 184 29 0 56 -15 74 -130 166 -206 166 -479 457
-520 557 -7 16 -15 29 -19 29 -4 0 -22 29 -40 65 -19 36 -37 65 -41 65 -5 0
-18 17 -31 38 -12 20 -34 50 -48 65 -46 50 -39 295 9 340 34 31 35 34 36 108
0 84 16 135 44 142 23 6 30 0 30 -25 0 -10 5 -18 10 -18 13 0 13 41 -1 77 -17
45 -2 120 32 154 15 16 35 51 43 79 10 32 28 63 51 84 23 22 35 42 35 60 0 32
19 73 29 60 33 -47 151 -43 151 5 0 30 -35 55 -59 42 -13 -7 -28 -8 -45 -1
-31 11 -20 57 21 90 14 11 38 46 53 77 51 105 147 133 180 53 7 -16 16 -28 20
-25 14 8 85 -16 102 -36 9 -11 29 -19 46 -19 38 0 79 -33 87 -70 9 -41 22 -46
50 -20 23 22 29 22 122 16 111 -8 266 -36 333 -61 76 -27 191 -35 555 -35 395
-1 524 8 651 44 49 14 119 30 156 37 107 18 477 151 586 211 359 196 549 340
762 576 102 112 216 273 272 382 16 30 35 66 43 80 39 65 95 212 105 275 7 39
23 95 36 125 27 63 61 255 68 382 5 96 9 108 34 108 32 0 93 -21 87 -30 -3 -5
-1 -12 5 -15 6 -4 8 -15 5 -26 -5 -15 -1 -19 20 -19 22 0 25 3 20 20 -5 17 -2
20 23 20 30 0 62 -33 62 -63 0 -8 7 -20 15 -27 19 -16 45 3 45 31 0 25 54 52
88 44 15 -3 63 1 107 10 140 26 332 15 500 -30 50 -13 128 -29 175 -36 47 -7
113 -23 148 -35 107 -41 192 -29 192 25 0 77 -35 114 -277 293 -40 29 -85 61
-100 71 -15 9 -42 27 -59 40 -18 12 -45 30 -60 40 -16 9 -56 35 -89 57 -33 22
-90 56 -127 75 -61 32 -88 57 -88 83 0 6 44 34 98 63 271 146 321 193 298 284
-10 39 -38 46 -199 49 -84 2 -199 11 -257 20 -145 22 -606 73 -835 91 -104 9
-233 20 -285 26 -126 12 -1058 20 -1230 9z m105 -1220 c30 -33 33 -168 6 -277
-36 -148 -41 -161 -87 -251 -68 -130 -96 -170 -130 -187 -161 -77 -631 -9
-757 109 -7 6 -38 33 -70 60 -122 102 -117 121 63 211 137 68 232 100 325 108
54 5 63 10 95 45 25 28 51 45 90 57 30 9 73 27 95 40 22 12 70 29 106 38 36 9
90 28 120 42 67 31 119 33 144 5z" fill="{{blush}}"/>
<path d="M10430 16831 c-58 -20 -124 -46 -147 -58 -23 -13 -49 -23 -57 -23 -8
0 -44 -15 -80 -34 -36 -19 -83 -40 -103 -46 -21 -7 -58 -24 -82 -38 -25 -14
-70 -39 -100 -55 -132 -71 -240 -134 -286 -167 -16 -11 -53 -35 -82 -53 -65
-40 -228 -152 -268 -184 -16 -13 -57 -43 -90 -67 -166 -117 -554 -420 -741
-576 -49 -41 -109 -91 -134 -111 -25 -20 -61 -51 -80 -70 -39 -36 -114 -98
-175 -144 -44 -32 -77 -60 -141 -117 -22 -21 -45 -38 -50 -38 -4 0 -20 -11
-34 -25 -15 -14 -68 -54 -119 -88 -430 -291 -563 -378 -655 -424 -28 -14 -63
-34 -77 -44 -14 -10 -45 -25 -70 -35 -24 -10 -61 -28 -82 -41 -21 -13 -68 -33
-105 -45 -37 -11 -84 -29 -105 -40 -21 -10 -77 -25 -123 -33 -189 -30 -251
-115 -148 -200 57 -47 111 -55 205 -30 35 10 96 23 134 30 147 28 458 176 709
339 45 29 95 61 112 72 42 26 159 107 214 149 25 19 70 53 100 75 30 22 75 56
100 76 25 19 63 49 85 65 22 17 58 45 80 64 156 133 193 163 214 175 13 7 58
40 99 74 126 103 166 135 192 153 14 10 66 51 116 93 205 169 243 199 329 265
50 37 122 96 161 129 39 34 84 69 100 78 16 10 58 40 94 68 36 27 88 66 115
85 28 19 74 52 103 72 153 110 350 238 440 289 20 11 59 35 86 52 28 18 55 32
61 32 6 0 26 13 45 28 19 16 58 41 85 57 47 28 76 44 215 120 98 54 149 122
123 164 -16 26 -71 21 -183 -18z" fill="{{blush}}"/>
<path d="M5271 16621 c-38 -24 -51 -95 -20 -111 36 -20 49 -6 49 54 0 57 -7
70 -29 57z" fill="{{blush}}"/>
<path d="M5336 16434 c-28 -28 -16 -74 20 -74 10 0 22 49 17 69 -6 25 -16 26
-37 5z" fill="{{blush}}"/>
<path d="M5173 16283 c-16 -6 -17 -65 -1 -81 17 -17 38 4 38 38 0 30 -18 50
-37 43z" fill="{{blush}}"/>
<path d="M14121 16031 c-35 -35 -86 -210 -106 -371 -4 -30 -20 -80 -35 -110
-15 -30 -32 -77 -39 -104 -7 -27 -23 -68 -36 -90 -13 -23 -33 -66 -45 -98 -11
-31 -27 -61 -35 -68 -8 -6 -21 -34 -30 -60 -9 -27 -27 -66 -41 -86 -14 -20
-33 -58 -43 -85 -10 -26 -28 -60 -40 -75 -60 -77 3 -205 208 -417 201 -208
442 -346 610 -349 97 -2 111 86 29 182 -29 34 -66 81 -83 104 -76 108 -132
190 -150 221 -12 18 -28 42 -37 52 -9 10 -25 38 -36 63 -10 25 -31 63 -46 84
-37 55 -37 146 0 202 20 29 29 59 36 119 4 44 18 141 29 217 54 346 -15 764
-110 669z" fill="{{blush}}"/>
<path d="M4687 15549 c-14 -8 -16 -14 -6 -25 19 -23 51 -18 47 8 -4 26 -17 31
-41 17z" fill="{{blush}}"/>
<path d="M17955 11631 c-55 -5 -145 -16 -200 -25 -55 -9 -156 -23 -225 -31
-69 -8 -152 -24 -185 -34 -33 -10 -108 -26 -167 -35 -59 -9 -136 -27 -172 -40
-36 -14 -103 -30 -148 -36 -49 -6 -109 -22 -148 -39 -36 -16 -99 -34 -140 -41
-41 -6 -99 -22 -130 -35 -30 -14 -87 -31 -126 -39 -38 -8 -92 -26 -120 -39
-27 -14 -73 -30 -102 -36 -29 -6 -69 -19 -90 -30 -20 -10 -70 -29 -111 -41
-41 -12 -84 -28 -96 -36 -12 -8 -54 -25 -95 -39 -40 -14 -78 -29 -84 -34 -6
-4 -75 -38 -154 -75 -126 -58 -188 -92 -367 -197 -45 -26 -177 -116 -245 -167
-85 -64 -202 -177 -221 -214 -28 -56 -77 -251 -89 -358 -5 -52 -12 -106 -15
-120 -60 -305 -100 -1770 -57 -2080 30 -211 153 -694 221 -868 17 -42 51 -129
75 -192 24 -63 60 -149 80 -190 20 -41 36 -79 36 -85 0 -6 14 -33 31 -60 17
-28 38 -68 46 -90 7 -21 22 -49 33 -60 10 -11 27 -40 38 -65 11 -25 26 -51 34
-58 8 -6 23 -31 33 -54 11 -24 31 -61 45 -83 15 -22 40 -60 56 -84 202 -306
490 -592 709 -704 78 -40 104 -97 105 -227 0 -144 38 -484 64 -582 14 -51 30
-122 36 -158 7 -36 20 -81 31 -100 11 -19 32 -73 48 -120 66 -193 83 -236 105
-275 13 -22 29 -58 36 -80 16 -49 102 -217 130 -252 11 -14 20 -31 20 -37 0
-7 14 -34 32 -62 18 -27 40 -65 49 -85 9 -20 31 -55 48 -79 17 -24 31 -47 31
-53 0 -5 12 -23 26 -40 14 -16 39 -55 55 -86 32 -60 63 -107 101 -156 14 -16
35 -48 48 -70 13 -22 36 -56 50 -75 15 -19 47 -62 71 -95 153 -209 269 -319
301 -287 15 15 -9 139 -37 193 -13 25 -31 75 -40 110 -9 35 -32 91 -50 124
-18 33 -43 92 -55 130 -13 39 -29 83 -38 100 -8 16 -21 56 -29 89 -7 33 -22
73 -32 90 -22 37 -51 158 -51 217 0 29 -7 50 -24 70 -22 26 -46 103 -46 148 0
10 -13 42 -29 72 -15 30 -36 89 -45 131 -10 43 -31 114 -47 158 -16 44 -36
119 -44 165 -8 46 -21 101 -30 121 -8 20 -24 81 -35 136 -11 54 -29 120 -39
146 -11 26 -24 83 -31 127 -6 44 -24 118 -39 165 -16 47 -31 111 -35 143 -3
33 -15 78 -26 101 -10 23 -26 82 -34 132 -18 100 -42 196 -81 324 -92 295 -97
366 -31 394 27 11 34 21 44 67 35 150 28 222 -27 282 -48 53 -107 176 -115
242 -5 37 -14 58 -40 85 -18 19 -39 46 -47 60 -12 25 -12 25 -25 -5 -7 -16
-10 -33 -7 -38 2 -4 2 -16 -2 -27 -11 -34 -31 -11 -43 49 -7 32 -23 74 -37 92
-25 34 -30 43 -71 134 -13 28 -29 61 -37 75 -34 58 -97 199 -112 250 -9 30
-25 69 -35 85 -9 17 -25 55 -35 85 -10 30 -26 69 -35 85 -10 17 -26 57 -35 90
-9 33 -27 76 -40 96 -13 20 -31 63 -41 95 -9 31 -29 75 -45 97 -15 21 -33 64
-39 95 -7 31 -22 75 -35 98 -13 23 -33 73 -44 113 -11 40 -29 87 -41 106 -11
18 -27 56 -36 85 -8 28 -37 93 -64 143 -27 51 -102 196 -166 322 -206 408
-286 521 -411 582 -85 40 -91 55 -74 174 5 41 13 112 17 159 3 47 19 127 35
179 17 56 29 116 29 150 0 84 19 220 35 251 35 67 134 160 240 225 19 12 42
28 52 37 21 18 143 92 222 134 29 16 88 48 130 71 42 23 96 51 121 63 25 11
77 36 115 55 39 19 77 35 85 35 8 0 48 15 90 34 131 58 233 97 294 112 32 8
81 26 108 40 27 14 81 32 121 41 40 9 96 26 125 39 29 13 89 30 133 39 44 8
104 26 133 40 34 16 87 29 142 36 49 6 114 21 144 34 73 31 78 33 201 45 61 6
138 21 180 35 45 16 116 29 188 36 159 14 226 25 293 49 120 42 420 29 504
-21 17 -10 62 -25 100 -33 81 -17 120 -31 128 -45 4 -5 45 -22 93 -36 47 -15
98 -36 114 -47 22 -16 54 -23 151 -32 102 -9 131 -16 168 -38 25 -14 56 -29
70 -33 14 -4 43 -21 65 -37 22 -16 76 -51 119 -78 44 -28 94 -63 110 -79 17
-16 49 -38 72 -49 43 -22 86 -70 99 -112 4 -14 29 -68 55 -120 71 -142 150
-315 150 -330 0 -7 13 -39 30 -71 16 -32 37 -84 46 -116 9 -32 29 -83 44 -113
15 -31 30 -80 33 -114 4 -38 14 -70 31 -95 23 -34 37 -79 51 -162 3 -21 14
-48 25 -62 11 -14 29 -63 40 -109 12 -46 30 -100 41 -120 15 -29 49 -171 49
-209 0 -3 14 -21 30 -39 39 -44 48 -79 56 -232 7 -135 2 -158 -37 -158 -28 0
-45 44 -57 152 -7 53 -14 103 -18 111 -7 19 -46 30 -55 15 -11 -17 1 -178 17
-233 8 -27 21 -90 28 -140 8 -49 20 -116 26 -147 15 -82 67 -238 86 -259 9
-10 19 -47 24 -82 4 -36 11 -70 14 -75 3 -5 10 -46 15 -91 13 -117 56 -154
111 -96 35 37 31 81 -10 138 -53 74 -80 172 -64 228 8 24 14 54 14 67 0 39 17
24 24 -21 5 -30 18 -56 40 -80 25 -28 36 -52 45 -99 8 -40 24 -81 46 -113 25
-36 37 -69 45 -120 6 -38 21 -97 34 -130 13 -33 29 -91 36 -130 15 -93 83
-264 137 -347 23 -37 43 -70 43 -73 0 -4 8 -19 19 -33 28 -41 128 -229 253
-477 50 -99 57 -117 116 -285 65 -186 172 -442 197 -470 7 -8 28 -42 46 -74
37 -68 66 -114 109 -172 16 -23 30 -45 30 -51 0 -5 19 -36 42 -69 22 -32 61
-97 85 -144 110 -216 225 -269 269 -124 8 26 23 62 33 80 11 18 30 69 42 114
15 56 38 107 77 168 30 48 64 103 75 122 11 19 39 64 62 100 23 36 54 92 70
125 28 63 41 85 188 313 98 151 140 226 150 262 10 40 27 10 27 -50 0 -48 -5
-64 -25 -89 -20 -23 -29 -51 -39 -118 -8 -48 -24 -110 -37 -138 -28 -60 -41
-264 -19 -290 34 -41 84 6 95 88 4 29 19 72 35 97 30 48 44 100 56 195 3 33
17 78 30 100 17 29 26 67 33 140 6 61 20 128 36 168 36 96 45 204 45 532 0
328 -9 438 -40 510 -12 28 -28 88 -36 134 -9 46 -26 105 -38 130 -13 25 -31
72 -40 103 -9 32 -25 72 -36 91 -11 18 -26 50 -33 72 -20 56 -109 236 -160
322 -96 163 -115 193 -190 298 -201 282 -405 516 -602 691 -60 54 -130 117
-155 140 -64 60 -380 310 -474 374 -11 8 -57 42 -101 76 -45 34 -99 73 -120
88 -22 15 -65 45 -95 67 -69 50 -146 104 -214 149 -29 19 -102 67 -162 107
-60 40 -123 82 -141 95 -18 13 -65 42 -105 66 -40 24 -125 74 -188 112 -63 37
-173 98 -245 135 -71 37 -142 76 -158 87 -16 11 -49 27 -75 34 -25 8 -55 23
-67 34 -12 11 -47 29 -78 39 -32 11 -69 29 -83 40 -14 11 -49 28 -77 37 -29 9
-68 27 -87 40 -19 12 -55 28 -80 34 -25 6 -65 25 -90 40 -25 16 -67 34 -95 41
-27 7 -75 25 -105 40 -30 15 -79 32 -108 38 -29 6 -79 22 -111 36 -32 13 -110
33 -172 45 -63 11 -130 24 -149 30 -49 15 -215 20 -335 11z m2491 -1798 c37
-87 57 -658 24 -678 -16 -10 -50 197 -75 463 -14 148 -13 179 2 235 8 29 33
19 49 -20z m19 -1010 c-6 -174 -23 -262 -38 -185 -17 93 4 282 32 282 5 0 7
-44 6 -97z m-4275 -2427 c10 -28 17 -203 7 -212 -14 -14 -36 7 -46 43 -29 104
6 255 39 169z" fill="{{blush}}"/>
<path d="M18840 11023 c-150 -12 -419 -44 -810 -98 -52 -7 -141 -23 -198 -34
-57 -11 -133 -26 -170 -31 -139 -22 -627 -140 -722 -175 -36 -13 -94 -31 -129
-40 -36 -9 -81 -25 -101 -35 -21 -10 -68 -26 -106 -35 -38 -9 -87 -26 -109
-39 -22 -13 -62 -29 -90 -35 -27 -7 -69 -23 -92 -37 -23 -13 -71 -33 -106 -44
-36 -11 -70 -27 -77 -35 -6 -8 -36 -23 -65 -34 -29 -11 -74 -33 -101 -50 -26
-17 -51 -31 -55 -31 -4 0 -30 -16 -59 -35 -29 -19 -58 -35 -65 -35 -8 0 -27
-12 -44 -26 -17 -14 -48 -35 -69 -47 -44 -25 -115 -71 -152 -99 -14 -10 -48
-34 -77 -53 -28 -19 -55 -40 -58 -45 -4 -6 -25 -22 -47 -37 -44 -27 -81 -66
-113 -120 -12 -18 -35 -41 -52 -51 -56 -31 -133 -94 -133 -108 0 -8 11 -31 25
-52 13 -20 34 -64 45 -97 11 -33 32 -77 46 -98 14 -22 32 -58 40 -80 8 -23 26
-59 40 -80 13 -20 33 -58 43 -85 10 -26 28 -63 39 -82 11 -19 23 -51 27 -70 4
-19 20 -57 35 -85 15 -27 31 -66 35 -85 4 -19 16 -55 26 -80 10 -25 25 -89 33
-142 10 -74 21 -109 44 -146 16 -26 33 -59 37 -73 4 -13 20 -46 35 -74 32 -57
89 -221 119 -340 11 -44 31 -107 45 -140 13 -34 31 -97 40 -141 8 -45 24 -97
35 -115 11 -19 29 -65 41 -104 29 -96 65 -135 123 -135 36 0 47 20 61 110 8
44 16 83 19 87 13 13 27 -52 27 -128 0 -71 4 -88 35 -152 24 -50 40 -103 51
-172 9 -55 27 -125 40 -156 12 -30 29 -93 37 -140 9 -46 24 -106 35 -134 11
-27 25 -82 32 -122 13 -82 20 -92 77 -123 94 -51 121 39 93 317 -26 268 -32
338 -40 458 -5 77 -21 185 -39 265 -16 74 -32 171 -36 215 -3 44 -17 153 -32
242 -25 156 -25 233 -2 233 15 0 47 -78 54 -135 9 -71 23 -138 50 -235 16 -57
28 -135 35 -235 7 -113 16 -167 34 -220 16 -45 29 -115 36 -195 7 -69 21 -159
32 -200 33 -125 37 -150 46 -277 8 -121 9 -122 45 -162 39 -43 42 -56 52 -224
4 -53 12 -119 19 -145 38 -137 45 -177 55 -282 7 -84 18 -137 39 -195 16 -44
32 -108 36 -142 10 -87 19 -109 104 -252 41 -69 96 -166 122 -216 26 -49 73
-137 105 -195 31 -58 65 -128 75 -157 10 -29 37 -79 60 -112 22 -34 49 -89 60
-123 11 -35 29 -79 41 -98 33 -53 129 -335 143 -418 7 -41 18 -77 24 -81 15
-9 42 -75 42 -103 0 -13 9 -48 20 -78 11 -30 20 -63 20 -74 0 -23 54 -199 86
-281 24 -64 37 -104 39 -120 0 -5 8 -24 17 -41 10 -17 24 -63 32 -101 8 -39
25 -92 39 -119 32 -63 47 -137 47 -228 0 -170 -70 -121 -95 66 -4 29 -16 60
-31 77 -23 28 -54 89 -51 102 4 13 -26 39 -44 39 -44 0 -126 105 -149 189 -6
24 -22 60 -34 80 -12 20 -28 52 -36 71 -7 19 -25 62 -40 95 -15 33 -33 78 -40
100 -7 22 -22 58 -33 80 -11 22 -30 71 -43 109 -13 38 -33 85 -45 105 -12 20
-30 63 -40 96 -10 33 -29 76 -42 95 -13 19 -29 55 -36 80 -7 25 -28 72 -46
105 -18 33 -36 74 -39 90 -15 62 -55 97 -70 59 -10 -27 14 -158 39 -209 13
-28 31 -82 39 -120 8 -39 27 -99 41 -135 38 -94 91 -255 110 -330 9 -36 38
-132 65 -215 57 -174 100 -336 100 -374 0 -15 9 -55 21 -90 17 -51 20 -72 13
-119 -11 -75 -7 -107 21 -162 12 -25 28 -62 34 -82 7 -21 21 -44 32 -52 11 -7
68 -58 127 -113 59 -56 123 -114 142 -129 19 -16 55 -48 80 -72 25 -24 74 -64
110 -89 36 -26 95 -73 133 -106 80 -70 249 -175 344 -212 37 -15 86 -40 108
-55 22 -15 113 -65 203 -110 187 -96 243 -103 530 -67 295 37 449 116 697 359
160 156 207 197 265 230 52 30 180 144 180 161 1 20 42 64 98 106 106 79 213
236 272 401 7 19 34 78 60 130 339 687 343 696 399 931 43 182 55 281 42 365
-6 38 -15 105 -21 149 -6 44 -26 145 -44 225 -28 121 -33 158 -29 226 11 178
-68 306 -144 235 -23 -22 -29 -19 -67 31 -32 42 -46 41 -46 -3 0 -40 60 -100
72 -72 4 12 7 7 7 -17 1 -19 10 -49 20 -67 46 -75 55 -171 20 -209 -94 -102
-278 -32 -326 125 -95 309 -153 608 -153 786 0 73 -25 223 -47 279 -11 29 -18
96 -23 226 -6 130 -14 210 -28 270 -11 47 -26 133 -32 192 -6 59 -22 139 -36
180 -14 43 -35 148 -49 256 -14 101 -29 203 -35 226 -5 22 -14 85 -20 140 -7
54 -23 127 -36 162 -20 53 -24 83 -24 167 0 84 -5 115 -26 172 -14 39 -29 98
-35 133 -5 34 -20 93 -32 130 -13 37 -29 92 -36 122 -61 270 -100 412 -247
910 -18 63 -36 129 -40 145 -4 17 -15 46 -25 66 -10 20 -27 74 -39 120 -12 46
-30 98 -40 115 -11 16 -28 67 -39 113 -10 45 -28 92 -39 104 -29 32 -39 55
-52 124 -15 75 -25 90 -67 102 -31 9 -33 8 -40 -17 -11 -44 -9 -151 6 -242 21
-124 2 -230 -39 -230 -5 0 -12 17 -15 38 -16 92 -35 109 -52 42 -10 -39 -36
-51 -48 -23 -4 10 -11 57 -15 105 -6 77 -10 90 -37 121 -33 38 -37 51 -53 165
-6 40 -21 94 -34 120 -13 26 -31 85 -40 132 -9 51 -25 97 -38 114 -13 18 -27
60 -34 103 -7 40 -24 99 -37 131 -13 31 -34 89 -47 127 -12 39 -27 82 -33 98
-14 36 -4 45 58 52 98 11 116 16 136 36 28 28 24 44 -22 94 -65 70 -78 72
-369 48z m-3009 -1273 c31 0 42 -54 59 -303 13 -182 24 -271 38 -322 13 -43
25 -130 32 -225 6 -85 18 -177 25 -205 35 -125 50 -340 26 -368 -12 -15 -15
-15 -40 3 -61 43 -85 95 -93 199 -7 101 -20 213 -37 321 -5 36 -15 119 -21
185 -6 66 -15 156 -21 199 -17 144 -12 529 7 522 9 -3 20 -6 25 -6z m262 -51
c8 -26 36 -79 63 -119 42 -64 49 -84 65 -174 9 -55 22 -121 28 -146 5 -25 17
-101 26 -170 22 -173 34 -236 56 -291 15 -39 16 -54 7 -80 -9 -25 -8 -42 5
-78 47 -140 29 -389 -29 -408 -18 -6 -123 127 -128 162 -18 124 -39 229 -52
260 -8 21 -17 81 -20 143 -2 59 -11 148 -18 197 -8 50 -21 142 -30 205 -9 63
-24 153 -32 200 -25 136 -29 262 -8 302 36 71 42 70 67 -3z" fill="{{blush}}"/>
<path d="M16990 3590 c-5 -46 -13 -94 -22 -134 -11 -49 -4 -65 29 -66 17 0 38
-43 56 -112 8 -31 25 -67 37 -80 12 -12 30 -40 40 -61 30 -65 34 -6 4 66 -13
33 -24 72 -24 86 0 40 -17 91 -44 130 -14 20 -32 61 -40 91 -14 49 -35 94 -36
80z" fill="{{blush}}"/>
<path d="M19350 1153 c-47 -8 -89 -18 -93 -23 -14 -13 121 -33 184 -27 75 7
118 37 72 51 -49 13 -85 13 -163 -1z" fill="{{blush}}"/>
<path d="M17517 31226 c-70 -38 -93 -106 -58 -171 33 -62 223 -198 361 -258
181 -79 580 -175 860 -208 96 -11 181 -22 189 -24 36 -13 380 -36 671 -45 179
-5 476 -14 660 -20 420 -13 991 -26 1730 -40 808 -15 1192 -28 1360 -44 246
-25 406 -36 645 -46 207 -9 374 -23 415 -35 31 -9 193 -25 398 -40 116 -8 256
-24 310 -35 53 -11 192 -29 307 -39 116 -11 248 -29 295 -40 47 -11 157 -27
245 -36 88 -8 205 -26 260 -40 55 -13 143 -29 195 -35 119 -13 201 -27 265
-45 28 -8 106 -21 175 -29 69 -9 166 -27 215 -40 50 -13 128 -29 175 -36 47
-6 126 -22 175 -36 50 -13 140 -31 202 -39 61 -8 159 -26 216 -40 57 -13 138
-29 178 -35 41 -7 115 -22 164 -35 50 -13 133 -31 185 -40 52 -9 138 -27 190
-41 133 -34 487 -112 594 -130 93 -17 116 -10 116 30 -1 36 -226 154 -445 233
-38 14 -74 29 -80 33 -5 4 -41 18 -80 30 -38 13 -88 31 -110 41 -46 21 -209
80 -305 111 -36 11 -83 31 -105 43 -22 13 -67 28 -99 34 -32 6 -78 22 -100 35
-23 13 -71 32 -106 41 -35 9 -85 27 -112 41 -26 13 -76 31 -111 39 -35 8 -89
26 -120 39 -31 14 -86 30 -124 37 -37 6 -93 22 -124 35 -30 12 -95 30 -145 39
-49 9 -105 24 -124 32 -52 22 -88 32 -158 43 -35 6 -96 22 -135 35 -40 13
-108 29 -152 35 -44 6 -134 24 -200 40 -66 16 -156 34 -200 40 -44 6 -125 22
-180 35 -55 13 -143 28 -195 35 -52 6 -155 23 -227 36 -73 14 -186 31 -250 39
-65 8 -201 25 -303 39 -225 30 -600 70 -850 91 -102 8 -266 21 -365 29 -694
56 -1198 72 -2845 86 -1518 13 -1899 24 -2135 60 -33 5 -143 19 -245 30 -102
11 -230 31 -285 44 -55 13 -129 27 -165 31 -36 4 -123 20 -195 36 -163 38
-279 46 -318 25z" fill="{{face}}"/>
<path d="M6847 28769 c-47 -14 -98 -71 -141 -160 -18 -36 -42 -78 -53 -95 -11
-16 -44 -67 -74 -114 -48 -75 -259 -348 -401 -518 -29 -35 -73 -87 -98 -117
-74 -89 -357 -401 -485 -535 -66 -69 -187 -198 -270 -285 -140 -148 -272 -285
-775 -800 -108 -110 -308 -317 -445 -460 -138 -143 -270 -280 -295 -305 -164
-166 -426 -451 -568 -619 -54 -62 -146 -171 -207 -242 -106 -122 -135 -159
-308 -383 -245 -318 -398 -556 -563 -873 -118 -226 -147 -296 -238 -568 -15
-44 -39 -109 -52 -145 -14 -35 -32 -105 -40 -155 -8 -49 -24 -124 -34 -167
-29 -111 -23 -178 14 -178 22 0 84 93 151 225 34 66 76 142 93 169 18 28 32
53 32 56 0 8 82 149 124 212 15 23 69 113 120 198 50 85 103 173 117 195 15
22 42 64 60 94 81 130 270 405 342 498 48 62 118 151 152 194 17 21 43 55 60
76 76 96 477 544 710 792 112 120 98 105 930 943 780 785 1151 1167 1376 1418
139 154 302 341 325 371 10 14 65 81 122 149 57 68 110 136 118 151 8 16 23
33 34 39 11 6 32 28 45 48 14 20 44 60 66 87 138 171 277 422 303 546 39 188
-74 306 -247 258z" fill="{{face}}"/>
<path d="M22745 26759 c-120 -9 -171 -18 -285 -49 -41 -11 -104 -25 -139 -31
-35 -5 -90 -21 -122 -35 -33 -13 -91 -31 -129 -39 -39 -8 -93 -26 -120 -40
-27 -14 -73 -30 -102 -36 -29 -6 -70 -22 -90 -35 -21 -13 -64 -30 -95 -38 -32
-7 -85 -27 -117 -45 -32 -17 -67 -31 -76 -31 -9 0 -53 -18 -96 -40 -43 -22
-83 -40 -88 -40 -18 0 -435 -195 -526 -246 -14 -8 -81 -44 -150 -80 -69 -37
-150 -81 -180 -98 -30 -18 -89 -52 -130 -76 -529 -306 -880 -584 -880 -698 0
-67 66 -76 142 -20 110 81 257 183 355 244 34 21 89 56 121 77 32 20 62 37 66
37 4 0 20 8 34 19 56 39 511 291 527 291 2 0 98 45 212 101 114 55 242 114
283 131 41 16 84 35 95 42 11 8 53 25 93 39 40 15 83 33 95 42 13 8 48 22 78
31 30 9 74 27 99 39 25 13 65 28 90 35 25 7 66 23 91 36 26 13 78 31 115 40
38 9 90 27 115 40 25 13 77 30 115 39 37 8 93 27 123 40 31 14 90 31 133 39
42 8 95 24 118 36 23 12 79 28 125 36 46 8 107 25 137 39 29 13 85 29 123 36
39 6 91 22 116 35 26 13 76 31 113 40 72 18 91 33 81 63 -13 41 -185 51 -470
30z" fill="{{face}}"/>
<path d="M28580 26199 c-76 -29 -107 -36 -170 -44 -30 -4 -107 -20 -170 -35
-63 -16 -151 -34 -195 -40 -44 -6 -141 -22 -215 -35 -204 -37 -373 -46 -985
-52 -604 -5 -567 -8 -938 51 -87 14 -224 30 -305 36 -81 5 -214 17 -297 25
-384 38 -1336 50 -1655 20 -334 -31 -640 -72 -669 -90 -5 -3 -44 -12 -87 -20
-84 -16 -282 -72 -481 -136 -67 -21 -177 -66 -245 -101 -68 -34 -181 -90 -253
-125 -71 -35 -141 -70 -155 -78 -14 -9 -45 -25 -70 -36 -54 -25 -87 -42 -255
-129 -306 -160 -425 -227 -505 -287 -134 -99 -148 -109 -275 -197 -66 -46
-136 -96 -155 -113 -19 -16 -73 -56 -120 -88 -47 -32 -101 -72 -121 -89 -20
-17 -67 -53 -104 -81 -37 -27 -84 -63 -105 -80 -21 -16 -61 -48 -90 -70 -196
-150 -439 -381 -670 -640 -69 -77 -145 -160 -168 -185 -24 -25 -89 -98 -145
-164 -109 -127 -141 -160 -286 -301 -224 -216 -406 -556 -345 -643 32 -46 85
-17 379 208 129 99 143 106 162 87 19 -19 5 -113 -31 -217 -13 -37 -29 -100
-36 -141 -7 -41 -25 -125 -41 -187 -39 -154 -45 -320 -12 -353 41 -42 86 -16
199 114 150 172 538 569 639 652 27 22 76 65 109 96 34 30 106 85 161 122 55
37 141 100 190 142 50 41 108 87 130 102 22 15 51 37 65 49 14 12 48 37 75 56
28 19 71 49 96 67 54 39 89 31 163 -37 115 -105 568 -363 721 -412 22 -7 74
-27 115 -45 41 -18 102 -39 135 -45 33 -7 77 -21 98 -32 21 -10 91 -28 155
-38 64 -11 145 -29 179 -40 178 -56 980 -53 1156 4 40 13 112 29 162 35 49 7
115 21 145 32 30 11 90 29 133 40 43 10 99 30 125 43 26 13 72 31 102 41 30
10 75 28 100 40 102 52 236 115 244 115 21 0 318 191 453 292 195 146 552 523
624 661 7 12 25 38 41 57 15 19 28 38 28 43 0 4 16 31 35 60 19 28 35 56 35
61 0 5 18 32 39 60 22 28 43 65 46 81 4 17 18 49 31 72 13 23 33 70 43 103 25
80 44 100 92 100 21 0 40 -4 44 -9 3 -5 29 -17 58 -26 187 -60 612 -288 846
-455 27 -19 75 -53 106 -75 60 -42 100 -73 209 -164 60 -50 65 -57 71 -105 4
-28 17 -83 30 -121 16 -47 29 -124 40 -230 8 -88 22 -187 30 -220 34 -136 46
-316 52 -778 7 -494 9 -518 60 -525 23 -3 61 65 97 173 16 46 77 204 214 550
58 147 114 280 162 380 16 33 52 110 80 170 70 147 146 299 197 393 23 42 48
93 57 112 9 19 24 49 33 65 9 17 33 62 54 100 20 39 55 102 77 140 23 39 56
99 75 135 124 238 206 372 248 403 17 12 81 29 184 47 86 16 187 38 223 48 37
11 94 25 127 32 58 11 206 56 350 107 39 13 102 35 140 47 39 13 88 32 110 43
22 11 63 26 90 32 28 7 68 23 90 35 22 13 58 29 80 36 37 11 177 73 235 104
14 7 39 20 55 29 34 17 183 89 235 112 19 9 71 36 115 60 44 24 105 56 135 71
70 35 160 111 160 135 0 34 -76 36 -345 9 -201 -20 -582 -23 -835 -6 -135 9
-360 23 -500 31 -140 8 -334 26 -430 39 -96 14 -240 30 -320 36 -80 7 -181 18
-225 26 -132 23 -247 42 -296 49 -120 16 -103 50 63 129 73 35 167 82 208 106
88 51 146 82 333 179 77 39 151 79 165 90 15 10 46 28 68 39 114 58 23 109
-106 61z m-5238 -1600 c60 -32 78 -154 43 -285 -38 -140 -74 -201 -252 -434
-42 -54 -146 -144 -181 -155 -42 -14 -270 18 -372 52 -41 14 -104 33 -140 43
-192 51 -430 241 -430 343 0 34 66 84 148 112 92 31 254 91 329 121 48 19 80
24 145 24 70 0 89 4 123 25 92 56 137 75 231 100 55 14 128 34 164 44 73 22
161 26 192 10z" fill="{{face}}"/>
<path d="M26418 21355 c-20 -7 -49 -23 -65 -34 -18 -13 -69 -28 -138 -40 -60
-11 -143 -27 -184 -36 -125 -27 -441 -35 -1421 -35 -995 0 -1337 -8 -1690 -40
-118 -10 -267 -22 -330 -25 -180 -9 -347 -25 -450 -41 -52 -8 -179 -24 -281
-34 -103 -11 -229 -28 -280 -39 -52 -11 -130 -25 -174 -31 -127 -17 -403 -81
-620 -144 -71 -21 -152 -44 -180 -52 -63 -17 -159 -74 -163 -96 -5 -24 49 -32
134 -19 38 5 173 25 299 45 506 76 1075 151 1305 171 96 8 229 22 295 30 372
45 952 65 2130 75 887 7 1027 11 1235 29 424 38 664 128 695 261 13 53 -47 82
-117 55z" fill="{{face}}"/>
<path d="M7165 20570 c-28 -4 -76 -15 -107 -24 -31 -9 -99 -25 -152 -35 -52
-11 -121 -31 -153 -45 -32 -14 -84 -30 -115 -35 -31 -6 -79 -21 -106 -35 -27
-14 -71 -30 -98 -37 -27 -6 -71 -24 -99 -39 -27 -16 -70 -34 -95 -40 -24 -7
-70 -25 -102 -41 -32 -16 -63 -29 -69 -29 -30 0 -731 -352 -839 -421 -14 -9
-70 -42 -125 -73 -55 -31 -122 -72 -150 -91 -27 -19 -72 -49 -98 -67 -147 -99
-368 -287 -407 -346 -37 -56 -37 -63 1 -107 44 -50 85 -41 199 45 19 14 98 66
175 115 202 127 251 157 335 205 41 24 104 60 140 80 36 21 90 51 120 68 47
27 285 146 615 308 50 24 96 44 104 44 8 0 38 13 66 29 28 16 74 36 102 44 27
8 69 25 93 37 24 12 74 31 111 41 37 10 82 27 101 38 18 11 63 27 100 36 37 8
101 29 142 45 41 17 84 30 95 30 12 0 70 15 129 34 59 19 148 43 197 55 339
77 379 95 362 163 -12 47 -38 53 -237 55 -102 1 -208 -2 -235 -7z" fill="{{face}}"/>
<path d="M26210 20402 c-108 -108 24 -291 160 -222 67 34 80 53 80 115 0 128
-151 196 -240 107z" fill="{{face}}"/>
<path d="M7690 19738 c-129 -3 -329 -16 -445 -27 -115 -12 -237 -23 -270 -27
-258 -25 -810 -148 -984 -221 -151 -62 -359 -170 -436 -225 -69 -50 -109 -76
-155 -104 -25 -15 -62 -41 -82 -58 -20 -17 -58 -47 -83 -66 -25 -19 -60 -47
-78 -61 -17 -14 -48 -36 -67 -49 -40 -27 -71 -53 -295 -252 -117 -104 -374
-362 -490 -491 -39 -43 -86 -95 -105 -116 -43 -46 -84 -95 -150 -181 -101
-130 -126 -162 -186 -233 -33 -40 -74 -91 -90 -114 -31 -45 -67 -95 -191 -264
-122 -166 -326 -448 -343 -472 -8 -12 -42 -58 -75 -102 -32 -44 -71 -102 -85
-130 -101 -197 -561 -647 -945 -924 -162 -117 -196 -155 -167 -184 44 -44 273
-11 512 75 114 41 160 47 160 20 0 -27 -25 -84 -52 -118 -13 -16 -49 -67 -81
-114 -32 -47 -79 -110 -103 -140 -25 -30 -59 -74 -77 -96 -177 -227 -542 -598
-781 -794 -24 -19 -89 -73 -146 -120 -57 -47 -121 -98 -144 -114 -61 -43 -79
-97 -37 -111 22 -7 291 37 336 55 17 7 80 25 140 40 61 16 135 37 165 48 30
12 89 32 130 46 107 35 233 82 283 105 24 11 66 29 93 39 83 33 338 158 477
233 137 75 203 116 370 228 215 145 231 150 357 116 30 -8 107 -20 170 -26 63
-6 138 -18 165 -25 28 -8 88 -24 135 -35 209 -51 422 -108 505 -136 33 -12
125 -41 205 -66 577 -180 553 -174 572 -132 16 36 4 54 -84 124 -164 132 -400
365 -498 495 -99 130 -114 150 -174 221 -84 100 -99 140 -98 249 2 128 19 238
51 336 16 47 34 107 40 134 7 27 22 69 35 95 13 25 31 71 41 101 10 30 28 71
40 90 12 19 25 46 30 60 11 40 173 334 224 408 10 15 30 46 44 69 53 83 60 84
189 12 270 -150 392 -196 663 -249 55 -11 134 -29 175 -41 159 -46 856 -42
1043 5 54 14 138 32 188 41 49 8 116 26 149 39 32 13 82 29 110 35 28 6 68 20
90 31 21 11 75 33 120 50 178 65 643 350 700 428 3 4 39 39 80 77 164 153 337
374 400 514 11 24 29 56 41 72 11 15 28 52 38 81 11 29 29 75 41 102 12 27 28
81 35 120 7 39 25 112 39 161 31 103 51 275 42 352 -10 88 6 97 163 88 69 -4
158 -11 196 -16 39 -6 147 -14 240 -19 204 -10 412 -34 480 -54 28 -8 108 -27
180 -41 71 -14 150 -31 175 -38 56 -16 79 -12 90 18 21 56 -15 95 -259 277
-60 45 -170 119 -242 163 -18 11 -60 37 -93 58 -34 21 -84 48 -112 61 -50 24
-104 76 -104 101 0 16 16 28 60 45 19 8 78 38 130 68 210 118 229 134 230 193
0 48 -20 54 -180 56 -81 0 -196 8 -256 17 -207 30 -620 76 -819 91 -110 8
-247 20 -305 25 -94 9 -352 18 -655 23 -60 1 -216 -1 -345 -5z m-84 -1184 c57
-56 8 -413 -74 -546 -11 -18 -35 -61 -52 -96 -61 -119 -139 -156 -325 -155
-138 1 -393 47 -448 81 -18 11 -55 32 -84 46 -53 27 -194 156 -206 189 -18 47
19 84 147 146 147 71 276 121 313 121 48 0 98 19 133 50 18 16 56 37 83 46 28
9 64 25 81 35 17 10 59 25 94 34 34 8 95 29 135 45 96 39 167 41 203 4z" fill="{{face}}"/>
<path d="M10375 16784 c-33 -14 -85 -34 -115 -44 -30 -11 -77 -31 -105 -44
-27 -14 -102 -50 -165 -80 -134 -65 -260 -135 -395 -221 -35 -22 -76 -48 -92
-57 -15 -10 -82 -56 -148 -103 -66 -47 -136 -96 -155 -110 -19 -14 -62 -45
-95 -70 -33 -24 -80 -59 -105 -77 -25 -18 -78 -59 -119 -93 -40 -33 -88 -71
-106 -85 -18 -14 -73 -56 -122 -95 -87 -68 -115 -91 -362 -297 -67 -57 -140
-116 -161 -133 -53 -42 -136 -107 -195 -155 -175 -141 -184 -147 -328 -250
-267 -190 -442 -303 -562 -366 -38 -20 -81 -44 -95 -53 -84 -57 -377 -175
-487 -196 -132 -25 -209 -77 -184 -124 15 -26 91 -71 122 -71 108 -1 388 80
514 149 28 15 66 34 85 41 34 14 72 35 225 124 77 44 400 260 480 320 28 20
68 50 90 67 22 16 65 48 95 72 30 23 67 51 82 62 14 11 70 56 123 100 53 44
108 89 123 100 15 11 83 65 151 120 68 55 138 111 156 125 18 14 99 80 181
146 210 171 262 213 324 261 30 23 101 77 157 120 96 74 137 104 292 215 36
26 77 55 91 66 60 44 219 149 355 232 39 24 89 56 112 71 23 16 46 29 52 29 5
0 58 33 118 73 59 40 127 81 151 91 23 11 47 25 54 33 6 8 32 25 57 38 145 73
61 135 -94 69z" fill="{{face}}"/>
<path d="M14110 15968 c-11 -24 -20 -50 -20 -59 0 -9 -9 -51 -21 -95 -11 -43
-26 -113 -34 -155 -7 -42 -27 -105 -43 -140 -17 -35 -33 -80 -37 -99 -4 -19
-20 -60 -35 -90 -144 -284 -240 -492 -240 -521 0 -94 204 -342 405 -492 285
-212 572 -224 402 -16 -90 110 -287 396 -287 416 0 4 -18 37 -40 73 -54 87
-57 166 -9 255 75 141 94 834 26 939 -25 37 -45 32 -67 -16z" fill="{{face}}"/>
<path d="M17720 11580 c-96 -11 -224 -31 -285 -45 -60 -14 -162 -34 -225 -45
-63 -10 -142 -28 -174 -40 -32 -11 -102 -27 -155 -35 -53 -9 -118 -26 -146
-39 -27 -13 -84 -29 -125 -36 -41 -7 -101 -23 -133 -36 -31 -14 -88 -31 -125
-40 -37 -9 -96 -28 -132 -44 -36 -15 -83 -31 -104 -35 -22 -3 -60 -17 -85 -30
-26 -12 -73 -30 -106 -40 -33 -9 -79 -27 -101 -40 -23 -14 -63 -29 -90 -35
-27 -6 -66 -22 -86 -36 -21 -13 -59 -31 -85 -40 -25 -9 -62 -27 -82 -40 -20
-13 -56 -30 -80 -39 -24 -8 -62 -27 -85 -41 -22 -14 -90 -54 -151 -88 -181
-103 -323 -206 -438 -319 -71 -69 -75 -75 -91 -145 -9 -40 -27 -105 -40 -145
-15 -46 -28 -121 -35 -207 -13 -147 -30 -315 -58 -565 -16 -138 -18 -254 -18
-840 0 -737 8 -822 105 -1170 16 -55 40 -141 54 -192 72 -260 257 -699 396
-943 24 -41 56 -99 71 -128 31 -57 171 -273 192 -294 7 -7 47 -56 89 -108 125
-156 325 -339 452 -415 174 -104 186 -118 186 -227 0 -244 78 -756 135 -888
13 -30 29 -75 36 -100 6 -25 19 -61 29 -81 10 -19 26 -64 35 -99 9 -35 27 -83
41 -105 13 -22 30 -60 39 -85 16 -44 100 -217 115 -235 4 -5 21 -35 37 -65 16
-30 46 -83 66 -117 20 -35 53 -91 73 -125 19 -35 44 -72 54 -83 10 -11 25 -36
35 -55 38 -76 280 -420 358 -507 115 -130 200 -157 143 -45 -7 15 -19 52 -26
82 -7 32 -49 121 -100 215 -129 236 -180 335 -180 350 0 7 -16 29 -35 48 -35
35 -49 86 -31 115 10 16 -11 95 -29 108 -9 7 -36 15 -61 19 -40 6 -47 11 -60
43 -9 20 -22 50 -30 66 -20 38 5 75 25 38 6 -12 10 -25 9 -29 -5 -14 39 -51
64 -55 32 -4 38 50 8 77 -11 10 -20 23 -20 30 0 35 -49 39 -78 5 -38 -43 -48
-28 -45 67 1 63 -1 71 -13 58 -29 -28 -104 69 -104 134 0 28 -11 52 -21 46 -9
-6 -49 65 -49 87 0 7 -11 29 -24 49 -13 19 -36 82 -52 140 -15 57 -32 111 -39
119 -27 35 -37 82 -45 210 -5 74 -12 163 -16 196 -6 60 7 95 26 65 7 -12 50
104 50 134 0 23 13 18 50 -20 32 -33 36 -34 47 -18 22 29 15 69 -17 101 -29
29 -30 34 -30 120 0 76 -4 96 -25 136 -16 31 -31 84 -40 149 -9 56 -24 127
-35 157 -10 30 -26 102 -35 160 -9 58 -33 150 -52 205 -84 240 -105 308 -137
440 -19 77 -37 162 -41 190 -7 48 -59 188 -115 310 -70 152 -109 242 -116 270
-4 17 -16 48 -27 70 -11 22 -30 71 -43 109 -13 38 -30 79 -37 90 -8 12 -24 53
-37 91 -12 39 -31 85 -41 103 -10 18 -26 58 -35 90 -9 31 -29 80 -45 107 -15
28 -35 78 -44 112 -8 35 -24 77 -34 95 -11 18 -27 60 -36 93 -9 32 -27 80 -39
105 -13 25 -31 68 -40 97 -10 28 -41 97 -71 152 -30 56 -100 190 -156 299 -56
108 -105 202 -109 207 -3 6 -13 26 -20 45 -53 137 -191 303 -290 349 -105 49
-123 97 -86 225 8 28 22 105 31 171 8 66 24 148 35 181 10 34 24 117 30 185
21 237 53 281 342 472 148 99 558 313 663 347 22 7 67 26 100 42 33 15 66 28
74 28 8 0 42 13 76 29 35 17 91 37 126 46 35 9 87 27 114 39 28 13 81 31 119
40 38 9 81 23 96 31 16 8 75 26 132 39 57 13 127 34 156 45 29 12 93 28 142
36 50 7 111 23 137 35 26 11 106 29 178 40 71 10 156 28 187 39 31 11 119 27
195 35 76 9 183 27 238 41 232 58 530 54 653 -9 26 -14 74 -30 107 -36 33 -7
85 -25 115 -41 67 -35 298 -98 396 -109 58 -6 79 -13 110 -37 22 -17 56 -36
76 -42 20 -7 42 -19 49 -27 7 -8 39 -31 73 -50 103 -60 132 -78 167 -105 19
-14 53 -36 77 -48 49 -25 98 -87 113 -145 6 -23 24 -66 40 -96 52 -97 202
-442 215 -496 4 -16 22 -63 39 -104 18 -41 36 -93 39 -115 4 -22 20 -69 36
-105 28 -65 57 -148 110 -315 15 -49 37 -112 49 -140 11 -27 25 -76 31 -107
17 -86 77 -144 94 -90 8 24 -1 277 -15 456 -6 82 -9 176 -6 210 3 34 13 135
22 226 9 91 13 185 10 210 -7 57 9 87 24 47 6 -16 11 -47 11 -71 0 -39 6 -68
46 -213 31 -115 61 -773 62 -1338 1 -375 14 -454 112 -710 50 -131 96 -275
110 -350 7 -33 25 -89 40 -125 16 -36 34 -84 40 -106 12 -48 62 -117 144 -196
67 -65 97 -73 165 -45 31 14 53 17 80 12 20 -4 46 -9 57 -10 12 -2 34 -11 50
-21 23 -16 44 -19 117 -16 103 3 151 -11 235 -65 31 -20 63 -38 70 -39 7 -1
31 -18 52 -38 22 -20 44 -36 48 -36 11 0 72 -85 72 -101 0 -7 11 -27 25 -45
14 -18 27 -50 29 -72 2 -21 15 -61 29 -89 15 -28 23 -53 20 -57 -3 -3 0 -13 7
-21 11 -13 10 -23 -1 -58 -16 -48 -14 -72 10 -107 48 -69 58 -140 20 -140 -44
0 -61 -71 -33 -138 20 -49 10 -100 -47 -237 -24 -58 -39 -115 -39 -154 0 -34
-7 -51 -30 -78 -24 -27 -30 -43 -30 -81 -1 -26 -7 -58 -15 -72 -31 -54 -13
-123 51 -199 58 -68 89 -57 113 41 6 26 20 62 30 80 11 18 31 71 45 116 24 78
85 192 142 269 14 18 28 40 32 50 8 21 44 80 108 176 22 34 66 105 97 157 54
90 88 139 148 220 37 49 88 153 113 230 38 116 68 66 74 -122 4 -127 4 -127
-32 -161 -20 -19 -36 -41 -36 -48 0 -69 -22 -181 -41 -213 -26 -44 -32 -147
-11 -168 18 -18 29 1 43 76 7 32 22 70 36 86 35 42 53 104 53 186 0 60 4 78
19 93 33 33 42 60 51 151 5 48 22 130 39 183 67 210 71 773 5 961 -13 37 -28
96 -35 130 -6 33 -23 91 -39 127 -15 36 -31 81 -35 100 -4 19 -21 63 -39 99
-18 36 -36 78 -40 94 -4 17 -16 43 -27 58 -12 16 -31 54 -43 86 -13 31 -37 79
-54 106 -18 28 -32 53 -32 56 0 9 -86 150 -146 238 -322 479 -644 801 -1255
1258 -359 268 -510 374 -754 529 -33 21 -78 50 -100 65 -62 42 -380 228 -475
278 -154 80 -205 108 -240 130 -19 12 -51 27 -70 34 -19 6 -48 21 -65 33 -16
13 -48 28 -70 35 -22 7 -65 27 -95 45 -30 19 -71 36 -90 40 -19 4 -49 18 -66
30 -17 13 -55 31 -86 39 -30 9 -70 28 -89 42 -19 14 -59 32 -89 41 -30 8 -76
26 -101 39 -25 12 -76 30 -113 38 -36 9 -92 27 -124 40 -140 59 -535 80 -852
46z" fill="{{face}}"/>
<path d="M18850 10979 c-243 -7 -347 -17 -595 -54 -88 -13 -191 -26 -229 -30
-37 -4 -121 -18 -185 -31 -64 -14 -154 -31 -201 -40 -248 -43 -694 -160 -860
-224 -41 -16 -106 -36 -143 -44 -38 -9 -87 -27 -110 -40 -23 -13 -67 -29 -96
-35 -30 -7 -69 -23 -87 -36 -18 -14 -55 -30 -83 -36 -28 -6 -67 -22 -88 -36
-21 -14 -58 -33 -83 -41 -25 -8 -56 -23 -70 -33 -14 -9 -50 -29 -80 -44 -30
-14 -89 -45 -130 -70 -41 -24 -96 -55 -121 -69 -25 -13 -51 -32 -59 -41 -7 -9
-26 -23 -41 -31 -88 -45 -305 -233 -325 -281 -41 -96 22 -164 88 -95 25 25 78
72 159 141 157 132 217 134 353 10 114 -104 199 -32 151 127 -8 27 -15 79 -15
116 0 67 0 67 63 118 43 35 83 57 132 73 39 12 85 32 103 44 35 23 160 50 186
40 20 -8 20 -30 0 -73 -19 -39 -29 -40 -104 -14 -82 29 -107 27 -115 -10 -4
-19 -24 -44 -52 -68 -142 -115 -134 -91 -103 -312 34 -247 57 -282 405 -603
240 -222 270 -270 260 -419 -9 -127 -14 -146 -44 -181 -16 -18 -45 -60 -65
-95 -21 -34 -49 -70 -64 -80 -197 -126 -243 -202 -198 -334 14 -43 26 -85 26
-94 0 -9 13 -73 29 -143 17 -69 37 -189 46 -266 17 -155 19 -166 45 -280 11
-44 24 -129 30 -190 6 -60 24 -168 40 -240 16 -71 32 -175 35 -230 10 -163 13
-179 50 -226 36 -48 55 -103 55 -164 0 -43 22 -158 45 -240 8 -27 21 -97 29
-153 16 -115 52 -189 68 -142 2 6 28 13 59 15 86 6 136 37 164 102 13 29 32
56 41 60 10 3 26 14 36 22 49 43 82 64 166 105 12 6 28 23 35 39 6 15 15 27
19 27 5 0 8 11 8 24 0 42 103 112 206 141 12 3 27 19 34 36 8 18 28 38 51 50
22 11 39 24 39 30 0 7 31 8 94 3 93 -6 94 -6 110 18 66 102 298 78 407 -41 25
-27 57 -53 71 -56 21 -5 26 -15 38 -81 7 -41 16 -77 21 -79 25 -16 49 -96 53
-180 2 -50 7 -157 11 -240 3 -82 12 -160 18 -173 8 -18 8 -28 -1 -43 -8 -12
-9 -26 -4 -37 14 -26 22 -203 11 -224 -7 -12 -5 -26 5 -45 10 -21 14 -68 14
-180 -1 -186 10 -232 70 -290 24 -23 45 -55 48 -72 12 -60 73 -54 74 7 0 7 17
31 38 55 46 49 110 146 135 201 10 22 47 82 81 135 98 149 186 337 186 396 0
27 61 206 83 243 27 45 67 138 74 172 3 14 9 30 13 35 5 6 31 71 60 145 56
144 94 230 120 270 9 14 29 57 44 95 50 127 114 214 223 301 60 48 219 151
288 186 22 12 53 33 69 49 23 22 34 26 62 22 30 -5 35 -2 44 23 19 48 17 201
-3 289 -10 44 -22 99 -28 123 -5 23 -9 94 -9 158 0 104 -3 123 -29 188 -16 40
-32 100 -36 132 -4 32 -18 89 -32 126 -13 37 -33 108 -43 157 -11 50 -38 157
-59 238 -36 136 -61 226 -136 493 -15 52 -49 163 -75 245 -27 83 -56 177 -65
210 -9 33 -28 77 -41 98 -13 20 -31 67 -40 104 -19 83 -32 103 -51 77 -21 -29
-6 -221 27 -344 5 -19 16 -85 25 -145 8 -61 20 -126 25 -145 13 -44 50 -367
50 -435 0 -138 -54 -133 -74 7 -4 26 -12 50 -17 54 -25 15 -34 -22 -41 -186
-8 -185 -21 -240 -44 -185 -8 17 -13 72 -14 130 0 122 -13 206 -45 303 -14 40
-32 128 -41 195 -10 79 -25 141 -41 177 -14 33 -30 99 -40 165 -8 60 -26 137
-39 169 -13 33 -31 98 -39 145 -9 47 -29 122 -45 166 -16 44 -34 113 -40 153
-6 41 -20 92 -31 114 -12 23 -29 83 -40 135 -10 51 -30 116 -44 143 -14 28
-31 77 -36 108 -6 31 -19 73 -29 92 -10 20 -26 64 -34 98 -9 34 -30 96 -47
138 -46 115 -37 127 101 138 69 5 92 21 83 57 -13 50 -64 57 -353 48z m910
-2939 c33 -33 19 -73 -31 -85 -56 -14 -81 66 -29 92 33 17 37 16 60 -7z" fill="{{face}}"/>
<path d="M15522 8603 c-25 -65 -24 -71 24 -170 26 -54 57 -110 67 -125 25 -34
84 -184 103 -263 55 -222 178 -544 227 -593 43 -43 74 -25 63 37 -27 158 -48
393 -50 561 -3 165 -6 201 -21 230 -59 113 -192 243 -312 304 -29 14 -53 31
-53 36 0 23 -38 9 -48 -17z" fill="{{face}}"/>
<path d="M16080 8296 c-57 -31 -73 -85 -50 -167 11 -40 27 -125 35 -189 9 -63
22 -149 30 -190 26 -133 46 -253 55 -330 5 -41 20 -115 34 -165 13 -49 36
-137 50 -195 63 -257 141 -519 160 -538 8 -8 22 -12 32 -8 34 13 8 568 -40
826 -9 47 -23 146 -31 220 -9 74 -30 203 -46 285 -17 83 -34 196 -39 253 -9
118 -20 140 -88 183 -51 32 -66 34 -102 15z" fill="{{face}}"/>
<path d="M16494 4482 c-5 -31 -10 -39 -22 -35 -10 4 -13 1 -10 -8 3 -8 9 -14
14 -14 5 0 14 -4 20 -8 16 -9 30 81 15 96 -7 7 -12 -2 -17 -31z" fill="{{face}}"/>
<path d="M16452 4230 c-19 -31 -6 -110 18 -110 16 0 26 82 14 114 -8 21 -17
20 -32 -4z" fill="{{face}}"/>
<path d="M16566 4072 c-28 -54 7 -137 52 -126 31 9 32 89 1 128 -26 33 -35 33
-53 -2z" fill="{{face}}"/>
<path d="M21140 3908 c-12 -13 -30 -39 -40 -58 -10 -19 -37 -54 -61 -77 -24
-22 -49 -48 -56 -56 -7 -8 -20 -21 -30 -29 -18 -13 -117 -128 -180 -209 -18
-23 -33 -48 -33 -57 0 -22 -127 -140 -169 -158 -42 -18 -86 -58 -107 -99 -8
-16 -35 -43 -59 -58 -25 -16 -45 -34 -45 -42 0 -7 -7 -15 -15 -19 -9 -3 -19
-15 -24 -27 -8 -22 -8 -22 -29 -1 -12 12 -26 22 -30 22 -12 0 -52 -44 -52 -56
0 -17 -68 -71 -120 -96 -36 -17 -50 -30 -55 -50 -14 -61 -45 -108 -69 -108
-62 0 -128 -24 -152 -56 -20 -26 -33 -32 -76 -37 -51 -6 -98 -36 -98 -63 0 -7
-15 -14 -37 -16 -44 -4 -89 -52 -63 -68 10 -7 11 -10 2 -10 -7 0 -17 -11 -23
-24 -12 -26 -30 -31 -149 -44 -48 -5 -74 -14 -101 -35 -28 -21 -43 -26 -65
-21 -27 5 -36 -1 -85 -55 -45 -48 -61 -60 -85 -59 -16 1 -43 -6 -59 -14 -52
-26 -115 -29 -143 -7 -31 24 -48 24 -69 -1 -11 -12 -30 -20 -50 -20 -31 0 -33
-2 -33 -36 0 -30 -3 -36 -18 -32 -15 4 -17 0 -14 -23 5 -36 -25 -40 -53 -9
-21 23 -60 26 -68 5 -4 -9 9 -28 35 -49 36 -31 40 -39 35 -66 -4 -18 -2 -30 4
-30 6 0 8 -4 4 -9 -3 -5 0 -13 5 -16 6 -4 15 -18 21 -31 10 -29 61 -53 129
-61 44 -5 107 -42 94 -55 -13 -13 59 -98 99 -116 335 -154 591 -137 796 54 38
35 80 73 94 84 23 18 57 61 158 198 14 20 50 55 80 79 53 43 68 52 217 145 42
26 101 68 131 93 31 25 90 72 131 105 68 55 168 193 170 233 0 5 66 138 147
295 247 481 345 755 331 928 -4 48 -34 58 -68 22z" fill="{{face}}"/>
<path d="M16652 3835 c-17 -64 -15 -99 7 -119 24 -22 63 -17 67 7 6 43 -36
157 -58 157 -2 0 -9 -20 -16 -45z" fill="{{face}}"/>
<path d="M18124 2344 c-7 -3 -10 -13 -9 -22 15 -72 15 -72 46 -72 38 0 46 21
22 62 -19 32 -36 42 -59 32z" fill="{{face}}"/>
<path d="M18292 2238 c-28 -28 -5 -78 33 -70 23 4 26 9 23 41 -3 39 -31 54
-56 29z" fill="{{face}}"/>
<path d="M17506 31190 c-59 -52 -56 -107 10 -174 86 -86 347 -226 485 -261 35
-9 91 -25 124 -35 79 -26 481 -107 570 -115 39 -3 126 -12 195 -20 384 -45
409 -46 1740 -75 2224 -50 2847 -70 2918 -95 19 -7 245 -23 492 -35 118 -6
294 -22 390 -35 96 -14 268 -31 383 -40 114 -8 240 -22 280 -31 96 -20 180
-31 377 -49 91 -8 201 -23 245 -34 94 -22 130 -27 285 -41 63 -6 158 -21 211
-35 53 -13 158 -31 235 -40 76 -8 173 -24 214 -36 40 -11 128 -27 194 -35 66
-8 163 -26 216 -39 52 -13 140 -31 195 -40 55 -9 123 -23 150 -31 28 -8 124
-26 215 -40 91 -13 189 -31 218 -40 29 -8 103 -24 165 -35 62 -11 150 -29 197
-40 122 -28 521 -116 685 -150 157 -32 264 -39 230 -13 -11 8 -42 31 -70 51
-46 34 -118 68 -270 129 -33 14 -82 34 -110 45 -27 12 -79 32 -115 44 -36 13
-90 34 -120 48 -30 13 -70 28 -89 32 -19 4 -62 20 -96 35 -34 15 -77 31 -96
35 -19 4 -59 20 -89 35 -30 15 -79 33 -108 39 -29 6 -78 24 -110 39 -31 16
-78 34 -104 41 -27 6 -74 24 -105 40 -32 16 -87 34 -123 41 -35 6 -82 21 -103
31 -21 11 -77 28 -125 39 -48 10 -110 27 -139 39 -28 11 -91 27 -140 36 -48 9
-108 25 -131 36 -24 10 -83 26 -130 35 -48 8 -121 26 -163 39 -42 13 -117 29
-165 36 -49 6 -141 24 -204 39 -63 15 -153 33 -200 40 -47 6 -123 20 -170 31
-47 11 -162 31 -256 44 -93 13 -190 28 -215 34 -42 10 -410 58 -784 102 -190
22 -868 82 -1190 104 -429 30 -1026 45 -2345 60 -1816 20 -2135 30 -2429 75
-69 10 -189 26 -267 34 -77 9 -171 25 -210 36 -38 12 -120 27 -183 36 -63 8
-160 26 -217 40 -146 34 -204 33 -248 -6z" fill="{{accent}}"/>
<path d="M6835 28744 c-35 -18 -99 -97 -121 -151 -22 -53 -144 -243 -223 -349
-111 -148 -386 -485 -446 -548 -16 -17 -81 -89 -144 -161 -62 -71 -148 -166
-189 -210 -355 -377 -753 -791 -1187 -1235 -132 -135 -285 -292 -340 -349 -55
-58 -131 -137 -170 -176 -363 -371 -684 -722 -890 -971 -22 -27 -67 -78 -100
-114 -34 -36 -94 -109 -135 -163 -41 -53 -88 -114 -105 -136 -132 -168 -164
-212 -297 -411 -113 -167 -168 -255 -168 -265 0 -4 -13 -29 -29 -54 -124 -197
-247 -469 -356 -786 -10 -27 -31 -87 -46 -131 -29 -80 -83 -399 -72 -417 13
-21 86 73 134 172 27 58 65 128 84 157 19 29 35 56 35 61 0 4 24 47 53 94 67
112 130 217 183 304 103 173 236 383 303 480 23 33 54 78 68 100 14 22 51 73
82 113 31 40 66 87 79 105 13 18 33 43 46 57 12 14 31 38 41 54 10 17 46 63
79 104 34 40 69 85 78 100 9 14 29 37 43 51 13 15 62 69 107 122 328 380 418
474 1508 1572 360 363 687 692 726 731 38 39 142 148 229 241 87 94 188 202
224 240 104 110 235 256 397 441 136 156 173 200 286 343 20 25 48 57 61 71
100 102 302 412 372 570 70 156 56 298 -35 345 -37 19 -126 19 -165 -1z" fill="{{accent}}"/>
<path d="M22925 26753 c-185 -11 -316 -27 -397 -47 -51 -13 -124 -29 -162 -36
-37 -6 -98 -22 -134 -36 -36 -13 -95 -31 -131 -38 -36 -8 -91 -25 -121 -38
-31 -14 -80 -31 -110 -38 -30 -7 -77 -25 -105 -40 -27 -15 -74 -33 -103 -39
-29 -6 -69 -22 -90 -35 -20 -14 -57 -30 -82 -36 -25 -7 -67 -24 -95 -40 -27
-15 -68 -33 -90 -40 -22 -7 -69 -28 -105 -45 -36 -18 -76 -36 -90 -40 -14 -4
-29 -11 -35 -15 -12 -10 -218 -113 -265 -134 -19 -8 -71 -36 -115 -61 -44 -25
-95 -52 -114 -61 -30 -14 -82 -43 -314 -176 -38 -22 -94 -55 -125 -75 -31 -19
-70 -44 -87 -54 -225 -138 -413 -279 -527 -396 -90 -91 -106 -122 -79 -154 24
-30 49 -22 141 45 148 109 243 173 364 248 324 200 521 307 866 476 212 103
299 142 470 212 30 12 89 37 130 56 41 18 93 38 115 44 22 5 49 16 60 24 11 7
50 23 87 34 36 12 88 32 115 45 26 14 73 30 103 36 30 7 77 22 105 36 28 13
87 32 132 44 45 11 93 27 106 36 13 8 64 24 114 34 50 11 117 31 149 44 33 14
90 30 127 36 38 7 93 23 124 36 30 14 85 30 121 36 37 6 92 24 122 39 30 16
81 34 112 40 106 21 102 56 -8 70 -68 9 -80 9 -179 3z" fill="{{accent}}"/>
<path d="M28585 26170 c-22 -10 -80 -23 -130 -29 -49 -6 -122 -20 -162 -31
-39 -11 -111 -26 -160 -34 -164 -27 -326 -57 -334 -62 -26 -16 -612 -45 -1004
-50 -485 -7 -449 -10 -980 71 -88 13 -230 29 -315 35 -85 6 -218 15 -295 21
-349 25 -468 28 -902 29 -656 0 -1062 -38 -1448 -135 -341 -85 -654 -198 -805
-289 -14 -8 -153 -79 -310 -156 -157 -77 -352 -176 -435 -220 -82 -44 -177
-93 -210 -110 -33 -16 -80 -46 -105 -65 -25 -19 -74 -55 -110 -80 -36 -25 -85
-60 -110 -80 -25 -19 -82 -60 -128 -91 -46 -31 -103 -72 -126 -92 -24 -21 -84
-65 -132 -100 -49 -35 -109 -79 -134 -98 -25 -19 -61 -47 -80 -62 -474 -360
-723 -602 -1219 -1187 -52 -60 -130 -144 -175 -185 -177 -162 -243 -249 -373
-495 -64 -121 -70 -206 -15 -205 24 1 165 99 398 278 71 54 103 69 129 58 23
-8 21 -23 -64 -361 -93 -371 -109 -542 -53 -559 37 -12 70 13 198 156 265 294
689 703 844 813 30 21 108 82 173 134 132 107 130 106 277 213 58 42 121 89
140 103 45 34 76 28 144 -25 129 -101 198 -149 286 -199 52 -30 102 -60 110
-67 29 -24 335 -174 389 -190 30 -8 78 -28 107 -44 29 -15 77 -31 106 -35 29
-4 75 -18 102 -31 32 -16 93 -32 175 -44 69 -10 146 -26 170 -34 158 -56 905
-58 1093 -2 47 14 128 30 180 37 51 6 119 21 151 34 31 13 92 31 134 41 42 9
101 30 131 45 30 16 61 29 69 29 37 0 463 207 535 260 24 17 77 52 118 78 225
140 563 454 712 662 21 30 59 82 83 115 42 57 65 94 130 210 16 28 41 66 55
85 15 19 33 53 40 75 7 22 23 58 35 80 13 22 31 67 40 100 19 70 52 105 97
105 59 0 488 -190 626 -277 29 -18 55 -33 58 -33 4 0 201 -131 324 -215 226
-155 346 -264 359 -326 6 -27 17 -64 25 -83 17 -40 32 -132 46 -286 7 -63 20
-155 31 -204 29 -135 38 -308 43 -786 5 -448 8 -490 45 -490 20 0 27 13 91
185 104 281 292 748 309 769 5 6 12 22 16 36 13 44 203 432 318 650 22 41 50
98 64 125 13 28 31 61 39 75 8 14 28 51 43 83 16 31 33 63 39 70 6 6 25 39 42
72 18 33 50 92 71 130 238 442 216 416 387 447 138 24 464 102 567 135 194 62
383 127 415 143 19 9 56 22 81 28 26 7 80 28 120 47 40 19 79 35 85 35 13 0
150 62 254 115 36 18 76 36 90 40 14 4 37 16 52 27 15 10 46 25 70 34 24 8 59
25 78 38 19 13 51 28 71 35 20 6 51 23 70 37 19 14 57 36 84 49 55 26 125 87
125 110 0 25 -42 27 -185 5 -274 -41 -786 -39 -1280 5 -88 8 -246 19 -352 25
-106 6 -236 18 -290 26 -190 28 -229 33 -368 45 -202 16 -514 74 -540 99 -32
33 -13 48 200 155 110 55 243 125 295 154 52 29 149 81 214 114 65 33 128 71
140 84 12 14 36 31 54 38 17 8 32 19 32 24 0 16 -50 12 -95 -9z m-5238 -1546
c84 -40 122 -187 78 -304 -9 -25 -27 -76 -41 -114 -13 -38 -30 -76 -38 -85 -7
-9 -21 -30 -29 -47 -28 -55 -134 -181 -259 -306 -101 -101 -119 -106 -250 -69
-38 11 -94 23 -125 26 -78 9 -128 22 -188 50 -27 13 -70 26 -95 30 -139 22
-430 258 -430 349 0 39 82 104 175 138 422 157 401 150 490 152 73 2 85 5 140
38 81 50 117 63 312 113 190 49 211 52 260 29z" fill="{{accent}}"/>
<path d="M26420 21337 c-14 -7 -37 -21 -51 -30 -25 -17 -241 -69 -364 -88 -33
-6 -604 -14 -1270 -19 -665 -5 -1275 -13 -1355 -19 -238 -17 -435 -30 -610
-41 -319 -20 -456 -31 -540 -45 -47 -8 -132 -19 -190 -25 -58 -6 -150 -15
-205 -21 -55 -5 -143 -19 -195 -30 -52 -10 -144 -26 -204 -34 -60 -8 -152 -26
-205 -40 -53 -13 -134 -31 -180 -40 -45 -9 -115 -29 -155 -44 -39 -16 -112
-38 -163 -51 -100 -24 -131 -40 -118 -60 10 -16 172 -7 345 20 69 11 229 33
355 50 127 17 293 40 370 50 181 25 648 75 920 100 105 9 424 26 955 51 135 6
520 10 855 10 1524 -1 1913 41 2074 224 60 69 14 125 -69 82z" fill="{{accent}}"/>
<path d="M7195 20553 c-16 -2 -55 -11 -85 -18 -30 -8 -100 -23 -155 -34 -55
-10 -124 -29 -154 -41 -30 -12 -89 -29 -131 -39 -42 -10 -92 -26 -110 -36 -18
-9 -65 -26 -103 -37 -39 -10 -88 -30 -111 -43 -23 -13 -61 -29 -85 -35 -25 -6
-69 -25 -99 -41 -30 -16 -62 -29 -71 -29 -17 0 -47 -14 -331 -154 -96 -47
-179 -86 -183 -86 -5 0 -23 -11 -40 -24 -18 -13 -43 -27 -57 -31 -26 -7 -69
-31 -280 -156 -69 -41 -129 -76 -135 -78 -34 -14 -302 -204 -408 -290 -186
-150 -227 -204 -193 -256 34 -52 63 -39 378 177 15 10 49 31 75 47 27 15 86
52 133 81 159 99 536 306 593 326 21 7 51 23 67 34 15 11 31 20 35 20 8 0 189
85 275 129 30 16 73 34 95 41 22 7 58 23 80 36 22 12 60 28 85 34 24 7 67 23
94 37 28 14 80 34 117 44 37 10 82 27 101 38 18 11 62 27 98 36 36 9 91 27
122 40 32 13 84 29 115 35 32 7 85 23 117 36 33 13 99 31 148 39 49 9 111 24
138 35 27 10 86 27 132 36 111 22 138 36 138 74 0 51 -34 60 -217 59 -87 -1
-171 -4 -188 -6z" fill="{{accent}}"/>
<path d="M26242 20404 c-48 -34 -65 -101 -37 -154 44 -85 199 -76 223 12 27
103 -101 202 -186 142z" fill="{{accent}}"/>
<path d="M7460 19705 c-85 -7 -225 -18 -310 -24 -321 -25 -903 -142 -1120
-226 -164 -63 -374 -172 -531 -276 -46 -30 -102 -67 -124 -82 -22 -15 -65 -47
-95 -72 -30 -24 -71 -56 -90 -70 -192 -138 -469 -391 -752 -686 -186 -194
-291 -313 -398 -448 -36 -45 -82 -103 -103 -129 -74 -93 -123 -156 -157 -204
-72 -100 -301 -416 -365 -503 -36 -49 -82 -112 -101 -140 -19 -27 -47 -66 -62
-86 -99 -134 -152 -210 -176 -254 -41 -76 -286 -349 -487 -541 -104 -100 -387
-328 -507 -409 -50 -33 -94 -83 -89 -98 6 -19 65 -28 115 -18 158 31 328 75
397 102 208 81 221 35 54 -201 -33 -47 -68 -96 -77 -111 -9 -14 -32 -43 -50
-65 -18 -21 -59 -73 -93 -114 -33 -41 -85 -106 -116 -145 -68 -84 -444 -459
-569 -567 -103 -89 -322 -270 -377 -311 -104 -78 30 -102 226 -41 42 14 118
34 168 45 50 11 107 28 127 38 21 10 68 26 105 35 38 10 89 26 115 38 26 11
76 31 112 43 147 53 572 245 630 284 14 10 70 42 125 71 116 62 155 86 365
226 174 116 208 125 340 89 30 -9 121 -24 201 -35 81 -11 166 -27 190 -36 24
-8 87 -24 139 -35 96 -21 282 -71 420 -114 41 -13 152 -47 245 -75 94 -29 233
-72 309 -97 232 -73 256 -48 89 94 -200 171 -387 364 -521 538 -34 44 -89 113
-122 153 -108 129 -119 175 -90 372 45 313 183 672 388 1015 179 300 172 296
361 188 151 -87 332 -170 401 -184 30 -6 87 -22 125 -34 39 -13 113 -31 165
-39 53 -8 116 -22 140 -31 145 -51 810 -48 985 4 39 11 115 27 170 35 55 8
127 26 160 39 33 14 85 30 115 37 30 7 73 22 95 33 21 11 62 28 90 38 84 30
219 91 244 111 14 10 43 27 65 37 300 133 797 616 914 886 7 16 26 50 42 75
15 25 35 68 43 96 8 28 24 69 35 91 12 22 28 82 37 134 9 51 28 132 42 179 22
72 26 106 27 227 1 187 -7 179 174 175 75 -1 184 -7 242 -12 58 -6 137 -10
175 -10 39 0 126 -9 195 -19 69 -11 168 -25 220 -30 53 -6 136 -22 185 -35
314 -85 411 -69 283 46 -78 70 -233 189 -283 218 -24 14 -51 33 -62 41 -10 9
-34 24 -53 34 -19 10 -44 25 -55 35 -20 18 -89 58 -196 112 -52 25 -129 96
-129 116 0 13 32 39 59 47 95 29 352 189 365 226 18 53 12 55 -171 63 -92 3
-186 11 -208 16 -22 5 -114 17 -205 25 -91 9 -222 25 -291 35 -69 10 -200 24
-290 30 -90 6 -245 18 -344 27 -244 21 -1029 27 -1245 8z m150 -1118 c66 -33
69 -263 5 -452 -50 -151 -137 -309 -190 -345 -95 -65 -96 -65 -275 -64 -176 0
-414 50 -488 102 -15 11 -49 31 -77 45 -75 38 -195 167 -195 209 0 56 32 94
112 133 151 75 305 136 372 147 41 7 83 21 105 36 45 31 218 108 285 126 28 8
89 28 136 45 91 33 168 40 210 18z" fill="{{accent}}"/>
<path d="M10388 16760 c-20 -11 -58 -24 -85 -30 -148 -33 -622 -285 -868 -460
-55 -39 -113 -80 -130 -91 -38 -25 -112 -78 -211 -153 -129 -97 -128 -96 -415
-328 -501 -404 -564 -455 -594 -480 -22 -19 -223 -177 -293 -230 -24 -18 -60
-47 -80 -63 -20 -17 -48 -39 -62 -48 -14 -10 -56 -40 -95 -67 -69 -49 -283
-193 -380 -255 -125 -81 -383 -215 -475 -247 -99 -35 -204 -67 -274 -84 -116
-29 -155 -83 -85 -119 54 -29 279 -5 374 39 28 13 61 27 75 31 164 48 554 286
1039 635 72 52 253 194 336 264 22 18 90 73 150 122 122 97 163 131 268 219
40 33 104 85 142 115 39 30 97 77 130 105 33 28 94 76 135 107 41 31 121 92
177 135 96 74 198 148 253 186 14 9 50 35 80 57 58 43 320 217 405 269 28 17
81 52 120 76 38 25 73 45 77 45 11 0 103 60 145 95 17 14 53 37 80 51 26 14
58 36 69 48 12 12 36 28 53 36 17 7 31 19 31 26 0 20 -48 17 -92 -6z" fill="{{accent}}"/>
<path d="M14122 15955 c-7 -14 -17 -58 -23 -97 -6 -39 -17 -88 -24 -108 -7
-21 -21 -75 -30 -121 -10 -46 -28 -104 -40 -129 -13 -25 -30 -70 -39 -100 -9
-30 -68 -158 -130 -285 -163 -330 -162 -320 -54 -466 124 -168 297 -320 465
-409 205 -109 334 -76 219 56 -53 61 -248 348 -283 419 -14 28 -34 60 -44 73
-49 63 -46 191 7 286 60 108 78 825 23 893 -17 20 -35 16 -47 -12z" fill="{{accent}}"/>
<path d="M17735 11565 c-82 -8 -197 -26 -255 -39 -58 -14 -152 -32 -210 -41
-58 -9 -139 -26 -180 -39 -41 -13 -122 -32 -180 -41 -58 -10 -123 -26 -144
-37 -22 -11 -75 -26 -117 -34 -43 -7 -106 -25 -141 -39 -35 -14 -93 -32 -131
-40 -37 -8 -85 -24 -106 -35 -22 -10 -70 -28 -108 -39 -38 -10 -87 -28 -109
-39 -22 -11 -66 -28 -99 -37 -33 -9 -78 -27 -100 -40 -22 -12 -72 -32 -111
-43 -39 -12 -77 -29 -84 -37 -7 -8 -36 -22 -66 -31 -29 -8 -64 -24 -78 -35
-14 -11 -54 -31 -88 -45 -33 -13 -68 -30 -77 -38 -9 -9 -37 -24 -61 -35 -25
-11 -65 -34 -90 -51 -25 -16 -49 -30 -53 -30 -8 0 -99 -59 -157 -102 -14 -10
-47 -33 -75 -52 -58 -39 -221 -189 -236 -219 -6 -11 -15 -50 -20 -87 -4 -37
-19 -92 -32 -122 -55 -125 -73 -528 -21 -475 10 9 62 286 79 421 23 179 33
207 97 269 52 52 78 73 182 149 187 138 674 386 896 457 30 10 73 27 95 38 22
12 60 26 85 32 25 7 88 27 140 46 150 54 217 75 330 104 58 15 141 39 185 54
44 14 111 30 148 37 38 6 91 20 119 31 28 11 97 27 152 35 56 8 139 26 186 39
47 14 141 32 210 40 69 8 158 24 198 35 41 11 113 24 160 30 48 6 137 18 198
27 102 14 117 14 180 0 38 -9 89 -19 114 -22 25 -4 72 -19 105 -35 33 -15 85
-33 115 -40 30 -7 80 -26 112 -42 35 -18 96 -36 160 -48 56 -11 121 -26 143
-34 45 -17 93 -20 114 -7 22 14 5 28 -51 41 -33 8 -67 25 -89 45 -23 20 -56
37 -90 45 -30 7 -76 24 -104 38 -27 14 -84 33 -125 42 -41 10 -109 30 -150 46
-69 25 -88 27 -230 29 -85 1 -207 5 -270 8 -71 4 -173 1 -265 -8z" fill="{{accent}}"/>
<path d="M19200 11225 c0 -17 39 -35 76 -35 29 0 32 25 5 40 -30 16 -81 13
-81 -5z" fill="{{accent}}"/>
<path d="M19345 11160 c-10 -16 5 -31 54 -53 25 -11 60 -32 78 -46 17 -14 62
-44 99 -66 92 -54 137 -100 159 -160 9 -27 46 -108 80 -180 35 -71 82 -177
105 -235 84 -210 142 -366 155 -414 8 -27 25 -76 38 -110 29 -71 60 -160 92
-267 13 -42 35 -102 48 -135 14 -32 31 -85 38 -117 51 -232 79 96 34 407 -8
60 -13 116 -11 125 13 43 29 203 35 358 5 145 9 176 24 190 66 66 126 -199
147 -642 5 -121 17 -315 25 -430 8 -116 17 -359 20 -540 8 -531 28 -657 139
-871 31 -60 56 -119 56 -132 0 -59 33 -153 59 -169 14 -9 40 -31 58 -50 20
-20 43 -34 60 -35 78 -4 120 -3 142 4 38 13 115 12 142 -3 13 -7 27 -13 31
-14 3 0 9 -3 13 -7 4 -4 13 -4 21 -1 8 3 20 0 28 -6 7 -6 15 -8 18 -6 3 3 25
-1 49 -8 123 -40 151 -47 159 -42 5 3 18 1 30 -5 44 -22 58 -27 145 -54 50
-15 97 -32 105 -37 43 -26 180 -89 194 -89 9 0 19 -7 22 -15 4 -8 12 -15 19
-15 6 0 20 -9 29 -19 10 -10 32 -21 49 -24 104 -17 147 -44 147 -92 0 -44 38
-113 70 -130 17 -9 30 -20 30 -25 0 -6 7 -10 15 -10 8 0 15 -4 15 -9 0 -5 6
-16 13 -23 7 -7 20 -25 30 -40 21 -34 43 -36 66 -6 17 20 19 21 42 5 13 -10
19 -17 14 -18 -6 0 6 -6 25 -13 23 -9 39 -10 47 -4 7 5 17 7 23 3 20 -13 69
47 71 85 0 19 4 46 9 60 11 38 30 -15 30 -84 0 -30 11 -84 25 -126 16 -46 29
-116 35 -184 13 -154 26 -160 42 -19 5 48 19 113 30 143 40 109 49 157 59 320
16 253 -4 551 -41 620 -5 9 -18 63 -30 120 -11 57 -27 114 -34 125 -8 12 -24
55 -36 96 -12 41 -31 90 -42 109 -11 19 -29 60 -40 90 -10 30 -29 71 -42 90
-12 19 -29 53 -36 75 -7 22 -26 59 -41 82 -16 23 -29 45 -29 50 0 13 -103 184
-163 270 -28 41 -63 92 -77 113 -163 247 -571 676 -835 880 -18 14 -69 54
-114 90 -44 36 -102 81 -127 100 -25 19 -63 49 -84 65 -72 57 -397 291 -480
345 -21 14 -83 55 -138 93 -56 37 -109 70 -119 74 -10 3 -40 23 -68 43 -27 20
-108 72 -180 115 -71 42 -155 92 -185 110 -30 18 -102 57 -160 86 -58 29 -116
60 -130 69 -14 9 -41 23 -60 30 -19 7 -50 24 -68 37 -17 13 -54 31 -81 39 -27
8 -55 21 -62 31 -28 33 -110 55 -124 33z" fill="{{accent}}"/>
<path d="M18630 10950 c-52 -5 -174 -20 -270 -34 -96 -14 -224 -30 -285 -35
-60 -6 -146 -20 -190 -31 -44 -11 -125 -27 -180 -36 -55 -9 -165 -31 -245 -50
-80 -19 -185 -43 -235 -55 -143 -33 -312 -85 -410 -124 -49 -20 -115 -42 -147
-50 -31 -7 -70 -22 -85 -33 -15 -11 -61 -28 -101 -37 -70 -17 -102 -35 -102
-56 0 -12 63 -11 119 2 52 12 111 -3 111 -28 0 -9 -19 -40 -41 -69 -23 -30
-53 -77 -68 -106 -34 -65 -56 -71 -113 -29 -49 36 -78 39 -104 10 -15 -17 -90
-77 -137 -110 -16 -12 -24 -77 -16 -130 5 -30 14 -97 19 -149 18 -158 50 -205
274 -405 273 -244 349 -326 372 -401 25 -84 12 -283 -22 -343 -59 -104 -124
-180 -219 -252 -129 -100 -162 -160 -126 -227 22 -42 81 -327 91 -442 6 -69
22 -177 36 -240 14 -63 27 -124 29 -136 3 -12 9 -75 15 -140 6 -65 17 -139 25
-164 23 -71 43 -204 50 -335 9 -156 16 -180 69 -243 46 -54 50 -62 60 -123 10
-59 74 -159 102 -159 23 0 54 33 54 59 0 51 80 138 104 114 7 -7 16 16 19 48
3 38 28 64 87 91 36 17 65 40 85 67 17 22 33 41 36 41 3 0 36 23 73 50 37 28
82 57 101 64 18 8 41 26 50 40 15 22 25 26 64 26 38 0 52 5 71 25 13 14 39 28
59 31 20 4 44 11 54 16 14 7 24 5 38 -8 19 -17 22 -17 67 5 70 35 191 50 282
37 69 -10 121 -17 165 -21 22 -2 97 -18 167 -36 154 -38 188 -58 294 -177 43
-48 92 -102 110 -120 18 -18 41 -52 52 -75 122 -258 122 -259 92 -386 -22 -88
-22 -92 -5 -118 76 -118 135 -113 135 10 0 81 26 139 96 213 45 48 68 82 85
127 12 34 35 87 50 118 15 31 42 99 59 150 34 104 55 128 110 129 54 0 80 19
122 90 22 36 43 67 48 70 4 3 25 34 46 68 22 35 48 78 59 96 55 90 166 208
231 244 7 4 14 22 16 41 4 44 30 62 56 38 10 -9 32 -19 48 -23 48 -9 59 13 60
125 0 53 4 130 8 171 8 69 6 80 -18 139 -15 35 -33 98 -41 140 -7 42 -22 99
-34 127 -11 29 -27 89 -35 134 -9 45 -27 119 -40 163 -13 45 -33 120 -45 167
-25 103 -55 209 -87 310 -13 41 -37 125 -53 186 -16 62 -40 131 -54 155 -14
24 -33 74 -43 111 -42 169 -61 48 -24 -151 11 -58 29 -171 40 -251 11 -80 24
-167 29 -195 5 -28 5 -132 -1 -240 -5 -104 -10 -243 -11 -307 -3 -133 -13
-158 -82 -192 -37 -19 -39 -19 -72 0 -66 35 -77 83 -114 494 -6 63 -19 153
-29 200 -10 47 -26 144 -35 215 -9 72 -27 164 -40 205 -13 41 -29 113 -35 159
-6 47 -22 119 -35 160 -13 42 -34 124 -45 184 -11 59 -30 128 -41 153 -11 26
-26 88 -35 138 -9 50 -27 119 -40 153 -14 33 -31 97 -39 141 -7 44 -24 100
-36 123 -12 24 -32 80 -45 124 -30 105 -71 228 -96 290 -73 182 -62 217 77
232 73 8 94 26 51 43 -36 13 -401 21 -516 10z" fill="{{accent}}"/>
<path d="M16275 10385 c-5 -2 -22 -6 -36 -9 -14 -3 -30 -16 -36 -29 -9 -19
-22 -26 -61 -31 -28 -3 -67 -18 -88 -32 -21 -15 -59 -33 -85 -40 -25 -8 -57
-22 -70 -32 -13 -11 -49 -31 -79 -46 -104 -50 -307 -189 -402 -274 -107 -95
-138 -130 -138 -154 0 -61 52 -52 133 24 137 128 252 189 326 173 29 -6 119
-62 149 -92 76 -75 112 -14 76 127 -28 107 -16 152 60 225 40 39 77 65 102 73
22 6 51 23 64 37 13 14 33 25 44 25 22 0 112 38 105 44 -7 6 -54 14 -64 11z" fill="{{accent}}"/>
<path d="M14541 9336 c-63 -75 -68 -1506 -6 -1606 3 -4 13 -63 24 -131 11 -69
28 -145 36 -169 9 -25 25 -83 36 -130 32 -134 124 -396 229 -655 46 -113 119
-264 180 -375 29 -52 65 -117 80 -145 138 -252 369 -536 579 -710 71 -58 102
-80 244 -165 97 -59 107 -82 118 -284 8 -151 57 -531 80 -621 22 -84 88 -285
107 -321 10 -22 25 -68 31 -104 7 -36 25 -87 40 -115 16 -27 34 -68 41 -90 7
-22 22 -58 34 -80 13 -22 29 -56 36 -75 7 -19 21 -47 31 -61 10 -14 31 -50 47
-80 52 -95 112 -200 197 -339 27 -44 153 -233 190 -286 17 -23 39 -55 50 -70
10 -16 33 -47 51 -69 17 -22 38 -52 45 -66 28 -52 121 -124 135 -104 26 35 -3
111 -108 283 -155 254 -185 301 -208 330 -14 17 -45 65 -70 107 -25 41 -58 97
-75 123 -16 26 -38 65 -48 87 -10 22 -27 49 -37 60 -11 11 -26 38 -35 59 -9
21 -27 56 -41 77 -13 21 -33 61 -43 90 -11 28 -27 59 -35 68 -8 9 -24 40 -35
68 -11 29 -31 70 -44 90 -13 21 -32 62 -41 91 -10 29 -28 72 -41 95 -13 23
-31 83 -39 132 -9 50 -23 113 -31 140 -49 158 -66 768 -29 990 36 209 16 407
-51 527 -15 26 -37 85 -50 130 -13 46 -32 115 -43 153 -11 39 -32 124 -47 190
-47 214 -66 266 -190 545 -18 41 -39 93 -45 115 -7 22 -23 60 -35 85 -12 25
-30 72 -40 105 -9 33 -27 78 -40 100 -12 22 -28 62 -34 89 -7 27 -25 74 -41
105 -16 31 -34 78 -40 105 -6 27 -21 67 -35 90 -13 22 -29 64 -36 91 -7 28
-25 78 -40 112 -16 35 -34 84 -40 110 -7 27 -23 66 -36 89 -13 23 -30 65 -39
94 -9 29 -34 87 -56 129 -23 42 -69 130 -103 196 -137 265 -173 333 -188 356
-8 13 -20 42 -27 64 -7 22 -23 54 -35 70 -13 17 -32 48 -43 70 -37 73 -130
158 -198 183 -34 12 -77 33 -97 46 -27 19 -38 22 -46 12z" fill="{{accent}}"/>
<path d="M15537 8553 c-11 -11 -8 -47 6 -68 8 -11 22 -40 31 -65 10 -24 32
-65 50 -90 38 -53 101 -198 112 -255 4 -22 19 -76 34 -120 15 -44 31 -96 35
-115 4 -19 24 -71 45 -115 20 -44 43 -95 50 -112 16 -41 36 -42 45 -2 7 32 -5
189 -30 389 -8 63 -12 138 -9 167 13 107 -26 183 -140 268 -125 93 -210 137
-229 118z" fill="{{accent}}"/>
<path d="M16093 8250 c-49 -20 -50 -78 -2 -170 13 -25 23 -73 30 -151 5 -63
16 -143 24 -179 8 -36 26 -135 40 -220 48 -287 177 -782 199 -760 20 20 9 255
-19 396 -14 71 -25 154 -25 184 0 77 -27 284 -45 350 -28 100 -53 254 -64 391
-10 124 -24 146 -101 164 -8 2 -25 0 -37 -5z" fill="{{accent}}"/>
<path d="M22644 6783 c-63 -149 -57 -189 18 -120 41 38 58 93 39 133 -16 35
-38 30 -57 -13z" fill="{{accent}}"/>
<path d="M22770 6345 c-13 -34 -13 -86 0 -105 19 -27 41 18 38 74 -3 56 -23
71 -38 31z" fill="{{accent}}"/>
<path d="M17529 31171 c-53 -54 -34 -111 59 -176 103 -73 212 -136 265 -155
28 -10 72 -27 97 -38 25 -11 72 -25 105 -32 33 -6 101 -24 150 -40 50 -15 128
-34 175 -40 47 -7 119 -20 160 -31 93 -23 190 -35 445 -54 110 -9 230 -20 268
-25 129 -19 448 -29 1167 -40 980 -14 1512 -27 2095 -50 270 -10 578 -22 685
-25 212 -7 337 -16 530 -40 69 -8 251 -22 405 -30 189 -10 330 -23 435 -40 85
-14 227 -30 315 -35 181 -11 195 -13 360 -46 66 -13 192 -28 281 -34 106 -7
194 -19 260 -36 55 -13 170 -31 259 -39 88 -8 190 -23 225 -34 86 -26 104 -29
245 -41 66 -6 158 -21 205 -35 47 -13 146 -31 220 -39 74 -8 164 -24 200 -35
36 -11 110 -27 165 -36 55 -9 138 -24 185 -35 47 -11 149 -29 226 -40 78 -11
160 -26 182 -34 22 -8 75 -19 118 -26 44 -6 113 -20 154 -30 41 -10 125 -28
185 -40 61 -12 132 -28 159 -36 28 -8 91 -21 140 -30 50 -8 120 -24 155 -35
64 -19 107 -24 135 -13 29 11 3 34 -61 54 -36 11 -76 29 -90 40 -15 11 -51 28
-82 36 -31 9 -74 27 -96 39 -22 13 -67 31 -100 40 -32 9 -80 27 -106 40 -26
13 -68 29 -95 36 -27 6 -64 20 -82 30 -18 11 -54 24 -80 30 -26 7 -72 24 -103
40 -30 15 -84 35 -120 44 -35 9 -82 27 -104 40 -23 13 -70 31 -105 40 -35 9
-83 28 -106 41 -23 14 -71 29 -105 35 -35 6 -93 23 -129 38 -36 16 -92 32
-124 36 -33 4 -95 20 -139 36 -43 16 -111 34 -150 40 -40 6 -99 22 -132 35
-33 13 -103 30 -155 39 -52 9 -124 25 -160 36 -36 11 -101 24 -145 30 -44 5
-126 21 -182 34 -55 13 -145 31 -200 40 -54 8 -159 26 -233 40 -143 26 -424
71 -500 80 -25 3 -142 18 -260 35 -118 16 -264 34 -325 40 -60 6 -205 22 -320
35 -116 14 -316 32 -445 40 -129 8 -363 26 -519 40 -340 30 -770 42 -1846 50
-891 7 -1781 22 -2100 35 -749 32 -722 30 -945 69 -63 11 -163 25 -222 31 -59
6 -140 21 -180 34 -40 13 -136 31 -212 41 -76 9 -166 25 -199 36 -86 27 -122
25 -158 -10z" fill="{{outline}}"/>
<path d="M6849 28725 c-31 -17 -105 -115 -129 -171 -10 -23 -32 -61 -49 -85
-17 -23 -31 -47 -31 -52 0 -6 -12 -26 -27 -46 -16 -19 -37 -49 -48 -67 -73
-114 -335 -442 -490 -613 -28 -31 -82 -92 -120 -136 -139 -159 -252 -283 -391
-425 -77 -80 -169 -176 -204 -215 -70 -77 -186 -198 -451 -470 -96 -99 -263
-270 -370 -379 -107 -110 -230 -237 -274 -282 -44 -45 -136 -139 -204 -210
-69 -71 -188 -194 -266 -274 -78 -80 -179 -187 -226 -239 -103 -116 -302 -342
-348 -396 -114 -134 -142 -165 -192 -220 -31 -33 -76 -87 -100 -119 -24 -33
-60 -79 -79 -104 -19 -25 -46 -60 -60 -78 -14 -18 -45 -58 -70 -89 -56 -72
-88 -116 -174 -246 -37 -57 -80 -122 -95 -144 -89 -132 -371 -657 -371 -691 0
-8 -11 -36 -24 -62 -13 -26 -32 -75 -41 -107 -10 -33 -30 -85 -45 -115 -15
-30 -31 -75 -35 -100 -4 -25 -18 -72 -31 -105 -60 -153 -51 -321 11 -200 22
44 87 162 150 275 23 41 60 104 83 140 23 36 56 90 73 120 50 85 120 202 139
230 24 37 80 123 140 220 29 47 64 99 77 115 13 17 49 68 80 115 56 84 95 136
131 175 11 11 31 39 45 62 14 23 31 44 37 48 6 4 23 25 37 48 14 23 53 73 87
113 34 39 84 100 111 134 243 301 658 746 945 1014 8 8 87 90 175 183 137 145
948 958 1091 1095 58 56 294 308 419 448 71 81 266 291 296 320 50 49 231 250
359 400 45 52 94 109 109 125 15 17 49 59 76 94 28 35 60 74 72 86 12 11 37
43 55 71 18 27 55 78 81 114 44 60 81 117 166 259 143 238 128 452 -31 451
-24 -1 -54 -7 -69 -15z" fill="{{outline}}"/>
<path d="M22725 26713 c-16 -2 -68 -12 -115 -23 -47 -11 -127 -27 -178 -35
-52 -9 -117 -25 -145 -35 -29 -11 -93 -28 -144 -39 -50 -11 -109 -29 -130 -39
-21 -11 -65 -25 -98 -32 -33 -7 -85 -25 -115 -41 -30 -15 -80 -33 -110 -40
-30 -6 -71 -22 -91 -36 -20 -13 -60 -30 -89 -38 -29 -8 -69 -25 -89 -38 -20
-13 -47 -27 -61 -31 -161 -48 -920 -449 -1278 -675 -318 -202 -373 -241 -482
-345 -223 -213 -164 -235 96 -37 63 48 176 124 279 186 36 22 89 55 118 74 29
18 72 44 97 57 25 14 70 39 102 57 130 74 244 134 423 225 295 148 322 161
393 188 37 14 76 31 87 38 11 7 45 21 75 31 30 9 75 28 99 41 24 13 73 33 110
44 36 11 88 31 115 45 27 14 59 25 72 25 12 0 48 14 80 31 33 17 89 37 126 45
38 8 83 23 100 34 18 11 67 27 108 36 41 9 98 27 126 40 27 13 86 31 130 40
43 9 96 25 118 36 21 11 75 26 120 35 44 8 108 26 140 40 32 13 96 33 141 42
56 13 95 28 125 50 24 17 50 31 59 31 9 0 23 5 31 10 14 9 -274 12 -345 3z" fill="{{outline}}"/>
<path d="M28362 26095 c-19 -8 -95 -24 -170 -35 -75 -11 -158 -26 -184 -34
-69 -21 -233 -44 -413 -56 -88 -7 -194 -16 -235 -21 -174 -23 -1048 -23 -1156
-1 -54 12 -166 29 -249 38 -82 9 -192 24 -243 35 -409 83 -2406 82 -2563 -1
-8 -5 -79 -20 -156 -34 -78 -14 -158 -32 -179 -41 -21 -8 -74 -25 -118 -36
-45 -11 -115 -31 -156 -44 -41 -13 -106 -34 -145 -45 -38 -12 -182 -77 -320
-145 -137 -68 -295 -145 -350 -172 -177 -87 -329 -163 -360 -180 -16 -9 -52
-28 -80 -41 -27 -13 -70 -37 -95 -52 -25 -15 -56 -31 -70 -35 -30 -9 -134 -77
-172 -113 -15 -14 -43 -35 -62 -46 -56 -35 -119 -79 -158 -111 -20 -16 -58
-45 -85 -63 -79 -53 -109 -75 -169 -122 -32 -25 -79 -61 -105 -80 -26 -19 -71
-54 -100 -77 -141 -112 -239 -188 -289 -225 -30 -23 -58 -45 -61 -50 -3 -5
-19 -19 -36 -31 -173 -125 -547 -501 -780 -783 -157 -192 -232 -274 -351 -389
-133 -128 -164 -167 -273 -342 -20 -32 -41 -73 -47 -91 -6 -18 -20 -46 -32
-61 -19 -28 -25 -48 -22 -83 4 -38 50 -17 187 86 33 25 83 61 110 81 91 65
120 86 145 109 39 35 108 62 128 49 25 -15 27 -78 4 -132 -11 -25 -25 -77 -32
-116 -6 -38 -20 -97 -30 -130 -29 -89 -89 -401 -92 -473 -3 -95 27 -108 90
-39 21 23 84 92 139 152 137 151 515 529 561 562 21 16 67 56 102 90 36 34
102 90 147 125 45 35 138 108 207 163 182 147 414 315 434 315 28 0 80 -30
137 -80 85 -72 340 -239 450 -293 22 -11 53 -29 70 -41 38 -26 160 -82 247
-112 38 -13 87 -34 110 -48 24 -14 74 -30 112 -36 37 -6 91 -22 118 -36 37
-19 82 -29 168 -39 65 -8 153 -24 196 -35 192 -51 780 -54 951 -4 48 14 141
32 205 39 85 10 130 21 167 39 28 14 81 30 119 36 81 11 95 16 142 46 19 13
53 26 75 30 22 3 63 19 92 35 28 16 71 36 96 43 25 7 59 23 76 35 16 12 48 28
70 36 42 15 146 73 221 126 25 17 81 54 125 82 205 132 508 408 651 592 32 43
76 97 97 122 20 24 37 48 37 53 0 4 16 27 35 50 19 23 35 48 35 55 0 7 15 35
34 62 18 26 36 58 40 70 4 12 20 38 36 58 16 20 36 60 46 88 9 29 29 75 44
102 15 28 31 68 35 89 9 56 53 96 102 96 70 0 528 -207 688 -311 22 -14 78
-50 125 -79 46 -30 111 -74 143 -99 32 -25 73 -55 91 -66 18 -11 63 -45 100
-75 37 -30 84 -67 105 -82 136 -98 179 -184 205 -413 9 -77 28 -201 42 -275
28 -156 43 -475 44 -947 0 -364 10 -397 69 -233 76 212 199 526 256 650 19 41
52 118 75 170 22 52 56 127 75 165 19 39 41 86 49 105 8 19 22 46 30 60 9 14
28 52 44 85 45 96 173 339 186 355 7 8 21 35 30 59 10 25 26 57 36 71 10 14
30 50 45 80 14 30 44 87 65 125 43 76 84 153 153 285 142 273 135 267 401 320
265 52 808 206 851 240 6 4 50 20 98 35 49 15 103 35 120 45 18 10 52 24 77
30 25 6 63 22 85 34 22 13 58 29 80 36 22 7 65 25 95 41 113 57 245 119 255
119 6 0 28 12 49 26 22 15 60 33 85 41 25 7 56 23 69 36 13 12 47 33 75 47 83
40 81 74 -5 67 -345 -30 -1071 -28 -1293 3 -101 14 -280 30 -515 45 -124 8
-259 21 -301 29 -42 9 -149 22 -238 31 -381 36 -558 76 -583 130 -19 43 -15
45 322 210 63 31 121 62 130 69 8 8 35 23 60 35 25 11 81 41 125 66 44 25 101
56 128 70 26 14 47 30 47 35 0 15 -90 11 -128 -5z m-4842 -1439 c174 -3 215
-22 153 -71 -34 -28 -26 -39 45 -71 82 -37 127 -51 220 -68 118 -22 168 -65
101 -88 -44 -15 -54 -42 -27 -68 12 -11 19 -20 15 -20 -4 0 -3 -9 3 -19 7 -14
7 -20 -2 -23 -11 -4 -13 -16 -21 -86 -2 -22 34 -44 92 -56 8 -1 16 -7 18 -13
2 -6 20 -9 41 -7 20 1 44 -3 52 -10 8 -8 25 -17 37 -20 13 -4 24 -18 28 -35
19 -87 158 -101 158 -16 0 13 2 24 6 23 3 -1 14 2 24 7 10 4 20 5 23 2 3 -3
18 -2 33 3 39 11 75 -15 48 -35 -36 -26 -14 -53 70 -87 26 -10 30 -15 20 -27
-10 -12 -9 -12 10 0 12 7 19 16 15 19 -14 10 -7 65 9 68 34 6 60 -61 31 -78
-14 -8 -14 -9 -2 -10 13 0 13 -1 0 -10 -12 -8 -10 -10 10 -11 21 -1 19 -3 -12
-13 -43 -13 -72 -36 -46 -36 9 0 20 5 23 10 3 6 13 10 22 10 12 0 13 -3 4 -14
-8 -10 -9 -16 -1 -21 33 -20 0 -111 -66 -180 -154 -163 -214 -220 -269 -258
-33 -22 -87 -62 -120 -88 -96 -74 -457 -256 -590 -296 -27 -8 -67 -24 -87 -34
-20 -10 -74 -28 -120 -38 -46 -11 -101 -27 -123 -37 -50 -21 -174 -43 -241
-44 -29 0 -80 -9 -115 -19 -149 -45 -617 -52 -764 -12 -89 25 -166 38 -283 50
-70 8 -104 16 -137 36 -24 14 -72 34 -106 45 -34 10 -85 34 -113 54 -30 20
-74 39 -108 46 -37 7 -64 19 -75 33 -10 12 -29 31 -43 42 -36 29 -34 41 6 42
56 2 87 37 79 90 -6 41 -5 43 30 57 19 8 38 22 41 31 4 9 19 22 34 30 48 25
107 142 87 173 -22 38 -84 67 -137 67 -35 -1 -48 3 -57 19 -16 29 24 105 69
130 18 10 44 29 58 41 14 13 46 33 72 45 26 12 54 34 64 48 9 15 33 42 53 59
36 33 36 33 8 58 -37 33 -32 43 49 104 37 28 77 64 88 81 35 48 130 119 188
139 29 10 72 28 93 38 22 11 67 28 100 38 33 9 75 25 95 35 56 29 220 70 278
70 38 0 62 6 83 21 51 36 153 77 260 103 57 15 131 35 164 46 47 15 77 18 140
14 44 -3 141 -6 215 -8z" fill="{{outline}}"/>
<path d="M26419 21304 c-209 -112 -529 -135 -1857 -133 -629 1 -936 -7 -1287
-30 -77 -6 -228 -13 -335 -16 -254 -8 -413 -20 -585 -45 -77 -12 -222 -27
-322 -35 -100 -8 -251 -28 -335 -44 -84 -16 -194 -34 -244 -39 -55 -6 -118
-21 -158 -37 -43 -17 -99 -30 -159 -35 -98 -10 -140 -21 -152 -41 -23 -36 68
-37 270 -5 83 14 184 28 225 31 41 4 147 17 235 30 88 13 239 31 335 40 96 9
249 25 340 35 438 51 1668 97 2245 85 329 -7 1083 8 1265 25 307 29 616 147
586 225 -7 20 -12 19 -67 -11z" fill="{{outline}}"/>
<path d="M7180 20515 c-36 -6 -108 -20 -160 -29 -52 -9 -129 -28 -171 -42 -42
-14 -114 -35 -160 -49 -96 -27 -192 -59 -264 -88 -27 -11 -85 -32 -127 -48
-43 -16 -88 -35 -100 -43 -13 -8 -49 -21 -82 -31 -32 -9 -75 -27 -95 -40 -20
-13 -49 -27 -66 -31 -28 -7 -203 -93 -256 -127 -13 -8 -42 -20 -64 -27 -22 -7
-61 -28 -87 -45 -26 -18 -59 -35 -73 -39 -15 -4 -49 -22 -77 -41 -28 -19 -54
-35 -59 -35 -4 0 -35 -17 -68 -37 -33 -21 -90 -56 -126 -78 -309 -187 -650
-454 -657 -514 -9 -75 43 -52 327 146 50 35 142 91 380 233 167 98 675 360
701 360 3 0 46 20 96 45 50 25 98 45 106 45 9 0 34 11 56 24 23 13 68 32 100
41 32 9 73 25 90 35 17 11 64 28 105 39 40 11 85 28 99 37 31 20 196 77 334
114 59 16 121 36 138 45 17 9 75 25 128 35 53 10 120 27 148 38 28 12 80 26
115 32 125 22 164 50 110 80 -27 14 -261 11 -341 -5z" fill="{{outline}}"/>
<path d="M26250 20370 c-85 -85 39 -212 128 -130 53 49 7 150 -69 150 -25 0
-46 -7 -59 -20z" fill="{{outline}}"/>
<path d="M7470 19674 c-336 -19 -498 -34 -570 -50 -36 -8 -127 -24 -202 -35
-76 -11 -167 -29 -203 -40 -37 -11 -101 -27 -143 -35 -178 -34 -428 -125 -597
-218 -131 -72 -161 -90 -187 -107 -14 -11 -29 -19 -33 -19 -4 0 -21 -11 -37
-25 -17 -14 -49 -35 -72 -47 -22 -11 -55 -32 -72 -47 -17 -14 -52 -42 -78 -61
-228 -170 -397 -320 -681 -605 -238 -238 -384 -394 -460 -490 -22 -27 -57 -70
-78 -95 -21 -25 -52 -61 -68 -80 -17 -19 -40 -49 -52 -67 -12 -17 -42 -58 -67
-91 -52 -68 -105 -140 -137 -186 -124 -175 -180 -253 -248 -346 -205 -280
-252 -345 -280 -380 -57 -74 -93 -125 -110 -160 -21 -41 -40 -65 -149 -184
-264 -290 -320 -347 -470 -481 -41 -36 -200 -163 -291 -232 -91 -69 -121 -113
-77 -113 38 0 255 41 295 56 23 8 78 28 122 44 44 15 94 34 112 41 44 18 73
-7 73 -64 0 -57 -121 -241 -335 -506 -55 -69 -120 -150 -144 -180 -80 -100
-519 -529 -641 -626 -249 -197 -308 -250 -296 -263 15 -15 113 -4 162 18 27
12 96 30 154 41 57 11 125 30 150 43 26 13 73 29 105 35 32 6 88 24 124 41 36
16 86 34 111 41 25 6 59 20 76 30 18 11 56 28 85 38 105 37 423 190 566 272
56 33 104 59 106 59 9 0 155 92 305 193 185 124 203 127 460 73 64 -13 153
-29 197 -35 44 -6 127 -25 184 -41 57 -17 111 -30 120 -30 30 0 419 -114 806
-236 198 -62 211 -43 64 94 -209 195 -308 302 -451 483 -42 53 -96 119 -121
147 -109 122 -120 198 -68 467 65 333 218 690 458 1066 117 183 158 192 328
73 89 -62 345 -180 424 -194 32 -6 86 -22 120 -36 35 -14 109 -31 169 -39 59
-8 134 -24 167 -37 101 -38 734 -35 851 5 45 15 126 32 185 38 73 8 123 19
169 39 36 16 94 34 129 40 35 6 87 24 115 40 28 16 68 32 89 35 21 4 53 18 71
30 19 13 58 30 88 39 30 8 64 27 77 40 13 14 46 33 72 41 27 9 51 21 54 26 3
5 52 39 108 76 116 76 141 95 276 211 100 87 115 102 246 250 115 130 176 217
229 328 13 28 35 67 49 87 14 21 28 56 32 78 4 23 20 69 36 103 17 37 32 94
39 146 6 47 23 128 37 180 23 86 25 106 19 212 -7 133 0 151 68 164 60 11 703
-23 766 -40 30 -9 122 -23 203 -31 97 -10 173 -24 217 -39 71 -25 250 -46 250
-30 0 14 -71 85 -139 139 -35 28 -77 62 -95 76 -17 14 -44 33 -61 42 -16 8
-53 30 -81 48 -99 65 -205 126 -309 178 -60 29 -112 76 -134 118 -15 29 11 57
66 72 21 6 54 21 74 35 19 13 52 31 73 40 72 30 186 107 186 126 0 26 -20 31
-160 41 -69 4 -143 13 -165 19 -39 9 -229 32 -385 45 -41 3 -126 15 -188 25
-107 19 -377 38 -842 60 -279 13 -658 11 -940 -6z m240 -1061 c48 -7 54 -11
51 -28 -3 -11 -4 -31 -3 -45 2 -14 4 -54 6 -90 4 -65 4 -65 43 -66 34 -1 157
-19 208 -31 11 -2 35 -6 54 -7 19 -1 39 -10 46 -19 7 -9 16 -13 21 -9 4 4 2
-1 -5 -11 -12 -15 -12 -17 2 -12 17 7 32 -10 17 -20 -6 -4 -7 -11 -4 -17 5 -8
1 -9 -10 -5 -9 4 -14 3 -11 -2 3 -5 1 -12 -4 -15 -17 -11 5 -80 23 -73 7 3 17
-3 24 -13 6 -11 23 -18 44 -18 18 -1 50 -2 72 -2 23 -1 42 3 47 12 5 7 9 10 9
6 0 -4 12 -3 26 3 20 7 31 6 43 -5 9 -8 42 -17 74 -21 32 -4 64 -14 72 -21 7
-8 18 -14 24 -14 6 0 11 -9 11 -21 0 -52 62 -75 106 -38 21 17 39 -2 26 -27
-5 -11 -13 -39 -17 -63 -8 -51 -30 -107 -45 -116 -5 -3 -17 -30 -25 -60 -9
-29 -24 -64 -34 -77 -10 -13 -26 -39 -36 -58 -48 -94 -426 -470 -472 -470 -7
0 -32 -17 -56 -39 -110 -100 -523 -298 -684 -327 -21 -4 -86 -22 -144 -40 -82
-25 -133 -34 -220 -39 -64 -4 -144 -16 -183 -27 -109 -31 -391 -21 -532 20
-55 16 -130 33 -165 37 -158 17 -174 29 -174 127 0 72 1 73 27 76 26 3 68 47
68 69 0 5 11 20 25 33 16 15 22 27 16 34 -9 11 30 90 46 92 42 8 54 19 60 57
4 27 12 41 24 44 11 3 18 14 18 27 -1 11 5 36 12 55 11 27 11 35 2 38 -7 3
-13 9 -13 15 0 5 -7 16 -15 24 -8 9 -15 13 -15 10 0 -3 -9 2 -20 12 -11 9 -29
25 -40 35 -11 9 -20 14 -20 11 0 -4 -7 -1 -15 6 -33 28 17 109 157 254 74 75
86 99 67 123 -12 14 -57 37 -69 35 -3 0 -16 8 -29 17 -38 29 -23 62 40 91 51
24 91 65 103 106 19 62 315 216 496 258 30 7 93 32 140 56 91 46 280 117 420
156 88 24 156 26 290 7z" fill="{{outline}}"/>
<path d="M6410 17866 c0 -34 35 -74 87 -98 25 -12 48 -31 53 -44 11 -28 20
-33 86 -49 54 -12 54 -12 48 9 -8 30 -39 54 -85 66 -22 6 -42 17 -45 25 -3 8
-25 25 -48 39 -24 14 -51 37 -60 51 -21 31 -36 32 -36 1z" fill="{{outline}}"/>
<path d="M6955 17620 c-11 -4 -40 -6 -65 -4 -25 2 -36 1 -26 -2 10 -4 28 -14
38 -24 33 -31 218 -44 218 -16 0 8 -11 12 -30 11 -19 -1 -34 4 -40 14 -5 9
-10 12 -10 7 0 -5 -6 -4 -12 1 -20 15 -51 21 -73 13z" fill="{{outline}}"/>
<path d="M10140 16635 c-102 -36 -392 -188 -505 -265 -22 -15 -56 -35 -75 -44
-19 -9 -62 -37 -95 -62 -33 -24 -83 -60 -112 -79 -28 -19 -54 -39 -58 -44 -3
-6 -28 -22 -55 -37 -28 -15 -50 -31 -50 -35 0 -4 -15 -17 -33 -28 -19 -11 -45
-31 -59 -44 -14 -14 -41 -35 -60 -48 -40 -28 -84 -63 -188 -149 -141 -118
-338 -277 -390 -315 -14 -11 -51 -41 -81 -66 -30 -26 -79 -65 -109 -88 -60
-46 -128 -99 -202 -158 -26 -21 -91 -72 -145 -113 -54 -41 -114 -87 -133 -103
-19 -16 -48 -40 -65 -53 -16 -13 -46 -37 -65 -53 -19 -15 -53 -40 -75 -54 -22
-14 -71 -49 -110 -76 -377 -271 -733 -455 -986 -511 -96 -21 -139 -41 -139
-65 0 -45 234 -34 333 17 21 10 64 27 96 37 33 10 72 27 88 38 15 11 48 28 73
37 25 10 65 30 90 45 25 15 79 47 120 71 99 57 326 204 475 309 66 47 140 99
166 115 25 17 63 45 85 63 21 18 80 64 129 102 131 101 241 192 560 458 39 32
102 83 140 113 39 30 97 78 130 106 33 29 101 82 150 120 220 165 294 221 331
247 45 31 150 107 212 151 82 60 138 97 217 145 88 54 174 107 250 156 28 18
64 41 81 51 124 76 168 110 159 124 -8 14 -21 12 -95 -15z" fill="{{outline}}"/>
<path d="M14130 15916 c-5 -15 -10 -42 -10 -59 -1 -56 -80 -362 -104 -399 -8
-13 -22 -49 -31 -80 -9 -32 -45 -115 -79 -185 -213 -430 -212 -402 -23 -624
185 -217 520 -422 585 -357 18 18 16 23 -30 77 -24 27 -58 71 -76 97 -18 27
-43 65 -57 84 -13 19 -51 80 -84 135 -33 55 -73 122 -90 150 -63 102 -63 213
0 350 50 108 72 776 27 821 -16 16 -18 16 -28 -10z" fill="{{outline}}"/>
<path d="M17738 11539 c-59 -5 -142 -17 -185 -28 -43 -10 -132 -27 -198 -36
-66 -9 -148 -25 -183 -35 -34 -11 -119 -30 -190 -44 -70 -13 -151 -34 -180
-45 -29 -12 -86 -26 -125 -31 -40 -6 -93 -21 -119 -34 -26 -14 -82 -32 -125
-41 -43 -10 -96 -28 -119 -40 -22 -13 -71 -31 -108 -39 -37 -9 -87 -29 -109
-45 -25 -18 -62 -32 -92 -36 -55 -8 -105 -30 -105 -47 0 -16 73 -2 145 28 33
14 96 34 140 45 44 10 106 30 137 44 31 13 92 31 135 39 43 8 119 28 168 44
50 16 121 35 159 41 37 7 97 23 133 37 36 13 107 29 157 34 50 6 129 24 176
40 56 19 124 32 200 40 65 6 145 21 185 34 89 30 117 35 246 45 112 9 142 17
118 32 -16 10 -112 9 -261 -2z" fill="{{outline}}"/>
<path d="M18548 11457 c7 -9 46 -23 85 -32 40 -9 89 -28 110 -42 42 -29 148
-45 161 -25 9 15 -18 28 -89 42 -33 6 -77 23 -97 37 -47 32 -194 49 -170 20z" fill="{{outline}}"/>
<path d="M18670 10923 c-19 -2 -78 -10 -130 -17 -139 -21 -168 -25 -360 -41
-114 -10 -204 -24 -260 -39 -47 -14 -130 -30 -185 -36 -55 -7 -134 -22 -175
-35 -41 -13 -116 -31 -166 -39 -50 -9 -127 -26 -170 -40 -44 -13 -110 -31
-149 -40 -151 -35 -287 -112 -283 -161 2 -36 -50 -105 -122 -160 -53 -40 -118
-120 -141 -173 -28 -64 -100 -78 -186 -34 -30 15 -34 15 -84 -8 -69 -33 -84
-56 -75 -123 4 -29 11 -107 15 -173 11 -164 6 -156 234 -362 192 -174 353
-344 385 -407 49 -95 30 -354 -33 -438 -8 -12 -31 -45 -50 -73 -32 -48 -136
-147 -217 -207 -106 -78 -55 -169 66 -117 25 10 58 21 74 23 17 2 32 13 40 30
17 35 61 69 86 65 23 -3 30 -88 8 -96 -48 -16 -77 -49 -77 -88 0 -23 -5 -47
-11 -55 -38 -48 -73 -162 -44 -144 7 4 7 -3 0 -20 -15 -41 -12 -87 10 -122 19
-33 13 -93 -11 -93 -12 0 -12 -43 0 -55 20 -23 20 -71 0 -89 -20 -16 -23 -56
-4 -46 15 8 23 -40 24 -156 1 -69 7 -130 17 -164 20 -69 23 -81 25 -141 3 -48
8 -57 23 -42 4 5 11 8 14 8 30 3 51 20 57 46 9 39 31 47 57 22 24 -25 12 -58
-27 -73 -19 -7 -29 -23 -41 -69 -14 -48 -21 -60 -40 -64 -17 -3 -24 0 -24 12
0 13 -2 13 -9 3 -19 -31 -11 -320 11 -347 30 -38 38 -34 155 82 109 109 408
341 537 418 37 22 87 54 111 72 23 17 96 57 161 88 66 31 139 67 164 80 25 13
68 29 95 35 28 6 76 22 107 36 32 14 97 32 145 40 47 8 100 22 117 31 16 8 98
26 180 39 83 13 177 32 208 43 136 47 957 63 1100 21 72 -21 85 -70 35 -127
-83 -95 -277 -443 -277 -498 0 -116 36 -91 160 111 108 178 227 327 398 502
95 99 104 125 69 224 -15 40 -31 93 -37 118 -6 25 -22 72 -34 105 -13 33 -27
89 -31 125 -4 36 -20 97 -35 136 -16 39 -33 106 -40 150 -6 43 -22 106 -35
139 -13 33 -30 95 -39 138 -25 130 -56 139 -55 17 0 -36 6 -101 14 -145 46
-253 4 -535 -92 -628 -126 -120 -282 14 -283 243 -1 30 -10 120 -20 200 -11
80 -29 219 -40 310 -24 201 -37 278 -62 349 -11 32 -18 82 -18 123 0 51 -8 93
-30 156 -16 48 -34 127 -40 175 -6 53 -23 119 -41 165 -20 50 -34 108 -40 165
-5 50 -18 108 -30 135 -12 25 -30 89 -41 141 -10 52 -30 119 -42 150 -13 31
-31 84 -40 118 -8 35 -24 80 -35 101 -11 22 -27 69 -35 106 -9 37 -27 86 -40
109 -38 65 -52 160 -31 214 27 71 24 73 -122 71 -70 0 -144 -3 -163 -5z
m-1626 -3575 c-11 -38 -40 -50 -51 -22 -7 18 20 44 45 44 9 0 11 -7 6 -22z" fill="{{outline}}"/>
<path d="M19773 10884 c13 -69 33 -123 75 -198 25 -45 56 -108 70 -141 64
-157 107 -267 134 -345 16 -46 38 -99 49 -116 10 -17 19 -44 19 -60 0 -16 12
-54 26 -84 14 -30 46 -111 71 -180 25 -69 49 -129 54 -135 14 -14 11 87 -7
208 -14 98 -14 115 0 175 8 37 17 104 20 149 2 45 9 90 15 100 5 11 10 52 9
90 0 60 5 82 32 142 39 85 35 105 -32 143 -24 14 -81 49 -128 78 -47 29 -103
62 -125 73 -22 11 -53 30 -70 42 -34 26 -146 75 -189 82 -27 5 -28 4 -23 -23z" fill="{{outline}}"/>
<path d="M20450 10503 c0 -10 16 -55 34 -101 43 -103 46 -117 56 -260 5 -64
16 -212 24 -329 8 -117 20 -250 26 -295 11 -83 26 -495 34 -898 2 -131 10
-256 20 -320 45 -288 52 -296 153 -214 93 76 402 220 522 244 54 11 118 28
142 37 37 14 118 18 530 26 537 10 546 9 570 -50 7 -15 29 -64 50 -108 21 -44
41 -93 45 -110 3 -16 20 -51 36 -77 16 -26 34 -64 40 -85 5 -21 25 -72 43
-113 19 -42 36 -102 40 -135 4 -33 15 -111 26 -174 23 -136 24 -285 4 -471
-28 -265 26 -337 92 -122 33 105 26 554 -10 652 -15 41 -34 120 -43 175 -10
66 -23 113 -39 141 -14 23 -30 66 -36 96 -6 29 -24 76 -39 103 -16 28 -33 70
-40 95 -6 25 -24 63 -39 85 -16 22 -34 58 -41 80 -6 22 -22 56 -34 75 -13 19
-33 55 -45 80 -12 25 -38 72 -59 106 -20 33 -46 75 -57 93 -11 18 -33 51 -50
73 -16 23 -41 58 -55 78 -28 43 -70 98 -115 151 -16 20 -50 62 -75 94 -183
234 -432 483 -674 672 -23 18 -66 53 -96 77 -58 48 -251 195 -335 256 -27 20
-68 49 -90 66 -57 41 -95 68 -220 152 -60 41 -117 80 -125 87 -19 17 -149 85
-161 85 -5 0 -9 -8 -9 -17z" fill="{{outline}}"/>
<path d="M15842 10149 c-13 -5 -35 -18 -49 -28 -13 -11 -41 -25 -61 -32 -20
-6 -54 -27 -75 -45 -20 -19 -41 -34 -47 -34 -12 0 -45 -49 -37 -56 3 -3 47 -1
99 6 169 21 158 18 174 57 9 19 27 53 41 74 38 58 18 84 -45 58z" fill="{{outline}}"/>
<path d="M14573 9240 c-14 -6 -26 -24 -33 -51 -34 -126 -27 -1242 8 -1367 12
-40 26 -121 33 -180 6 -59 20 -132 31 -162 11 -30 30 -101 43 -157 13 -56 33
-124 44 -150 11 -26 27 -76 35 -110 9 -35 25 -82 37 -105 11 -22 28 -64 36
-91 8 -28 25 -73 38 -102 13 -28 34 -78 46 -111 28 -78 187 -399 243 -494 25
-41 59 -100 76 -130 123 -219 431 -558 605 -666 25 -16 60 -39 78 -51 18 -12
56 -37 85 -54 29 -17 66 -50 83 -75 51 -75 62 -58 78 116 7 69 18 160 26 204
33 173 19 295 -40 356 -22 23 -38 52 -45 83 -6 27 -23 74 -39 105 -17 36 -32
88 -39 141 -7 45 -23 108 -37 140 -13 31 -29 91 -35 134 -6 45 -20 98 -35 127
-14 27 -25 55 -25 61 0 6 -18 47 -40 92 -22 44 -47 105 -55 136 -8 31 -49 124
-90 206 -62 123 -77 163 -85 220 -6 44 -19 89 -36 118 -14 26 -33 73 -41 105
-8 31 -24 73 -36 92 -12 21 -23 62 -27 103 -5 47 -14 78 -29 98 -12 16 -29 61
-37 99 -18 90 -28 113 -58 143 -16 16 -27 41 -31 73 -7 57 -75 215 -110 256
-14 16 -29 47 -36 70 -6 23 -23 57 -39 77 -16 20 -32 49 -36 64 -3 16 -21 50
-39 76 -18 26 -37 63 -43 82 -5 19 -23 56 -41 83 -17 28 -31 57 -31 65 0 9
-14 43 -30 76 -16 33 -30 65 -30 70 0 18 -109 143 -143 164 -38 23 -122 35
-154 21z" fill="{{outline}}"/>
<path d="M15596 8465 c-9 -23 9 -59 59 -120 25 -31 45 -60 45 -65 0 -6 15 -27
34 -47 37 -42 42 -54 51 -128 7 -54 28 -86 45 -69 7 7 8 24 2 51 -7 30 -5 49
9 84 35 85 27 118 -40 180 -117 107 -191 149 -205 114z" fill="{{outline}}"/>
<path d="M16363 3810 c3 -23 18 -66 32 -94 15 -28 36 -75 46 -104 10 -29 27
-65 37 -80 11 -15 30 -49 44 -77 14 -27 44 -84 68 -125 24 -41 55 -97 69 -125
15 -27 41 -70 59 -94 17 -24 32 -49 32 -54 0 -6 14 -28 30 -51 38 -51 119
-167 197 -282 12 -18 29 -36 36 -41 8 -4 26 -32 41 -60 24 -49 50 -66 69 -47
15 15 -25 88 -140 257 -35 51 -72 110 -84 132 -12 22 -34 58 -50 80 -42 58
-99 145 -116 180 -9 17 -28 46 -43 65 -14 19 -32 51 -40 70 -7 19 -28 56 -47
81 -18 26 -33 51 -33 57 0 6 -11 23 -24 39 -13 15 -37 57 -53 93 -16 36 -37
71 -46 78 -9 8 -23 38 -32 68 -21 73 -61 99 -52 34z" fill="{{outline}}"/>
</g>
</svg>
